
<!-- Generator: Adobe Illustrator 19.2.1, SVG Export Plug-In . SVG Version: 6.00 Build 0)  -->
<svg version="1.1" id="Layer_1" xmlns="http://www.w3.org/2000/svg" xmlns:xlink="http://www.w3.org/1999/xlink" x="0px" y="0px"
	 viewBox="0 0 80 40" style="enable-background:new 0 0 80 40;" xml:space="preserve">
<style type="text/css">
	.st0{fill:#FFFFFF;}
</style>
<g>
	<path class="st0" d="M28.3,28.9c-0.4,0.2-0.9,0.3-1.3,0.1c-0.7-0.3-1-1.1-0.6-1.8c0.3-0.7,1.1-1,1.8-0.6c0.4,0.2,0.7,0.6,0.8,1
		c0.1,0-0.6,0.1-0.6,0.1c0-0.2-0.2-0.5-0.4-0.6c-0.4-0.2-0.8,0-0.9,0.3c-0.2,0.4,0,0.8,0.3,0.9c0.2,0.1,0.5,0.1,0.7,0L28.3,28.9z"/>
	<path class="st0" d="M30.7,29.6c0.4,0.1,0.8-0.1,0.9-0.5c0.1-0.4-0.1-0.8-0.5-0.9c-0.4-0.1-0.8,0.1-0.9,0.5
		C30.1,29.1,30.3,29.5,30.7,29.6 M31.3,27.6c0.7,0.2,1.1,1,0.9,1.7c-0.2,0.7-1,1.1-1.7,0.9c-0.7-0.2-1.1-1-0.9-1.7
		C29.8,27.8,30.5,27.4,31.3,27.6"/>
	<polygon class="st0" points="33.1,30.9 33.6,28.3 34.2,28.4 33.9,30.4 34.8,30.6 34.7,31.2 	"/>
	<polygon class="st0" points="36,31.3 36.2,28.7 36.9,28.8 36.7,30.8 37.6,30.9 37.6,31.5 	"/>
	<polygon class="st0" points="38.8,31.6 38.9,28.9 40.6,29 40.6,29.5 39.5,29.5 39.5,30 40.5,30 40.4,30.6 39.5,30.6 39.5,31 
		40.6,31.1 40.6,31.6 	"/>
	<path class="st0" d="M44.2,30.9c-0.2,0.4-0.6,0.6-1.1,0.7c-0.7,0-1.4-0.5-1.4-1.3c0-0.8,0.5-1.4,1.3-1.4c0.5,0,0.9,0.2,1.2,0.6
		c0,0-0.5,0.4-0.5,0.4c-0.1-0.2-0.4-0.3-0.6-0.3c-0.4,0-0.7,0.4-0.7,0.7c0,0.4,0.3,0.7,0.7,0.7c0.3,0,0.5-0.2,0.6-0.4L44.2,30.9z"/>
	<polygon class="st0" points="45.1,29.3 45,28.8 47,28.5 47.1,29.1 46.4,29.1 46.7,31.2 46,31.3 45.8,29.2 	"/>
	<rect x="48.3" y="28.2" transform="matrix(0.9786 -0.206 0.206 0.9786 -5.0385 10.6539)" class="st0" width="0.6" height="2.6"/>
	<path class="st0" d="M51.7,29.5c0.4-0.1,0.6-0.5,0.5-0.9c-0.1-0.4-0.5-0.6-0.9-0.5c-0.4,0.1-0.6,0.5-0.5,0.9
		C50.9,29.4,51.3,29.6,51.7,29.5 M51,27.5c0.7-0.2,1.5,0.2,1.7,0.9c0.2,0.7-0.2,1.5-0.9,1.7c-0.7,0.2-1.5-0.2-1.7-0.9
		C49.9,28.5,50.3,27.7,51,27.5"/>
	<polygon class="st0" points="56.3,28.2 55.8,28.4 54.1,27.5 54.8,28.9 54.2,29.2 53.1,26.8 53.6,26.6 55.2,27.5 54.5,26.1 
		55.1,25.8 	"/>
	<path class="st0" d="M25.5,19.9L25.5,19.9c-0.1,0.2-0.1,0.4-0.2,0.6c-0.1,0.2-0.1,0.3-0.2,0.4c-0.1,0.1-0.1,0.2-0.2,0.3
		c-0.1,0.2-0.3,0.3-0.5,0.4c-0.2,0.1-0.4,0.1-0.6,0.1h-1.1v-3.3c0-0.3,0.1-0.4,0.2-0.6c0.1-0.1,0.3-0.2,0.6-0.2h0.4v-0.2h-3v0.2H21
		c0.5,0,0.7,0.2,0.7,0.7V21c0,0.5-0.2,0.8-0.7,0.8h-0.2l0,0.3h4.9v-2.1H25.5z"/>
	<path class="st0" d="M30.8,17.5v0.2l0,0c0.2,0,0.3,0,0.3,0c0.1,0,0.2,0.1,0.2,0.1c0.3,0.2,0.4,0.5,0.4,1l0,1.5
		c0,0.4-0.1,0.8-0.3,1.1c-0.1,0.1-0.4,0.2-0.6,0.3c-0.2,0.1-0.5,0.1-0.7,0.1c-0.3,0-0.5,0-0.7-0.1c-0.2-0.1-0.4-0.2-0.5-0.4
		c-0.1-0.2-0.2-0.4-0.2-0.7v-2.1c0-0.3,0.1-0.4,0.2-0.6c0.1-0.1,0.3-0.2,0.6-0.2H30v-0.2H27v0.2h0.2c0.5,0,0.7,0.2,0.7,0.7v2.1
		c0,0.5,0.2,0.8,0.5,1.1c0.2,0.1,0.4,0.2,0.7,0.3c0.3,0.1,0.8,0.1,1.1,0.1c0.5,0,0.9-0.1,1.2-0.2c0.2-0.1,0.3-0.2,0.5-0.3
		c0.2-0.2,0.4-0.6,0.4-1.1v-1.7c0-0.2,0-0.4,0.1-0.5c0.1-0.1,0.1-0.3,0.3-0.3c0.1-0.1,0.2-0.1,0.2-0.1c0.1,0,0.1,0,0.3-0.1l0,0v-0.2
		H30.8z"/>
	<path class="st0" d="M40.2,21.8c-0.2,0-0.3-0.1-0.5-0.2c-0.2-0.1-0.4-0.3-0.6-0.5l-1.4-1.6l0.8-0.8c0.3-0.3,0.6-0.5,1-0.7
		c0,0,0.1,0,0.1,0c0.2-0.1,0.3-0.2,0.6-0.2l0,0v-0.2h-2.4v0.2l0.1,0c0.2,0,0.3,0,0.4,0.1c0.1,0.1,0.2,0.2,0.2,0.3
		c0,0.1-0.1,0.3-0.2,0.4l-0.7,0.7l-0.8-0.9c0-0.1-0.1-0.1-0.1-0.2c0-0.1,0-0.1,0-0.2c0-0.1,0-0.1,0.1-0.2c0.1,0,0.2-0.1,0.4-0.1h0.1
		v-0.2h-2.9v0.2h0.1c0.4,0,0.8,0.2,1.1,0.6l1.4,1.6l-0.8,0.9c-0.3,0.3-0.6,0.5-1,0.7c-0.1,0.1-0.3,0.1-0.4,0.2c0,0-0.1,0-0.1,0
		c-0.1,0-0.2,0.1-0.3,0.1l0,0V22h2.7v-0.2h-0.2c-0.2,0-0.4,0-0.5-0.1c-0.1-0.1-0.1-0.1-0.1-0.3c0-0.1,0-0.1,0-0.2
		c0-0.1,0-0.1,0.1-0.2c0-0.1,0.1-0.1,0.2-0.2l0.7-0.7l0.9,1.1c0.1,0.1,0.1,0.2,0.1,0.3c0,0.1,0,0.1-0.1,0.2c-0.1,0-0.2,0.1-0.4,0.1
		h-0.3V22h3v-0.2H40.2z"/>
	<path class="st0" d="M54.5,21.7c-0.2,0-0.4,0-0.5-0.1c-0.1,0-0.1-0.1-0.2-0.3c-0.1-0.1-0.2-0.3-0.3-0.5c0-0.1-0.1-0.1-0.1-0.2
		c0,0-0.1-0.1-0.2-0.2L53,20.3l0,0c-0.2,0-0.3-0.1-0.5-0.1c-0.1,0-0.3-0.1-0.4-0.2c-0.1-0.1-0.2-0.1-0.4-0.2c0.3,0,0.5,0,0.6,0
		c0.2,0,0.4-0.1,0.6-0.1c0.2,0,0.3-0.1,0.5-0.2l0.1,0c0.3-0.2,0.5-0.5,0.5-0.8c0-0.1,0-0.2-0.1-0.4c-0.1-0.1-0.1-0.2-0.2-0.3
		c-0.2-0.2-0.4-0.3-0.6-0.3c-0.3-0.1-0.6-0.1-1.1-0.1h-3.4v0.2h0.2c0.3,0,0.4,0.1,0.6,0.2c0.1,0.1,0.2,0.3,0.2,0.6V21
		c0,0.3-0.1,0.4-0.2,0.6c-0.1,0.1-0.3,0.2-0.6,0.2h-0.2V22h2.8v-0.3h-0.2c-0.3,0-0.4-0.1-0.6-0.2c-0.1-0.1-0.2-0.3-0.2-0.6v-1.2h0.9
		l1.5,2.2l0,0h1.7v-0.3H54.5z M52.4,19.4c-0.2,0.1-0.4,0.1-0.7,0.1h-1.2v-1.8h1.2c0.8,0,1.2,0.3,1.2,0.9c0,0.2,0,0.3-0.1,0.5
		C52.7,19.3,52.6,19.4,52.4,19.4"/>
	<path class="st0" d="M58.7,17.5v0.2H59c0.2,0,0.3,0,0.4,0.1c0.1,0.1,0.1,0.2,0.1,0.3c0,0.1-0.1,0.2-0.2,0.4l-0.9,1.2l-1-1.4
		c-0.1-0.2-0.2-0.2-0.2-0.3c0,0,0-0.1,0-0.1c0-0.1,0-0.1,0.1-0.2c0.1,0,0.2-0.1,0.3-0.1H58v-0.2h-2.8v0.2h0.1c0.2,0,0.4,0,0.6,0.1
		c0.2,0.1,0.3,0.2,0.5,0.5l1.3,1.7V21c0,0.3-0.1,0.4-0.2,0.6c-0.1,0.1-0.3,0.2-0.6,0.2h-0.3V22h3.1v-0.3h-0.3
		c-0.3,0-0.4-0.1-0.6-0.2c-0.1-0.1-0.2-0.3-0.2-0.6v-1l1.1-1.4c0.1-0.1,0.2-0.2,0.3-0.3c0.1-0.1,0.2-0.2,0.3-0.2
		c0.1-0.1,0.2-0.1,0.3-0.1c0.1,0,0.2-0.1,0.4-0.1l0,0v-0.3H58.7z"/>
	<path class="st0" d="M45.4,17.5v0.2l0,0c0.2,0,0.3,0,0.3,0c0.1,0,0.2,0.1,0.2,0.1c0.3,0.2,0.4,0.5,0.4,1l0,1.5
		c0,0.4-0.1,0.8-0.3,1.1c-0.1,0.1-0.4,0.2-0.6,0.3c-0.2,0.1-0.5,0.1-0.7,0.1c-0.3,0-0.5,0-0.7-0.1c-0.2-0.1-0.4-0.2-0.5-0.4
		c-0.1-0.2-0.2-0.4-0.2-0.7v-2.1c0-0.3,0.1-0.4,0.2-0.6c0.1-0.1,0.3-0.2,0.6-0.2h0.4v-0.2h-3.1v0.2h0.2c0.5,0,0.7,0.2,0.7,0.7v2.1
		c0,0.5,0.2,0.8,0.5,1.1c0.2,0.1,0.4,0.2,0.7,0.3c0.3,0.1,0.8,0.1,1.1,0.1c0.5,0,0.9-0.1,1.2-0.2c0.2-0.1,0.3-0.2,0.5-0.3
		c0.2-0.2,0.4-0.6,0.4-1.1v-1.7c0-0.2,0-0.4,0.1-0.5c0.1-0.1,0.1-0.3,0.3-0.3c0.1-0.1,0.2-0.1,0.2-0.1c0.1,0,0.1,0,0.3-0.1l0,0v-0.2
		H45.4z"/>
	<polygon class="st0" points="36.7,10.1 36.7,9.5 38.7,9.5 38.7,10.1 38.1,10.1 38.1,12.2 37.4,12.2 37.4,10.1 	"/>
	<polygon class="st0" points="41.3,9.5 42,9.5 42,12.2 41.3,12.2 41.3,11.1 40.5,11.1 40.5,12.2 39.9,12.2 39.9,9.5 40.5,9.5 
		40.5,10.5 41.3,10.5 	"/>
	<polygon class="st0" points="43.3,12.2 43.3,9.5 45.1,9.5 45.1,10.1 44,10.1 44,10.6 44.9,10.6 44.9,11.1 44,11.1 44,11.6 
		45.1,11.6 45.1,12.2 	"/>
</g>
</svg>
