
<!-- Generator: Adobe Illustrator 19.2.1, SVG Export Plug-In . SVG Version: 6.00 Build 0)  -->
<svg version="1.1" id="Layer_1" xmlns="http://www.w3.org/2000/svg" xmlns:xlink="http://www.w3.org/1999/xlink" x="0px" y="0px"
	 viewBox="0 0 80 40" style="enable-background:new 0 0 80 40;" xml:space="preserve">
<style type="text/css">
	.st0{fill:#FFFFFF;}
</style>
<g>
	<path class="st0" d="M43.7,16.6c0,0-0.4,0.4-1.5,0.5c-0.9,0-2.6-0.7-2.6-2.6c0,0,0-2.4,2.6-2.6c0,0,1.4,0,2.1,1.2l0.3,0v-1.5
		c0,0,1.1-1.6-0.3-3.7c0,0-1.6-2.2-0.8-3.4c0,0-1.5,0.4-0.5,2.9c0,0,1,2.2-0.5,3.4c0,0,0.3-1.8-2.2-3.2c0,0-2-1-2.1-2.4
		c0,0-1.1,1.3,1.1,3c0,0,1.6,1.2,1,3.1c0,0-0.5-1.3-3.4-1.3c0,0-2.5,0-2.9-1.1c0,0-0.5,1.5,2.2,2.1c0,0,2.3,0.4,2.5,1.8
		c0,0-1.5-0.8-3.8,1c0,0-1.7,1.1-2.8,0.5c0,0,0.4,1.5,3.2,0.5c0,0,2.3-0.8,3.4,0.3c0,0-1.5-0.1-2.8,3.1c0,0-0.5,1.7-1.8,1.7
		c0,0,1.1,1.1,2.5-1.1c0,0,1.3-2,3.2-1.6c0,0-1.1,0.7-0.6,3.7c0,0,0.5,1.9-0.9,2.5c0,0,1.4,0.5,1.8-2.2c0,0,0.2-2.7,2.1-2.9
		c0,0-0.3,1.4,0.8,3.1c0,0,1.4,1.7,0.3,3.2c0,0,1.8-0.3,0.8-3.3c0,0-0.7-2.1,0.7-3.3v-2.4l0.6-0.4v-0.1h-2.6V15l1.1,0.4L43.7,16.6"
		/>
	<path class="st0" d="M29.6,28.4C29.6,28.4,29.6,28.4,29.6,28.4L29.5,28c-0.1-0.3-0.3-0.4-0.7-0.4c-0.8,0-1.3,0.5-1.3,1.3
		c0,0.7,0.5,1.3,1.2,1.3c0.5,0,0.7-0.1,0.7-0.4v-0.3c0-0.1,0-0.2-0.2-0.2l-0.3-0.1c0,0,0,0,0,0c0,0,0,0,0.1,0l1.2,0c0,0,0.1,0,0.1,0
		c0,0,0,0,0,0l-0.3,0.1c-0.1,0-0.1,0.1-0.1,0.2v0.1c0,0.2,0,0.4,0,0.5c-0.3,0.2-0.7,0.3-1.1,0.3c-1,0-1.7-0.7-1.7-1.6
		c0-0.9,0.8-1.6,1.9-1.6c0.3,0,0.7,0.1,1,0.2L29.6,28.4C29.7,28.4,29.7,28.4,29.6,28.4"/>
	<path class="st0" d="M32.3,28.9c0.2,0,0.3,0,0.4,0c0.1,0,0.2,0,0.3,0L32.6,28L32.3,28.9z M32.2,29.2L31.9,30l0,0.1c0,0,0,0,0,0
		c0,0,0,0,0,0l0.1,0l0.3,0.1c0,0,0,0,0,0c0,0,0,0-0.1,0H31c0,0-0.1,0-0.1,0c0,0,0,0,0,0l0.3-0.1c0.1,0,0.1-0.1,0.2-0.1l0.1-0.1
		l0.1-0.2l0.6-1.5c0.1-0.3,0.2-0.6,0.3-0.8l0-0.1h0.3l0,0c0.1,0.2,0.1,0.4,0.2,0.7l0.6,1.4c0.1,0.3,0.2,0.5,0.3,0.6
		c0,0.1,0,0.1,0.1,0.1l0.2,0.1c0,0,0,0,0,0c0,0,0,0-0.1,0H33c0,0-0.1,0-0.1,0c0,0,0,0,0,0l0.3-0.1c0.1,0,0.1,0,0.1-0.1
		c0,0,0-0.1,0-0.1l-0.3-0.8c-0.2,0-0.4,0-0.5,0C32.5,29.2,32.4,29.2,32.2,29.2"/>
	<path class="st0" d="M36.6,30L36.6,30c0,0.1,0,0.2,0.1,0.2l0.4,0.1c0,0,0,0,0,0c0,0,0,0,0,0h-1.4c0,0-0.1,0-0.1,0c0,0,0,0,0,0
		l0.4-0.1c0.1,0,0.1-0.1,0.1-0.1c0,0,0-0.1,0-0.1c0,0,0,0,0-0.1l0-0.9c-0.2-0.4-0.5-0.8-0.7-1.1c-0.1-0.2-0.3-0.3-0.5-0.4l-0.1,0
		l-0.1,0c0,0-0.1,0-0.1-0.1c0,0,0-0.1,0.1-0.1c0.2,0,0.5,0.1,0.7,0.2c0.2,0.1,0.4,0.4,0.6,0.7l0.2,0.3l0,0.1l0.4-0.7
		c0.1-0.1,0.1-0.2,0.1-0.2c0,0,0,0-0.1-0.1l-0.2-0.1c0,0,0,0,0,0c0,0,0,0,0.1,0h1.2c0,0,0.1,0,0.1,0c0,0,0,0,0,0l-0.4,0.1l-0.1,0
		c-0.1,0-0.1,0.1-0.3,0.3l-0.6,1l0,1L36.6,30z"/>
	<path class="st0" d="M39.5,27.7c0,0,0,0-0.1-0.1l-0.3-0.1c0,0,0,0,0,0c0,0,0,0,0,0l1.3,0c0,0,0.1,0,0.1,0c0,0,0,0,0,0l-0.4,0.1
		c-0.1,0-0.1,0-0.1,0.1v0.2c0,0.1,0,0.2,0,0.3v0.2l0,1c0,0.1,0,0.2,0,0.3c0,0.1,0,0.2,0,0.2c0,0.1,0,0.2,0,0.2c0,0,0,0,0.1,0l0.5,0
		h0c0.2,0,0.2,0,0.3-0.1l0.2-0.3c0,0,0,0,0,0c0,0,0,0,0,0l0,0.6c0,0.1,0,0.1-0.1,0.1h-1.9c0,0,0,0,0,0c0,0,0,0,0,0l0.3-0.1
		c0,0,0.1,0,0.1-0.1c0,0,0-0.1,0-0.3v-0.3v-0.3l0-1v-0.3C39.5,27.9,39.5,27.7,39.5,27.7"/>
	<path class="st0" d="M42.7,28.8c0,0.8,0.6,1.3,1.3,1.3c0.7,0,1.2-0.5,1.2-1.2c0-0.8-0.6-1.3-1.3-1.3C43.2,27.6,42.7,28.1,42.7,28.8
		 M42.3,28.9c0-0.5,0.2-0.9,0.6-1.2c0.3-0.2,0.7-0.4,1.2-0.4c0.9,0,1.6,0.7,1.6,1.6c0,0.9-0.7,1.6-1.7,1.6
		C43,30.5,42.3,29.8,42.3,28.9"/>
	<path class="st0" d="M48.2,28.2c0-0.3-0.3-0.6-0.6-0.6c-0.2,0-0.2,0-0.2,0.2v1h0.1C47.9,28.8,48.2,28.6,48.2,28.2 M47.4,30.1
		c0,0,0.1,0,0.1,0.1l0.3,0.1c0,0,0,0,0,0c0,0,0,0-0.1,0h-1.3c0,0,0,0,0,0c0,0,0,0,0,0l0.4-0.2c0.1,0,0.1,0,0.1,0c0,0,0,0,0,0
		c0,0,0-0.1,0-0.2l0-0.2v-0.3l0-1.2l0-0.2l0-0.2c0-0.1,0-0.1,0-0.1c0,0,0,0,0-0.1c0,0,0,0-0.1,0l-0.3-0.1c0,0,0,0,0,0c0,0,0,0,0,0
		l1.1,0c0.4,0,0.6,0,0.7,0.2c0.2,0.2,0.3,0.4,0.3,0.7c0,0.4-0.3,0.7-0.7,0.8l0.8,0.8c0.3,0.3,0.4,0.4,0.6,0.5c0.1,0,0.1,0,0.1,0.1
		c0,0.1,0,0.1-0.2,0.1c-0.2,0-0.3,0-0.4-0.1c-0.1-0.1-0.2-0.1-0.5-0.4l-0.8-0.9l0,0l0,0.9C47.4,30.1,47.4,30.1,47.4,30.1"/>
	<path class="st0" d="M51.7,30.1c0.8,0,1.3-0.5,1.3-1.2c0-0.7-0.6-1.3-1.3-1.3c-0.4,0-0.5,0-0.5,0.2l0,2.1
		C51.2,30.1,51.3,30.1,51.7,30.1 M50.7,30.1c0,0,0-0.1,0-0.1c0,0,0-0.1,0-0.2c0-0.2,0-0.3,0-0.3l0-1c0-0.3,0-0.6,0-0.7
		c0-0.1,0-0.1-0.1-0.1l-0.3-0.1c0,0,0,0,0,0c0,0,0,0,0.1,0H51l0.2,0l0.2,0c0,0,0.1,0,0.1,0c0.4,0,0.6,0,0.9,0.1
		c0.6,0.2,0.9,0.8,0.9,1.4c0,0.7-0.4,1.3-1.1,1.5c-0.2,0.1-0.4,0.1-0.6,0.1h-0.2l-0.3,0l-0.3,0h-0.7c0,0,0,0,0,0c0,0,0,0,0,0
		l0.3-0.1C50.7,30.1,50.7,30.1,50.7,30.1"/>
	<path class="st0" d="M52.2,33.6c0,0-0.1,0-0.2,0h-0.1v0.3h0.1c0.1,0,0.1,0,0.1,0c0.1,0,0.1-0.1,0.1-0.1
		C52.3,33.6,52.3,33.6,52.2,33.6 M52.1,33.5c0.1,0,0.2,0,0.2,0c0.1,0,0.1,0.1,0.1,0.2c0,0.1,0,0.1-0.1,0.2c0,0-0.1,0-0.1,0
		c0.1,0,0.1,0,0.1,0.1c0,0,0,0.1,0,0.1v0.1c0,0,0,0,0,0.1c0,0,0,0,0,0l0,0h-0.1c0,0,0,0,0,0c0,0,0,0,0,0l0,0v-0.1
		c0-0.1,0-0.2-0.1-0.2c0,0-0.1,0-0.2,0h-0.1v0.3h-0.1v-0.8H52.1z M51.6,33.4c-0.1,0.1-0.2,0.3-0.2,0.5c0,0.2,0.1,0.3,0.2,0.5
		c0.1,0.1,0.3,0.2,0.5,0.2c0.2,0,0.3-0.1,0.5-0.2c0.1-0.1,0.2-0.3,0.2-0.5c0-0.2-0.1-0.3-0.2-0.5c-0.1-0.1-0.3-0.2-0.5-0.2
		C51.9,33.2,51.8,33.3,51.6,33.4 M52.6,34.4c-0.2,0.2-0.3,0.2-0.5,0.2c-0.2,0-0.4-0.1-0.5-0.2c-0.1-0.2-0.2-0.3-0.2-0.5
		c0-0.2,0.1-0.4,0.2-0.5c0.1-0.1,0.3-0.2,0.5-0.2c0.2,0,0.4,0.1,0.5,0.2c0.1,0.1,0.2,0.3,0.2,0.5C52.9,34.1,52.8,34.3,52.6,34.4"/>
	<path class="st0" d="M30.3,36.3l0.3,0.1c0,0,0,0,0,0c0,0,0,0,0,0h-1.3c0,0,0,0,0,0c0,0,0,0,0,0l0.3-0.1c0.1,0,0.1,0,0.1-0.1
		c0,0,0-0.1,0-0.2l0-0.2l0-0.2l0-1.1l0-0.3l0-0.2c0-0.2,0-0.2,0-0.2c0,0,0,0-0.1-0.1l-0.3-0.1c0,0,0,0,0,0c0,0,0,0,0.1,0h1.3
		c0,0,0,0,0,0c0,0,0,0,0,0l-0.3,0.1c-0.1,0-0.1,0-0.1,0c0,0,0,0,0,0.1v0.1l0,0.8c0.1,0,0.3,0,0.5,0h0.7c0.3,0,0.4,0,0.5,0l0-0.9
		c0-0.1,0-0.2,0-0.2c0,0-0.1,0-0.1,0l-0.3-0.1c0,0,0,0,0,0c0,0,0,0,0,0h1.3c0,0,0,0,0,0c0,0,0,0,0,0l-0.3,0.1c-0.1,0-0.1,0-0.1,0.2
		V34c0,0,0,0.1,0,0.2v0.3l0,1c0,0.1,0,0.2,0,0.3c0,0.1,0,0.2,0,0.2c0,0.2,0,0.2,0,0.2c0,0,0,0,0.1,0.1l0.3,0.1c0,0,0,0,0,0
		c0,0,0,0,0,0h-1.3c0,0-0.1,0-0.1,0c0,0,0,0,0,0l0.3-0.1c0.1,0,0.1,0,0.1-0.1c0,0,0,0,0-0.1c0,0,0-0.1,0-0.1c0-0.1,0-0.1,0-0.1
		l0-0.8c0,0,0,0-0.1,0c0,0-0.1,0-0.2,0l-0.2,0l-0.7,0c-0.2,0-0.4,0-0.5,0l0,0.9C30.2,36.2,30.2,36.2,30.3,36.3"/>
	<path class="st0" d="M34.1,34.9c0,0.8,0.6,1.3,1.3,1.3c0.7,0,1.2-0.5,1.2-1.2c0-0.8-0.6-1.3-1.3-1.3C34.6,33.7,34.1,34.2,34.1,34.9
		 M33.6,35c0-0.5,0.2-0.9,0.6-1.2c0.3-0.2,0.7-0.4,1.2-0.4c0.9,0,1.6,0.7,1.6,1.6c0,0.9-0.7,1.6-1.7,1.6
		C34.3,36.6,33.6,35.9,33.6,35"/>
	<path class="st0" d="M39.4,36.2C39.4,36.2,39.4,36.3,39.4,36.2l0.4,0.2c0,0,0,0,0,0c0,0,0,0-0.1,0h-1.4c0,0-0.1,0-0.1,0
		c0,0,0,0,0,0l0.4-0.1c0.1,0,0.1,0,0.1-0.1c0,0,0,0,0-0.1c0,0,0,0,0-0.1l0-0.1l0-2.2h-0.6c-0.1,0-0.1,0-0.2,0.1L38,34.3c0,0,0,0,0,0
		c0,0,0,0,0,0l0-0.9c0,0,0-0.1,0-0.1c0,0,0,0,0,0l0,0l0,0c0.1,0,0.2,0.1,0.5,0.1l1.1,0c0.4,0,0.4,0,0.6-0.1l0,0c0,0,0,0,0,0
		c0,0,0,0,0,0.1l0,0.9c0,0,0,0,0,0c0,0,0,0,0,0l-0.2-0.4c-0.1-0.1-0.1-0.1-0.3-0.1l-0.4,0l0,2.1C39.4,36.1,39.4,36.2,39.4,36.2"/>
	<path class="st0" d="M42.7,34.8c0.1,0,0.2,0,0.3,0c0.3,0,0.4,0,0.5-0.1l0.1-0.1c0,0,0,0,0,0c0,0,0,0,0,0l0,0.9c0,0,0,0,0,0
		c0,0,0,0,0,0l-0.1-0.3c-0.1-0.1-0.1-0.2-0.2-0.2c0,0,0,0-0.1,0c0,0-0.1,0-0.2,0h-0.2h-0.1v0.8c0,0.2,0,0.3,0,0.3c0,0,0.2,0,0.5,0
		c0.4,0,0.5,0,0.5-0.2l0.1-0.2c0,0,0,0,0,0c0,0,0,0,0,0l0,0.5c0,0.2,0,0.2-0.2,0.2h-2c0,0-0.1,0-0.1,0c0,0,0,0,0,0l0.2-0.1
		c0.2-0.1,0.2-0.1,0.2-0.2l0-0.2v-0.3l0-0.4v-0.6l0-0.3l0-0.4c0-0.2,0-0.3,0-0.3c0,0,0,0,0,0c0,0-0.1,0-0.1-0.1l-0.3-0.1
		c0,0,0,0,0,0c0,0,0,0,0.1,0c0,0,0,0,0.1,0h0.3l0.3,0c0.3,0,0.6,0,0.9,0c0.2,0,0.3,0,0.4,0l0,0.8c0,0,0,0.1,0,0.1c0,0,0,0,0,0
		l-0.1-0.2c0-0.1-0.1-0.2-0.1-0.2c-0.1,0-0.1,0-0.5,0h-0.3h-0.1L42.7,34.8L42.7,34.8z"/>
	<path class="st0" d="M45.9,33.7c0,0,0,0-0.1-0.1l-0.3-0.1c0,0,0,0,0,0s0,0,0,0l1.3,0c0,0,0.1,0,0.1,0c0,0,0,0,0,0l-0.4,0.1
		c-0.1,0-0.1,0-0.1,0.1v0.2c0,0.1,0,0.2,0,0.3v0.2l0,1c0,0.1,0,0.2,0,0.3c0,0.1,0,0.2,0,0.2c0,0.1,0,0.2,0,0.2c0,0,0,0,0.1,0l0.5,0
		h0c0.2,0,0.3,0,0.3-0.1l0.2-0.3c0,0,0,0,0,0c0,0,0,0,0,0l0,0.6c0,0.1,0,0.1-0.1,0.1h-1.9c0,0,0,0,0,0c0,0,0,0,0,0l0.3-0.1
		c0,0,0.1,0,0.1-0.1c0,0,0-0.1,0-0.3v-0.3v-0.3l0-1v-0.3C45.9,33.9,45.9,33.8,45.9,33.7"/>
	<path class="st0" d="M50.6,34.4C50.6,34.4,50.6,34.4,50.6,34.4l-0.2-0.4c-0.1-0.1-0.2-0.2-0.4-0.2c-0.3,0-0.6,0.2-0.6,0.5
		c0,0.2,0.1,0.4,0.5,0.5l0.3,0.1c0.5,0.2,0.6,0.5,0.6,0.8c0,0.5-0.4,0.9-1,0.9c-0.3,0-0.5-0.1-0.8-0.1l0-0.8c0,0,0,0,0,0
		c0,0,0,0,0,0l0.2,0.4c0.1,0.2,0.3,0.3,0.6,0.3c0.3,0,0.5-0.2,0.5-0.5c0-0.2-0.1-0.4-0.5-0.5l-0.3-0.1c-0.3-0.2-0.4-0.3-0.6-0.4
		C49,34.6,49,34.4,49,34.3c0-0.5,0.4-0.9,1.1-0.9c0.2,0,0.4,0,0.6,0.1L50.6,34.4C50.6,34.3,50.6,34.4,50.6,34.4"/>
</g>
</svg>
