
<!-- Generator: Adobe Illustrator 19.2.1, SVG Export Plug-In . SVG Version: 6.00 Build 0)  -->
<svg version="1.1" id="Layer_1" xmlns="http://www.w3.org/2000/svg" xmlns:xlink="http://www.w3.org/1999/xlink" x="0px" y="0px"
	 viewBox="0 0 80 40" style="enable-background:new 0 0 80 40;" xml:space="preserve">
<style type="text/css">
	.st0{fill:#FFFFFF;}
</style>
<g>
	<path class="st0" d="M26.5,24.7c0.8,0,1.3-0.8,2.2-2.9l1.1,2.4h1.5l-0.7-1.6l0.4-0.8l1.1,2.5h1.4L31,18.7l-1.2,0.6l0.9,2.1
		l-0.4,0.8l-1.7-3.6l-1.2,0.6l1,2.2l-0.4,0.8c-0.3,0.5-0.8,1.2-1.4,1.2c-0.1,0-0.3,0-0.4-0.1l-0.7,1.1
		C25.8,24.6,26.2,24.7,26.5,24.7"/>
	<path class="st0" d="M36.4,23.1v-2.2c0-0.3-0.1-0.6-0.2-0.8c-0.1-0.2-0.4-0.4-1-0.4c-0.4,0-0.8,0.1-1.1,0.2
		c-0.1,0.1-0.2,0.2-0.3,0.3c-0.1,0.2-0.1,0.4-0.2,0.7c0.4-0.4,0.8-0.6,1.1-0.6c0.3-0.1,0.6,0,0.6,0.2c0,0.1-0.1,0.2-0.3,0.3
		c-0.2,0.1-0.7,0.2-1.1,0.5c-0.3,0.2-0.6,0.5-0.6,1.2c0,0.7,0.5,1.2,1,1.2c0.4,0,0.7-0.2,1-0.5c0,0.1,0.1,0.3,0.2,0.4h1
		C36.5,23.4,36.4,23.3,36.4,23.1 M35.1,22.8c-0.2,0.1-0.3,0.1-0.4,0.1c-0.2,0-0.4-0.2-0.4-0.6c0-0.2,0.1-0.4,0.1-0.6
		c0.2-0.3,0.4-0.5,0.6-0.5c0.1,0,0.2,0.1,0.2,0.2c0,0.1,0,0.2,0,0.5C35.3,22.5,35.3,22.7,35.1,22.8"/>
	<path class="st0" d="M41.6,19.7c0.3,0,0.5,0.1,0.6,0.3l-0.5,0.7c-0.2-0.2-0.5-0.2-0.8,0v2.1c0,0.4,0.1,0.7,0.2,0.9h-1
		c-0.2-0.2-0.3-0.4-0.3-0.7v-2.7c0-0.2-0.1-0.3-0.1-0.4h1.1c0.1,0.1,0.1,0.2,0.1,0.3C41.1,19.8,41.3,19.7,41.6,19.7"/>
	<path class="st0" d="M43.7,20.5v2.2c0,0.4,0.1,0.7,0.2,0.9h-1c-0.2-0.2-0.3-0.4-0.3-0.7v-2.7c0-0.2,0-0.3-0.1-0.4h1
		C43.7,19.9,43.7,20.2,43.7,20.5"/>
	<path class="st0" d="M38.9,19.7c0.3,0,0.5,0.1,0.6,0.3l-0.5,0.7c-0.2-0.2-0.5-0.2-0.8,0v2.1c0,0.4,0.1,0.7,0.2,0.9h-1
		c-0.2-0.2-0.3-0.4-0.3-0.7v-2.7c0-0.2-0.1-0.3-0.1-0.4h1.1c0.1,0.1,0.1,0.2,0.1,0.3C38.4,19.8,38.7,19.7,38.9,19.7"/>
	<path class="st0" d="M47.3,20.6c-0.2-0.3-0.5-0.6-0.9-0.8c-0.3-0.2-0.5-0.2-1.1,0.1c-0.2,0.1-0.6,0.3-0.8,0.6
		c-0.1,0.1-0.1,0.3-0.1,0.5c0,0.4,0,0.9,0,1.3c0.1,0.9,0.9,1.2,1.2,1.3c0.5,0.2,1.2-0.4,1.3-0.6c0.3-0.3,0.4-0.5,0.5-0.9
		c0-0.2,0-0.4,0-0.6C47.5,21.2,47.4,20.8,47.3,20.6 M46.3,22.8c-0.1,0.2-0.2,0.2-0.3,0.2c-0.1,0-0.3-0.1-0.4-0.4
		c-0.1-0.3-0.1-1.2-0.1-1.4c0-0.3,0-0.6,0.2-0.8c0.1-0.1,0.2-0.2,0.4-0.2c0.2,0.1,0.4,0.3,0.4,1.1C46.5,22.3,46.4,22.6,46.3,22.8"/>
	<path class="st0" d="M49.3,20v2.7c0,0.4,0.1,0.7,0.2,0.9h-1.1c-0.2-0.2-0.3-0.4-0.3-0.7V20h-0.6l0.1-0.4h0.5v-0.8l1.1-0.4v1.2h0.5
		L49.7,20H49.3z"/>
	<path class="st0" d="M51.6,20v2.7c0,0.4,0.1,0.7,0.2,0.9h-1c-0.2-0.2-0.3-0.4-0.3-0.7V20h-0.6l0.1-0.4h0.5v-0.8l1.1-0.4v1.2h0.5
		L52,20H51.6z"/>
	<path class="st0" d="M17,25.6h1.1v0.2c-0.1,0-0.1,0-0.1,0.1c0,0,0,0.1,0,0.2l1,2.8l0.7-1.6c0.2-0.4,0.3-0.8,0.3-1.1
		c0-0.1,0-0.2-0.1-0.3c-0.1-0.1-0.2-0.1-0.4-0.1v-0.2H21v0.2c-0.2,0-0.5,0.3-0.7,0.8L19,29.7h-0.2l-1.2-3.2
		c-0.2-0.5-0.4-0.7-0.6-0.7V25.6z"/>
	<path class="st0" d="M21.7,26.3L21,27.9h1.3L21.7,26.3z M21.8,25.4H22l1.1,3.1c0.1,0.2,0.2,0.4,0.3,0.6c0.1,0.2,0.2,0.2,0.4,0.2
		v0.1h-1.2v-0.1h0.1c0,0,0.1,0,0.1-0.1c0,0,0,0,0-0.1l-0.4-1.1H21c-0.2,0.4-0.2,0.7-0.2,0.9c0,0.1,0,0.2,0.1,0.3
		c0.1,0.1,0.2,0.1,0.3,0.1h0.2v0.1h-1.4v-0.1c0.2,0,0.5-0.3,0.7-0.7L21.8,25.4z"/>
	<path class="st0" d="M27.5,28.8c-0.7,0.6-1.3,0.8-1.9,0.8c-0.5,0-0.9-0.2-1.2-0.5c-0.4-0.3-0.5-0.8-0.5-1.4c0-0.4,0.1-0.8,0.3-1.1
		c0.2-0.3,0.5-0.6,0.8-0.8c0.3-0.2,0.8-0.3,1.3-0.3c0.4,0,0.8,0.1,1.2,0.2v0.9h-0.2c0-0.3-0.2-0.5-0.4-0.7c-0.2-0.2-0.5-0.2-0.9-0.2
		c-0.5,0-0.8,0.2-1.1,0.5c-0.3,0.3-0.4,0.7-0.4,1.2c0,0.5,0.2,0.9,0.5,1.3c0.3,0.3,0.7,0.5,1.2,0.5c0.5,0,1-0.2,1.5-0.6V28.8z"/>
	<path class="st0" d="M29.4,26.3l-0.7,1.6H30L29.4,26.3z M29.5,25.4h0.2l1.1,3.1c0.1,0.2,0.2,0.4,0.3,0.6c0.1,0.2,0.2,0.2,0.4,0.2
		v0.1h-1.2v-0.1h0.1c0,0,0.1,0,0.1-0.1c0,0,0,0,0-0.1l-0.4-1.1h-1.4c-0.2,0.4-0.2,0.7-0.2,0.9c0,0.1,0,0.2,0.1,0.3
		c0.1,0.1,0.2,0.1,0.3,0.1H29v0.1h-1.4v-0.1c0.2,0,0.5-0.3,0.7-0.7L29.5,25.4z"/>
	<path class="st0" d="M31.3,25.5h0.1c0,0.1,0.1,0.1,0.1,0.1h2.8c0.1,0,0.1,0,0.1-0.1h0.1v1.2h-0.2c0-0.6-0.3-0.9-1-0.9h-0.2v3.1
		c0,0.3,0.2,0.5,0.5,0.5v0.1h-1.6v-0.1c0.2,0,0.3,0,0.4-0.1c0.1-0.1,0.1-0.2,0.1-0.4v-3.1h-0.2c-0.6,0-0.9,0.3-0.9,0.9h-0.2V25.5z"
		/>
	<path class="st0" d="M36.5,25.7c-0.2,0-0.3,0-0.4,0.1C36,25.9,36,26,36,26.2v2.7c0,0.3,0.2,0.5,0.5,0.5v0.1h-1.6v-0.1
		c0.2,0,0.3,0,0.4-0.1c0.1-0.1,0.1-0.2,0.1-0.4v-2.7c0-0.2,0-0.3-0.1-0.4c-0.1-0.1-0.2-0.1-0.4-0.1v-0.2h1.6V25.7z"/>
	<path class="st0" d="M38.6,25.8c-0.4,0-0.7,0.1-1,0.4c-0.3,0.3-0.4,0.6-0.4,1.1c0,0.6,0.2,1.1,0.6,1.5c0.4,0.4,0.8,0.6,1.3,0.6
		c0.4,0,0.7-0.1,1-0.4c0.3-0.3,0.4-0.6,0.4-1c0-0.4-0.1-0.8-0.3-1.1c-0.2-0.3-0.4-0.6-0.7-0.8C39.2,25.9,38.9,25.8,38.6,25.8
		 M39,25.5c0.4,0,0.7,0.1,1,0.2c0.3,0.1,0.5,0.3,0.7,0.6c0.2,0.3,0.3,0.6,0.3,1c0,0.4-0.1,0.8-0.4,1.2c-0.3,0.4-0.6,0.6-0.9,0.8
		c-0.3,0.2-0.7,0.3-1.1,0.3c-0.5,0-1-0.2-1.4-0.5c-0.4-0.4-0.6-0.8-0.6-1.3c0-0.6,0.2-1.1,0.7-1.6C37.9,25.7,38.4,25.5,39,25.5"/>
	<path class="st0" d="M41.3,25.6h1.1l2.4,3v-0.9c0-0.6,0-1.1-0.1-1.4c-0.1-0.3-0.2-0.5-0.4-0.5v-0.2h1.4v0.2c-0.4,0-0.6,0.6-0.6,1.8
		v2.1h-0.1L42,26.1v1.1c0,0.7,0,1.3,0.1,1.6c0.1,0.3,0.2,0.5,0.5,0.6v0.1h-1.4v-0.1c0.4-0.1,0.6-0.8,0.6-2.1v-1.1
		c0-0.2,0-0.3-0.1-0.4c-0.1-0.1-0.2-0.1-0.4-0.1V25.6z"/>
	<path class="st0" d="M51.1,28.8c-0.7,0.6-1.3,0.8-1.9,0.8c-0.5,0-0.9-0.2-1.2-0.5c-0.4-0.3-0.5-0.8-0.5-1.4c0-0.4,0.1-0.8,0.3-1.1
		c0.2-0.3,0.5-0.6,0.8-0.8c0.3-0.2,0.8-0.3,1.3-0.3c0.4,0,0.8,0.1,1.2,0.2v0.9h-0.2c0-0.3-0.2-0.5-0.4-0.7c-0.2-0.2-0.5-0.2-0.9-0.2
		c-0.5,0-0.8,0.2-1.1,0.5c-0.3,0.3-0.4,0.7-0.4,1.2c0,0.5,0.2,0.9,0.5,1.3c0.3,0.3,0.7,0.5,1.2,0.5c0.5,0,1-0.2,1.5-0.6V28.8z"/>
	<path class="st0" d="M51.4,25.6H53v0.2c-0.2,0-0.3,0-0.4,0.1c-0.1,0.1-0.1,0.2-0.1,0.4v3.1h0.4c0.6,0,1-0.3,1.2-1h0.2L54,29.7h-0.1
		c0-0.1,0-0.1-0.1-0.1h-2.3v-0.1c0.2,0,0.3,0,0.4-0.1c0.1-0.1,0.1-0.2,0.1-0.4v-2.7c0-0.2,0-0.3-0.1-0.4c-0.1-0.1-0.2-0.1-0.4-0.1
		V25.6z"/>
	<path class="st0" d="M57.1,25.6h1.4v0.2c-0.4,0.1-0.6,0.7-0.6,1.9c0,0.4,0,0.7,0,0.9c0,0.2-0.1,0.4-0.2,0.5
		c-0.1,0.2-0.3,0.3-0.5,0.4c-0.2,0.1-0.5,0.1-0.8,0.1c-0.3,0-0.6,0-0.9-0.1c-0.2-0.1-0.4-0.2-0.5-0.4c-0.1-0.2-0.2-0.4-0.2-0.6v-2.2
		c0-0.2,0-0.3-0.1-0.4c-0.1-0.1-0.2-0.1-0.4-0.1v-0.2h1.6v0.2c-0.2,0-0.3,0-0.4,0.1c-0.1,0.1-0.1,0.2-0.1,0.4v2.2
		c0,0.2,0,0.4,0.1,0.5c0.1,0.1,0.2,0.3,0.4,0.4c0.2,0.1,0.4,0.2,0.7,0.2c0.3,0,0.5,0,0.7-0.1c0.2-0.1,0.3-0.2,0.4-0.4
		c0.1-0.2,0.1-0.5,0.1-0.8c0-0.8,0-1.4-0.1-1.7c-0.1-0.4-0.2-0.5-0.5-0.6V25.6z"/>
	<path class="st0" d="M59.8,27.5v1.6c0.2,0.2,0.5,0.2,0.7,0.2c0.2,0,0.4-0.1,0.6-0.2c0.1-0.1,0.2-0.3,0.2-0.6c0-0.3-0.1-0.5-0.3-0.8
		c-0.2-0.2-0.5-0.3-0.8-0.3H59.8z M59.8,25.9v1.4h0.6c0.2,0,0.4-0.1,0.5-0.2c0.1-0.1,0.2-0.3,0.2-0.5c0-0.3-0.1-0.5-0.2-0.7
		c-0.2-0.2-0.3-0.3-0.6-0.3C60.1,25.7,60,25.8,59.8,25.9 M58.8,25.6h1.9c0.4,0,0.7,0.1,0.8,0.2c0.1,0.1,0.2,0.3,0.2,0.5
		c0,0.2-0.1,0.4-0.2,0.6c-0.1,0.2-0.4,0.4-0.7,0.5c0.4,0,0.7,0.1,0.8,0.2c0.2,0.1,0.3,0.3,0.3,0.5c0,0.4-0.2,0.7-0.5,1
		c-0.3,0.3-0.7,0.4-1.2,0.4h-1.5v-0.1c0.2,0,0.3,0,0.4-0.1c0.1-0.1,0.1-0.2,0.1-0.4v-2.7c0-0.2,0-0.3-0.1-0.4
		c-0.1-0.1-0.2-0.1-0.4-0.1V25.6z"/>
	<path class="st0" d="M35.9,14.2c0.1-0.6-2-1.5-2.5-1.5c-0.2,0-0.5,0-0.3,0.3c0.1,0.3,0.3,0.4,0.5,0.6c0.4,0.4,1.3,1.2,1.8,1.1
		C35.7,14.7,35.8,14.5,35.9,14.2"/>
	<path class="st0" d="M44.6,17.4c-0.2,0.5-0.2,0.9,0.4,0.9c0.6,0,1.3-0.1,2-0.2c0.3-0.1,0.9-0.2,0.5-0.4c-0.3-0.1-0.6-0.3-0.9-0.3
		C46.2,17.3,44.9,17,44.6,17.4"/>
	<path class="st0" d="M34.7,17c-0.3-0.1-1.2-0.2-2.1-0.1c-0.9,0.1-1,0.3-0.8,0.5c0.3,0.3,2.2,0.9,2.8,0.5C35,17.6,35.1,17.1,34.7,17
		"/>
	<path class="st0" d="M37.9,12.6c0.1,0.3,0.2,0.5,0.7,0.2c0.5-0.3,0.4-0.7,0.3-1.2c-0.1-0.5-0.3-1.1-0.5-1.4
		C38.1,9.8,38,9.5,37.8,10c-0.2,0.6-0.1,1.8,0.1,2.4L37.9,12.6z"/>
	<path class="st0" d="M44.2,14.1c-0.2,0.2-0.4,0.4,0.1,0.7c0.5,0.3,0.8,0.2,1.2-0.1c0.4-0.3,0.9-0.7,1.2-1c0.3-0.3,0.6-0.6,0-0.6
		c-0.6,0-1.8,0.5-2.3,0.9L44.2,14.1z"/>
	<path class="st0" d="M41.3,12.9c-0.2-0.2-0.1-0.5,0.1-1.1c0.3-0.7,0.5-1.2,0.8-1.6c0.3-0.4,0.5-0.5,0.5-0.2c0,0.1,0,0.5-0.1,0.9
		c-0.2,0.7-0.3,1.5-0.6,1.9C41.9,13.2,41.6,13.2,41.3,12.9"/>
	<path class="st0" d="M43.2,15.5c-0.6-0.8-2.5-2.4-4.7-1.4c-2.3,1-3,3.1-2.6,4.2l1.1,0c0,0-0.3-0.9,0.4-2.2c0.3-0.5,1.3-1.6,2.9-1.6
		c1-0.1,2.3,0.9,2.6,1.3C43.1,16.2,43.4,15.7,43.2,15.5"/>
	<path class="st0" d="M41.6,18.3c0.1-0.4,0.3-1.2-0.4-1.7c-0.6-0.4-0.9-0.4-1.4-0.2c-0.3,0.1-0.5-0.2-0.3-0.4c0.5-0.4,2.2-0.5,3,0.9
		c0.3,0.5,0.4,1,0.4,1.5L41.6,18.3z"/>
	<path class="st0" d="M17.3,31.2c0,0.1,0.6,0.3,1.6,0.1c1-0.2,2.6-0.3,3.8-0.4c1.8-0.1,4-0.3,5.8-0.3c3.5,0,6.9,0,10.4,0.1
		c4.1,0.1,7.5,0.2,10.6,0.4c3.1,0.1,9.3,0.1,10.4,0.1c1.1,0,3.8,0,3.5-0.8c-0.2-0.6-1.6-0.1-5.5,0c-3.9,0.1-3.1,0.1-4.6,0.2
		c-1.7,0-3.4,0-5.2,0c-3.2,0-6.5-0.1-9.7-0.2c-2.9,0-5.5-0.1-8.6-0.1c-3.1,0-5.6,0.1-6.6,0.2C22.1,30.6,17.5,30.6,17.3,31.2"/>
	<path class="st0" d="M62.8,28.6h-0.2v0.3h0.2c0.1,0,0.1-0.1,0.1-0.1C62.9,28.6,62.9,28.6,62.8,28.6 M62.9,29.3l-0.2-0.3h-0.1v0.3
		h-0.1v-0.8h0.3c0.1,0,0.3,0.1,0.3,0.2c0,0.1-0.1,0.2-0.2,0.2l0.2,0.3H62.9z M62.8,28.2c-0.3,0-0.6,0.3-0.6,0.6
		c0,0.3,0.3,0.6,0.6,0.6c0.3,0,0.6-0.3,0.6-0.6C63.4,28.5,63.1,28.2,62.8,28.2 M62.8,29.6c-0.4,0-0.7-0.3-0.7-0.7
		c0-0.4,0.3-0.7,0.7-0.7c0.4,0,0.7,0.3,0.7,0.7C63.5,29.3,63.2,29.6,62.8,29.6"/>
</g>
</svg>
