<svg xmlns="http://www.w3.org/2000/svg" viewBox="0 0 80 40"><defs><style>.st0{fill:#fff;}</style></defs><title>brand_RCR</title><path class="st0" d="M74.19,17.32l-2.33-2.67H70.3v0.21c0.47,0,.54.06,0.54,0.47v2.23c0,0.8-.16.88-0.56,0.88v0.21h1.44V18.43c-0.46,0-.61-0.1-0.61-0.57V15.22l3.12,3.53h0.23V15.41A0.46,0.46,0,0,1,75,14.86V14.65H73.56v0.21a0.5,0.5,0,0,1,.64.54v1.92Z"/><path class="st0" d="M67.72,14.54a2.11,2.11,0,1,0,2.18,2.11,2.07,2.07,0,0,0-2.18-2.11m0,4c-0.75,0-1.09-.67-1.09-1.92s0.34-1.92,1.09-1.92,1.09,0.67,1.09,1.92-0.34,1.92-1.09,1.92"/><path class="st0" d="M62.54,18.11c0,0.29-.09.32-0.51,0.32v0.21h2V18.43c-0.41,0-.51,0-0.51-0.32V15a0.18,0.18,0,0,1,.21-0.21,1.68,1.68,0,0,1,1.26.93l0.15-.05-0.24-1.17H64.75a0.83,0.83,0,0,1-.4.11H61.71a0.66,0.66,0,0,1-.21,0l-0.19-.08H61.16l-0.24,1.17,0.16,0.05a1.67,1.67,0,0,1,1.26-.93,0.18,0.18,0,0,1,.21.21v3.07Z"/><path class="st0" d="M57.72,18.11c0,0.29-.09.32-0.51,0.32v0.21H61l0.3-1.16H61.11a1.79,1.79,0,0,1-1.86,1c-0.44,0-.53-0.08-0.53-0.28v-3c0-.29.09-0.32,0.5-0.32V14.65h-2v0.21c0.41,0,.51,0,0.51.32v2.94Z"/><path class="st0" d="M56.19,18l-0.66-1A0.61,0.61,0,0,0,55,16.65v0a0.93,0.93,0,0,0,1-.87c0-.5-0.45-1.11-1.74-1.11h-2v0.21c0.41,0,.51,0,0.51.32v2.94c0,0.29-.09.32-0.51,0.32v0.21h2V18.43c-0.41,0-.51,0-0.51-0.32v-1.4a0.61,0.61,0,0,1,.68.26l0.93,1.67h1.38V18.43a0.59,0.59,0,0,1-.59-0.4m-2-1.5H53.8V14.86H54a0.86,0.86,0,0,1,1,.84,0.79,0.79,0,0,1-.9.83"/><path class="st0" d="M51.19,18l-1.69-3.25a0.26,0.26,0,0,0-.13-0.16,3.67,3.67,0,0,1-.68.64,0.22,0.22,0,0,1,.12.18,0.4,0.4,0,0,1-.06.19l-1,2.11a0.86,0.86,0,0,1-.79.72v0.21H48.4V18.43c-0.39,0-.54-0.11-0.54-0.26a1.21,1.21,0,0,1,.23-0.55h1.82a1.51,1.51,0,0,1,.3.65c0,0.13-.12.17-0.54,0.17v0.21h2.17V18.43A0.58,0.58,0,0,1,51.19,18m-3-.62L49,15.7l0.82,1.68H48.19Z"/><path class="st0" d="M46.23,17.27a1.89,1.89,0,0,1-1.54,1.27c-0.61,0-1.28-.47-1.28-1.9s0.54-1.9,1.32-1.9a1.71,1.71,0,0,1,1.5,1.09h0.16V14.59H46.25a0.37,0.37,0,0,1-.3.16,10.17,10.17,0,0,0-1.32-.21,2.14,2.14,0,0,0-2.31,2.18,2.08,2.08,0,0,0,2.2,2,6.33,6.33,0,0,0,1.43-.27,0.34,0.34,0,0,1,.3.27h0.14V17.27H46.23Z"/><path class="st0" d="M33.91,18.64h3.48l0.42-1.21H37.65a1.81,1.81,0,0,1-1.52,1h-1l2.53-3.7V14.65H34.25l-0.37,1.12H34a1.88,1.88,0,0,1,1.48-.91h0.92l-2.5,3.64v0.14Z"/><path class="st0" d="M30.81,18.11c0,0.29-.09.32-0.51,0.32v0.21h2V18.43c-0.41,0-.51,0-0.51-0.32V15A0.18,0.18,0,0,1,32,14.83a1.67,1.67,0,0,1,1.26.93l0.16-.05-0.24-1.17H33a0.83,0.83,0,0,1-.4.11H30a0.66,0.66,0,0,1-.21,0l-0.19-.08H29.43l-0.24,1.17,0.16,0.05a1.67,1.67,0,0,1,1.26-.93,0.18,0.18,0,0,1,.21.21v3.07Z"/><path class="st0" d="M27.19,18.11c0,0.29-.09.32-0.5,0.32v0.21h2V18.43c-0.41,0-.5,0-0.5-0.32V15.18c0-.29.09-0.32,0.5-0.32V14.65h-2v0.21c0.41,0,.5,0,0.5.32v2.94Z"/><path class="st0" d="M25.57,18L24.9,17a0.61,0.61,0,0,0-.52-0.36v0a0.93,0.93,0,0,0,1-.87c0-.5-0.45-1.11-1.74-1.11h-2v0.21c0.41,0,.5,0,0.5.32v2.94c0,0.29-.09.32-0.5,0.32v0.21h2V18.43c-0.41,0-.51,0-0.51-0.32v-1.4a0.61,0.61,0,0,1,.68.26l0.93,1.67h1.37V18.43a0.59,0.59,0,0,1-.59-0.4m-2-1.5H23.17V14.86H23.4a0.86,0.86,0,0,1,1,.84,0.79,0.79,0,0,1-.9.83"/><path class="st0" d="M15.32,18.11c0,0.29-.09.32-0.51,0.32v0.21H18.5l0.31-1.16H18.63a1.7,1.7,0,0,1-1.71,1c-0.54,0-.61-0.08-0.61-0.24V16.68h0.26a1,1,0,0,1,1.17.76h0.16V15.66H17.74a1,1,0,0,1-1.17.81H16.31V15.11c0-.22.07-0.26,0.36-0.26a2.17,2.17,0,0,1,1.9.89h0.16l-0.4-1.1H14.81v0.21c0.41,0,.51,0,0.51.32v2.94Z"/><path class="st0" d="M12.68,18.11c0,0.29-.09.32-0.51,0.32v0.21h2V18.43c-0.41,0-.5,0-0.5-0.32V15.18c0-.29.09-0.32,0.5-0.32V14.65h-2v0.21c0.41,0,.51,0,0.51.32V16.4h-2V15.18c0-.29.09-0.32,0.51-0.32V14.65h-2v0.21c0.41,0,.5,0,0.5.32v2.94c0,0.29-.09.32-0.5,0.32v0.21h2V18.43c-0.41,0-.51,0-0.51-0.32V16.68h2v1.44Z"/><path class="st0" d="M6.13,18.11c0,0.29-.09.32-0.51,0.32v0.21h2V18.43c-0.41,0-.51,0-0.51-0.32V15a0.18,0.18,0,0,1,.21-0.21,1.67,1.67,0,0,1,1.26.93l0.16-.05L8.5,14.54H8.34a0.83,0.83,0,0,1-.4.11H5.3a0.65,0.65,0,0,1-.21,0l-0.19-.08H4.74L4.5,15.71l0.16,0.05a1.67,1.67,0,0,1,1.26-.93,0.18,0.18,0,0,1,.21.21v3.07Z"/><polygon class="st0" points="39.09 16.93 40.43 16.93 40.99 16.13 39.65 16.13 39.09 16.93"/><path class="st0" d="M74.19,17.32l-2.33-2.67H70.3v0.21c0.47,0,.54.06,0.54,0.47v2.23c0,0.8-.16.88-0.56,0.88v0.21h1.44V18.43c-0.46,0-.6-0.1-0.6-0.58V15.22l3.12,3.53h0.23V15.41A0.46,0.46,0,0,1,75,14.86V14.65H73.55v0.21c0.37,0,.64.07,0.64,0.54v1.92Z"/><path class="st0" d="M67.72,14.54a2.11,2.11,0,1,0,2.18,2.11,2.07,2.07,0,0,0-2.18-2.11m0,4c-0.75,0-1.09-.67-1.09-1.92s0.34-1.92,1.09-1.92,1.09,0.67,1.09,1.92-0.34,1.92-1.09,1.92"/><path class="st0" d="M62.54,18.11c0,0.29-.09.32-0.5,0.32v0.21h2V18.43c-0.41,0-.51,0-0.51-0.32V15a0.18,0.18,0,0,1,.21-0.21,1.67,1.67,0,0,1,1.26.93l0.16-.05-0.24-1.17H64.75a0.84,0.84,0,0,1-.4.11H61.71a0.66,0.66,0,0,1-.21,0l-0.19-.08H61.15l-0.24,1.17,0.16,0.05a1.67,1.67,0,0,1,1.26-.93,0.18,0.18,0,0,1,.21.21v3.07Z"/><path class="st0" d="M57.72,18.11c0,0.29-.09.32-0.51,0.32v0.21H61l0.3-1.16H61.11a1.79,1.79,0,0,1-1.86,1c-0.44,0-.53-0.08-0.53-0.28v-3c0-.29.09-0.32,0.51-0.32V14.65h-2v0.21c0.41,0,.51,0,0.51.32v2.94Z"/><path class="st0" d="M56.19,18l-0.66-1A0.61,0.61,0,0,0,55,16.65v0a0.93,0.93,0,0,0,1-.87c0-.5-0.45-1.11-1.74-1.11h-2v0.21c0.41,0,.5,0,0.5.32v2.94c0,0.29-.09.32-0.5,0.32v0.21h2V18.43c-0.41,0-.51,0-0.51-0.32v-1.4a0.61,0.61,0,0,1,.68.26l0.93,1.67h1.37V18.43a0.58,0.58,0,0,1-.59-0.4m-2-1.5H53.8V14.86H54a0.86,0.86,0,0,1,1,.84,0.79,0.79,0,0,1-.9.83"/><path class="st0" d="M51.19,18l-1.69-3.25a0.26,0.26,0,0,0-.13-0.16,3.65,3.65,0,0,1-.68.64,0.22,0.22,0,0,1,.13.18,0.4,0.4,0,0,1-.06.19l-1,2.11a0.86,0.86,0,0,1-.79.72v0.21H48.4V18.43c-0.39,0-.54-0.11-0.54-0.26a1.2,1.2,0,0,1,.23-0.55h1.82a1.51,1.51,0,0,1,.3.65c0,0.13-.12.17-0.54,0.17v0.21h2.17V18.43A0.58,0.58,0,0,1,51.19,18m-3-.61L49,15.7l0.82,1.68H48.18Z"/><path class="st0" d="M46.23,17.27a1.89,1.89,0,0,1-1.54,1.27c-0.61,0-1.28-.47-1.28-1.9s0.54-1.9,1.32-1.9a1.71,1.71,0,0,1,1.5,1.09h0.16V14.59H46.25a0.38,0.38,0,0,1-.3.16,10.22,10.22,0,0,0-1.32-.21,2.14,2.14,0,0,0-2.31,2.18,2.08,2.08,0,0,0,2.2,2,6.34,6.34,0,0,0,1.43-.27,0.34,0.34,0,0,1,.3.27h0.14V17.27H46.23Z"/><path class="st0" d="M33.91,18.64h3.48l0.42-1.2H37.65a1.8,1.8,0,0,1-1.52,1h-1l2.53-3.7V14.65H34.25l-0.37,1.12H34a1.88,1.88,0,0,1,1.48-.91h0.92l-2.5,3.64v0.14Z"/><path class="st0" d="M30.81,18.11c0,0.29-.09.32-0.51,0.32v0.21h2V18.43c-0.41,0-.51,0-0.51-0.32V15A0.18,0.18,0,0,1,32,14.84a1.67,1.67,0,0,1,1.26.93l0.16-.05-0.24-1.17H33a0.84,0.84,0,0,1-.4.11H30a0.66,0.66,0,0,1-.21,0l-0.19-.08H29.43l-0.24,1.17,0.16,0.05a1.67,1.67,0,0,1,1.26-.93,0.18,0.18,0,0,1,.21.21v3.07Z"/><path class="st0" d="M27.19,18.11c0,0.29-.09.32-0.51,0.32v0.21h2V18.43c-0.41,0-.51,0-0.51-0.32V15.18c0-.29.09-0.32,0.51-0.32V14.65h-2v0.21c0.41,0,.51,0,0.51.32v2.94Z"/><path class="st0" d="M25.57,18l-0.66-1a0.62,0.62,0,0,0-.52-0.36v0a0.93,0.93,0,0,0,1-.87c0-.5-0.45-1.11-1.74-1.11h-2v0.21c0.41,0,.5,0,0.5.32v2.94c0,0.29-.09.32-0.5,0.32v0.21h2V18.43c-0.41,0-.51,0-0.51-0.32v-1.4a0.61,0.61,0,0,1,.68.26l0.93,1.67h1.38V18.43a0.58,0.58,0,0,1-.59-0.4m-2-1.5H23.17V14.86H23.4a0.86,0.86,0,0,1,1,.84,0.79,0.79,0,0,1-.9.83"/><path class="st0" d="M15.32,18.11c0,0.29-.09.32-0.51,0.32v0.21h3.69l0.31-1.16H18.63a1.7,1.7,0,0,1-1.71,1c-0.54,0-.61-0.08-0.61-0.24V16.68h0.26a1,1,0,0,1,1.17.76h0.16V15.66H17.75a1,1,0,0,1-1.17.81H16.31V15.11c0-.22.07-0.26,0.37-0.26a2.17,2.17,0,0,1,1.9.89h0.16l-0.4-1.1H14.82v0.21c0.41,0,.51,0,0.51.32v2.94Z"/><path class="st0" d="M12.68,18.11c0,0.29-.09.32-0.51,0.32v0.21h2V18.43c-0.41,0-.51,0-0.51-0.32V15.18c0-.29.09-0.32,0.51-0.32V14.65h-2v0.21c0.41,0,.51,0,0.51.32V16.4h-2V15.18c0-.29.09-0.32,0.51-0.32V14.65h-2v0.21c0.41,0,.51,0,0.51.32v2.94c0,0.29-.09.32-0.51,0.32v0.21h2V18.43c-0.41,0-.51,0-0.51-0.32V16.68h2v1.44Z"/><path class="st0" d="M6.13,18.11c0,0.29-.09.32-0.51,0.32v0.21h2V18.43c-0.41,0-.51,0-0.51-0.32V15a0.18,0.18,0,0,1,.21-0.21,1.67,1.67,0,0,1,1.26.93l0.16-.05L8.51,14.54H8.35a0.84,0.84,0,0,1-.4.11H5.31a0.66,0.66,0,0,1-.21,0l-0.19-.08H4.75L4.51,15.71l0.16,0.05a1.67,1.67,0,0,1,1.26-.93,0.18,0.18,0,0,1,.21.21v3.07Z"/><polygon class="st0" points="39.09 16.93 40.43 16.93 40.99 16.13 39.65 16.13 39.09 16.93"/><path class="st0" d="M7.72,25.37L6.52,23.68H5.6v1.69H5.19V21.22H6.83a1.2,1.2,0,0,1,1.33,1.22A1.16,1.16,0,0,1,7,23.66l1.26,1.71H7.72Zm0-2.93a0.83,0.83,0,0,0-.93-0.85H5.6v1.72H6.8a0.83,0.83,0,0,0,.93-0.87"/><polygon class="st0" points="10.19 25.37 10.19 21.21 12.97 21.21 12.97 21.59 10.61 21.59 10.61 23.05 12.94 23.05 12.94 23.42 10.61 23.42 10.61 25 12.97 25 12.97 25.37 10.19 25.37"/><polygon class="st0" points="18.24 25.37 17.2 21.87 16.18 25.37 15.74 25.37 14.49 21.21 14.94 21.21 15.96 24.77 17.02 21.21 17.39 21.21 18.44 24.78 19.47 21.21 19.92 21.21 18.68 25.37 18.24 25.37"/><path class="st0" d="M23.23,21.22L25,25.37H24.55l-0.44-1H21.86l-0.42,1H21l1.79-4.15h0.48ZM23,21.67L22,24h2Z"/><path class="st0" d="M29.24,25.37L28,23.68H27.12v1.69H26.71V21.22h1.65a1.2,1.2,0,0,1,1.33,1.22,1.17,1.17,0,0,1-1.19,1.22l1.26,1.71H29.24Zm0-2.93a0.83,0.83,0,0,0-.93-0.85h-1.2v1.72h1.2a0.83,0.83,0,0,0,.93-0.87"/><path class="st0" d="M31.71,25.37V21.22h1.4a2.08,2.08,0,1,1,0,4.15h-1.4Zm3.16-2.07a1.64,1.64,0,0,0-1.76-1.71h-1V25h1a1.64,1.64,0,0,0,1.76-1.7"/><path class="st0" d="M37,24.8l0.26-.29a1.82,1.82,0,0,0,1.34.6,0.92,0.92,0,0,0,1.13-.83c0-1.21-2.6-.53-2.6-2a1.27,1.27,0,0,1,1.44-1.13,2,2,0,0,1,1.49.6L39.8,22a1.6,1.6,0,0,0-1.25-.52,0.89,0.89,0,0,0-1,.76c0,1,2.61.44,2.61,2,0,0.65-.48,1.2-1.57,1.2A2.05,2.05,0,0,1,37,24.8"/></svg>