
<!-- Generator: Adobe Illustrator 21.0.0, SVG Export Plug-In . SVG Version: 6.00 Build 0)  -->
<svg version="1.1" id="Layer_1" xmlns="http://www.w3.org/2000/svg" xmlns:xlink="http://www.w3.org/1999/xlink" x="0px" y="0px"
	 viewBox="0 0 80 40" style="enable-background:new 0 0 80 40;" xml:space="preserve">
<style type="text/css">
	.st0{fill:#FFFFFF;}
</style>
<path class="st0" d="M12.1,20c0,0.6-0.1,1-0.3,1.3c-0.2,0.3-0.6,0.4-1.1,0.4c-0.5,0-0.9-0.1-1.1-0.4s-0.3-0.7-0.3-1.3v-4.5H7.6v4.7
	c0,0.8,0.3,1.5,0.8,2c0.5,0.5,1.3,0.7,2.2,0.7c0.6,0,1.2-0.1,1.6-0.3c0.5-0.2,0.8-0.5,1.1-0.9c0.2-0.4,0.4-0.9,0.4-1.4v-4.8h-1.6V20
	z M20.6,19c0,0.4,0,1.1,0.1,2h0l-3.2-5.5h-2v7.4h1.4v-3.5c0-0.4,0-1.1-0.1-2.1h0l3.2,5.6h2v-7.4h-1.4V19z M28,19.1L28,19.1
	c0.3-0.1,0.6-0.3,0.8-0.6c0.2-0.3,0.3-0.6,0.3-1.1c0-0.6-0.2-1.1-0.7-1.4s-1.2-0.4-2.3-0.4h-2.3v7.4h2.8c0.8,0,1.5-0.2,2-0.6
	c0.5-0.4,0.7-0.9,0.7-1.6c0-0.5-0.1-0.9-0.3-1.1C28.8,19.3,28.5,19.2,28,19.1z M25.4,16.8h0.8c0.4,0,0.8,0.1,1,0.2
	c0.2,0.1,0.3,0.3,0.3,0.6c0,0.3-0.1,0.5-0.3,0.6s-0.5,0.2-0.9,0.2h-0.9V16.8z M27.4,21.4c-0.2,0.2-0.5,0.2-1,0.2h-1v-1.9h1
	c0.9,0,1.3,0.3,1.3,0.9C27.7,21,27.6,21.2,27.4,21.4z M35.5,18.9c0.2-0.3,0.4-0.7,0.4-1.2c0-0.7-0.2-1.3-0.7-1.7
	c-0.5-0.4-1.2-0.5-2.2-0.5h-2.1v7.4h1.6v-2.8h0.8l1.8,2.8h1.7c-0.3-0.5-1.1-1.6-2.2-3.2C35,19.5,35.3,19.2,35.5,18.9z M34,18.6
	c-0.2,0.2-0.6,0.2-1.1,0.2h-0.5v-2h0.5c0.5,0,0.9,0.1,1.1,0.2c0.2,0.1,0.4,0.4,0.4,0.7C34.3,18.1,34.2,18.4,34,18.6z M39.3,15.5
	l-2.6,7.4h1.7l0.5-1.8h2.7l0.5,1.8h1.7l-2.6-7.4H39.3z M39.3,19.8c0.5-1.7,0.8-2.8,1-3.2c0,0.1,0.1,0.3,0.1,0.5
	c0.1,0.2,0.3,1.1,0.8,2.7H39.3z M49.9,19c0,0.4,0,1.1,0.1,2h0l-3.2-5.5h-2v7.4h1.4v-3.5c0-0.4,0-1.1-0.1-2.1h0l3.2,5.6h2v-7.4h-1.4
	V19z M55.4,15.5h-2.3v7.4h2.1c1.3,0,2.3-0.3,3-1c0.7-0.6,1-1.6,1-2.8c0-1.1-0.3-2-1-2.7S56.6,15.5,55.4,15.5z M55.4,21.6h-0.7v-4.8
	h0.8c1.4,0,2.1,0.8,2.1,2.4C57.6,20.8,56.9,21.6,55.4,21.6z M60.8,22.9H65v-1.3h-2.7v-1.9h2.5v-1.3h-2.5v-1.6H65v-1.3h-4.2V22.9z
	 M71.7,16.5c-0.7-0.6-1.6-1-2.8-1h-2.3v7.4h2.1c1.3,0,2.3-0.3,3-1c0.7-0.6,1-1.6,1-2.8C72.7,18,72.3,17.1,71.7,16.5z M68.8,21.6
	h-0.7v-4.8h0.8c1.4,0,2.1,0.8,2.1,2.4C71,20.8,70.3,21.6,68.8,21.6z"/>
</svg>
