
<!-- Generator: Adobe Illustrator 19.2.1, SVG Export Plug-In . SVG Version: 6.00 Build 0)  -->
<svg version="1.1" id="Layer_1" xmlns="http://www.w3.org/2000/svg" xmlns:xlink="http://www.w3.org/1999/xlink" x="0px" y="0px"
	 viewBox="0 0 80 40" style="enable-background:new 0 0 80 40;" xml:space="preserve">
<style type="text/css">
	.st0{fill:#FFFFFF;}
</style>
<g>
	<path class="st0" d="M54.6,13.5l-2.9,2.9C51.7,16.3,55.1,18.6,54.6,13.5"/>
	<path class="st0" d="M48.3,19.7l2.9-2.9C51.2,16.9,47.8,14.7,48.3,19.7"/>
	<path class="st0" d="M54.6,19.7l-2.9-2.9C51.7,16.9,49.5,20.2,54.6,19.7"/>
	<path class="st0" d="M48.3,13.5l2.9,2.9C51.2,16.3,53.4,13,48.3,13.5"/>
	<polygon class="st0" points="25.5,14.1 25.5,16.3 27.9,16.3 27.9,16.9 25.5,16.9 25.5,19.7 24.8,19.7 24.8,13.5 28.2,13.5 
		28.2,14.1 	"/>
	<path class="st0" d="M40.7,19.7v-1c-0.2,0.2-0.8,1.1-2,1.1c-1.2,0-2-0.9-2-2.2v-4.1h0.7v4.1c0,1,0.6,1.7,1.5,1.7
		c1.1,0,1.7-1,1.9-1.4v-4.4h0.6v6.2H40.7z"/>
	<path class="st0" d="M44.3,14.1h-0.7v2.5h0.7c0.7,0,1.5-0.3,1.5-1.3C45.8,14.5,45.3,14.1,44.3,14.1 M46.7,19.8
		c-0.5,0-0.7-0.3-1-0.6l-1.4-2.1h-0.7v2.6h-0.6v-6.2h1.4c1.3,0,2.1,0.7,2.1,1.8c0,1-0.7,1.6-1.5,1.7l1.3,1.9
		c0.2,0.3,0.3,0.4,0.5,0.4c0.2,0,0.3-0.1,0.4-0.2l0.2,0.2C47.5,19.4,47.2,19.8,46.7,19.8"/>
	<path class="st0" d="M32.3,13.9c-1.5,0-2.7,1.2-2.7,2.7c0,1.5,1.1,2.7,2.7,2.7c1.6,0,2.7-1.2,2.7-2.7C35,15.1,33.8,13.9,32.3,13.9
		 M32.3,19.9c-1.9,0-3.4-1.5-3.4-3.3c0-1.8,1.4-3.3,3.4-3.3c1.9,0,3.4,1.5,3.4,3.3C35.7,18.4,34.2,19.9,32.3,19.9"/>
	<path class="st0" d="M26.3,22h-0.9v2.4h0.8c0.7,0,1.5-0.3,1.5-1.3C27.7,22.4,27.2,22,26.3,22 M26.4,24.9h-0.9v2.7h-0.6v-6.2h1.6
		c1.3,0,2.1,0.7,2.1,1.8C28.4,24.4,27.3,24.9,26.4,24.9"/>
	<path class="st0" d="M32.3,21.8c-1.5,0-2.7,1.2-2.7,2.7c0,1.5,1.2,2.7,2.7,2.7c1.6,0,2.7-1.2,2.7-2.7C35,23,33.8,21.8,32.3,21.8
		 M32.3,27.8c-1.9,0-3.4-1.5-3.4-3.3c0-1.8,1.4-3.3,3.4-3.3c1.9,0,3.4,1.5,3.4,3.3C35.7,26.3,34.2,27.8,32.3,27.8"/>
	<rect x="37.1" y="21.4" class="st0" width="0.6" height="6.2"/>
	<polygon class="st0" points="44,27.6 44,26.3 40.2,22.5 40.2,27.6 39.5,27.6 39.5,21.4 39.9,21.4 44,25.4 44,21.4 44.7,21.4 
		44.7,27.6 	"/>
	<polygon class="st0" points="48.4,22 48.4,27.6 47.8,27.6 47.8,22 45.6,22 45.6,21.4 50.6,21.4 50.6,22 	"/>
	<path class="st0" d="M52.6,27.8c-0.6,0-1.2-0.2-1.7-0.4v-0.7c0.3,0.2,1,0.6,1.7,0.6c0.7,0,1.3-0.4,1.3-1c0-0.5-0.5-0.9-0.9-1.2
		l-1-0.6c-0.5-0.3-1-0.8-1-1.6c0-1.1,0.8-1.6,1.8-1.6c0.7,0,1.1,0.2,1.4,0.4v0.7c-0.3-0.2-0.9-0.4-1.4-0.4c-0.7,0-1.1,0.4-1.1,1
		c0,0.5,0.4,0.8,0.9,1.1l0.9,0.6c0.5,0.3,1.1,0.8,1.1,1.7C54.6,27.2,53.8,27.8,52.6,27.8"/>
</g>
</svg>
