
<!-- Generator: Adobe Illustrator 19.2.1, SVG Export Plug-In . SVG Version: 6.00 Build 0)  -->
<svg version="1.1" id="Layer_1" xmlns="http://www.w3.org/2000/svg" xmlns:xlink="http://www.w3.org/1999/xlink" x="0px" y="0px"
	 viewBox="0 0 80 40" style="enable-background:new 0 0 80 40;" xml:space="preserve">
<style type="text/css">
	.st0{fill:#FFFFFF;}
</style>
<g>
	<polygon class="st0" points="33.1,36.3 33.3,36.3 33.8,37 34.3,36.3 34.6,36.3 34.6,37.9 34.3,37.9 34.3,36.8 33.9,37.4 33.7,37.4 
		33.3,36.8 33.3,37.9 33,37.9 	"/>
	<path class="st0" d="M36.2,37.2L36,36.6l-0.2,0.6H36.2z M35.8,36.3h0.3l0.6,1.6h-0.3l-0.1-0.4h-0.6l-0.1,0.4h-0.3L35.8,36.3z"/>
	<path class="st0" d="M37.9,37c0.1,0,0.1,0,0.2-0.1c0,0,0.1-0.1,0.1-0.2c0-0.1,0-0.1-0.1-0.2c0,0-0.1-0.1-0.2-0.1h-0.3V37H37.9z
		 M37.3,36.3h0.6c0.1,0,0.2,0,0.3,0c0.1,0,0.1,0.1,0.2,0.1c0,0,0.1,0.1,0.1,0.2c0,0.1,0,0.1,0,0.2c0,0.1,0,0.2-0.1,0.3
		c0,0.1-0.1,0.1-0.2,0.2l0.4,0.7h-0.3l-0.3-0.6h-0.3v0.6h-0.3V36.3z"/>
	<path class="st0" d="M39.8,37c0.1,0,0.1,0,0.2-0.1c0,0,0.1-0.1,0.1-0.2c0-0.1,0-0.1-0.1-0.2c0,0-0.1-0.1-0.2-0.1h-0.3V37H39.8z
		 M39.2,36.3h0.6c0.1,0,0.2,0,0.3,0c0.1,0,0.1,0.1,0.2,0.1c0,0,0.1,0.1,0.1,0.2c0,0.1,0,0.1,0,0.2c0,0.1,0,0.2-0.1,0.3
		c0,0.1-0.1,0.1-0.2,0.2l0.4,0.7h-0.3l-0.3-0.6h-0.3v0.6h-0.3V36.3z"/>
	<polygon class="st0" points="41.2,36.3 41.2,36.9 41.2,37.9 41.5,37.9 41.5,37.2 41.5,36.3 	"/>
	<path class="st0" d="M43,37.6c0.1,0,0.1,0,0.2,0c0.1,0,0.1-0.1,0.2-0.1c0,0,0.1-0.1,0.1-0.2c0-0.1,0-0.1,0-0.2c0-0.1,0-0.1,0-0.2
		c0-0.1-0.1-0.1-0.1-0.2c0-0.1-0.1-0.1-0.2-0.1c-0.1,0-0.1,0-0.2,0c-0.1,0-0.1,0-0.2,0c-0.1,0-0.1,0.1-0.2,0.1c0,0-0.1,0.1-0.1,0.2
		c0,0.1,0,0.1,0,0.2c0,0.1,0,0.1,0,0.2c0,0.1,0.1,0.1,0.1,0.2c0,0.1,0.1,0.1,0.2,0.1C42.9,37.6,42.9,37.6,43,37.6 M43,37.9
		c-0.1,0-0.2,0-0.3-0.1c-0.1,0-0.2-0.1-0.3-0.2c-0.1-0.1-0.1-0.2-0.2-0.3c0-0.1-0.1-0.2-0.1-0.3c0-0.1,0-0.2,0.1-0.3
		c0-0.1,0.1-0.2,0.2-0.3c0.1-0.1,0.2-0.1,0.3-0.2c0.1,0,0.2-0.1,0.3-0.1c0.1,0,0.2,0,0.3,0.1c0.1,0,0.2,0.1,0.3,0.2
		c0.1,0.1,0.1,0.2,0.2,0.3c0,0.1,0.1,0.2,0.1,0.3c0,0.1,0,0.2-0.1,0.3c0,0.1-0.1,0.2-0.2,0.3c-0.1,0.1-0.2,0.1-0.3,0.2
		C43.2,37.9,43.1,37.9,43,37.9"/>
	<polygon class="st0" points="44.8,36.5 44.2,36.5 44.2,36.3 45.6,36.3 45.6,36.5 45,36.5 45,37.9 44.8,37.9 	"/>
	<polygon class="st0" points="46.6,36.5 46.1,36.5 46.1,36.3 47.4,36.3 47.4,36.5 46.9,36.5 46.9,37.9 46.6,37.9 	"/>
	<path class="st0" d="M43.1,4.5c-0.9-0.9-2.1-1.4-3.3-1.4h-3.5c-0.2,0-0.3,0.2-0.3,0.5c0,0.3,0.1,0.5,0.3,0.5h3.5
		c1,0,1.9,0.4,2.6,1.1C43,6,43.4,6.9,43.4,7.9c0,1-0.4,1.9-1.1,2.6c-0.7,0.7-1.6,1.1-2.6,1.1h-2.5c-0.2,0-0.3-0.1-0.3-0.3V7.3
		C37,7.1,36.8,7,36.5,7C36.2,7,36,7.1,36,7.3V12c0,0.3,0.2,0.5,0.5,0.5h3.3c1.2,0,2.4-0.5,3.3-1.4c0.9-0.9,1.4-2.1,1.4-3.3
		S44,5.4,43.1,4.5"/>
	<path class="st0" d="M28.1,23.1c1.2,0,2.1-0.9,2.1-2.1c0-1.2-0.9-2.1-2.1-2.1H27v4.1H28.1z M26.2,18.4c0-0.1,0.1-0.2,0.1-0.2h1.9
		c1.6,0,2.8,1.3,2.8,2.8c0,1.6-1.3,2.8-2.8,2.8h-1.9c-0.1,0-0.1-0.1-0.1-0.2V18.4z"/>
	<path class="st0" d="M33.4,18.4c0-0.1,0.1-0.2,0.2-0.2h3.2c0.1,0,0.2,0.1,0.2,0.2v0.5c0,0.1-0.1,0.2-0.2,0.2h-2.6v1.7h2.2
		c0.1,0,0.2,0.1,0.2,0.2v0.5c0,0.1-0.1,0.2-0.2,0.2h-2.2v1.7h2.6c0.1,0,0.2,0.1,0.2,0.2v0.4c0,0.1-0.1,0.2-0.2,0.2h-3.2
		c-0.1,0-0.2-0.1-0.2-0.2V18.4z"/>
	<path class="st0" d="M39.6,18.4c0-0.1,0.1-0.2,0.2-0.2h0.5c0.1,0,0.2,0.1,0.2,0.2v4.8h2.2c0.1,0,0.2,0.1,0.2,0.2v0.4
		c0,0.1-0.1,0.2-0.2,0.2h-2.9c-0.1,0-0.2-0.1-0.2-0.2V18.4z"/>
	<path class="st0" d="M45.4,19h-1.3c-0.1,0-0.2-0.1-0.2-0.2v-0.5c0-0.1,0.1-0.2,0.2-0.2h3.5c0.1,0,0.2,0.1,0.2,0.2v0.5
		c0,0.1-0.1,0.2-0.2,0.2h-1.3v4.8c0,0.1-0.1,0.2-0.2,0.2h-0.5c-0.1,0-0.2-0.1-0.2-0.2V19z"/>
	<path class="st0" d="M52.6,22l-1-2.2h0l-1,2.2H52.6z M48.9,23.7l2.5-5.5c0,0,0.1-0.1,0.1-0.1h0.1c0,0,0.1,0,0.1,0.1l2.5,5.5
		c0,0.1,0,0.2-0.1,0.2h-0.5c-0.1,0-0.2,0-0.2-0.1l-0.5-1.1h-2.7c-0.2,0.4-0.3,0.7-0.5,1.1c0,0.1-0.1,0.1-0.2,0.1h-0.5
		C48.9,23.9,48.9,23.8,48.9,23.7"/>
	<path class="st0" d="M30.4,26.9C30.4,26.8,30.4,26.8,30.4,26.9l0.4-0.1c0,0,0.1,0,0.1,0.1v1.2h1.6v-1.2c0,0,0-0.1,0.1-0.1h0.3
		c0,0,0.1,0,0.1,0.1v2.9c0,0,0,0.1-0.1,0.1h-0.3c0,0-0.1,0-0.1-0.1v-1.3h-1.6v1.3c0,0,0,0.1-0.1,0.1h-0.3c0,0-0.1,0-0.1-0.1V26.9z"
		/>
	<path class="st0" d="M35.8,29.5c0.6,0,1.2-0.5,1.2-1.2c0-0.6-0.5-1.2-1.2-1.2c-0.6,0-1.2,0.5-1.2,1.2C34.7,29,35.2,29.5,35.8,29.5
		 M35.8,26.7c0.9,0,1.6,0.7,1.6,1.6c0,0.9-0.7,1.6-1.6,1.6c-0.9,0-1.6-0.7-1.6-1.6C34.3,27.5,35,26.7,35.8,26.7"/>
	<path class="st0" d="M39.1,27.2h-0.7c0,0-0.1,0-0.1-0.1v-0.2c0,0,0-0.1,0.1-0.1h1.9c0,0,0.1,0,0.1,0.1v0.2c0,0,0,0.1-0.1,0.1h-0.7
		v2.6c0,0,0,0.1-0.1,0.1h-0.3c0,0-0.1,0-0.1-0.1V27.2z"/>
	<path class="st0" d="M41.7,26.9C41.7,26.8,41.8,26.8,41.7,26.9l1.9-0.1c0,0,0.1,0,0.1,0.1v0.2c0,0,0,0.1-0.1,0.1h-1.4v0.9h1.2
		c0,0,0.1,0,0.1,0.1v0.2c0,0,0,0.1-0.1,0.1h-1.2v1h1.4c0,0,0.1,0,0.1,0.1v0.2c0,0,0,0.1-0.1,0.1h-1.8c0,0-0.1,0-0.1-0.1V26.9z"/>
	<path class="st0" d="M45.2,26.9C45.2,26.8,45.2,26.8,45.2,26.9l0.4-0.1c0,0,0.1,0,0.1,0.1v2.6h1.2c0,0,0.1,0,0.1,0.1v0.2
		c0,0,0,0.1-0.1,0.1h-1.6c0,0-0.1,0-0.1-0.1V26.9z"/>
	<path class="st0" d="M48.1,29.5c0-0.1,0.1-0.1,0.1-0.2c0-0.1,0.1-0.1,0.2,0c0,0,0.4,0.3,0.7,0.3c0.3,0,0.5-0.2,0.5-0.4
		c0-0.3-0.2-0.4-0.7-0.6c-0.5-0.2-0.8-0.4-0.8-0.9c0-0.3,0.3-0.8,1-0.8c0.4,0,0.8,0.2,0.8,0.3c0,0,0.1,0.1,0,0.2
		c0,0.1-0.1,0.1-0.1,0.2c0,0.1-0.1,0.1-0.2,0c0,0-0.3-0.2-0.6-0.2c-0.4,0-0.5,0.2-0.5,0.4c0,0.3,0.2,0.4,0.6,0.6c0.5,0.2,1,0.5,1,1
		c0,0.5-0.4,0.8-1,0.8c-0.5,0-0.9-0.3-1-0.4C48,29.6,48,29.5,48.1,29.5"/>
	<polygon class="st0" points="39.3,33 30.4,33 30.4,33.2 41.2,33.2 50,33.2 50,33 	"/>
</g>
</svg>
