
<!-- Generator: Adobe Illustrator 19.2.1, SVG Export Plug-In . SVG Version: 6.00 Build 0)  -->
<svg version="1.1" id="Layer_1" xmlns="http://www.w3.org/2000/svg" xmlns:xlink="http://www.w3.org/1999/xlink" x="0px" y="0px"
	 viewBox="0 0 80 40" style="enable-background:new 0 0 80 40;" xml:space="preserve">
<style type="text/css">
	.st0{fill:#FFFFFF;}
</style>
<g>
	<path class="st0" d="M39,17.8c0,0.7,0,1-0.2,1.2c-0.2,0.2-0.4,0.3-0.7,0.3h-0.7v-3h0.7c0.3,0,0.5,0.1,0.7,0.3
		C39,16.9,39,17.1,39,17.8 M39.9,17.8c0-0.7,0.1-1.3-0.5-1.8c-0.3-0.3-0.7-0.4-1.2-0.4h-1.6v4.6h1.6c0.5,0,0.9-0.1,1.2-0.4
		C40,19.2,39.9,18.5,39.9,17.8"/>
	<polygon class="st0" points="40.7,20.1 43.5,20.1 43.5,19.3 41.5,19.3 41.5,18.2 43.2,18.2 43.2,17.4 41.5,17.4 41.5,16.3 
		43.5,16.3 43.5,15.5 40.7,15.5 	"/>
	<path class="st0" d="M45.1,16.7c0-0.2,0.2-0.4,0.6-0.4c0.3,0,0.7,0.2,1,0.4l0.1,0l0.5-0.7l0,0c-0.4-0.4-0.9-0.5-1.4-0.5
		c-0.9,0-1.5,0.5-1.5,1.3c0,0.8,0.5,1.1,1.3,1.4c0.7,0.3,0.8,0.4,0.8,0.7c0,0.3-0.2,0.5-0.6,0.5c-0.4,0-0.8-0.2-1.1-0.5l-0.1-0.1
		l-0.5,0.7l0,0c0.5,0.5,1.1,0.7,1.6,0.7c0.9,0,1.5-0.5,1.5-1.4c0-0.7-0.4-1-1.2-1.4C45.3,17.1,45.1,17,45.1,16.7"/>
	<rect x="48.4" y="15.5" class="st0" width="0.9" height="4.6"/>
	<path class="st0" d="M53.2,19.6c0.3-0.3,0.4-0.7,0.4-1.4v0v-0.8h-1.7v0.8h0.9v0.3c0,0.3-0.1,0.5-0.2,0.6c-0.2,0.2-0.4,0.3-0.7,0.3
		c-0.2,0-0.4-0.1-0.6-0.2c-0.2-0.2-0.2-0.4-0.2-1.3c0-0.9,0.1-1.1,0.2-1.3c0.1-0.1,0.3-0.2,0.5-0.2c0,0,0.1,0,0.1,0
		c0.3,0,0.7,0.2,1,0.4l0.1,0l0.5-0.7l0,0c-0.4-0.4-0.9-0.5-1.4-0.5l-0.1,0c-0.5,0-0.9,0.2-1.2,0.5c-0.2,0.2-0.3,0.4-0.4,0.7
		c-0.1,0.3-0.1,0.6-0.1,1.1c0,0.5,0,0.9,0.1,1.1c0.1,0.3,0.2,0.5,0.4,0.7c0.3,0.3,0.7,0.5,1.2,0.5C52.4,20.1,52.9,20,53.2,19.6"/>
	<polygon class="st0" points="57.2,20.1 57.9,20.1 57.9,15.5 57.1,15.5 57.1,18.3 55.2,15.5 54.5,15.5 54.5,20.1 55.3,20.1 
		55.3,17.3 	"/>
	<polygon class="st0" points="39,25.5 39.9,25.5 39.9,21 39,21 39,22.8 37.5,22.8 37.5,21 36.6,21 36.6,25.5 37.5,25.5 37.5,23.6 
		39,23.6 	"/>
	<path class="st0" d="M43.3,23.2c0,0.9-0.1,1.1-0.2,1.3c-0.1,0.1-0.3,0.2-0.6,0.2c-0.2,0-0.5-0.1-0.6-0.2c-0.2-0.2-0.2-0.4-0.2-1.3
		s0-1.1,0.2-1.3c0.1-0.1,0.3-0.2,0.6-0.2c0.2,0,0.4,0.1,0.6,0.2C43.2,22.1,43.3,22.4,43.3,23.2 M43.7,25.1c0.5-0.5,0.5-1,0.5-1.8
		c0-0.8,0-1.4-0.5-1.8c-0.3-0.3-0.7-0.5-1.2-0.5c-0.5,0-0.9,0.2-1.2,0.5c-0.5,0.5-0.5,1-0.5,1.8c0,0.8,0,1.4,0.5,1.8
		c0.3,0.3,0.7,0.5,1.2,0.5C43,25.6,43.4,25.4,43.7,25.1"/>
	<polygon class="st0" points="46.6,21.8 47.7,21.8 47.7,21 44.6,21 44.6,21.8 45.7,21.8 45.7,25.5 46.6,25.5 	"/>
	<polygon class="st0" points="48.4,25.5 51.2,25.5 51.2,24.7 49.2,24.7 49.2,23.6 50.9,23.6 50.9,22.8 49.2,22.8 49.2,21.8 
		51.2,21.8 51.2,21 48.4,21 	"/>
	<polygon class="st0" points="52.2,25.5 54.5,25.5 54.5,24.7 53.1,24.7 53.1,21 52.2,21 	"/>
	<path class="st0" d="M56,22.2c0-0.2,0.2-0.4,0.6-0.4c0.3,0,0.7,0.2,1,0.4l0.1,0l0.5-0.7l0,0c-0.4-0.4-0.9-0.5-1.4-0.5
		c-0.9,0-1.5,0.5-1.5,1.3c0,0.8,0.5,1.1,1.3,1.4c0.7,0.3,0.8,0.4,0.8,0.7c0,0.3-0.2,0.5-0.6,0.5c-0.4,0-0.8-0.2-1.1-0.5l-0.1-0.1
		l-0.5,0.7l0,0c0.5,0.5,1.1,0.7,1.6,0.7c0.9,0,1.5-0.5,1.5-1.4c0-0.7-0.4-1-1.2-1.4C56.1,22.6,56,22.4,56,22.2"/>
	<path class="st0" d="M30.5,22.6c0,0.6-0.3,0.8-0.8,0.8h0c-0.4,0-0.8-0.2-0.8-0.8v-4.4c0-0.5,0.3-0.8,0.8-0.8h0
		c0.4,0,0.8,0.2,0.8,0.8V22.6z M28.2,22.6c0,0.6-0.3,0.8-0.8,0.8h0c-0.4,0-0.8-0.2-0.8-0.8v-2c0-0.5,0.3-0.8,0.8-0.8h0
		c0.4,0,0.8,0.2,0.8,0.8V22.6z M28.7,15.2c-3,0-5.4,2.4-5.4,5.4c0,3,2.4,5.4,5.4,5.4c3,0,5.4-2.4,5.4-5.4
		C34.1,17.6,31.7,15.2,28.7,15.2"/>
</g>
</svg>
