
<!-- Generator: Adobe Illustrator 19.2.1, SVG Export Plug-In . SVG Version: 6.00 Build 0)  -->
<svg version="1.1" id="Layer_1" xmlns="http://www.w3.org/2000/svg" xmlns:xlink="http://www.w3.org/1999/xlink" x="0px" y="0px"
	 viewBox="0 0 80 40" style="enable-background:new 0 0 80 40;" xml:space="preserve">
<style type="text/css">
	.st0{fill:#FFFFFF;}
</style>
<g>
	<path class="st0" d="M48,14.9l-0.7,0.4c0.1,0.4,0.1,0.8,0.1,1.2c0,3.7-3,6.6-6.6,6.6c-1.6,0-3.2-0.6-4.3-1.6
		C35.7,20.9,35,20,34.6,19c-0.3-0.7-0.4-1.5-0.4-2.4c0-3.7,3-6.6,6.6-6.6c2.1,0,4,1,5.2,2.5l0.7-0.4c-1.4-1.7-3.5-2.9-5.8-2.9
		c-4.1,0-7.4,3.3-7.4,7.4c0,1,0.2,1.9,0.5,2.8c0.4,1,1,1.9,1.8,2.6c1.3,1.2,3.1,2,5,2c4.1,0,7.4-3.3,7.4-7.4
		C48.2,16,48.2,15.5,48,14.9"/>
	<path class="st0" d="M40.8,11.2c-2.9,0-5.3,2.4-5.3,5.3c0,0.6,0.1,1.2,0.3,1.8l9.1-5.2C43.9,12,42.5,11.2,40.8,11.2"/>
	<path class="st0" d="M28.3,29.2c-0.2,0-0.4,0.1-0.6,0.2c-0.3,0.2-0.5,0.5-0.5,0.9c0,0.1,0,0.3,0.1,0.4c0.3-0.2,1.4-0.9,1.7-1.1
		C28.9,29.4,28.6,29.2,28.3,29.2 M28.3,31.9c-0.5,0-1-0.3-1.3-0.7c-0.2-0.3-0.2-0.6-0.2-0.8c0-0.1,0-0.2,0-0.4
		c0.1-0.4,0.4-0.7,0.7-1c0.3-0.2,0.5-0.2,0.8-0.2c0.5,0,1,0.3,1.3,0.8l0.1,0.2l-0.1,0.1c0,0-1.7,1-2.1,1.3c0.2,0.2,0.5,0.4,0.8,0.4
		c0.2,0,0.4-0.1,0.6-0.2c0.3-0.2,0.5-0.5,0.6-0.9l0-0.1l0.5,0l0,0.1c-0.1,0.4-0.2,0.9-0.8,1.2C28.9,31.8,28.6,31.9,28.3,31.9"/>
	<path class="st0" d="M34.8,29.2c-0.2,0-0.4,0.1-0.5,0.2c-0.3,0.2-0.5,0.5-0.5,0.9c0,0.1,0,0.3,0.1,0.4c0.3-0.2,1.4-0.9,1.8-1.1
		C35.4,29.3,35.1,29.2,34.8,29.2 M34.8,31.8c-0.1,0-0.2,0-0.3,0c-0.4-0.1-0.7-0.3-1-0.7c-0.2-0.4-0.3-0.8-0.2-1.2
		c0.1-0.4,0.3-0.7,0.7-1c0.4-0.2,0.8-0.3,1.1-0.2c0.4,0.1,0.8,0.4,1,0.7l0.1,0.2l-0.1,0.1c0,0-1.7,1-2.1,1.3
		c0.2,0.2,0.5,0.4,0.8,0.4c0.2,0,0.5-0.1,0.6-0.2c0.3-0.2,0.5-0.5,0.6-0.9l0-0.1l0.5,0l0,0.2c0,0.4-0.2,0.9-0.8,1.2
		C35.4,31.7,35.1,31.8,34.8,31.8"/>
	<path class="st0" d="M45.6,29.2c-0.2,0-0.4,0.1-0.6,0.2c-0.3,0.2-0.5,0.5-0.5,0.9c0,0.1,0,0.3,0.1,0.4c0.3-0.2,1.4-0.9,1.8-1.1
		C46.1,29.3,45.8,29.2,45.6,29.2 M45.6,31.8c-0.5,0-1-0.3-1.3-0.7c-0.2-0.3-0.3-0.5-0.3-0.8c0-0.5,0.3-1,0.8-1.3
		c0.3-0.2,0.5-0.3,0.8-0.3c0.5,0,1,0.3,1.3,0.8l0.1,0.2l-0.1,0.1c0,0-1.7,1-2.1,1.3c0.2,0.3,0.5,0.4,0.8,0.4c0.2,0,0.4-0.1,0.6-0.2
		c0.3-0.2,0.5-0.5,0.6-0.9l0-0.1l0.5,0l0,0.2c-0.1,0.4-0.3,0.9-0.8,1.2C46.2,31.7,45.9,31.8,45.6,31.8"/>
	<rect x="31.4" y="27.6" class="st0" width="0.5" height="4.2"/>
	<path class="st0" d="M42.7,31.8h-0.5V30c0-0.6-0.3-0.9-0.8-0.9c-0.4,0-0.9,0.3-0.9,0.9v1.7H40V30c0-0.5-0.3-0.9-0.8-0.9
		c-0.5,0-0.9,0.4-0.9,0.9v1.7h-0.5v-3h0.5v0.3c0.2-0.2,0.5-0.4,0.9-0.4c0.5,0,0.8,0.2,1.1,0.6c0.2-0.2,0.5-0.6,1.1-0.6
		c0.8,0,1.3,0.5,1.3,1.3V31.8z"/>
	<path class="st0" d="M51.5,31.8H51v-1.7c0-0.6-0.3-0.9-0.9-0.9c-0.5,0-1,0.4-1,0.9v1.7h-0.5v-3h0.5v0.3c0.2-0.2,0.5-0.4,1-0.4
		c0.8,0,1.4,0.5,1.4,1.3V31.8z"/>
	<path class="st0" d="M54.3,31.8c-0.6,0-0.9-0.3-0.9-0.9v-1.7h-0.5v-0.5h0.5v-0.9h0.5v0.9h1.1v0.5h-1.1v1.7c0,0.3,0.2,0.5,0.5,0.5
		c0.1,0,0.3,0,0.4-0.1l0.2-0.1v0.5l-0.1,0C54.7,31.8,54.5,31.8,54.3,31.8"/>
</g>
</svg>
