
<!-- Generator: Adobe Illustrator 19.2.1, SVG Export Plug-In . SVG Version: 6.00 Build 0)  -->
<svg version="1.1" id="Layer_1" xmlns="http://www.w3.org/2000/svg" xmlns:xlink="http://www.w3.org/1999/xlink" x="0px" y="0px"
	 viewBox="0 0 80 40" style="enable-background:new 0 0 80 40;" xml:space="preserve">
<style type="text/css">
	.st0{fill:#FFFFFF;}
</style>
<g>
	<polygon class="st0" points="30.5,9.1 33.1,9.1 36.2,16.5 39.9,8.6 43.7,16.5 46.8,9.1 49.4,9.1 43.6,22.1 39.9,13.9 36.1,22.1 	
		"/>
	<polygon class="st0" points="30.6,28.7 28.9,28.7 28.9,27.3 28.4,27.3 28.4,30.6 28.9,30.6 28.9,29.1 30.6,29.1 30.6,30.6 
		31.2,30.6 31.2,27.3 30.6,27.3 	"/>
	<path class="st0" d="M35.5,28.9c0,0.3,0,0.7-0.4,1.1c-0.2,0.2-0.4,0.3-0.8,0.3c-0.8,0-1.1-0.7-1.1-1.3c0-0.8,0.4-1.3,1.1-1.3
		C35,27.6,35.5,28.1,35.5,28.9 M34.3,27.2c-0.8,0-1.7,0.5-1.7,1.8c0,1.1,0.7,1.8,1.7,1.8c1,0,1.7-0.7,1.7-1.8
		C36,27.9,35.4,27.2,34.3,27.2"/>
	<polygon class="st0" points="37.2,27.7 38.2,27.7 38.2,30.6 38.7,30.6 38.7,27.7 39.7,27.7 39.7,27.3 37.2,27.3 	"/>
	<polygon class="st0" points="41.9,29.1 43.5,29.1 43.5,28.7 41.9,28.7 41.9,27.7 43.7,27.7 43.7,27.3 41.3,27.3 41.3,30.6 
		43.8,30.6 43.8,30.2 41.9,30.2 	"/>
	<polygon class="st0" points="46.1,27.3 45.5,27.3 45.5,30.6 47.6,30.6 47.6,30.1 46.1,30.1 	"/>
	<path class="st0" d="M50.9,28.8c-0.1,0-0.2-0.1-0.4-0.1L50,28.5c-0.3-0.1-0.6-0.1-0.6-0.5c0-0.3,0.4-0.5,0.7-0.5
		c0.2,0,0.4,0,0.6,0.2c0.2,0.2,0.2,0.4,0.2,0.5l0,0l0.5,0l0,0c0-0.2-0.1-0.5-0.4-0.8c-0.3-0.2-0.7-0.2-0.9-0.2c-0.1,0-0.6,0-0.9,0.3
		c-0.1,0.1-0.3,0.3-0.3,0.7c0,0.7,0.8,0.9,1.2,1l0.3,0.1c0.4,0.1,0.6,0.2,0.6,0.5c0,0.5-0.4,0.6-0.8,0.6c-0.3,0-0.5-0.1-0.6-0.2
		c-0.2-0.2-0.2-0.5-0.2-0.6l0-0.1l-0.6,0.1l0,0c0.1,1.1,1,1.2,1.4,1.2c0.4,0,0.7-0.1,0.9-0.2c0.3-0.2,0.4-0.5,0.4-0.8
		C51.5,29.4,51.4,29,50.9,28.8"/>
</g>
</svg>
