
<!-- Generator: Adobe Illustrator 19.2.1, SVG Export Plug-In . SVG Version: 6.00 Build 0)  -->
<svg version="1.1" id="Layer_1" xmlns="http://www.w3.org/2000/svg" xmlns:xlink="http://www.w3.org/1999/xlink" x="0px" y="0px"
	 viewBox="0 0 80 40" style="enable-background:new 0 0 80 40;" xml:space="preserve">
	 <style type="text/css">
	 	.st0{fill:#FFFFFF;}
	 </style>
<g>
	<path class="st0" d="M40.6,22.2c-1.9,0-3.2,0-3.2,0L37.1,21c0,0,1.8-0.2,3.5-0.2c1.7,0,3.5,0.2,3.5,0.2l-0.3,1.2
		C43.8,22.2,42.5,22.2,40.6,22.2 M45.4,18.3L45.4,18.3c-0.2,0.1-0.5,0.4-1,0.4l0,0c0.2,0.2,0.2,0.6-0.1,0.6c-0.2,0-0.2-0.1-0.2-0.3
		l0,0c-0.1,0-0.3,0.2-0.4,0.2c0,0.1,0.1,0.3,0.1,0.5h0c0-0.1,0.1-0.1,0.2-0.1c0.1,0,0.2,0.1,0.2,0.2c0,0.2-0.1,0.5-0.5,0.5
		c-0.4,0-0.8-0.2-0.8-0.6c0-0.2,0.1-0.4,0.4-0.5v0c-0.2-0.1-0.4-0.4-0.4-0.5h0c-0.1,0.1-0.3,0.3-0.6,0.4v0c0.2,0.2,0.2,0.4,0.2,0.5
		c0,0.3-0.2,0.5-0.8,0.5c-0.4,0-0.8-0.1-0.8-0.5c0-0.2,0.1-0.3,0.3-0.3c0.1,0,0.2,0,0.3,0.2h0c0.1-0.1,0.1-0.2,0.3-0.3v0
		c-0.1,0-0.2-0.2-0.3-0.4h0c-0.2,0.2-0.2,0.2-0.4,0.2c-0.1,0-0.2,0-0.2-0.2c0-0.2,0.3-0.3,0.5-0.4v0c-0.4-0.1-0.7-0.5-0.8-0.8h0
		c-0.1,0.2-0.4,0.6-0.8,0.8v0c0.2,0.1,0.5,0.2,0.5,0.4c0,0.2-0.1,0.2-0.2,0.2c-0.1,0-0.2,0-0.4-0.2h0c-0.1,0.2-0.2,0.3-0.3,0.4v0
		c0.2,0.1,0.2,0.2,0.3,0.3h0c0.1-0.1,0.2-0.2,0.3-0.2c0.2,0,0.3,0.1,0.3,0.3c0,0.4-0.4,0.5-0.8,0.5c-0.6,0-0.8-0.2-0.8-0.5
		c0-0.1,0-0.3,0.2-0.5v0c-0.2,0-0.5-0.3-0.6-0.4h0c0,0.1-0.2,0.4-0.4,0.5v0c0.3,0.1,0.4,0.3,0.4,0.5c0,0.4-0.4,0.6-0.8,0.6
		c-0.3,0-0.5-0.2-0.5-0.5c0-0.1,0.1-0.2,0.2-0.2c0,0,0.1,0,0.2,0.1h0c0-0.1,0.1-0.3,0.1-0.5c0,0-0.3-0.2-0.4-0.2l0,0
		c0,0.1-0.1,0.3-0.2,0.3c-0.3,0-0.3-0.4-0.1-0.6l0,0c-0.5,0-0.9-0.3-1-0.5l-0.1,0l1,2.3c0,0-0.2,0.1-0.2,0.3
		c0.1,0.3,0.4,0.9,0.4,1.5c0,0.2,0,0.2,0,0.3s0.1,0.1,0.2,0.1h7c0.1,0,0.2,0,0.2-0.1s0-0.1,0-0.3c0-0.5,0.3-1.1,0.4-1.5
		c0-0.2-0.2-0.3-0.2-0.3L45.4,18.3z M37.5,9.9c0,0.1,0.1,0.1,0.1,0.1c0.1-0.1,0.2-0.2,0.2-0.4C37.7,9.7,37.5,9.7,37.5,9.9 M42.2,8.9
		L42.2,8.9c0.1,0,0.5-0.1,0.5-0.5c0,0,0-0.2-0.1-0.3c0,0,0,0.1,0,0.1c0,0.1-0.1,0.2-0.2,0.2c-0.1,0-0.3-0.1-0.3-0.3
		c0-0.2,0.1-0.2,0.1-0.3c0,0,0,0,0,0c-0.4,0.1-0.4,0.3-0.4,0.4C41.8,8.5,41.8,8.7,42.2,8.9 M36.8,17.4c1.2,0,1.1-1.3,1.1-1.8
		c0-2,0.6-2.5,2-3.1c1-0.5,2-0.7,2-1.7c0-0.3-0.1-0.7-0.5-0.7c0,0,0.2,0.1,0.2,0.4c0,0.1,0,0.2-0.1,0.3c0-0.1-0.1-0.3-0.2-0.3
		c-0.1,0.2,0,0.5-0.1,0.6c0,0,0,0.1-0.4,0.2c0,0,0,0,0.2,0c0,0,0.4,0,0.5-0.1c-0.1,0.3-0.3,0.5-0.5,0.5c-0.1,0-0.3,0-0.5,0
		c-0.3,0-1,0.1-1.3,0.6c-0.2,0.3-0.8,0.6-1,0.6c-0.2,0-0.4-0.4-0.4-0.6c0-0.2,0.3-0.1,0.6-0.3c0.4-0.4,0.6-0.5,1.1-0.5
		c0,0,0.3,0,0-0.2l-0.8-0.7c-0.1-0.1-0.2-0.1-0.3-0.1c0,0-0.1,0-0.4,0.2c-0.4,0-0.6,0.1-0.7,0.2c-0.1,0-0.1,0.1-0.2,0.1
		c-0.1,0-0.2-0.4-0.2-0.5c0-0.2,0.2-0.3,0.2-0.4c0-0.1-0.1-0.1-0.1-0.1l-0.3,0.1c0,0-0.2-0.2,0-0.3c0,0,0.5-0.3,1.4-0.7
		c0,0.3,0.1,0.3,0.3,0.3l-0.1,0l0,0.1c0.1,0,0.2,0,0.4,0c0.1,0,0.3,0,0.3-0.1c0,0,0.1-0.1,0.1-0.1c0,0-0.2,0-0.3,0
		c0.1-0.1,0.2-0.2,0.2-0.2c0,0,0,0,0,0c-0.1,0-0.1,0-0.2,0C39,9,39,8.9,39,8.9c0,0,0-0.1,0.2-0.1h0.1c0-0.1-0.2-0.1-0.3-0.1
		c-0.1,0-0.3,0-0.4,0.1c0,0,0-0.2,0.2-0.3c0.1,0,0.8-0.1,1.4-0.1c0.9,0,1.6,0.8,1.7,0.8c0,0,0.1,0,0-0.1c-0.3-0.2-0.5-0.4-0.5-0.6
		c0-0.1,0-0.5,1-0.7c0.4,0.4,0.6,0.6,0.6,0.9c0,0.4-0.5,0.5-0.5,0.6c1.5,0.2,2,1.6,2,2.2c0,1.5-1.3,2.1-2.1,2.2
		c1.2-0.9,1.6-1.8,1.6-2.4c0-1-0.9-1.6-1.1-1.7c0.6,0.6,0.7,1.2,0.7,1.5c0,0.9-0.5,1.4-0.5,1.4c0.1-0.3,0.1-0.6,0-0.8
		c-0.5,1.1-1.5,1.9-1.6,2.8c-0.1-0.2-0.1-0.4-0.1-0.6c0-0.5,0.2-0.8,0.5-1.1c-1,0.5-1.1,1.2-1.1,1.8c0,0.6,0.2,1,0.2,1
		c0-0.2,0-0.7,0.2-0.9c0.1,0.8,0.3,1.9,1.5,2.5c-2,0-2.7-2.2-2-3.8C39.1,13.9,39,15.2,39,16c-0.1-0.4-0.1-0.8-0.1-1.1
		c0-1.3,0.9-1.7,2.1-2.2c1.4-0.6,1.9-1.2,1.9-2c0-0.9-1.1-1.6-1.9-1.4l0.3,0.3c0,0,0.1,0.1,0.1,0.1c0.9,0.4,1,0.9,1,1.2
		c0,0.8-0.9,1.3-1.5,1.6c-2.1,0.9-2.4,1.2-2.4,2.5c0,0.9,0.2,2.4-0.8,2.5c0.1,0.1,0.5,0.2,0.5,0.2c-0.3,0.2-0.6,0.3-1,0.3
		c-0.3,0-1-0.1-1.2-0.8C36.1,17.3,36.4,17.4,36.8,17.4 M38.4,12c-0.1,0.1-0.2,0.1-0.2,0.1c0-0.1,0-0.3,0-0.3
		C38.2,11.8,38.4,11.9,38.4,12 M38.1,11.7C38,11.8,37.9,12,37.6,12c-0.3,0-0.5-0.2-0.7-0.2c-0.1,0-0.1,0-0.2,0c0,0-0.1,0-0.1,0
		c0-0.1,0.1-0.1,0.2-0.1c0.1,0,0.3,0.1,0.5,0.1c0.3,0.1,0.5-0.2,0.7-0.3c0.1-0.1,0.3-0.1,0.4-0.1c0.2,0,0.4,0.1,0.4,0.1
		c-0.1,0-0.4,0.1-0.6,0.2C38.2,11.7,38.2,11.6,38.1,11.7 M37.6,10.9c0,0,0.2,0,0.2,0c0,0.1,0,0.3,0,0.4
		C37.6,11.3,37.6,11.1,37.6,10.9 M43.1,8.5c0.9,0.2,0.8,0.8,1,1.2c-0.4-0.5-0.9-0.8-0.9-0.8C43.2,8.6,43.1,8.5,43.1,8.5 M44.3,13.1
		c0,1-1.3,1.2-1.3,2.2c0,0.4,0.1,0.7,0,1c0,0,0.3-0.2,0.5-0.8c-0.2,1,0.2,1.9,1.3,1.9c0.1,0,0.4,0,0.6-0.1c0,0,0,0.7-0.9,0.7
		c-1,0-2-0.9-2-2.5c0-0.3,0-0.6,0.2-0.9c0,0-0.5,0.3-0.5,1.1c0,0-0.2-0.3-0.2-0.7C41.9,13.8,43.4,14.2,44.3,13.1 M44.2,18.4
		c0.9,0,1.4-0.5,1.4-1.2c0-0.2-0.1-0.4-0.1-0.4C45.3,16.9,45,17,44.8,17c-0.4,0-0.9-0.2-0.9-0.8c0-0.8,0.8-1.2,0.8-2
		c0-0.2-0.1-0.3-0.1-0.3c0.4-0.5,0.5-1,0.5-1.3c0-0.7-0.4-1.1-0.4-1.1c0.2,0,0.4,0.1,0.6,0.3c-0.1-0.7-0.8-1.2-0.8-1.2
		s0.3,0.1,0.5,0c-0.2-0.1-0.7-0.4-0.7-1.1s-0.1-1-1.4-1.3c-0.1-0.3-0.5-0.6-0.7-0.7c-0.3,0.1-0.7,0.3-0.9,0.4c0,0-0.4,0-0.5,0
		c-0.2,0-0.4-0.1-0.5-0.1c-0.3,0-0.5,0.3-0.5,0.3s-0.7,0-1.1,0.1c-0.2,0-0.4,0.2-0.6,0.7L37,9.5c-0.2,0.1-0.4,0.2-0.4,0.4
		c0,0.1,0.1,0.3,0.2,0.5c0.1,0.7,0.2,0.9,0.4,0.9c0,0,0.1,0,0.1,0c0,0,0.2,0.2,0.2,0.3c-0.2,0.1-0.4-0.1-0.7-0.1
		c-0.2,0-0.4,0.1-0.4,0.4c0,0.1,0,0.1,0.1,0.1c0.1,0,0.1,0,0.3,0c0.2,0,0.4,0.2,0.7,0.2c0.1,0,0.2,0,0.3,0c-0.2,0.1-0.3,0.2-0.2,0.4
		c0.1,0.3,0.4,0.7,0.5,0.7c0.1,0,0.4-0.1,0.4-0.1l-0.1,0.1c-1,0.8-0.8,1.8-0.8,2.7c0,0.7-0.2,1.2-0.8,1.2c-0.4,0-0.9-0.2-1.3-0.7
		c0,0.1-0.1,0.4-0.1,0.6c0,0.9,0.8,1.4,1.6,1.4c0.7,0,1.2-0.2,1.7-0.6c1.4,0,1.9-1,1.9-1c0.7,1,1.9,0.9,2.1,0.9
		C43.1,18.2,43.7,18.4,44.2,18.4 M40.1,16.3c0,0.8-0.6,1.1-1.3,1.1c1-0.9,0.2-2.2,1-3.1C39.8,15.1,40.1,15.7,40.1,16.3 M39.2,9.9
		L39.2,9.9c0.1,0.5,0.7,0.5,0.8,1.1l0,0c-0.3-0.4-0.7-0.4-0.8-0.6C39.1,10.3,39.2,10.1,39.2,9.9 M41.7,21.5c0,0-0.1,0.2-0.2,0.2
		c0,0-0.2-0.2-0.2-0.2c0,0,0.1-0.2,0.2-0.2C41.6,21.3,41.7,21.5,41.7,21.5 M43.6,21.6c0,0-0.1,0.2-0.2,0.2c0,0-0.2-0.2-0.2-0.2
		c0,0,0.1-0.2,0.2-0.2C43.4,21.4,43.6,21.5,43.6,21.6 M42.9,21.9C43,21.9,43,21.9,42.9,21.9l0.1-0.6c0-0.1,0-0.1-0.1-0.1
		c-0.3,0-0.7,0-0.9,0c-0.1,0-0.1,0-0.1,0.1v0.5c0,0.1,0,0.1,0.1,0.1H42.9z M41,21.9c0.1,0,0.1,0,0.1-0.1v-0.6c0-0.1,0-0.1-0.1-0.1
		h-0.8c-0.1,0-0.1,0-0.1,0.1v0.6c0,0.1,0,0.1,0.1,0.1H41z M39.4,21.5c0,0,0.1-0.2,0.2-0.2c0,0,0.2,0.1,0.2,0.2c0,0-0.1,0.2-0.2,0.2
		C39.6,21.7,39.4,21.5,39.4,21.5 M37.6,21.6c0,0,0.1-0.2,0.2-0.2c0,0,0.2,0.1,0.2,0.2c0,0-0.1,0.2-0.2,0.2
		C37.7,21.8,37.6,21.6,37.6,21.6 M38.2,21.9h0.9c0.1,0,0.1,0,0.1-0.1v-0.5c0-0.1,0-0.1-0.1-0.1c-0.2,0-0.6,0-0.9,0
		c0,0-0.1,0-0.1,0.1L38.2,21.9C38.1,21.9,38.2,21.9,38.2,21.9 M40.3,21.5c0-0.1,0.2-0.3,0.2-0.3c0,0,0.2,0.2,0.2,0.3
		c0,0-0.2,0.2-0.2,0.2C40.5,21.8,40.3,21.5,40.3,21.5 M42.2,21.5c0-0.1,0.2-0.3,0.2-0.3c0,0,0.2,0.2,0.2,0.3c0,0-0.2,0.2-0.2,0.2
		C42.4,21.8,42.2,21.5,42.2,21.5 M38.4,21.5c0-0.1,0.2-0.3,0.2-0.3c0,0,0.2,0.2,0.2,0.3c0,0-0.2,0.2-0.2,0.2
		C38.6,21.8,38.4,21.5,38.4,21.5"/>
	<path class="st0" d="M71,30.7l-2.1-2.4h-1.4v0.2c0.4,0,0.5,0.1,0.5,0.4v2c0,0.7-0.1,0.8-0.5,0.8v0.2h1.3v-0.2
		c-0.4,0-0.5-0.1-0.5-0.5v-2.3L71,32h0.2v-3c0-0.4,0.2-0.5,0.5-0.5v-0.2h-1.3v0.2c0.3,0,0.6,0.1,0.6,0.5V30.7z"/>
	<path class="st0" d="M65.3,31.8c-0.7,0-1-0.6-1-1.7c0-1.1,0.3-1.7,1-1.7c0.7,0,1,0.6,1,1.7C66.2,31.2,65.9,31.8,65.3,31.8
		 M65.3,28.2c-0.9,0-1.9,0.6-1.9,1.9c0,1.2,1,1.9,1.9,1.9c0.9,0,1.9-0.6,1.9-1.9C67.2,28.9,66.2,28.2,65.3,28.2"/>
	<path class="st0" d="M60.7,31.4c0,0.3-0.1,0.3-0.4,0.3v0.2H62v-0.2c-0.4,0-0.4,0-0.4-0.3v-2.7c0-0.1,0.1-0.2,0.2-0.2
		c0.3,0,0.8,0.3,1.1,0.8l0.1,0l-0.2-1h-0.1c-0.1,0.1-0.2,0.1-0.4,0.1h-2.3c-0.1,0-0.1,0-0.2,0c-0.1,0-0.1,0-0.2-0.1h-0.1l-0.2,1
		l0.1,0c0.3-0.5,0.8-0.8,1.1-0.8c0.1,0,0.2,0.1,0.2,0.2V31.4z"/>
	<path class="st0" d="M56.4,31.4c0,0.3-0.1,0.3-0.4,0.3v0.2h3.3l0.3-1h-0.2c-0.5,0.7-0.8,0.8-1.7,0.8c-0.4,0-0.5-0.1-0.5-0.2v-2.6
		c0-0.3,0.1-0.3,0.4-0.3v-0.2H56v0.2c0.4,0,0.4,0,0.4,0.3V31.4z"/>
	<path class="st0" d="M53.3,30h-0.3v-1.5h0.2c0.7,0,0.9,0.4,0.9,0.7C54.1,29.8,53.7,30,53.3,30 M55.1,31.3l-0.6-0.9
		c-0.1-0.2-0.3-0.3-0.5-0.3v0c0.6,0,0.9-0.3,0.9-0.8c0-0.4-0.4-1-1.5-1h-1.8v0.2c0.4,0,0.4,0,0.4,0.3v2.6c0,0.3-0.1,0.3-0.4,0.3v0.2
		h1.8v-0.2c-0.4,0-0.4,0-0.4-0.3v-1.2c0.4,0,0.5,0,0.6,0.2l0.8,1.5h1.2v-0.2C55.4,31.7,55.3,31.7,55.1,31.3"/>
	<path class="st0" d="M48,30.7l0.7-1.5l0.7,1.5H48z M50.6,31.3l-1.5-2.9c-0.1-0.1-0.1-0.1-0.1-0.1c0,0-0.2,0.3-0.6,0.6
		c0.1,0,0.1,0.1,0.1,0.2c0,0,0,0.1-0.1,0.2L47.6,31c-0.2,0.5-0.4,0.6-0.7,0.6v0.2h1.3v-0.2c-0.3,0-0.5-0.1-0.5-0.2
		c0-0.1,0-0.2,0.2-0.5h1.6c0.2,0.3,0.3,0.5,0.3,0.6c0,0.1-0.1,0.2-0.5,0.2v0.2h1.9v-0.2C50.9,31.7,50.8,31.6,50.6,31.3"/>
	<path class="st0" d="M46.2,30.6c-0.3,0.6-0.8,1.1-1.4,1.1c-0.5,0-1.1-0.4-1.1-1.7c0-1.2,0.5-1.7,1.2-1.7c0.6,0,1,0.4,1.3,1h0.1
		v-1.1h-0.1c-0.1,0.1-0.2,0.1-0.3,0.1c-0.2,0-0.6-0.2-1.2-0.2c-1.3,0-2,0.8-2,1.9c0,1,0.8,1.8,1.9,1.8c0.6,0,1.1-0.2,1.3-0.2
		c0.1,0,0.2,0.1,0.3,0.2h0.1v-1.3H46.2z"/>
	<path class="st0" d="M35.3,31.9h3.1l0.4-1.1h-0.1c-0.5,0.7-0.8,0.9-1.3,0.9h-0.9l2.2-3.3v-0.1h-3l-0.3,1h0.1
		c0.4-0.5,0.8-0.8,1.3-0.8h0.8l-2.2,3.2V31.9z"/>
	<path class="st0" d="M32.6,31.4c0,0.3-0.1,0.3-0.4,0.3v0.2h1.8v-0.2c-0.4,0-0.4,0-0.4-0.3v-2.7c0-0.1,0.1-0.2,0.2-0.2
		c0.3,0,0.8,0.3,1.1,0.8l0.1,0l-0.2-1h-0.1c-0.1,0.1-0.2,0.1-0.4,0.1h-2.3c-0.1,0-0.1,0-0.2,0c-0.1,0-0.1,0-0.2-0.1h-0.1l-0.2,1
		l0.1,0c0.3-0.5,0.8-0.8,1.1-0.8c0.1,0,0.2,0.1,0.2,0.2V31.4z"/>
	<path class="st0" d="M29.4,31.4c0,0.3-0.1,0.3-0.4,0.3v0.2h1.8v-0.2c-0.4,0-0.4,0-0.4-0.3v-2.6c0-0.3,0.1-0.3,0.4-0.3v-0.2H29v0.2
		c0.4,0,0.4,0,0.4,0.3V31.4z"/>
	<path class="st0" d="M26.2,30h-0.3v-1.5h0.2c0.7,0,0.9,0.4,0.9,0.7C27,29.8,26.6,30,26.2,30 M28,31.3l-0.6-0.9
		c-0.1-0.2-0.3-0.3-0.5-0.3v0c0.6,0,0.9-0.3,0.9-0.8c0-0.4-0.4-1-1.5-1h-1.8v0.2c0.4,0,0.4,0,0.4,0.3v2.6c0,0.3-0.1,0.3-0.4,0.3v0.2
		h1.8v-0.2c-0.4,0-0.4,0-0.4-0.3v-1.2c0.4,0,0.5,0,0.6,0.2l0.8,1.5h1.2v-0.2C28.3,31.7,28.2,31.7,28,31.3"/>
	<path class="st0" d="M18.9,31.4c0,0.3-0.1,0.3-0.4,0.3v0.2h3.3l0.3-1h-0.2c-0.4,0.7-0.8,0.8-1.5,0.8c-0.5,0-0.5-0.1-0.5-0.2v-1.3
		H20c0.6,0,0.9,0.2,1,0.7h0.1v-1.6H21c-0.1,0.5-0.4,0.7-1,0.7h-0.2v-1.2c0-0.2,0.1-0.2,0.3-0.2c0.8,0,1.2,0.2,1.7,0.8h0.1l-0.4-1
		h-3.1v0.2c0.4,0,0.4,0,0.4,0.3V31.4z"/>
	<path class="st0" d="M16.6,31.4c0,0.3-0.1,0.3-0.4,0.3v0.2h1.8v-0.2c-0.4,0-0.4,0-0.4-0.3v-2.6c0-0.3,0.1-0.3,0.4-0.3v-0.2h-1.8
		v0.2c0.4,0,0.4,0,0.4,0.3v1.1h-1.8v-1.1c0-0.3,0.1-0.3,0.4-0.3v-0.2h-1.8v0.2c0.4,0,0.4,0,0.4,0.3v2.6c0,0.3-0.1,0.3-0.4,0.3v0.2
		h1.8v-0.2c-0.4,0-0.4,0-0.4-0.3v-1.3h1.8V31.4z"/>
	<path class="st0" d="M10.8,31.4c0,0.3-0.1,0.3-0.4,0.3v0.2h1.8v-0.2c-0.4,0-0.4,0-0.4-0.3v-2.7c0-0.1,0.1-0.2,0.2-0.2
		c0.3,0,0.8,0.3,1.1,0.8l0.1,0l-0.2-1h-0.1c-0.1,0.1-0.2,0.1-0.4,0.1H10c-0.1,0-0.1,0-0.2,0c-0.1,0-0.1,0-0.2-0.1H9.5l-0.2,1l0.1,0
		c0.3-0.5,0.8-0.8,1.1-0.8c0.1,0,0.2,0.1,0.2,0.2V31.4z"/>
	<polygon class="st0" points="39.9,30.4 41.1,30.4 41.6,29.6 40.4,29.6 	"/>
</g>
</svg>
