
<!-- Generator: Adobe Illustrator 19.2.1, SVG Export Plug-In . SVG Version: 6.00 Build 0)  -->
<svg version="1.1" id="Layer_1" xmlns="http://www.w3.org/2000/svg" xmlns:xlink="http://www.w3.org/1999/xlink" x="0px" y="0px"
	 viewBox="0 0 80 40" style="enable-background:new 0 0 80 40;" xml:space="preserve">
<style type="text/css">
	.st0{fill:#FFFFFF;}
</style>
<g>
	<path class="st0" d="M26.2,20.5c0,1.5-1.1,2.8-2.8,2.8c-1.3,0-2.6-1-2.6-2.6c0-1.7,1.3-2.8,2.9-2.8C25.2,17.9,26.2,19.1,26.2,20.5
		 M21.9,20.4c0,1.7,0.7,2.4,1.6,2.4c1.1,0,1.6-1.3,1.6-2.2c0-1.6-0.8-2.2-1.6-2.2C22.3,18.4,21.9,19.7,21.9,20.4"/>
	<path class="st0" d="M20.2,22.3c-0.4,0.4-1,0.5-1.5,0.5c-1,0-1.9-0.8-1.9-2.3c0-1.2,0.6-2.1,1.7-2.1c1,0,1.3,0.6,1.5,0.8
		c0,0,0.1,0,0.1,0c0,0,0.1-0.1,0.2-0.1c0,0,0.1,0,0-0.1c0,0,0-1.1,0-1.1c0,0,0,0,0,0h-0.2c0,0,0,0-0.1,0c0,0-0.1,0.2-0.2,0.2
		c0,0.1-0.1,0.1-0.2,0c-0.3-0.1-0.7-0.2-1.2-0.2c-1.6,0-2.8,1.2-2.8,2.7c0,1.6,1.2,2.7,2.9,2.7c0.7,0,1.1-0.1,1.4-0.2
		c0.1,0,0.1-0.1,0.2-0.2c0-0.1,0.2-0.4,0.2-0.5C20.5,22.3,20.3,22.2,20.2,22.3"/>
	<path class="st0" d="M36.1,21.7c-0.3-0.4-0.5-0.8-0.9-1c1-0.2,1.2-0.9,1.2-1.5c0-0.9-0.7-1.3-1.4-1.3h-4.8c-0.1,0-0.1,0-0.1,0.1
		c0,0-0.1,0.1-0.1,0.2c0,0,0,0.1,0.1,0.1c0.4,0.1,0.5,0.1,0.5,0.5v2.4c0,1.1-0.5,1.6-1.2,1.6c-1,0-1.2-0.8-1.2-1.6v-2.4
		c0-0.3,0.2-0.4,0.4-0.4c0.1,0,0.1,0,0.1-0.1c0,0,0-0.1,0-0.1c0-0.1,0-0.1-0.1-0.1h-1.9c-0.1,0-0.1,0-0.1,0.1c0,0,0,0.1-0.1,0.1
		c0,0.1,0,0.1,0.1,0.1c0.4,0.1,0.5,0.1,0.5,0.5v2.4c0,1.1,0.4,2.1,2.1,2.1c0.8,0,1.9-0.4,1.9-2.1v-2.4c0-0.4,0.3-0.5,0.8-0.5
		c0.4,0,0.7,0.1,0.7,0.5v3.6c0,0.3-0.3,0.4-0.4,0.4c-0.1,0-0.1,0-0.2,0.1c0,0,0,0.1,0,0.1c0,0.1,0,0.1,0.1,0.1h1.9
		c0.1,0,0.1,0,0.1-0.1c0,0,0-0.1,0.1-0.1c0-0.1,0-0.1-0.1-0.1c-0.3-0.1-0.5-0.1-0.5-0.5v-1.6v0c1.2,0.2,1.9,2.2,1.9,2.2
		c0,0.1,0.1,0.2,0.2,0.2h1c0,0,0.1,0,0.1-0.1V23c0-0.1-0.1-0.1-0.2-0.2C36.7,22.7,36.3,22.1,36.1,21.7 M34.3,20.5h-0.6v-2.1h0.8
		c0.5,0,0.8,0.2,0.8,1C35.4,20.2,34.9,20.5,34.3,20.5"/>
	<path class="st0" d="M44,22.4v-0.9c0-0.2,0.1-0.5,0.2-0.7c0,0,1-1.9,1.1-2c0.1-0.1,0.2-0.4,0.4-0.5c0.2-0.1,0.2-0.1,0.2-0.1
		c0,0,0-0.1,0-0.1c0-0.1,0-0.1-0.1-0.1h-1.4c0,0-0.1,0-0.1,0.1c0,0,0,0.1,0,0.1c0,0.1,0,0.1,0,0.1c0,0,0.2,0.1,0.2,0.1
		c0.1,0.1,0.1,0.2,0,0.3c-0.1,0.1-1,1.9-1,1.9S43,19,42.9,18.8c-0.1-0.2,0-0.3,0-0.4c0.1-0.1,0.3-0.1,0.3-0.2c0,0,0-0.1,0.1-0.2
		c0-0.1,0-0.1-0.1-0.1h-5.9c-0.1,0-0.2,0-0.3,0.1c0,0-0.1,0.2-0.2,0.3c0,0.1,0,0.2,0.1,0.2h1.7v3.9c0,0.3-0.3,0.4-0.4,0.4
		c-0.1,0-0.1,0-0.2,0.1c0,0,0,0.1,0,0.1c0,0.1,0,0.1,0.1,0.1h1.9c0.1,0,0.1,0,0.1-0.1c0,0,0-0.1,0.1-0.1c0-0.1,0-0.1-0.1-0.1
		c-0.3-0.1-0.5-0.1-0.5-0.5l0-3.9h1.3c0.2,0,0.3,0,0.4,0.1c0.1,0.1,0.2,0.2,0.2,0.3c0,0.1,1.3,2.4,1.3,2.4v1.2
		c0,0.3-0.3,0.4-0.4,0.4c-0.1,0-0.1,0-0.2,0.1c0,0,0,0.1,0,0.1c0,0.1,0,0.1,0.1,0.1h1.9c0.1,0,0.1,0,0.1-0.1c0,0,0-0.1,0.1-0.1
		c0-0.1,0-0.1-0.1-0.1C44.2,22.8,44,22.7,44,22.4"/>
	<path class="st0" d="M56,22.8c-0.3-0.2-0.6-0.8-0.8-1.1c-0.3-0.4-0.5-0.8-0.7-0.9c0.8-0.2,1.2-0.9,1.2-1.5c0-0.9-0.7-1.3-1.4-1.3
		h-2.8c-0.1,0-0.1,0-0.1,0.1c0,0,0,0.1-0.1,0.1c0,0.1,0,0.1,0.1,0.1c0.4,0.1,0.5,0.2,0.5,0.5v1.3c-0.3,0-0.7,0-1,0
		c-0.5,0-1,0.1-1.6,0.2c-0.3-0.7-0.5-1.3-0.6-1.6c-0.1-0.2,0-0.4,0.4-0.4c0.1,0,0.1,0,0.1-0.1l0.1-0.1c0-0.1,0-0.1-0.1-0.1h-0.9
		h-0.1h-1.2c-0.1,0-0.1,0-0.2,0.1c0,0,0,0,0,0.1c0,0.1,0,0.1,0.1,0.2c0.1,0,0.2,0.1,0.3,0.2c0.1,0.1,0.2,0.3,0.1,0.6l-1.3,3.3
		c-0.2,0.4-0.2,0.4-0.5,0.5c-0.1,0-0.2,0-0.2,0.1l0,0.1c0,0.1,0,0.1,0.1,0.1h1.3c0.1,0,0.1-0.1,0.2-0.1l0-0.1c0,0,0-0.1-0.1-0.1
		c-0.1,0-0.2-0.1-0.2-0.1c0.4-0.8,1.1-1.3,1.9-1.7l0.5,1.3c0.1,0.5-0.3,0.4-0.3,0.5l-0.1,0.2c0,0.1,0,0.1,0.1,0.1h1.8
		c0.1,0,0.1,0,0.2-0.1l0.1-0.2c0-0.1,0-0.1-0.1-0.1c-0.4-0.1-0.4-0.1-0.6-0.5c-0.1-0.2-0.4-0.9-0.7-1.6c0.4-0.1,0.9-0.2,1.3-0.2
		c0.3,0,0.7,0,1,0.1v1.8c0,0.3-0.3,0.4-0.4,0.4c-0.1,0-0.1,0-0.2,0.1c0,0,0,0.1,0,0.1c0,0.1,0,0.1,0.1,0.1h1.9c0.1,0,0.1,0,0.1-0.1
		c0,0,0-0.1,0.1-0.1c0-0.1,0-0.1-0.1-0.1c-0.3-0.1-0.5-0.1-0.5-0.5v-1.5c0.7,0.2,1,0.5,1.4,1c0.2,0.3,0.4,0.7,0.5,1
		c0.1,0.2,0.1,0.3,0.3,0.3h1c0.1,0,0.1,0,0.1-0.1V23C56.2,22.9,56.1,22.9,56,22.8 M47.1,21.2l0.8-2.1l0.5,1.4
		C47.9,20.8,47.5,21,47.1,21.2 M53.9,20.5c-0.1,0-0.5-0.1-0.9-0.2v-1.9h0.8c0.5,0,0.8,0.2,0.8,1C54.6,20,54.3,20.4,53.9,20.5"/>
	<path class="st0" d="M58.2,18.4H59c1.2,0,1.8,0.6,1.8,2.1c0,1.3-0.5,2.4-1.7,2.4c-0.6,0-0.9-0.1-0.9-0.7V18.4z M56.7,18
		c-0.1,0-0.1,0-0.1,0.1c0,0,0,0.1-0.1,0.1c0,0.1,0,0.1,0.1,0.1c0.4,0.1,0.5,0.2,0.5,0.5v3.9c0,0.2,0.1,0.3,0.2,0.4
		c0.3,0.1,0.9,0.2,1.8,0.2c1.6,0,2.8-1.3,2.8-2.8c0-1.5-0.7-2.5-2.8-2.5H56.7z"/>
	<path class="st0" d="M63.8,20.5c-0.7,0-1.2-0.5-1.2-1.2c0-0.7,0.5-1.2,1.2-1.2c0.7,0,1.2,0.5,1.2,1.2C65,20,64.5,20.5,63.8,20.5
		 M63.8,18.2c-0.6,0-1.1,0.5-1.1,1.1c0,0.6,0.5,1.1,1.1,1.1c0.6,0,1.1-0.5,1.1-1.1C64.9,18.7,64.4,18.2,63.8,18.2 M64.2,19.9
		c0,0-0.1,0-0.1,0l-0.3-0.5h-0.1v0.5h-0.1v-1.1h0.4c0.3,0,0.3,0.2,0.3,0.3c0,0.2-0.1,0.3-0.3,0.3L64.2,19.9c0.1,0,0.1,0,0.1,0H64.2z
		 M63.8,18.8h-0.2v0.4h0.2c0.2,0,0.3-0.1,0.3-0.2C64.1,18.8,63.9,18.8,63.8,18.8"/>
</g>
</svg>
