<svg xmlns="http://www.w3.org/2000/svg" viewBox="0 0 80 40"><defs><style>.st0{fill:#fff;}</style></defs><title>brand_SPG</title><path class="st0" d="M64.68,29.91l0-.11a0.05,0.05,0,0,0-.08,0,1.14,1.14,0,0,1-.5.13c-0.46,0-.54-0.3-0.54-0.69V26.91l1,0a0.07,0.07,0,0,0,.08-0.07V26.56c0-.05,0-0.07-0.09-0.07h-1V25.36a0.09,0.09,0,0,0-.08-0.1,0.09,0.09,0,0,0-.08.07l-0.41,1a0.27,0.27,0,0,1-.23.2h-0.5a0.08,0.08,0,0,0-.09.09v0.25a0.09,0.09,0,0,0,.09.08H62.9v2.48c0,0.57.36,0.78,1.06,0.78a1.36,1.36,0,0,0,.71-0.2,0,0,0,0,0,0-.07m-2.85-.79c0-1.26-2.18-1.13-2.18-1.88a0.57,0.57,0,0,1,.67-0.52,1,1,0,0,1,1.21.76,0.09,0.09,0,0,0,.07.08c0.05,0,.05-0.07.05-0.11l0-.85a0.1,0.1,0,0,0-.09-0.09,10.61,10.61,0,0,0-1.17-.1,1,1,0,0,0-1.2,1c0,1.24,2.15,1,2.15,1.89a0.67,0.67,0,0,1-.73.56A1.18,1.18,0,0,1,59.24,29a0.1,0.1,0,0,0-.09-0.09c-0.06,0-.07.05-0.06,0.1s0,0.31,0,.46,0,0.33,0,.46a0.14,0.14,0,0,0,.11.11,5.3,5.3,0,0,0,1.22.17,1.09,1.09,0,0,0,1.34-1.09m-4-1.44a0.26,0.26,0,0,1-.22.29,1.74,1.74,0,0,1-.46,0H56.31a0.12,0.12,0,0,1-.13-0.15,1.08,1.08,0,0,1,.92-1.13,0.82,0.82,0,0,1,.75,1M58.53,28a1.44,1.44,0,0,0-1.43-1.62,1.72,1.72,0,0,0-1.62,1.88,1.65,1.65,0,0,0,1.6,1.92,1.47,1.47,0,0,0,1.31-.76,0.05,0.05,0,0,0,0-.07l-0.14-.12a0,0,0,0,0-.07,0,1.24,1.24,0,0,1-.92.52,1.18,1.18,0,0,1-1.09-1.35,0.17,0.17,0,0,1,.18-0.17h2a0.25,0.25,0,0,0,.2-0.26m-3.28,2a0.16,0.16,0,0,0-.15-0.1l-0.24,0a0.37,0.37,0,0,1-.29-0.38V27.17l0-.57a0.1,0.1,0,0,0-.11-0.11h-1c-0.08,0-.14,0-0.14.07a0.16,0.16,0,0,0,.14.09l0.18,0.05a0.38,0.38,0,0,1,.28.39v2a0.93,0.93,0,0,1-.94.67A0.72,0.72,0,0,1,52.2,29V27.19a0.68,0.68,0,0,1,.1-0.51,0.26,0.26,0,0,0,.11-0.12s0-.06-0.11-0.06H51.12c-0.08,0-.14,0-0.14.07a0.15,0.15,0,0,0,.14.09l0.18,0.05a0.38,0.38,0,0,1,.28.39v1.73A1.2,1.2,0,0,0,52.8,30.2a1.35,1.35,0,0,0,1.08-.49,0,0,0,0,1,.09,0L54.11,30a0.13,0.13,0,0,0,.14.09h0.87c0.07,0,.14,0,0.14-0.07M51,27.68a0.1,0.1,0,0,0-.11-0.09H49.55c-0.08,0-.11,0-0.11.06a0.24,0.24,0,0,0,.11.12,0.4,0.4,0,0,1,.1.31v0.85a1.06,1.06,0,0,1-1.08.9c-1.18,0-1.5-1.23-1.5-2.17s0.15-2.44,1.37-2.44a1.29,1.29,0,0,1,1.41,1.24,0.08,0.08,0,1,0,.16,0V25.09A0.13,0.13,0,0,0,49.9,25c-0.48,0-1-.12-1.47-0.12-1.18,0-2.18,1-2.18,2.67,0,1.84,1.07,2.68,2.29,2.68a1.77,1.77,0,0,0,.94-0.26,0.16,0.16,0,0,1,.2,0l0.53,0.23,0.11,0a0.07,0.07,0,0,0,.08-0.08,0.08,0.08,0,0,0,0-.07,0.36,0.36,0,0,1-.07-0.23v-1.6a0.36,0.36,0,0,1,.28-0.39l0.27-.06A0.12,0.12,0,0,0,51,27.68"/><path class="st0" d="M74.92,22.14a0.31,0.31,0,0,1-.06.18,1,1,0,0,1-.8.49c-0.51,0-1-.36-1-1.49,0-1,.37-1.56,1-1.56a0.75,0.75,0,0,1,.88.89v1.49Zm1.3,1a0.15,0.15,0,0,0-.14-0.1L75.82,23a0.36,0.36,0,0,1-.28-0.39V18.23l0-.57a0.1,0.1,0,0,0-.12-0.1H74.28c-0.08,0-.14,0-0.14.07a0.14,0.14,0,0,0,.14.1l0.36,0.05a0.35,0.35,0,0,1,.28.38v1.37a0.06,0.06,0,0,1-.08.06A2.57,2.57,0,0,0,74,19.45a1.71,1.71,0,0,0-1.58,1.87c0,1.39.69,1.93,1.48,1.93a1.28,1.28,0,0,0,.92-0.42,0.11,0.11,0,0,1,.07,0,0.07,0.07,0,0,1,.06,0l0.11,0.23a0.16,0.16,0,0,0,.14.1h0.88c0.08,0,.14,0,0.14-0.07m-5-2.38A0.26,0.26,0,0,1,71,21a1.71,1.71,0,0,1-.46,0H69.71a0.12,0.12,0,0,1-.13-0.15,1.08,1.08,0,0,1,.93-1.13,0.82,0.82,0,0,1,.75,1m0.67,0.36a1.45,1.45,0,0,0-1.42-1.62,1.73,1.73,0,0,0-1.62,1.88,1.65,1.65,0,0,0,1.6,1.92,1.47,1.47,0,0,0,1.31-.76,0.07,0.07,0,0,0,0-.07l-0.14-.11a0,0,0,0,0-.06,0,1.23,1.23,0,0,1-.92.52,1.18,1.18,0,0,1-1.1-1.35,0.17,0.17,0,0,1,.18-0.17h2a0.26,0.26,0,0,0,.2-0.26m-3.27-1.44a0.16,0.16,0,0,0-.14-0.13,1.12,1.12,0,0,0-.3-0.05,1.29,1.29,0,0,0-1.13.61,0.06,0.06,0,0,1,0,0,0.07,0.07,0,0,1-.06,0l-0.13-.41a0.13,0.13,0,0,0-.14-0.1H65.86c-0.08,0-.14,0-0.14.07a0.14,0.14,0,0,0,.14.09l0.27,0.05a0.36,0.36,0,0,1,.29.38v2.43a0.37,0.37,0,0,1-.28.39L65.95,23a0.16,0.16,0,0,0-.14.1s0.06,0.06.14,0.06H67.5c0.08,0,.14,0,0.14-0.07A0.16,0.16,0,0,0,67.5,23L67.31,23A0.38,0.38,0,0,1,67,22.56V20.72a0.78,0.78,0,0,1,.1-0.37,0.86,0.86,0,0,1,.71-0.41,0.45,0.45,0,0,1,.51.27,0.34,0.34,0,0,0,.13.25c0.06,0,.08-0.06.09-0.14Zm-3,0a0.17,0.17,0,0,0-.14-0.13,1.07,1.07,0,0,0-.3-0.05,1.28,1.28,0,0,0-1.13.61,0.07,0.07,0,0,1,0,0,0.07,0.07,0,0,1-.06,0l-0.13-.41a0.14,0.14,0,0,0-.14-0.1H62.89c-0.08,0-.14,0-0.14.07a0.15,0.15,0,0,0,.14.09l0.27,0.05a0.36,0.36,0,0,1,.28.38v2.43a0.38,0.38,0,0,1-.28.39L63,23a0.15,0.15,0,0,0-.14.1s0.06,0.06.14,0.06h1.54c0.08,0,.14,0,0.14-0.07A0.17,0.17,0,0,0,64.52,23L64.34,23a0.38,0.38,0,0,1-.28-0.39V20.72a0.78,0.78,0,0,1,.1-0.37,0.85,0.85,0,0,1,.71-0.41,0.46,0.46,0,0,1,.51.27,0.33,0.33,0,0,0,.13.25c0.06,0,.08-0.06.09-0.14Zm-3.81,1.08a0.26,0.26,0,0,1-.22.28,1.73,1.73,0,0,1-.46,0H60.32a0.12,0.12,0,0,1-.13-0.15,1.08,1.08,0,0,1,.92-1.13,0.82,0.82,0,0,1,.75,1m0.67,0.36a1.45,1.45,0,0,0-1.43-1.62,1.72,1.72,0,0,0-1.62,1.88,1.65,1.65,0,0,0,1.6,1.92,1.47,1.47,0,0,0,1.31-.76,0.05,0.05,0,0,0,0-.07l-0.14-.11a0,0,0,0,0-.07,0,1.22,1.22,0,0,1-.91.52,1.18,1.18,0,0,1-1.1-1.35,0.18,0.18,0,0,1,.18-0.17h2a0.26,0.26,0,0,0,.2-0.26m-3.1-3.26a0.12,0.12,0,0,0,0-.14,1.2,1.2,0,0,0-.73-0.2,1,1,0,0,0-1.2,1.09v1H57a0.08,0.08,0,0,0-.09.08v0.23a0.08,0.08,0,0,0,.09.08h0.45v2.6a0.62,0.62,0,0,1-.1.44,0.24,0.24,0,0,0-.11.12s0,0.06.11,0.06h1.28c0.08,0,.14,0,0.14-0.07A0.15,0.15,0,0,0,58.66,23L58.4,23a0.37,0.37,0,0,1-.29-0.39V19.95l1.18,0a0.07,0.07,0,0,0,.09-0.06V19.6a0.07,0.07,0,0,0-.09-0.06H58.1V18.37a0.54,0.54,0,0,1,.5-0.61,0.85,0.85,0,0,1,.62.46,0.07,0.07,0,0,0,.08,0,0.09,0.09,0,0,0,.1-0.08Zm-3.6,2.9a0.26,0.26,0,0,1-.22.28,1.72,1.72,0,0,1-.46,0H54.29a0.12,0.12,0,0,1-.13-0.15,1.08,1.08,0,0,1,.92-1.13,0.82,0.82,0,0,1,.75,1m0.67,0.36a1.45,1.45,0,0,0-1.42-1.62,1.73,1.73,0,0,0-1.62,1.88,1.65,1.65,0,0,0,1.6,1.92,1.47,1.47,0,0,0,1.31-.76,0.05,0.05,0,0,0,0-.07l-0.14-.11a0,0,0,0,0-.07,0,1.22,1.22,0,0,1-.92.52,1.18,1.18,0,0,1-1.1-1.35,0.17,0.17,0,0,1,.18-0.17h2a0.25,0.25,0,0,0,.2-0.26m-3.27-1.44a0.16,0.16,0,0,0-.14-0.13,1.13,1.13,0,0,0-.29-0.05,1.28,1.28,0,0,0-1.13.61,0.07,0.07,0,0,1,0,0,0.07,0.07,0,0,1-.06,0l-0.13-.41a0.13,0.13,0,0,0-.14-0.1H50.45c-0.08,0-.14,0-0.14.07a0.15,0.15,0,0,0,.14.09l0.27,0.05a0.36,0.36,0,0,1,.29.38v2.43a0.37,0.37,0,0,1-.28.39L50.54,23a0.15,0.15,0,0,0-.14.1s0.06,0.06.14,0.06h1.54c0.08,0,.14,0,0.14-0.07A0.16,0.16,0,0,0,52.08,23L51.9,23a0.38,0.38,0,0,1-.28-0.39V20.72a0.78,0.78,0,0,1,.1-0.37,0.86,0.86,0,0,1,.71-0.41,0.46,0.46,0,0,1,.51.27,0.34,0.34,0,0,0,.13.25c0.06,0,.08-0.06.09-0.14Zm-3.77-.23A1.19,1.19,0,0,1,48,20.63H47.57a0.18,0.18,0,0,1-.17-0.16V18.53a0.21,0.21,0,0,1,.22-0.2H48.1c1,0,1.37.33,1.37,1.07m0.77,0c0-1-.84-1.44-1.83-1.44H46c-0.08,0-.14,0-0.14.07a0.14,0.14,0,0,0,.14.09l0.36,0.05a0.36,0.36,0,0,1,.28.38v4a0.36,0.36,0,0,1-.27.39,0.15,0.15,0,0,0-.14.1s0.06,0.06.14,0.06H48c0.08,0,.14,0,0.14-0.06A0.15,0.15,0,0,0,48,23L47.7,23a0.38,0.38,0,0,1-.29-0.39V21.1A0.17,0.17,0,0,1,47.57,21h0.55c1.42,0,2.11-.66,2.11-1.53"/><path class="st0" d="M75.3,15.19a0.32,0.32,0,0,1-.06.18,1.05,1.05,0,0,1-.81.5c-0.51,0-1-.36-1-1.49,0-1,.37-1.56,1-1.56a0.75,0.75,0,0,1,.88.89v1.49Zm1.3,1a0.15,0.15,0,0,0-.14-0.1l-0.27,0a0.37,0.37,0,0,1-.28-0.39V11.28l0-.57a0.11,0.11,0,0,0-.12-0.1H74.66c-0.08,0-.14,0-0.14.07a0.14,0.14,0,0,0,.14.09L75,10.82a0.35,0.35,0,0,1,.28.38v1.37a0.05,0.05,0,0,1-.08.06,2.66,2.66,0,0,0-.84-0.13,1.7,1.7,0,0,0-1.58,1.87c0,1.39.69,1.92,1.48,1.92a1.27,1.27,0,0,0,.92-0.42,0.12,0.12,0,0,1,.07,0,0.07,0.07,0,0,1,.06,0l0.11,0.23a0.16,0.16,0,0,0,.14.1h0.88c0.08,0,.14,0,0.14-0.07m-5-1.63c0,0.62-.17,1.48-1,1.48s-1-1.06-1-1.71a1.15,1.15,0,0,1,1-1.41c0.86,0,1,1,1,1.65m0.67-.12a1.68,1.68,0,1,0-3.33,0,1.68,1.68,0,1,0,3.33,0m-4.52.12c0,0.62-.17,1.48-1,1.48s-1-1.06-1-1.71a1.16,1.16,0,0,1,1-1.41c0.85,0,1,1,1,1.65m0.67-.12a1.68,1.68,0,1,0-3.33,0,1.68,1.68,0,1,0,3.33,0M65,12.65s-0.07-.06-0.15-0.06h-1c-0.08,0-.13,0-0.13.05a0.08,0.08,0,0,0,.07.08L64,12.81a0.24,0.24,0,0,1,.09.3l-0.59,2.3s-0.09,0-.11,0l-0.9-2.68a0.18,0.18,0,0,0-.17-0.05,0.17,0.17,0,0,0-.16.05l-1,2.62a0.06,0.06,0,0,1-.1,0l-0.54-2.24a0.28,0.28,0,0,1,.09-0.3l0.17-.1a0.09,0.09,0,0,0,.06-0.08s-0.05-.05-0.13-0.05H59.52c-0.08,0-.14,0-0.14.07a0.14,0.14,0,0,0,.12.09l0.16,0.06a0.27,0.27,0,0,1,.19.18l1,3.22a0.26,0.26,0,0,0,.24.08,0.26,0.26,0,0,0,.24-0.08l0.87-2.36a0.08,0.08,0,0,1,.13,0l0.79,2.36a0.29,0.29,0,0,0,.24.08,0.27,0.27,0,0,0,.25-0.08L64.66,13a0.4,0.4,0,0,1,.23-0.22A0.14,0.14,0,0,0,65,12.65m-5.59,0a0.16,0.16,0,0,0-.14-0.13,1,1,0,0,0-.3-0.05,1.28,1.28,0,0,0-1.13.61l0,0a0.07,0.07,0,0,1-.06,0l-0.13-.41a0.13,0.13,0,0,0-.14-0.1H56.61c-0.08,0-.14,0-0.14.07a0.16,0.16,0,0,0,.14.09l0.27,0.05a0.36,0.36,0,0,1,.29.38v2.43a0.38,0.38,0,0,1-.28.39l-0.18,0a0.16,0.16,0,0,0-.14.1s0.06,0.06.14,0.06h1.54c0.08,0,.14,0,0.14-0.07a0.17,0.17,0,0,0-.14-0.1l-0.18,0a0.38,0.38,0,0,1-.28-0.39V13.77a0.81,0.81,0,0,1,.1-0.37A0.87,0.87,0,0,1,58.59,13a0.46,0.46,0,0,1,.51.27,0.35,0.35,0,0,0,.13.25c0.06,0,.08-0.06.09-0.14Zm-4.17,2.63a0.85,0.85,0,0,1-1,.66,0.65,0.65,0,0,1-.67-0.75,0.51,0.51,0,0,1,.42-0.5l1.13-.33c0.06,0,.1,0,0.1.07v0.86Zm1.29,0.83a0.15,0.15,0,0,0-.14-0.1l-0.26,0a0.37,0.37,0,0,1-.28-0.39V13.79a1.15,1.15,0,0,0-1.39-1.29c-0.37,0-.73.08-1.09,0.1a0.08,0.08,0,0,0-.09.08v1a0.05,0.05,0,0,0,.05.05,0.06,0.06,0,0,0,.06,0,0.93,0.93,0,0,1,1-.9,0.7,0.7,0,0,1,.79.56v0.34a0.49,0.49,0,0,1-.46.44c-0.41.12-.88,0.18-1.2,0.32a1,1,0,0,0-.59.88A0.94,0.94,0,0,0,54,16.3,1.9,1.9,0,0,0,55.13,16a0.15,0.15,0,0,1,.11,0,0.09,0.09,0,0,1,.09.06l0.07,0.12a0.17,0.17,0,0,0,.15.1h0.85c0.08,0,.14,0,0.14-0.07M52.67,16l0-.11a0.05,0.05,0,0,0-.09,0A1.11,1.11,0,0,1,52,16c-0.46,0-.54-0.3-0.54-0.69V13l1,0A0.07,0.07,0,0,0,52.58,13V12.66c0-.05,0-0.07-0.08-0.07h-1V11.45a0.09,0.09,0,0,0-.08-0.1,0.1,0.1,0,0,0-.09.08l-0.41,1a0.27,0.27,0,0,1-.23.19H50.2a0.08,0.08,0,0,0-.09.09v0.25a0.09,0.09,0,0,0,.09.08h0.68v2.48c0,0.57.36,0.78,1.06,0.78a1.35,1.35,0,0,0,.71-0.19,0,0,0,0,0,0-.07m-2.84-1.17c0-1.94-2.91-1.43-2.91-2.82a0.74,0.74,0,0,1,.87-0.68,1.41,1.41,0,0,1,1.63,1.25,0.08,0.08,0,0,0,.07.07,0.08,0.08,0,0,0,.07-0.1V11.22a0.11,0.11,0,0,0-.11-0.11A14.37,14.37,0,0,0,47.78,11a1.34,1.34,0,0,0-1.48,1.37c0,1.75,2.92,1.26,2.92,2.76a0.94,0.94,0,0,1-1.11.86,1.58,1.58,0,0,1-1.73-1.27,0.09,0.09,0,0,0-.08-0.07,0.08,0.08,0,0,0-.06.09L46.38,16a0.15,0.15,0,0,0,.12.11A14.55,14.55,0,0,0,48,16.3c1,0,1.8-.4,1.8-1.47"/><path class="st0" d="M36.2,24.9c0,2-2.48,2.39-4,2.39s-4.25-.6-4.25-2.59A1.8,1.8,0,0,1,28.82,23c0.54,0,2.65-.08,4.11-0.08,2.39,0,3.28.54,3.28,2m-1.68-9.73a2.62,2.62,0,0,1-2.77,2.94c-2.2,0-3.25-1.45-3.25-3.56a2.56,2.56,0,0,1,2.8-2.82c2.2,0,3.22,1.31,3.22,3.45m4.54-3.33V11.12c0-.2-0.11-0.23-0.31-0.23l-4.74.2a6.29,6.29,0,0,0-2.48-.49c-2.85,0-5.1,1.68-5.1,4.25a4,4,0,0,0,2.48,3.71,0.24,0.24,0,0,1,.17.2,0.24,0.24,0,0,1-.2.2A2.22,2.22,0,0,0,27.56,21a1.83,1.83,0,0,0,.69,1.37,3.51,3.51,0,0,0-1.89,3c0,2.59,2.46,3.51,4.68,3.51,2.79,0,6.76-1,6.76-4.48,0-2.71-1.74-3.37-4.25-3.37-1.31,0-2.85.11-3.36,0.11a1,1,0,0,1-1.2-1c0-.69.74-1.11,1.71-1.11h0.83c2.85,0,5.08-1.71,5.08-4.25a3.75,3.75,0,0,0-1-2.65l3.11-.09a0.26,0.26,0,0,0,.31-0.28M23.06,17c0,3.19-1.23,5.16-3.17,5.16-2.22,0-2.91-1-2.91-2.94v-4.9a1.07,1.07,0,0,1,.2-0.6,3.45,3.45,0,0,1,2.65-1.62c1.68,0,3.22,1.2,3.22,4.91m2.17,0c0-4.59-2.28-6.36-4.88-6.36A4.19,4.19,0,0,0,17.3,12a0.42,0.42,0,0,1-.23.14,0.25,0.25,0,0,1-.2-0.14l-0.34-.77a0.49,0.49,0,0,0-.45-0.34H12.85c-0.26,0-.46.06-0.46,0.23a0.46,0.46,0,0,0,.46.31L14,11.6a1.19,1.19,0,0,1,.92,1.28V26.52A2.09,2.09,0,0,1,14.58,28a0.78,0.78,0,0,0-.37.4c0,0.14.11,0.2,0.37,0.2h4.25c0.26,0,.45-0.06.45-0.23A0.49,0.49,0,0,0,18.84,28L18,27.86a1.24,1.24,0,0,1-1-1.28V22.9a0.18,0.18,0,0,1,.26-0.2,8.53,8.53,0,0,0,2.77.46c2.76,0,5.22-2.42,5.22-6.19M12.16,19.53C12.16,15.37,5,15.8,5,13.34c0-1.14,1-1.71,2.23-1.71,2.22,0,3.28.37,4,2.51a0.31,0.31,0,0,0,.23.25c0.17,0,.17-0.23.17-0.34l-0.06-2.83a0.3,0.3,0,0,0-.28-0.28,35,35,0,0,0-3.88-.34c-2.91,0-4,1.43-4,3.37,0,4.1,7.1,3.25,7.1,6.25,0,1.23-1.37,1.85-2.42,1.85-2.34,0-3.65-.54-4.48-2.91a0.34,0.34,0,0,0-.31-0.32c-0.2,0-.23.17-0.2,0.34,0.06,0.4.11,1,.14,1.51s0.09,1.08.12,1.51a0.45,0.45,0,0,0,.37.37,17.23,17.23,0,0,0,4,.57c2.42,0,4.42-.75,4.42-3.63"/><path class="st0" d="M43.36,22.18l-1-1.22,1.56-.27V20.57l-1.56-.28,1-1.21L43.29,19l-1.37.79V18.19H41.79l-0.54,1.49-1-1.21-0.11.06L40.66,20l-1.56-.28,0,0.12,1.37,0.79-1.37.8,0,0.12,1.56-.28-0.54,1.49,0.11,0.06,1-1.21,0.54,1.49,0.12,0V21.48l1.37,0.79,0.08-.1"/></svg>