
<!-- Generator: Adobe Illustrator 19.2.1, SVG Export Plug-In . SVG Version: 6.00 Build 0)  -->
<svg version="1.1" id="Layer_1" xmlns="http://www.w3.org/2000/svg" xmlns:xlink="http://www.w3.org/1999/xlink" x="0px" y="0px"
	 viewBox="0 0 80 40" style="enable-background:new 0 0 80 40;" xml:space="preserve">
<style type="text/css">
	.st0{fill:#FFFFFF;}
</style>
<g>
	<path class="st0" d="M51.7,29.8h-0.2v0.3h0.2c0.1,0,0.2-0.1,0.2-0.1C51.8,29.9,51.8,29.8,51.7,29.8 M51.8,30.5l-0.2-0.3h-0.1v0.3
		h-0.1v-0.8h0.3c0.1,0,0.3,0.1,0.3,0.2c0,0.1-0.1,0.2-0.2,0.2l0.2,0.4H51.8z M51.6,29.5c-0.4,0-0.6,0.3-0.6,0.6
		c0,0.4,0.3,0.6,0.6,0.6c0.4,0,0.6-0.3,0.6-0.6C52.3,29.8,52,29.5,51.6,29.5 M51.6,30.9c-0.4,0-0.8-0.3-0.8-0.8
		c0-0.4,0.3-0.8,0.8-0.8c0.4,0,0.8,0.3,0.8,0.8C52.4,30.5,52.1,30.9,51.6,30.9"/>
	<path class="st0" d="M36.9,16.6h-4.1l2.1-4.2L36.9,16.6z M34.5,11.7l-3.6,7.4h0.7l0.9-1.9h4.7l0.9,1.9h0.8l-3.7-7.4H34.5z"/>
	<path class="st0" d="M46.4,16.8c-0.1,0.2-0.3,0.4-0.5,0.7c-0.2,0.3-0.6,0.5-1,0.8c-0.4,0.2-1,0.4-1.7,0.4c-0.7,0-1.3-0.2-1.8-0.5
		c-0.5-0.3-0.9-0.7-1.2-1.2c-0.3-0.5-0.4-1-0.4-1.6c0-0.6,0.2-1.2,0.4-1.7c0.3-0.5,0.7-0.9,1.2-1.2c0.5-0.3,1.1-0.4,1.8-0.4
		c0.5,0,1,0.1,1.4,0.3c0.5,0.2,0.8,0.5,1.2,0.8c0.1,0.1,0.2,0.2,0.2,0.3c0.1,0.1,0.1,0.2,0.2,0.3l0.6-0.4c-0.1-0.2-0.3-0.4-0.5-0.7
		c-0.2-0.3-0.5-0.5-1-0.8c-0.3-0.2-0.6-0.3-1-0.4c-0.4-0.1-0.7-0.1-1.2-0.1c-0.8,0-1.5,0.2-2.1,0.5c-0.6,0.3-1.1,0.8-1.5,1.4
		c-0.4,0.6-0.5,1.2-0.6,2c0,0.6,0.1,1.2,0.4,1.8c0.3,0.6,0.7,1.1,1.3,1.5c0.6,0.4,1.4,0.6,2.4,0.6c0.6,0,1.2-0.1,1.8-0.3
		c0.6-0.2,1.1-0.6,1.6-1.1c0.1-0.1,0.2-0.3,0.3-0.4c0.1-0.1,0.1-0.2,0.2-0.3L46.4,16.8z"/>
	<path class="st0" d="M34.2,22c0,0.2,0.1,0.4,0.2,0.5c0.1,0.2,0.3,0.2,0.6,0.2c0.3,0,0.5-0.1,0.6-0.2c0.1-0.1,0.2-0.3,0.2-0.5
		c0-0.2-0.1-0.4-0.2-0.5c-0.1-0.2-0.3-0.2-0.6-0.2c-0.3,0-0.5,0.1-0.6,0.2C34.2,21.6,34.2,21.8,34.2,22 M33.8,22
		c0-0.3,0.1-0.6,0.3-0.8c0.2-0.2,0.5-0.3,0.8-0.3c0.4,0,0.6,0.1,0.8,0.3c0.2,0.2,0.3,0.4,0.3,0.8c0,0.3-0.1,0.6-0.3,0.7
		c-0.2,0.2-0.5,0.3-0.8,0.3c-0.3,0-0.6-0.1-0.8-0.3C33.9,22.6,33.8,22.3,33.8,22"/>
	<path class="st0" d="M47,21.6l-0.3,0c0-0.1-0.1-0.2-0.2-0.3c-0.1-0.1-0.2-0.1-0.4-0.1c-0.1,0-0.2,0-0.3,0.1
		c-0.1,0.1-0.2,0.1-0.2,0.2c0,0.1,0.1,0.2,0.4,0.3c0.2,0,0.5,0.1,0.7,0.2c0.2,0.1,0.4,0.2,0.4,0.5c0,0.2-0.1,0.4-0.3,0.5
		C46.6,23,46.4,23,46.2,23c-0.3,0-0.5,0-0.7-0.1c-0.2-0.1-0.3-0.3-0.3-0.5l0.3,0c0,0.3,0.2,0.5,0.7,0.5c0.2,0,0.3,0,0.4-0.1
		c0.1-0.1,0.2-0.2,0.2-0.3c0-0.1-0.1-0.2-0.4-0.3c-0.2,0-0.5-0.1-0.7-0.1c-0.2-0.1-0.4-0.2-0.4-0.4c0-0.2,0.1-0.3,0.3-0.4
		c0.1-0.1,0.3-0.1,0.5-0.1c0.2,0,0.4,0,0.6,0.1C46.9,21.2,47,21.4,47,21.6"/>
	<polygon class="st0" points="32.5,21 32.9,21 32.9,23 32.5,23 32.5,22.1 31.2,22.1 31.2,23 30.9,23 30.9,21 31.2,21 31.2,21.8 
		32.5,21.8 	"/>
	<polygon class="st0" points="37.1,21 38.9,21 38.9,21.3 38.2,21.3 38.2,23 37.8,23 37.8,21.3 37.1,21.3 	"/>
	<polygon class="st0" points="39.9,21 41.6,21 41.6,21.3 40.1,21.3 40.1,21.8 41.5,21.8 41.5,22.1 40.1,22.1 40.1,22.7 41.7,22.7 
		41.7,23 39.9,23 	"/>
	<polygon class="st0" points="42.7,21 43,21 43,22.7 44.2,22.7 44.2,23 42.7,23 	"/>
	<path class="st0" d="M28.1,26.5h21.8v4H28.1V26.5z M28.1,8.5h21.8v17.6H28.1V8.5z M27.7,30.9h22.6V8.1H27.7V30.9z"/>
	<path class="st0" d="M31.4,27.5C31.4,27.5,31.4,27.4,31.4,27.5c0.1-0.1,0.1-0.1,0.1,0l0.7,1.5l0.7-1.6c0,0,0-0.1,0.1-0.1
		c0,0,0,0,0,0.1l0.2,1.7c0,0.2,0.1,0.3,0.1,0.3c0.1,0,0.1,0,0.2,0c0,0,0,0,0,0c0,0,0,0-0.1,0c-0.1,0-0.4,0-0.6,0c-0.1,0-0.1,0-0.1,0
		c0,0,0,0,0,0c0,0,0,0,0-0.1l-0.2-1.2h0l-0.6,1.2c-0.1,0.1-0.1,0.2-0.1,0.2c0,0,0-0.1-0.1-0.1c-0.1-0.1-0.3-0.5-0.3-0.6
		c0-0.1-0.2-0.4-0.3-0.6h0l-0.1,1.1c0,0,0,0.1,0,0.1c0,0.1,0,0.1,0.1,0.1c0,0,0.1,0,0.1,0c0,0,0,0,0,0c0,0,0,0-0.1,0
		c-0.1,0-0.2,0-0.3,0c-0.1,0-0.2,0-0.3,0c0,0,0,0,0,0c0,0,0,0,0,0c0,0,0,0,0.1,0c0.1,0,0.1-0.1,0.1-0.2L31.4,27.5z"/>
	<path class="st0" d="M34.8,28.7C34.8,28.7,34.8,28.7,34.8,28.7L34.5,28c0,0,0,0,0,0c0,0,0,0,0,0l-0.3,0.7c0,0,0,0,0,0H34.8z
		 M34.2,28.8C34.2,28.8,34.2,28.8,34.2,28.8l-0.2,0.4c0,0.1,0,0.1,0,0.2c0,0.1,0,0.1,0.1,0.1h0c0,0,0,0,0,0c0,0,0,0,0,0
		c-0.1,0-0.2,0-0.3,0c0,0-0.2,0-0.3,0c0,0-0.1,0-0.1,0c0,0,0,0,0,0c0,0,0.1,0,0.1,0c0.1,0,0.2-0.1,0.2-0.2l0.7-1.7
		c0-0.1,0-0.1,0.1-0.1c0,0,0,0,0.1,0.1c0.1,0.1,0.5,1.3,0.7,1.7c0.1,0.2,0.2,0.3,0.2,0.3c0,0,0.1,0,0.1,0c0,0,0,0,0,0c0,0,0,0-0.1,0
		c-0.1,0-0.3,0-0.5,0c0,0-0.1,0-0.1,0c0,0,0,0,0,0c0,0,0,0,0-0.1l-0.2-0.6c0,0,0,0,0,0H34.2z"/>
	<path class="st0" d="M36.3,28.5C36.3,28.5,36.3,28.5,36.3,28.5c0.1,0.1,0.2,0.1,0.2,0.1c0.1,0,0.1,0,0.2,0c0.1-0.1,0.2-0.2,0.2-0.4
		c0-0.4-0.3-0.5-0.4-0.5c-0.1,0-0.1,0-0.1,0c0,0,0,0,0,0V28.5z M36,28.3c0-0.4,0-0.5,0-0.6c0-0.1,0-0.1-0.1-0.2c0,0-0.1,0-0.1,0
		c0,0,0,0,0,0c0,0,0,0,0.1,0c0.1,0,0.3,0,0.4,0c0.1,0,0.3,0,0.4,0c0.2,0,0.4,0,0.5,0.1c0.1,0,0.2,0.2,0.2,0.4c0,0.2-0.1,0.4-0.4,0.6
		c0.2,0.3,0.4,0.6,0.6,0.7c0.1,0.2,0.3,0.2,0.3,0.2c0,0,0.1,0,0.1,0c0,0,0,0,0,0c0,0,0,0-0.1,0h-0.3c-0.1,0-0.2,0-0.3-0.1
		c-0.1-0.1-0.2-0.2-0.4-0.4c-0.1-0.1-0.2-0.3-0.3-0.4c0,0,0,0,0,0l-0.2,0c0,0,0,0,0,0v0c0,0.3,0,0.5,0,0.6c0,0.1,0,0.1,0.1,0.2
		c0,0,0.1,0,0.1,0c0,0,0,0,0,0c0,0,0,0-0.1,0c-0.2,0-0.4,0-0.4,0c0,0-0.2,0-0.3,0c0,0-0.1,0-0.1,0c0,0,0,0,0,0c0,0,0.1,0,0.1,0
		c0.1,0,0.1-0.1,0.1-0.2c0-0.1,0-0.3,0-0.6V28.3z"/>
	<path class="st0" d="M38.4,28.5C38.4,28.5,38.4,28.5,38.4,28.5c0.1,0.1,0.2,0.1,0.2,0.1c0.1,0,0.1,0,0.2,0c0.1-0.1,0.2-0.2,0.2-0.4
		c0-0.4-0.3-0.5-0.4-0.5c-0.1,0-0.1,0-0.1,0c0,0,0,0,0,0V28.5z M38,28.3c0-0.4,0-0.5,0-0.6c0-0.1,0-0.1-0.1-0.2c0,0-0.1,0-0.1,0
		c0,0-0.1,0-0.1,0c0,0,0,0,0.1,0c0.1,0,0.3,0,0.4,0c0.1,0,0.3,0,0.4,0c0.2,0,0.3,0,0.5,0.1c0.1,0,0.2,0.2,0.2,0.4
		c0,0.2-0.1,0.4-0.4,0.6c0.2,0.3,0.4,0.6,0.6,0.7c0.1,0.2,0.3,0.2,0.3,0.2c0,0,0.1,0,0.1,0c0,0,0,0,0,0c0,0,0,0-0.1,0h-0.3
		c-0.2,0-0.2,0-0.3-0.1c-0.1-0.1-0.2-0.2-0.4-0.4c-0.1-0.1-0.2-0.3-0.3-0.4c0,0,0,0-0.1,0l-0.2,0c0,0,0,0,0,0v0c0,0.3,0,0.5,0,0.6
		c0,0.1,0,0.1,0.1,0.2c0,0,0.1,0,0.1,0c0,0,0,0,0,0c0,0,0,0-0.1,0c-0.2,0-0.4,0-0.4,0c0,0-0.2,0-0.3,0c0,0-0.1,0-0.1,0c0,0,0,0,0,0
		c0,0,0.1,0,0.1,0c0.1,0,0.1-0.1,0.1-0.2c0-0.1,0-0.3,0-0.6V28.3z"/>
	<path class="st0" d="M40.1,28.3c0-0.4,0-0.5,0-0.6c0-0.1,0-0.1-0.1-0.2c0,0-0.1,0-0.1,0c0,0,0,0,0,0c0,0,0,0,0.1,0
		c0.1,0,0.3,0,0.4,0c0.1,0,0.2,0,0.3,0c0,0,0.1,0,0.1,0c0,0,0,0,0,0c0,0,0,0-0.1,0c-0.1,0-0.1,0.1-0.1,0.2c0,0.1,0,0.2,0,0.6v0.5
		c0,0.3,0,0.5,0,0.6c0,0.1,0,0.1,0.1,0.1c0,0,0.1,0,0.1,0c0,0,0,0,0,0c0,0,0,0,0,0c-0.2,0-0.4,0-0.4,0c-0.1,0-0.2,0-0.3,0
		c0,0-0.1,0-0.1,0c0,0,0,0,0,0c0,0,0.1,0,0.1,0c0.1,0,0.1-0.1,0.1-0.1c0-0.1,0-0.3,0-0.6V28.3z"/>
	<path class="st0" d="M42.8,28.6c0-0.6-0.3-1-0.8-1c-0.3,0-0.7,0.2-0.7,0.9c0,0.6,0.3,1,0.8,1C42.4,29.4,42.8,29.4,42.8,28.6
		 M41,28.5c0-0.5,0.3-1.1,1.1-1.1c0.7,0,1.1,0.4,1.1,1c0,0.6-0.4,1.1-1.1,1.1C41.3,29.6,41,29,41,28.5"/>
	<path class="st0" d="M44.1,27.6l-0.4,0c-0.2,0-0.2,0-0.3,0.1c0,0,0,0.1,0,0.1c0,0,0,0,0,0c0,0,0,0,0,0c0,0,0.1-0.3,0.1-0.3
		c0,0,0-0.1,0-0.1c0,0,0,0,0.1,0c0.1,0,0.2,0,0.3,0h1.1c0.1,0,0.1,0,0.2,0c0,0,0.1,0,0.1,0c0,0,0,0,0,0.1c0,0.1,0,0.2,0,0.3
		c0,0,0,0,0,0c0,0,0,0,0-0.1v0c0-0.1-0.1-0.1-0.3-0.2l-0.3,0v1.1c0,0.3,0,0.5,0,0.6c0,0.1,0,0.1,0.1,0.2c0,0,0.1,0,0.1,0
		c0,0,0,0,0,0c0,0,0,0,0,0c-0.2,0-0.4,0-0.4,0c-0.1,0-0.2,0-0.3,0c0,0-0.1,0-0.1,0c0,0,0,0,0,0c0,0,0.1,0,0.1,0
		c0.1,0,0.1-0.1,0.1-0.2c0-0.1,0-0.3,0-0.6V27.6z"/>
	<path class="st0" d="M46,27.6l-0.4,0c-0.2,0-0.2,0-0.3,0.1c0,0,0,0.1-0.1,0.1c0,0,0,0,0,0c0,0,0,0,0,0c0,0,0-0.3,0.1-0.3
		c0,0,0-0.1,0-0.1c0,0,0.1,0,0.1,0c0.1,0,0.2,0,0.3,0h1.1c0.1,0,0.1,0,0.2,0c0,0,0.1,0,0.1,0c0,0,0,0,0,0.1c0,0.1,0,0.2,0,0.3
		c0,0,0,0,0,0c0,0,0,0,0-0.1v0c0-0.1-0.1-0.1-0.3-0.2l-0.3,0v1.1c0,0.3,0,0.5,0,0.6c0,0.1,0,0.1,0.1,0.2c0,0,0.1,0,0.1,0
		c0,0,0,0,0,0c0,0,0,0,0,0c-0.2,0-0.3,0-0.4,0c-0.1,0-0.2,0-0.3,0c0,0-0.1,0-0.1,0c0,0,0,0,0,0c0,0,0.1,0,0.1,0
		c0.1,0,0.1-0.1,0.1-0.2c0-0.1,0-0.3,0-0.6V27.6z"/>
	<path class="st0" d="M46.9,29.3L46.9,29.3c0.1,0,0.1,0,0.1,0C47,29.3,47,29.3,46.9,29.3L46.9,29.3L46.9,29.3z M47,29.2
		C47,29.2,47.1,29.2,47,29.2c0.1,0.1,0.1,0.1,0,0.2l0,0.1h0l0-0.1h-0.1v0.1h0L47,29.2L47,29.2z M47,29.2c-0.1,0-0.2,0.1-0.2,0.2
		c0,0.1,0.1,0.2,0.2,0.2c0.1,0,0.2-0.1,0.2-0.2C47.2,29.2,47.1,29.2,47,29.2 M47,29.1c0.1,0,0.2,0.1,0.2,0.2c0,0.1-0.1,0.3-0.2,0.3
		c-0.1,0-0.2-0.1-0.2-0.3C46.7,29.2,46.8,29.1,47,29.1"/>
</g>
</svg>
