<?xml version="1.0" encoding="utf-8"?>
<!-- Generator: Adobe Illustrator 19.2.1, SVG Export Plug-In . SVG Version: 6.00 Build 0)  -->
<svg version="1.1" id="Layer_1" xmlns="http://www.w3.org/2000/svg" xmlns:xlink="http://www.w3.org/1999/xlink" x="0px" y="0px"
	 viewBox="0 0 80 40" style="enable-background:new 0 0 80 40;" xml:space="preserve">
<style type="text/css">
	.st0{fill:#FFFFFF;}
</style>
<g>
	<path class="st0" d="M59.9,31v-0.3h-0.5v-2.6c0-0.9-0.4-1.6-1.8-1.6c-0.7,0-1.1,0.3-1.3,0.6v-0.4h-1.9v0.3h0.5v3.8h-0.5V31h2.5
		v-0.3h-0.5v-2.9c0-0.4,0.5-0.9,0.9-0.9c0.5,0,0.8,0.3,0.8,0.9v2.9h-0.5V31H59.9z M51.7,26.7c0.7,0,1,0.8,1,2.1c0,1.4-0.3,2-1,2
		c-0.7,0-1-0.6-1-2C50.7,27.5,51,26.7,51.7,26.7 M51.7,31.1c1.4,0,2.4-0.8,2.4-2.3c0-1.5-0.9-2.4-2.4-2.4c-1.4,0-2.4,0.9-2.4,2.4
		C49.3,30.3,50.3,31.1,51.7,31.1 M46.5,29.7c0,1.1,0.4,1.4,1.3,1.4c0.8,0,1.4-0.3,1.4-1.4v-0.1h-0.2v0.1c0,0.6-0.2,0.9-0.5,0.9
		c-0.3,0-0.5-0.2-0.5-0.6v-3.1h0.8v-0.3h-0.8v-1.5h-0.3c-0.2,0.9-0.8,1.5-1.6,1.5v0.3h0.5V29.7z M43.7,30c0,0.4-0.4,0.7-0.8,0.7
		c-0.5,0-0.6-0.4-0.6-0.9c0-0.5,0.2-0.7,0.8-1c0.3-0.1,0.5-0.3,0.6-0.4V30z M42.4,27.7c0-0.3-0.3-0.6-0.6-0.6
		c0.2-0.1,0.5-0.3,0.9-0.3c0.6,0,1,0.3,1,0.9c0,0.4-0.2,0.7-0.7,0.8c-0.9,0.2-2.1,0.2-2.1,1.4c0,0.7,0.4,1.2,1.5,1.2
		c0.6,0,1.2-0.2,1.5-0.7c0.2,0.5,0.5,0.7,1,0.7c0.7,0,1.2-0.1,1.2-1.4v-0.1h-0.2v0.1c0,0.6-0.1,0.9-0.4,0.9c-0.3,0-0.3-0.2-0.3-0.6
		v-1.6c0-1.3-0.3-1.9-2.1-1.9c-1.2,0-2,0.4-2,1.1c0,0.4,0.2,0.7,0.7,0.7C42.1,28.4,42.4,28.1,42.4,27.7 M40.2,26.8
		c-0.4,0-0.6,0.3-0.6,0.7c0,0.4,0.3,0.7,0.6,0.7c0.4,0,0.7-0.3,0.7-0.7c0-0.7-0.5-1-1-1c-0.7,0-1,0.3-1.3,0.6v-0.4h-1.9v0.3h0.5v3.8
		h-0.5V31h2.5v-0.3h-0.5v-2c0-0.9,0.3-1.9,1.3-1.9C40.1,26.7,40.1,26.8,40.2,26.8C40.2,26.8,40.2,26.8,40.2,26.8 M33.3,28.5
		c0-0.9,0.4-1.8,1-1.8c0.8,0,0.9,0.9,0.9,1.8H33.3z M31.9,28.9c0,1.5,1,2.3,2.4,2.3c1.4,0,2.2-0.8,2.2-1.8v-0.1h-0.2v0
		c0,1.1-1,1.4-1.6,1.4c-0.8,0-1.3-0.7-1.3-1.9h3.2c0-1.4-0.8-2.3-2.1-2.3C32.9,26.5,31.9,27.4,31.9,28.9 M31.9,31v-0.3h-0.5v-2.6
		c0-0.9-0.4-1.6-1.8-1.6c-0.7,0-1.1,0.3-1.3,0.6v-2.1h-1.9v0.3h0.5v5.5h-0.5V31h2.5v-0.3h-0.5v-2.9c0-0.4,0.5-0.9,0.9-0.9
		c0.5,0,0.8,0.3,0.8,0.9v2.9h-0.5V31H31.9z M23.6,31.1c-0.4,0-0.8,0-1.1-0.2c-0.4-0.2-0.8-0.4-1-0.4c-0.2,0-0.3,0.1-0.3,0.4H21v-2.2
		h0.2c0.3,1.3,1.1,2,2.4,2c1.2,0,1.8-0.4,1.8-1.2c0-0.7-0.5-0.9-2.2-1c-1.4-0.1-2.1-0.8-2.1-1.9c0-1.1,0.9-2,2.1-2h0.1
		c0.3,0,0.7,0.1,1,0.1c0.3,0.1,1,0.4,1.1,0.4c0.2,0,0.2-0.1,0.2-0.4h0.2v2h-0.2c-0.3-1.1-1.2-1.8-2.3-1.8c-1,0-1.5,0.5-1.5,1
		c0,0.9,1.2,0.8,2.2,0.9c1.3,0.1,2.2,0.7,2.2,2C26.1,30.3,25.1,31.1,23.6,31.1"/>
	<path class="st0" d="M39.8,20.5c-0.3,0-0.6,0.1-0.7,0.2c-0.1,0-0.4,0.1-0.6,0c0,0-0.2,0,0,0.2c0,0.1,0.1,0.1,0.2,0.2
		c0.5,0.3,1,0.2,1.6-0.1c0.1-0.1,0.4-0.1,0.4-0.1c0-0.1-0.1-0.1-0.2-0.2c-0.3-0.5-0.7-0.8-1.2-1c-0.3-0.1-0.4,0-0.3,0
		c0.2,0.2,0.3,0.5,0.5,0.8C39.6,20.3,39.7,20.4,39.8,20.5"/>
	<path class="st0" d="M40.7,20.2c0-0.2,0.3-0.4,0.3-0.6c0.1,0.2,0.3,0.4,0.3,0.6c0,0.2-0.1,0.3-0.3,0.3
		C40.8,20.5,40.7,20.4,40.7,20.2"/>
	<path class="st0" d="M40.7,21.1c0,0.2,0.3,0.5,0.3,0.6c0.1-0.2,0.3-0.4,0.3-0.6c0-0.2-0.1-0.3-0.3-0.3
		C40.8,20.8,40.7,20.9,40.7,21.1"/>
	<path class="st0" d="M38.2,19.8c-0.3-0.1-0.6-0.1-0.7-0.1c-0.1,0-0.4,0-0.5-0.2c0,0-0.1-0.1-0.1,0.1c0,0.1,0.1,0.1,0.2,0.2
		c0.4,0.4,0.9,0.5,1.5,0.4c0.2,0,0.4,0,0.4,0c0-0.1-0.1-0.1-0.2-0.3c-0.2-0.5-0.4-1-0.7-1.3c-0.2-0.2-0.3-0.1-0.3-0.1
		c0.1,0.2,0.1,0.5,0.2,0.9C38.1,19.6,38.1,19.7,38.2,19.8"/>
	<path class="st0" d="M36.9,18.6c-0.2-0.2-0.5-0.2-0.6-0.3c-0.1,0-0.3-0.1-0.4-0.3c0,0-0.1-0.1-0.1,0.1c0,0.1,0,0.1,0.1,0.2
		c0.2,0.5,0.7,0.7,1.2,0.8c0.1,0,0.4,0.2,0.4,0.1c0-0.1-0.1-0.1-0.1-0.3c0-0.5-0.1-1-0.3-1.4c-0.1-0.2-0.3-0.2-0.2-0.1
		c0,0.2-0.1,0.5,0,0.9C36.8,18.4,36.9,18.5,36.9,18.6"/>
	<path class="st0" d="M36.1,17.2c-0.2-0.2-0.4-0.4-0.5-0.5c-0.1-0.1-0.2-0.2-0.3-0.4c0,0-0.1-0.1-0.1,0.1c0,0.1,0,0.1,0,0.2
		c0.1,0.5,0.4,0.8,0.9,1.1c0.1,0.1,0.3,0.3,0.3,0.2c0.1,0,0-0.2,0-0.3c0.2-0.5,0.2-1,0.1-1.4c-0.1-0.2-0.2-0.3-0.2-0.2
		c0,0.2-0.2,0.5-0.3,0.8C36.1,17,36.1,17.1,36.1,17.2"/>
	<path class="st0" d="M35.9,15.6c-0.1-0.2-0.2-0.4-0.3-0.6c0-0.1-0.1-0.3-0.1-0.5c0,0,0-0.2-0.1,0c0,0-0.1,0.1-0.1,0.2
		c-0.1,0.5,0.1,0.9,0.4,1.3c0.1,0.1,0.2,0.3,0.2,0.3c0.1,0,0.1-0.1,0.1-0.2c0.3-0.4,0.5-0.8,0.6-1.2c0-0.2,0-0.3-0.1-0.2
		c-0.1,0.2-0.3,0.3-0.5,0.6C35.9,15.4,35.9,15.5,35.9,15.6"/>
	<path class="st0" d="M36.1,14c0-0.2-0.1-0.5-0.1-0.6c0-0.1,0-0.3,0-0.5c0,0,0-0.2-0.1,0c0,0-0.1,0.1-0.1,0.2
		c-0.2,0.4-0.1,0.8,0.1,1.3c0,0.1,0.1,0.3,0.1,0.3c0.1,0,0.1-0.1,0.2-0.2c0.4-0.3,0.7-0.6,0.8-0.9c0.1-0.2,0-0.3,0-0.2
		c-0.1,0.2-0.4,0.2-0.6,0.4C36.2,13.9,36.1,14,36.1,14"/>
	<path class="st0" d="M36.7,12.7c0.1-0.2,0-0.5,0.1-0.6c0-0.1,0-0.3,0.1-0.4c0,0,0.1-0.1-0.1,0c0,0-0.1,0.1-0.2,0.1
		c-0.3,0.4-0.4,0.7-0.3,1.2c0,0.1,0,0.3,0,0.4c0.1,0,0.1-0.1,0.2-0.1c0.4-0.2,0.8-0.4,1-0.7c0.1-0.2,0.1-0.3,0-0.2
		c-0.2,0.1-0.4,0.1-0.7,0.2C36.8,12.5,36.7,12.6,36.7,12.7"/>
	<path class="st0" d="M37.6,11.6c0.1-0.2,0.2-0.4,0.2-0.5c0-0.1,0.1-0.2,0.3-0.3c0,0,0.1-0.1-0.1-0.1c0,0-0.1,0-0.2,0.1
		c-0.4,0.2-0.5,0.5-0.6,0.9c0,0.1-0.1,0.3-0.1,0.3c0,0,0.1,0,0.2,0c0.4,0,0.8-0.1,1.1-0.2c0.2-0.1,0.2-0.2,0.1-0.2
		c-0.2,0-0.4,0-0.7,0C37.8,11.5,37.7,11.6,37.6,11.6"/>
	<path class="st0" d="M38.7,10.9c0.1-0.1,0.2-0.3,0.3-0.4c0,0,0.1-0.2,0.3-0.2c0,0,0.1-0.1-0.1-0.1c0,0-0.1,0-0.2,0
		c-0.4,0.1-0.5,0.3-0.7,0.7c0,0.1-0.2,0.2-0.1,0.2c0,0,0.1,0,0.2,0c0.3,0.1,0.7,0.1,1,0c0.1-0.1,0.2-0.1,0.1-0.1
		c-0.2,0-0.3-0.1-0.6-0.2C38.8,10.9,38.7,10.9,38.7,10.9"/>
	<path class="st0" d="M40.3,10.3c-0.1,0.2-0.4,0.3-0.5,0.3c-0.1,0-0.4,0.1-0.6,0c0.1-0.2,0.4-0.3,0.5-0.3
		C39.8,10.3,40.1,10.2,40.3,10.3"/>
	<path class="st0" d="M42.7,12.7c0.2,0.1,0.3,0,0.4-0.2c0-0.1,0.1-0.1,0.1-0.2h0.2v2h-0.2c-0.3-0.8-1.1-1.7-1.9-1.8
		c-0.9-0.2-1.9-0.1-2.4,0.6c-0.1,0.2-0.1,0.6,0.2,0.8c0.9,0.5,1.9,0.3,3.1,0.5c0.6,0.1,1.3,0.4,1.5,1.1c0.3,0.6,0.2,1.3-0.1,1.8
		c-0.6,1-1.8,1.2-2.5,1.2c-0.8,0-1.5-0.4-2.1-0.6c-0.2-0.1-0.3,0-0.4,0.2c0,0.1,0,0.1,0,0.2h-0.2v-2.1c0.1,0,0.1,0,0.2,0
		c0.2,1,1,1.7,1.7,1.9c0.9,0.3,1.7,0.2,2.4-0.3c0.3-0.2,0.4-0.6,0.3-0.9c-0.2-0.5-1-0.7-1.6-0.7c-1.3,0-2.8,0-3.2-1.4
		c-0.2-0.7-0.1-1.4,0.4-1.9c0.8-0.8,2.1-0.8,3.1-0.5C42.1,12.4,42.4,12.6,42.7,12.7"/>
	<path class="st0" d="M42.1,20.5c0.3,0,0.6,0.1,0.7,0.2c0.1,0,0.4,0.1,0.6,0c0,0,0.2,0,0,0.2c0,0-0.1,0.1-0.2,0.2
		c-0.5,0.3-1,0.1-1.6-0.1c-0.1-0.1-0.4-0.1-0.4-0.1c0-0.1,0.1-0.1,0.2-0.2c0.3-0.5,0.7-0.8,1.2-1c0.3-0.1,0.4,0,0.3,0
		c-0.2,0.2-0.3,0.5-0.5,0.8C42.3,20.3,42.2,20.4,42.1,20.5"/>
	<path class="st0" d="M43.7,19.8c0.3-0.1,0.6-0.1,0.7-0.1c0.1,0,0.4,0,0.5-0.2c0,0,0.1-0.1,0.1,0.1c0,0.1-0.1,0.1-0.2,0.2
		c-0.4,0.4-0.9,0.5-1.5,0.4c-0.2,0-0.4,0.1-0.4,0c0-0.1,0.1-0.1,0.2-0.3c0.2-0.5,0.4-1,0.7-1.3c0.2-0.2,0.3-0.1,0.3-0.1
		c-0.1,0.2-0.1,0.5-0.2,0.9C43.9,19.6,43.8,19.7,43.7,19.8"/>
	<path class="st0" d="M45,18.6c0.2-0.2,0.5-0.2,0.6-0.3c0.1,0,0.3-0.1,0.4-0.3c0,0,0.1-0.1,0.1,0.1c0,0.1,0,0.1-0.1,0.2
		c-0.2,0.5-0.7,0.7-1.2,0.8c-0.1,0-0.4,0.2-0.4,0.1c0-0.1,0.1-0.1,0.1-0.3c0-0.5,0.1-1,0.3-1.4c0.1-0.2,0.3-0.2,0.2-0.1
		c0,0.2,0.1,0.5,0.1,0.9C45.1,18.4,45.1,18.5,45,18.6"/>
	<path class="st0" d="M45.8,17.2c0.2-0.2,0.4-0.4,0.5-0.5c0.1-0.1,0.3-0.2,0.3-0.4c0,0,0.1-0.1,0.1,0.1c0,0.1,0,0.1,0,0.2
		c-0.1,0.5-0.4,0.8-0.9,1.1c-0.1,0.1-0.3,0.3-0.3,0.2c-0.1,0,0-0.2,0-0.3c-0.2-0.5-0.2-1-0.1-1.4c0.1-0.2,0.2-0.3,0.2-0.2
		c0,0.2,0.2,0.5,0.3,0.8C45.8,17,45.8,17.1,45.8,17.2"/>
	<path class="st0" d="M46.1,15.6c0.1-0.2,0.2-0.4,0.3-0.6c0-0.1,0.1-0.3,0.1-0.5c0,0,0-0.2,0.1,0c0,0,0,0.1,0.1,0.2
		c0.1,0.5-0.1,0.9-0.4,1.3c-0.1,0.1-0.2,0.3-0.2,0.3c-0.1,0,0-0.1-0.1-0.2c-0.3-0.4-0.5-0.8-0.6-1.2c0-0.2,0-0.3,0.1-0.2
		c0.1,0.2,0.3,0.3,0.5,0.6C46,15.4,46.1,15.5,46.1,15.6"/>
	<path class="st0" d="M45.9,14c0-0.2,0.1-0.5,0.1-0.6c0-0.1,0.1-0.3,0-0.5c0,0,0-0.2,0.1,0c0,0,0.1,0.1,0.1,0.2
		c0.2,0.4,0.1,0.8-0.1,1.3c-0.1,0.1-0.1,0.3-0.1,0.3c-0.1,0-0.1-0.1-0.2-0.2c-0.4-0.3-0.7-0.6-0.8-0.9c-0.1-0.2,0-0.3,0-0.2
		c0.1,0.1,0.4,0.2,0.6,0.4C45.8,13.9,45.8,14,45.9,14"/>
	<path class="st0" d="M45.3,12.7c-0.1-0.2,0-0.5,0-0.6c0-0.1,0-0.3-0.1-0.4c0,0-0.1-0.1,0.1,0c0,0,0.1,0.1,0.2,0.1
		c0.3,0.4,0.4,0.8,0.3,1.2c0,0.1,0,0.3,0,0.4c-0.1,0-0.1-0.1-0.2-0.1c-0.4-0.2-0.8-0.4-1-0.7c-0.1-0.2-0.1-0.3,0-0.2
		c0.2,0.1,0.4,0.1,0.7,0.2C45.1,12.5,45.2,12.6,45.3,12.7"/>
	<path class="st0" d="M44.3,11.6c-0.1-0.2-0.2-0.4-0.2-0.5c0-0.1-0.1-0.2-0.3-0.3c0,0-0.1-0.1,0.1-0.1c0,0,0.1,0,0.2,0.1
		c0.4,0.2,0.5,0.5,0.6,0.9c0,0.1,0.1,0.3,0.1,0.3c0,0-0.1,0-0.2,0c-0.4,0-0.8,0-1.1-0.2c-0.2-0.1-0.2-0.2-0.1-0.2c0.2,0,0.4,0,0.7,0
		C44.2,11.5,44.3,11.5,44.3,11.6"/>
	<path class="st0" d="M43.3,10.9c-0.1-0.1-0.2-0.3-0.3-0.4c0,0-0.1-0.2-0.3-0.2c0,0-0.1,0,0.1-0.1c0,0,0.1,0,0.2,0
		c0.4,0.1,0.5,0.3,0.7,0.7c0,0.1,0.2,0.2,0.1,0.2c0,0-0.1,0-0.2,0c-0.3,0.1-0.7,0.1-0.9,0c-0.2-0.1-0.2-0.1-0.1-0.1
		c0.2,0,0.3-0.1,0.6-0.2C43.1,10.9,43.2,10.9,43.3,10.9"/>
	<path class="st0" d="M41.6,10.3c0.1,0.2,0.4,0.3,0.5,0.3c0.1,0,0.4,0.1,0.6,0c-0.1-0.2-0.4-0.3-0.5-0.3
		C42.1,10.3,41.8,10.2,41.6,10.3"/>
</g>
</svg>
