<?xml version="1.0" encoding="utf-8"?>
<!-- Generator: Adobe Illustrator 19.2.1, SVG Export Plug-In . SVG Version: 6.00 Build 0)  -->
<svg version="1.1" id="Layer_1" xmlns="http://www.w3.org/2000/svg" xmlns:xlink="http://www.w3.org/1999/xlink" x="0px" y="0px"
	 viewBox="0 0 80 40" style="enable-background:new 0 0 80 40;" xml:space="preserve">
<style type="text/css">
	.st0{fill:#FFFFFF;}
</style>
<g>
	<path class="st0" d="M21.3,18.3c-0.7,0-1.2-0.2-1.5-0.4l0.3-0.6c0.3,0.2,0.7,0.4,1.1,0.4c0.4,0,0.9-0.2,0.9-0.7
		c0-0.8-1.2-0.9-1.9-1.6c-0.2-0.2-0.3-0.5-0.3-0.9c0-0.7,0.6-1.4,1.6-1.4c0.5,0,0.9,0.1,1.2,0.3l0,0.8c-0.3-0.2-0.7-0.4-1.2-0.4
		c-0.4,0-0.8,0.2-0.8,0.6c0,1,2.2,1,2.2,2.5C23,17.8,22.3,18.3,21.3,18.3"/>
	<path class="st0" d="M25.3,13.9H25v1.9h0.4c0.7,0,1-0.4,1-1C26.3,14.3,26,13.9,25.3,13.9 M25.3,16.5H25v1.8h-0.8v-5.1h1.2
		c1.1,0,1.8,0.6,1.8,1.6C27.2,15.6,26.7,16.5,25.3,16.5"/>
	<path class="st0" d="M29.6,13.9h-0.5v1.7h0.5c0.5,0,0.9-0.4,0.9-0.9C30.5,14.2,30.3,13.9,29.6,13.9 M31,18.3
		c-0.8-1.3-1.2-2-1.4-2.1h-0.5v2.1h-0.8v-5.1h1.3c1.3,0,1.8,0.6,1.8,1.4c0,0.7-0.5,1.1-1,1.3v0c0.2,0.1,0.8,1,1.5,2.3H31z"/>
	<rect x="32.9" y="13.2" class="st0" width="0.8" height="5.1"/>
	<path class="st0" d="M42.9,18.3c-1.6,0-2.6-1.1-2.6-2.6c0-1.5,1.1-2.7,2.8-2.7c0.7,0,1.1,0.1,1.5,0.3l0,0.8
		c-0.4-0.2-0.9-0.4-1.4-0.4c-1.3,0-2,0.8-2,1.9c0,1.1,0.7,2,1.9,2c0.4,0,0.7-0.1,0.9-0.2v-1.8h0.8v2.2
		C44.3,18.1,43.7,18.3,42.9,18.3"/>
	<polygon class="st0" points="49.5,18.3 49.5,16 46.9,16 46.9,18.3 46.1,18.3 46.1,13.2 46.9,13.2 46.9,15.3 49.5,15.3 49.5,13.2 
		50.3,13.2 50.3,18.3 	"/>
	<rect x="51.8" y="13.2" class="st0" width="0.8" height="5.1"/>
	<polygon class="st0" points="54,18.3 54,13.2 54.8,13.2 54.8,17.6 56.6,17.6 56.7,18.3 	"/>
	<polygon class="st0" points="57.7,18.3 57.7,13.2 58.5,13.2 58.5,17.6 60.2,17.6 60.3,18.3 	"/>
	<path class="st0" d="M37.3,13.2c0.7,0,1.2,0.2,1.5,0.5c0.4,0.4,0.5,0.9,0.5,1.4v3.2h-0.8v-3.2c0-0.4-0.1-0.7-0.3-0.9
		c-0.2-0.2-0.5-0.3-0.9-0.3l-1.2,0l0,4.4h-0.8v-5.1H37.3z"/>
	<path class="st0" d="M30.3,26.2c-0.7,0-1.2-0.2-1.5-0.4l0.3-0.6c0.3,0.2,0.7,0.4,1.1,0.4c0.4,0,0.9-0.2,0.9-0.7
		c0-0.8-1.2-0.9-1.8-1.6C29.1,23,29,22.7,29,22.4c0-0.7,0.6-1.4,1.6-1.4c0.5,0,0.9,0.1,1.2,0.3l0,0.8c-0.3-0.2-0.7-0.4-1.2-0.4
		c-0.4,0-0.8,0.2-0.8,0.6c0,1,2.2,1,2.2,2.5C32.1,25.7,31.3,26.2,30.3,26.2"/>
	<path class="st0" d="M49.5,26.2c-0.7,0-1.2-0.2-1.5-0.4l0.3-0.6c0.3,0.2,0.7,0.4,1.1,0.4c0.4,0,0.9-0.2,0.9-0.7
		c0-0.8-1.2-0.9-1.8-1.6c-0.2-0.2-0.3-0.5-0.3-0.9c0-0.7,0.6-1.4,1.6-1.4c0.5,0,0.9,0.1,1.2,0.3l0,0.8c-0.3-0.2-0.7-0.4-1.2-0.4
		c-0.4,0-0.8,0.2-0.8,0.6c0,1,2.2,1,2.2,2.5C51.3,25.7,50.5,26.2,49.5,26.2"/>
	<rect x="38.1" y="21" class="st0" width="0.8" height="5.1"/>
	<path class="st0" d="M34.9,26.1c-0.7,0-1.2-0.2-1.5-0.5c-0.4-0.4-0.5-0.9-0.5-1.4V21h0.8v3.2c0,0.4,0.1,0.7,0.3,0.9
		c0.2,0.2,0.5,0.3,0.9,0.3l1.2,0l0-4.4H37v5.1H34.9z"/>
	<polygon class="st0" points="43.6,21.7 42.2,21.7 42.2,26.1 41.3,26.1 41.3,21.7 39.9,21.7 39.9,21 43.8,21 	"/>
	<polygon class="st0" points="44.5,26.1 44.5,21 47.2,21 46.9,21.7 45.3,21.7 45.3,23.2 46.9,23.2 46.9,23.9 45.3,23.9 45.3,25.4 
		47.2,25.4 47.2,26.1 	"/>
	<path class="st0" d="M53,21.6h-0.1v0.3H53c0.1,0,0.2,0,0.2-0.2C53.2,21.6,53,21.6,53,21.6 M53.3,22.3
		C53.2,22.3,53.2,22.3,53.3,22.3l-0.3-0.4h-0.1v0.4h-0.1v-0.8H53c0.2,0,0.2,0.2,0.2,0.2c0,0.1-0.1,0.2-0.2,0.2L53.3,22.3
		C53.3,22.3,53.3,22.3,53.3,22.3L53.3,22.3z M53,21.1c-0.4,0-0.8,0.4-0.8,0.8c0,0.4,0.4,0.8,0.8,0.8c0.4,0,0.8-0.4,0.8-0.8
		C53.8,21.4,53.4,21.1,53,21.1 M53,22.8c-0.5,0-0.9-0.4-0.9-0.9c0-0.5,0.4-0.9,0.9-0.9c0.5,0,0.9,0.4,0.9,0.9
		C53.9,22.4,53.5,22.8,53,22.8"/>
</g>
</svg>
