<?xml version="1.0" encoding="utf-8"?>
<!-- Generator: Adobe Illustrator 19.2.1, SVG Export Plug-In . SVG Version: 6.00 Build 0)  -->
<svg version="1.1" id="Layer_1" xmlns="http://www.w3.org/2000/svg" xmlns:xlink="http://www.w3.org/1999/xlink" x="0px" y="0px"
	 viewBox="0 0 80 40" style="enable-background:new 0 0 80 40;" xml:space="preserve">
<style type="text/css">
	.st0{fill:#FFFFFF;}
</style>
<g>
	<path class="st0" d="M16.6,12.5c0,0.7-0.2,1.4-0.7,1.8c-0.6,0.5-1.4,0.7-2.1,0.6h-0.7v2.6h-1.6v-7.3h2.4c0.7-0.1,1.5,0.2,2,0.6
		C16.4,11.2,16.6,11.9,16.6,12.5z M13.1,13.7h0.5c0.4,0,0.8-0.1,1.1-0.3c0.3-0.2,0.4-0.5,0.4-0.9c0-0.3-0.1-0.6-0.3-0.8
		c-0.3-0.2-0.6-0.3-0.9-0.3h-0.7L13.1,13.7L13.1,13.7z M24.7,13.9c0.1,1-0.3,2-0.9,2.8c-0.7,0.7-1.6,1-2.6,1c-1,0.1-1.9-0.3-2.6-1
		c-0.7-0.8-1-1.8-1-2.8c-0.1-1,0.3-2,0.9-2.8c0.7-0.7,1.6-1,2.6-1c1-0.1,1.9,0.3,2.6,1C24.4,11.9,24.7,12.9,24.7,13.9z M19.3,13.9
		c0,0.7,0.1,1.3,0.5,1.9c0.3,0.4,0.9,0.7,1.4,0.6c1.2,0,1.9-0.8,1.9-2.5s-0.6-2.5-1.9-2.5c-0.5,0-1.1,0.2-1.4,0.6
		C19.4,12.6,19.3,13.2,19.3,13.9z M27.8,14.8v2.8h-1.5v-7.4h2.2c0.8,0,1.5,0.1,2.2,0.5c0.5,0.4,0.8,1,0.7,1.7c0,0.4-0.1,0.8-0.4,1.2
		c-0.3,0.4-0.6,0.6-1,0.8c1.1,1.7,1.8,2.7,2.2,3.2h-1.7l-1.7-2.8L27.8,14.8L27.8,14.8z M27.8,13.5h0.5c0.4,0,0.8-0.1,1.1-0.2
		c0.2-0.2,0.4-0.5,0.4-0.8c0-0.3-0.1-0.6-0.4-0.7c-0.3-0.2-0.7-0.2-1.1-0.2h-0.5V13.5L27.8,13.5z M35.9,17.6h-1.6v-6.1h-2v-1.3h5.6
		v1.3h-2C35.9,11.5,35.9,17.6,35.9,17.6z M40.5,17.6H39v-7.4h4.2v1.3h-2.7v1.9H43v1.3h-2.5V17.6L40.5,17.6z M51.4,13.9
		c0.1,1-0.3,2-0.9,2.8c-0.7,0.7-1.6,1-2.6,1c-1,0.1-1.9-0.3-2.6-1c-0.7-0.8-1-1.8-1-2.8c-0.1-1,0.3-2,0.9-2.8c0.7-0.7,1.6-1,2.6-1
		c1-0.1,1.9,0.3,2.6,1C51.1,11.9,51.4,12.9,51.4,13.9z M46,13.9c0,0.7,0.1,1.3,0.5,1.9c0.3,0.4,0.9,0.7,1.4,0.6
		c1.2,0,1.9-0.8,1.9-2.5c0-1.7-0.6-2.5-1.9-2.5c-0.5,0-1.1,0.2-1.4,0.6C46.1,12.6,45.9,13.2,46,13.9z M52.9,17.6v-7.4h1.6v6.1h3v1.3
		L52.9,17.6L52.9,17.6z M58.7,17.6v-7.4h1.6v7.4L58.7,17.6L58.7,17.6z M68.8,13.9c0.1,1-0.3,2-0.9,2.8c-1.5,1.3-3.7,1.3-5.2,0
		c-0.6-0.8-1-1.8-0.9-2.8c-0.1-1,0.2-2,0.9-2.8c0.7-0.7,1.6-1,2.6-1c1-0.1,1.9,0.3,2.6,1C68.6,11.9,68.9,12.9,68.8,13.9z M63.5,13.9
		c0,0.7,0.1,1.3,0.5,1.9c0.3,0.4,0.9,0.7,1.4,0.6c1.2,0,1.9-0.8,1.9-2.5s-0.6-2.5-1.9-2.5c-0.5,0-1.1,0.2-1.4,0.6
		C63.6,12.6,63.4,13.2,63.5,13.9z M13.3,30l-1.8-5.8h-0.1c0.1,1.2,0.1,2,0.1,2.4V30h-1.4v-7.4h2.1l1.7,5.6l1.9-5.6H18V30h-1.5v-3.5
		v-0.6c0-0.2,0-0.8,0.1-1.7h0L14.7,30C14.7,30,13.3,30,13.3,30z M24.4,30l-0.5-1.7h-2.7L20.6,30h-1.7l2.6-7.4h1.9L26,30h-1.7H24.4z
		 M23.5,26.9l-0.9-2.7c-0.1-0.2-0.1-0.4-0.1-0.5c-0.1,0.4-0.4,1.5-1,3.2L23.5,26.9L23.5,26.9z M28.6,27.2V30H27v-7.4h2.2
		c0.8-0.1,1.6,0.1,2.2,0.5c0.8,0.7,1,1.9,0.4,2.8c-0.3,0.4-0.6,0.6-1,0.8c1.1,1.7,1.8,2.7,2.2,3.2h-1.7l-1.7-2.8L28.6,27.2
		L28.6,27.2z M28.6,25.9h0.5c0.4,0,0.8-0.1,1.1-0.2c0.2-0.2,0.4-0.5,0.4-0.8c0-0.3-0.1-0.6-0.4-0.7c-0.3-0.2-0.7-0.2-1.1-0.2h-0.5
		L28.6,25.9L28.6,25.9z M39.8,30H38L36,26.9l-0.7,0.5V30h-1.6v-7.4h1.6V26l0.6-0.9l2-2.5h1.7l-2.6,3.3L39.8,30z M44.9,30h-4.2v-7.4
		h4.2v1.3h-2.7v1.6h2.5v1.3h-2.5v1.9h2.7V30L44.9,30z M49.3,30h-1.5v-6.1h-2v-1.3h5.6v1.3h-2V30L49.3,30z M52.4,30v-7.4H54V30
		L52.4,30L52.4,30z M62.4,30h-2l-3.2-5.6h-0.1c0,1,0.1,1.7,0.1,2.1V30h-1.4v-7.4h2l3.2,5.5c-0.1-1-0.1-1.6-0.1-2v-3.5h1.4V30
		L62.4,30z M67.1,25.8H70v3.8c-0.4,0.1-0.9,0.3-1.3,0.3c-0.4,0.1-0.9,0.1-1.3,0.1c-1,0.1-1.9-0.3-2.6-1c-0.6-0.8-0.9-1.8-0.9-2.8
		c-0.1-1,0.3-2,1-2.8c0.8-0.7,1.8-1.1,2.8-1c0.8,0,1.5,0.2,2.2,0.5l-0.5,1.2c-0.5-0.3-1.1-0.4-1.7-0.4c-0.6,0-1.2,0.2-1.6,0.7
		c-0.4,0.5-0.6,1.2-0.6,1.8c0,0.6,0.1,1.3,0.5,1.8c0.3,0.4,0.9,0.7,1.4,0.6c0.3,0,0.7,0,1-0.1v-1.5h-1.4
		C67.1,27.1,67.1,25.8,67.1,25.8z"/>
</g>
</svg>
