<?xml version="1.0" encoding="utf-8"?>
<!-- Generator: Adobe Illustrator 19.2.1, SVG Export Plug-In . SVG Version: 6.00 Build 0)  -->
<svg version="1.1" id="Layer_1" xmlns="http://www.w3.org/2000/svg" xmlns:xlink="http://www.w3.org/1999/xlink" x="0px" y="0px"
	 viewBox="0 0 80 40" style="enable-background:new 0 0 80 40;" xml:space="preserve">
<style type="text/css">
	.st0{fill:#FFFFFF;}
</style>
<g>
	<path class="st0" d="M18.2,24.3L18.2,24.3l1-0.1v-7.4h-1v-0.1h5.5v2h-0.1c0-1-0.5-1.9-1.9-1.9h-1.3v3.6h0.5c0.9,0,1.4-0.5,1.4-1.3
		h0.1v2.6h-0.1c0-0.7-0.5-1.3-1.4-1.3h-0.5v3.8h1.4c1.6,0,2.4-0.8,2.4-2.1h0.1v2.2H18.2z"/>
	<path class="st0" d="M29.4,17.1c-0.4-0.3-0.9-0.4-1.3-0.4h-1.2v7.4h1.2c0.5,0,1-0.1,1.3-0.4c0.6-0.5,0.9-1.4,0.9-3.3
		C30.3,18.8,30,17.6,29.4,17.1 M28.1,24.3h-3.4v-0.1h1v-7.4h-1v-0.1h3.4c2,0,3.5,1.6,3.5,3.8C31.5,22.6,30,24.3,28.1,24.3"/>
	<polygon class="st0" points="31.8,24.3 31.8,24.2 32.8,24.2 32.8,16.7 31.8,16.7 31.8,16.7 35,16.7 35,16.7 34,16.7 34,24.2 
		35,24.2 35,24.3 	"/>
	<path class="st0" d="M41.6,19c0-1.3-0.6-2.3-2.1-2.3h-0.3v7.4h1v0.1H37v-0.1h1v-7.4h-0.3c-1.6,0-2.1,1-2.1,2.3h-0.1v-2.3h6.2
		L41.6,19L41.6,19z"/>
	<polygon class="st0" points="42.2,24.3 42.2,24.2 43.2,24.2 43.2,16.7 42.2,16.7 42.2,16.7 45.4,16.7 45.4,16.7 44.4,16.7 
		44.4,24.2 45.4,24.2 45.4,24.3 	"/>
	<path class="st0" d="M49.4,17.8c-1.9,0-3,0.5-3.5,1.1c-0.3,0.4-0.4,0.9-0.4,1.5c0,0.6,0.1,1.1,0.4,1.5c0.5,0.6,1.6,1.1,3.5,1.1
		c1.9,0,3-0.5,3.5-1.1c0.3-0.4,0.4-0.9,0.4-1.5c0-0.6-0.1-1.1-0.4-1.5C52.4,18.3,51.2,17.8,49.4,17.8L49.4,17.8z M53.4,20.4
		c0,2.2-1.8,3.8-4,3.8c-2.2,0-4-1.6-4-3.8c0-2.2,1.8-3.8,4-3.8C51.6,16.6,53.4,18.2,53.4,20.4"/>
	<polygon class="st0" points="59.6,16.7 59.6,24.4 59.5,24.4 54.5,16.7 54.5,24.2 55.5,24.2 55.5,24.3 53.4,24.3 53.4,24.2 
		54.4,24.2 54.4,16.7 53.4,16.7 53.4,16.7 55.8,16.7 59.5,22.3 59.5,16.7 58.5,16.7 58.5,16.7 60.6,16.7 60.6,16.7 	"/>
	<path class="st0" d="M61.7,17.2c0.1,0,0.1-0.1,0.1-0.1c0,0,0-0.1,0-0.1c0,0-0.1,0-0.1,0c0,0-0.1,0-0.1,0c0,0,0,0,0,0.1v0.3
		C61.6,17.2,61.7,17.2,61.7,17.2 M61.3,17.6c0.1,0,0.1,0,0.1,0c0,0,0,0,0-0.1V17c0,0,0,0,0-0.1c0,0-0.1,0-0.1,0v0h0.4
		c0.1,0,0.2,0,0.2,0.1C62,17,62,17,62,17.1c0,0.1,0,0.1-0.1,0.1c0,0-0.1,0.1-0.2,0.1v0c0.1,0,0.2,0.1,0.2,0.2c0,0.1,0,0.1,0.1,0.1
		c0,0,0,0,0.1,0c0,0,0-0.1,0-0.1h0c0,0.1,0,0.1,0,0.1c0,0-0.1,0.1-0.1,0.1c-0.1,0-0.1,0-0.1-0.1c0,0,0-0.1,0-0.1
		c0-0.1,0-0.1-0.1-0.1c0,0-0.1,0-0.2,0v0.3c0,0,0,0.1,0,0.1c0,0,0,0,0.1,0v0L61.3,17.6L61.3,17.6z M61.2,17.7
		c0.1,0.1,0.3,0.2,0.4,0.2c0.2,0,0.3-0.1,0.4-0.2c0.1-0.1,0.2-0.3,0.2-0.4s-0.1-0.3-0.2-0.4c-0.1-0.1-0.3-0.2-0.4-0.2
		c-0.2,0-0.3,0.1-0.4,0.2c-0.1,0.1-0.2,0.3-0.2,0.4S61.1,17.6,61.2,17.7 M61.2,16.8c0.1-0.1,0.3-0.2,0.5-0.2c0.2,0,0.3,0.1,0.5,0.2
		c0.1,0.1,0.2,0.3,0.2,0.5c0,0.2-0.1,0.3-0.2,0.5c-0.1,0.1-0.3,0.2-0.5,0.2c-0.2,0-0.3-0.1-0.5-0.2c-0.1-0.1-0.2-0.3-0.2-0.5
		C61,17.1,61.1,16.9,61.2,16.8"/>
</g>
</svg>
