
<!-- Generator: Adobe Illustrator 19.2.1, SVG Export Plug-In . SVG Version: 6.00 Build 0)  -->
<svg version="1.1" id="Layer_1" xmlns="http://www.w3.org/2000/svg" xmlns:xlink="http://www.w3.org/1999/xlink" x="0px" y="0px"
	 viewBox="0 0 80 40" style="enable-background:new 0 0 80 40;" xml:space="preserve">
<style type="text/css">
	.st0{fill:#FFFFFF;}
</style>
<g>
	<path class="st0" d="M58.9,6.4C58.9,6.4,58.9,6.4,58.9,6.4v1.8c0,0.1,0,0.1,0.1,0.1h0.6c0.1,0,0.1,0,0.1,0.1s-0.1,0.3-0.2,0.4
		c0,0-0.1,0.1-0.1,0.1c0,0,0,0,0,0H59c-0.1,0-0.1,0-0.1,0.1v4.2c0,0.2,0,0.3,0,0.5c0,0.3,0.2,0.5,0.3,0.8h-1.5c-0.1,0-0.2,0-0.2-0.1
		c-0.2-0.2-0.3-0.5-0.4-0.9V9c0-0.1,0-0.1-0.1-0.1h-0.7c-0.1,0-0.1,0-0.1-0.1s0.1-0.3,0.2-0.4c0-0.1,0.1-0.1,0.1-0.1c0,0,0,0,0,0H57
		c0.1,0,0.1,0,0.1-0.1V7.1c0-0.1,0-0.1,0.1-0.1c0,0,0,0,0,0L58.9,6.4L58.9,6.4z M55.2,6.4v1.8c0,0.1,0,0.1,0.1,0.1h0.7
		c0.1,0,0.1,0,0.1,0.1s-0.1,0.3-0.2,0.4c0,0-0.1,0.1-0.1,0.1h-0.5c-0.1,0-0.1,0-0.1,0.1v4.3c0,0.3,0.1,0.6,0.2,0.8
		c0.1,0.1,0.1,0.2,0.2,0.3c0,0-0.1,0-0.1,0H54c-0.1,0-0.1,0-0.2-0.1c-0.3-0.3-0.4-0.6-0.4-1V9c0-0.1,0-0.1-0.1-0.1h-0.8l0.2-0.5h0.7
		c0.1,0,0.1,0,0.1-0.1v-1c0,0,0-0.1,0-0.2c0,0,0,0,0.1,0L55,6.4C55,6.4,55.1,6.4,55.2,6.4L55.2,6.4z M39.7,33.6
		c-0.1,0-0.2,0-0.2-0.1c-1-0.2-1.7-1.2-1.5-2.3c0.2-1,1.2-1.7,2.3-1.5s1.7,1.2,1.5,2.3c-0.2,0.8-0.7,1.4-1.5,1.5L39.7,33.6
		L39.7,33.6z M10.6,31.6c0-0.2,0.1-0.4,0.3-0.5c0.3-0.2,0.7-0.3,1-0.1c0.3,0.2,0.4,0.6,0.4,0.9c-0.1,0.3-0.4,0.6-0.8,0.6
		c-0.4,0-0.7-0.2-0.8-0.6c0,0,0-0.1,0-0.1L10.6,31.6L10.6,31.6z M69.3,24.5c-0.1,0.2-0.2,0.4-0.3,0.5c-0.3,0.2-0.8,0.1-1-0.2
		c-0.2-0.3-0.1-0.8,0.2-1c0.3-0.2,0.8-0.1,1,0.2c0,0.1,0.1,0.1,0.1,0.2c0,0,0,0.1,0,0.1L69.3,24.5L69.3,24.5z M68,24.4
		c0,0.3,0.3,0.6,0.6,0.6c0,0,0,0,0,0c0.3,0,0.6-0.3,0.6-0.6s-0.3-0.6-0.6-0.6C68.3,23.8,68,24.1,68,24.4z M25.5,12.1l0.6-1.2
		c0,0,0-0.1,0-0.1l-1.4-3.1c0,0,0-0.1,0-0.1c0,0,0,0,0,0l1.6-0.8h0.1l3.9,8.5c0,0.1,0,0.1-0.1,0.1h-2.1c-0.1,0-0.1,0-0.1-0.1
		l-1.6-3.6v-0.1l-0.2,0.5L26,12.8c0,0.1,0,0.1,0,0.2l1,2.3v0.1h-2.2c-0.1,0-0.1,0-0.1-0.1l-1.7-3.6v-0.1l-0.4,0.9
		c-0.3,0.8-0.8,1.6-1.2,2.3c-0.2,0.3-0.4,0.5-0.6,0.8c-0.4,0.5-1.1,0.7-1.7,0.5c-0.3-0.1-0.6-0.2-0.8-0.3c0,0-0.1-0.1,0-0.1
		c0,0,0,0,0,0l1-1.6c0,0,0,0,0,0c0.7,0.2,1.4-0.1,1.8-0.6c0.4-0.4,0.7-0.8,1-1.3l0.5-1.1c0-0.1,0-0.1,0-0.2L21,7.6c0,0,0-0.1,0-0.1
		c0,0,0,0,0,0l1.7-0.9h0.1l2.6,5.4L25.5,12.1z M30.7,20.3l-0.3,1.3L29.6,25c0,0,0,0.1-0.1,0.1c0,0,0,0,0,0h-1c0,0-0.1,0-0.1,0
		c0,0,0,0,0-0.1l-1.4-5.8c0-0.1-0.1-0.1-0.1-0.2l-0.2-0.2h0.9c0.3,0,0.5,0.1,0.5,0.4c0,0,0,0,0,0c0.1,0.5,0.2,1,0.4,1.6l0.7,3
		l0.1-0.4l1.1-4.6c0-0.1,0.1-0.1,0.1-0.1c0,0,0,0,0,0h0.9c0.1,0,0.1,0,0.1,0.1c0,0,0,0,0,0l0.9,3.8l0.3,1.1v0.1l0.3-1.5l0.8-3.5
		c0,0,0-0.1,0.1-0.1c0,0,0,0,0,0h0.7c0.1,0,0.1,0,0.1,0.1l-0.8,3.5c-0.2,0.9-0.4,1.7-0.6,2.6C33,25,33,25,32.9,25c0,0,0,0,0,0h-1
		c0,0-0.1,0-0.1,0L31,21.6L30.7,20.3L30.7,20.3z M33.2,13.8c-0.2,0.2-0.4,0.3-0.6,0.5c-0.3,0.2-0.6,0.3-1,0.3c-0.4,0-0.8-0.2-1-0.5
		c-0.5-0.7-0.6-1.7-0.2-2.5c0.2-0.3,0.4-0.5,0.7-0.7c0.4-0.2,0.8-0.4,1.3-0.6c0.2-0.1,0.4-0.1,0.5-0.2c0.1,0,0.1-0.1,0.2-0.1
		c0.1-0.1,0.2-0.3,0.1-0.4c0-0.1-0.1-0.1-0.2-0.1c-0.2-0.1-0.3-0.1-0.5-0.1c-0.5,0-0.9,0.2-1.3,0.5c-0.2,0.1-0.4,0.3-0.6,0.4
		c0-0.1,0-0.2,0-0.3c0-0.3,0.1-0.6,0.2-0.9c0.1-0.2,0.3-0.4,0.5-0.5c0.4-0.2,0.9-0.3,1.4-0.3c0.3,0,0.6,0,0.8,0.1
		c0.6,0.1,1.1,0.6,1.2,1.3c0,0.2,0,0.3,0,0.5v3.4c0,0.3,0.1,0.6,0.3,0.8c0,0,0,0.1,0,0.1h-1.4c-0.1,0-0.1,0-0.2-0.1
		C33.4,14.2,33.3,14,33.2,13.8C33.3,13.8,33.3,13.8,33.2,13.8z M33.2,11.9v-0.5c0-0.1,0-0.3-0.1-0.4c0-0.1-0.1-0.2-0.2-0.2
		c-0.2,0-0.3,0-0.5,0.1c-0.6,0.5-0.9,1.3-0.7,2c0.1,0.3,0.4,0.5,0.7,0.4c0,0,0,0,0,0c0.4-0.1,0.7-0.4,0.7-0.8
		C33.2,12.4,33.2,12.2,33.2,11.9L33.2,11.9z M52.3,11.4c0,0.3,0,0.6,0,0.9c0,0.4-0.2,0.7-0.4,1c-0.4,0.5-0.8,0.8-1.3,1.1
		c-0.4,0.2-1,0.2-1.4,0c-0.5-0.2-0.9-0.5-1.2-0.9c-0.2-0.3-0.4-0.7-0.4-1.1c0-0.6,0-1.2,0-1.8c0-0.2,0-0.4,0.1-0.6
		c0-0.2,0.1-0.5,0.3-0.7c0.5-0.5,1.2-0.8,1.9-1c0.2,0,0.4,0,0.6,0.1c0.6,0.3,1.1,0.7,1.5,1.3c0.2,0.3,0.3,0.6,0.3,0.9
		C52.3,10.8,52.3,11.1,52.3,11.4z M49.2,11.3c0,0.5,0,0.9,0.1,1.4c0,0.3,0.1,0.5,0.3,0.7c0.1,0.1,0.3,0.2,0.5,0.1
		c0.1-0.1,0.2-0.1,0.2-0.2c0.1-0.2,0.2-0.4,0.2-0.6c0.2-0.9,0.2-1.8,0-2.6c0-0.2-0.1-0.5-0.3-0.7c-0.1-0.2-0.4-0.3-0.6-0.1
		c-0.1,0-0.1,0.1-0.1,0.1c-0.1,0.2-0.2,0.4-0.3,0.6C49.2,10.4,49.2,10.9,49.2,11.3z M54.6,18.8C54.7,18.8,54.7,18.8,54.6,18.8h2.6
		c0.9,0,1.8,0.4,2.3,1.2c0.3,0.5,0.5,1,0.6,1.6c0.1,0.6,0,1.2-0.2,1.8c-0.3,0.8-1.1,1.5-2,1.6c-0.4,0.1-0.7,0.1-1.1,0.1H55
		c-0.1,0-0.1,0-0.1-0.1v-5.5C54.9,19.3,54.8,19.1,54.6,18.8C54.6,18.9,54.6,18.8,54.6,18.8z M56,22v2.3c0,0,0,0.1,0.1,0.1
		c0.4,0,0.9,0,1.3,0c0.7-0.1,1.3-0.5,1.5-1.1c0.3-0.7,0.3-1.5,0-2.3c-0.2-0.8-0.9-1.4-1.7-1.4h-1.1c-0.1,0-0.1,0-0.1,0.1
		C56,20.4,56,21.2,56,22z M49.5,22.3l0.5,0.6l1.4,1.9c0.1,0.1,0.2,0.2,0.3,0.3h-1c-0.2,0-0.4-0.1-0.6-0.3l-1.6-2.3
		c0-0.1-0.1-0.1-0.2-0.1h-0.5c-0.1,0-0.1,0-0.1,0.1V25c0,0.1,0,0.1-0.1,0.1h-0.8c-0.1,0-0.1,0-0.1-0.1v-6.1c0-0.1,0-0.1,0.1-0.1h2.4
		c0.5,0,1,0.2,1.3,0.5c0.6,0.6,0.7,1.6,0.1,2.3C50.4,21.9,50,22.1,49.5,22.3L49.5,22.3z M47.7,20.6v1c0,0.1,0,0.1,0.1,0.1h0.4
		c0.3,0,0.6,0,0.9-0.1c0.5-0.1,0.9-0.5,0.9-1c0-0.3-0.1-0.6-0.3-0.8c-0.2-0.2-0.4-0.3-0.7-0.3h-1.2c-0.1,0-0.1,0-0.1,0.1
		C47.7,20,47.7,20.3,47.7,20.6z M14,22.3l0.8,1.1l1.1,1.5c0.1,0.1,0.2,0.2,0.3,0.3h-0.4c-0.2,0-0.5,0-0.7,0c-0.2,0-0.4-0.2-0.5-0.3
		l-1.6-2.3c0-0.1-0.1-0.1-0.1-0.1h-0.5c-0.1,0-0.1,0-0.1,0.1v2.5c0,0.2,0,0.1-0.1,0.1h-0.8c-0.1,0-0.1,0-0.1-0.1V19
		c0-0.1,0-0.1,0.1-0.1h2.4c0.4,0,0.7,0.1,1,0.3c0.5,0.3,0.7,0.7,0.8,1.2C15.6,21.3,15,22.1,14,22.3L14,22.3z M12.2,20.7v1
		c0,0.1,0,0.1,0.1,0.1H13c0.3,0,0.5,0,0.8-0.1c0.6-0.1,0.9-0.6,0.9-1.1c-0.1-0.6-0.6-0.9-1.1-0.9h-1.2c-0.1,0-0.1,0-0.1,0.1
		C12.2,20,12.2,20.3,12.2,20.7L12.2,20.7z M39.4,18.9c0,0,0.1,0,0.1,0h1.3c0.1,0,0.1,0,0.1,0.1c0,0,0,0,0,0l2.1,5.8
		c0,0.1,0.1,0.2,0.2,0.3c0,0,0,0,0,0.1c-0.3,0-0.6,0-0.9,0c-0.3,0-0.5-0.2-0.6-0.5l-0.5-1.3c0-0.1-0.1-0.1-0.1-0.1c0,0,0,0,0,0H39
		c-0.1,0-0.1,0-0.1,0.1L38.3,25c0,0.1-0.1,0.1-0.1,0.1h-0.7c-0.1,0-0.1,0-0.1-0.1l0.8-2.3c0.4-1.2,0.9-2.4,1.3-3.6
		c0-0.1,0-0.1,0-0.2L39.4,18.9z M40.1,19.8L40.1,19.8l-0.9,2.7c0,0.1,0,0.1,0.1,0.1h1.9L40.1,19.8z M19.4,22v-3c0-0.1,0-0.1,0.1-0.1
		h3.8c0.1,0,0.1,0,0.1,0.1s0,0.4,0,0.5s0,0.1-0.1,0.1h-2.8c-0.1,0-0.1,0-0.1,0.1v1.7c0,0.1,0,0.1,0.1,0.1h2.3c0.1,0,0.1,0,0.1,0.1
		c0,0.2,0,0.3,0,0.5c0,0.1,0,0.1-0.1,0.1h-2.2c-0.1,0-0.1,0-0.1,0.1v2c0,0.1,0,0.1,0.1,0.1h2.8c0.1,0,0.1,0,0.1,0.1s0,0.4,0,0.5
		s0,0.1-0.1,0.1h-3.9c-0.1,0-0.1,0-0.1-0.1C19.4,25.1,19.4,22,19.4,22z M40.2,8.4h1.6c0.1,0,0.1,0,0.2,0.1c0.1,0.1,0.1,0.2,0.1,0.3
		c0.1-0.1,0.3-0.2,0.5-0.3c0.5-0.2,1-0.1,1.4,0.2c0.1,0.1,0.1,0.1,0,0.2l-0.6,0.9c0,0.1-0.1,0.1-0.1,0c-0.3-0.2-0.7-0.2-1-0.1
		c-0.1,0-0.1,0.1-0.1,0.2v3.3c0,0.3,0,0.5,0.1,0.8c0.1,0.1,0.1,0.3,0.2,0.4c0,0-0.1,0-0.1,0H41c-0.1,0-0.2,0-0.3-0.1
		c-0.2-0.3-0.3-0.6-0.3-0.9V9.1C40.4,8.9,40.3,8.6,40.2,8.4z M38.3,14.4h-1.5c-0.1,0-0.1,0-0.2-0.1c-0.3-0.3-0.4-0.6-0.4-1V9.3
		c0-0.3,0-0.6-0.2-0.9c0,0,0.1,0,0.1,0h1.5c0.1,0,0.1,0,0.2,0.1c0.1,0.1,0.1,0.2,0.1,0.3c0.1-0.1,0.3-0.2,0.5-0.3
		c0.5-0.2,1-0.1,1.4,0.3c0,0,0,0.1,0,0.1c-0.2,0.3-0.4,0.6-0.6,1c0,0.1-0.1,0.1-0.1,0c-0.3-0.2-0.7-0.3-1-0.1c0,0-0.1,0.1-0.1,0.1
		v3.5C37.9,13.7,38,14.1,38.3,14.4z M65.7,18.7c0.6,0,1.1,0.1,1.7,0.3c0.1,0,0.1,0.1,0,0.1s-0.2,0.4-0.3,0.5s-0.1,0.1-0.1,0
		c-0.4-0.2-0.8-0.3-1.2-0.3c-0.3,0-0.6,0.1-0.9,0.3c-0.3,0.3-0.3,0.8-0.1,1.1c0,0,0,0,0.1,0.1c0.2,0.2,0.5,0.4,0.8,0.5
		c0.3,0.1,0.7,0.3,1,0.5c0.3,0.1,0.5,0.3,0.7,0.5c0.3,0.4,0.4,0.8,0.3,1.3c-0.1,0.9-0.8,1.5-1.6,1.6c-0.8,0.1-1.6,0-2.4-0.3
		c-0.2-0.1-0.2-0.1-0.1-0.2l0.3-0.5c0-0.1,0-0.1,0.1,0c0.4,0.3,0.9,0.4,1.4,0.4c0.3,0,0.7-0.1,0.9-0.4c0.3-0.4,0.3-1-0.1-1.4
		c-0.3-0.2-0.5-0.3-0.8-0.5c-0.3-0.2-0.7-0.3-1-0.5c-0.4-0.2-0.6-0.6-0.8-1c-0.2-0.8,0.3-1.7,1.1-1.9C65,18.8,65.4,18.7,65.7,18.7z
		 M44.5,8.4H46c0.1,0,0.1,0,0.2,0.1c0.2,0.3,0.2,0.7,0.2,1v3.7c0,0.2,0,0.4,0,0.6c0,0.3,0.1,0.5,0.3,0.7c0,0,0,0-0.1,0h-1.4
		c-0.1,0-0.1,0-0.2-0.1c-0.3-0.3-0.4-0.6-0.4-1v-4C44.8,9,44.7,8.7,44.5,8.4z M36.6,31.7c0,0.9-0.8,1.7-1.7,1.7s-1.7-0.8-1.7-1.7
		c0-0.9,0.8-1.7,1.7-1.7C35.9,30,36.6,30.8,36.6,31.7C36.6,31.7,36.6,31.7,36.6,31.7z M43.1,31.7c0-0.9,0.8-1.7,1.7-1.7
		s1.7,0.8,1.7,1.7c0,0.9-0.8,1.7-1.7,1.7C43.9,33.4,43.1,32.6,43.1,31.7C43.1,31.7,43.1,31.7,43.1,31.7z M49.5,30.2
		c0.8,0,1.5,0.7,1.5,1.5c0,0.8-0.7,1.5-1.5,1.5c-0.8,0-1.5-0.7-1.5-1.5c0,0,0,0,0,0C48,30.8,48.7,30.2,49.5,30.2z M30.2,30.2
		c0.8,0,1.5,0.7,1.5,1.5c0,0.8-0.7,1.5-1.5,1.5c-0.8,0-1.5-0.7-1.5-1.5c0,0,0,0,0,0C28.7,30.8,29.4,30.2,30.2,30.2z M51.9,31.7
		c0-0.8,0.6-1.4,1.4-1.4s1.4,0.6,1.4,1.4c0,0.8-0.6,1.4-1.4,1.4C52.5,33.1,51.9,32.4,51.9,31.7z M25.1,31.7c0-0.8,0.6-1.4,1.4-1.4
		c0.8,0,1.4,0.6,1.4,1.4c0,0.8-0.6,1.4-1.4,1.4C25.7,33.1,25.1,32.4,25.1,31.7C25.1,31.7,25.1,31.7,25.1,31.7z"/>
	<circle class="st0" cx="22.7" cy="31.7" r="1.2"/>
	<path class="st0" d="M58.3,31.7c0,0.7-0.6,1.2-1.2,1.2c-0.7,0-1.2-0.6-1.2-1.2c0-0.7,0.5-1.2,1.2-1.2C57.7,30.4,58.2,31,58.3,31.7
		C58.3,31.7,58.3,31.7,58.3,31.7z M20.1,31.7c0,0.6-0.5,1.1-1.1,1.1c-0.6,0-1.1-0.5-1.1-1.1c0-0.6,0.5-1.1,1.1-1.1c0,0,0,0,0,0
		C19.6,30.6,20.1,31.1,20.1,31.7z M60.8,32.8c-0.6-0.1-1-0.6-1-1.2c0.1-0.5,0.5-0.9,1-1c0.6-0.1,1.1,0.4,1.2,1
		c0.1,0.6-0.4,1.1-1,1.2C60.9,32.8,60.8,32.8,60.8,32.8z M14.3,31.7c0-0.6,0.4-1,1-1s1,0.4,1,1c0,0.6-0.4,1-1,1
		C14.7,32.7,14.3,32.2,14.3,31.7z M65.5,31.7c0,0.6-0.4,1-1,1s-1-0.4-1-1s0.4-1,1-1S65.5,31.1,65.5,31.7z M69.1,31.7
		c0,0.5-0.4,0.8-0.8,0.8s-0.8-0.4-0.8-0.8s0.4-0.8,0.8-0.8l0,0C68.7,30.9,69.1,31.2,69.1,31.7C69.1,31.7,69.1,31.7,69.1,31.7z
		 M69,24.8c-0.1,0-0.2,0-0.3-0.1c0-0.1-0.1-0.1-0.1-0.2c0,0,0-0.1-0.1,0v0.1c0,0.1,0,0.1,0,0.2c0,0.1,0,0.1-0.1,0.1s-0.1,0-0.1-0.1
		V24c0,0,0,0,0,0h0.3c0.1,0,0.2,0.1,0.2,0.3c0,0.1-0.1,0.2-0.1,0.2c-0.1,0,0,0,0,0.1L69,24.8z M68.6,24.1c-0.1,0-0.1,0-0.1,0.1
		s-0.1,0.2,0.1,0.2c0.1,0,0.2,0,0.2-0.1c0,0,0,0,0,0C68.8,24.1,68.7,24.1,68.6,24.1L68.6,24.1z"/>
</g>
</svg>
