<?xml version="1.0" encoding="utf-8"?>
<!-- Generator: Adobe Illustrator 21.0.0, SVG Export Plug-In . SVG Version: 6.00 Build 0)  -->
<svg version="1.1" id="Layer_1" xmlns="http://www.w3.org/2000/svg" xmlns:xlink="http://www.w3.org/1999/xlink" x="0px" y="0px"
	 viewBox="0 0 80 40" style="enable-background:new 0 0 80 40;" xml:space="preserve">
<style type="text/css">
	.st0{fill:#FFFFFF;}
</style>
<g>
	<path class="st0" d="M11.5,13.8c0,0.8-0.3,1.4-0.8,1.8s-1.3,0.7-2.3,0.7c-0.9,0-1.7-0.2-2.4-0.5v-1.7c0.6,0.3,1.1,0.4,1.5,0.5
		s0.8,0.2,1.1,0.2c0.4,0,0.7-0.1,0.9-0.2s0.3-0.4,0.3-0.7c0-0.2,0-0.3-0.1-0.4s-0.2-0.3-0.4-0.4S8.6,12.8,8,12.5
		c-0.5-0.2-0.9-0.5-1.2-0.7S6.4,11.3,6.2,11S6,10.3,6,9.9c0-0.8,0.3-1.4,0.8-1.8S8,7.5,8.9,7.5c0.4,0,0.9,0.1,1.3,0.2
		s0.8,0.3,1.3,0.4l-0.6,1.4C10.4,9.3,10,9.2,9.7,9.1S9.1,9,8.8,9C8.5,9,8.2,9.1,8,9.2S7.8,9.6,7.8,9.9c0,0.2,0,0.3,0.1,0.4
		s0.2,0.2,0.4,0.3s0.5,0.3,1.2,0.6c0.8,0.4,1.3,0.8,1.6,1.2S11.5,13.2,11.5,13.8z"/>
	<path class="st0" d="M16.3,16.2h-1.8V9.1h-2.3V7.6h6.5v1.5h-2.3V16.2z"/>
	<path class="st0" d="M25.2,16.2l-0.6-2h-3.1l-0.6,2h-2l3-8.6h2.2l3,8.6H25.2z M24.2,12.6c-0.6-1.8-0.9-2.9-1-3.1S23.1,9.1,23,8.9
		c-0.1,0.5-0.5,1.7-1.1,3.7H24.2z"/>
	<path class="st0" d="M30.1,12.9v3.3h-1.8V7.6h2.5c1.2,0,2,0.2,2.6,0.6s0.8,1.1,0.8,1.9c0,0.5-0.1,1-0.4,1.3s-0.7,0.7-1.2,0.9
		c1.3,1.9,2.1,3.2,2.5,3.7h-2l-2-3.3H30.1z M30.1,11.4h0.6c0.6,0,1-0.1,1.3-0.3s0.4-0.5,0.4-0.9c0-0.4-0.1-0.7-0.4-0.9
		s-0.7-0.3-1.3-0.3h-0.6V11.4z"/>
	<path class="st0" d="M44.5,16.2h-2.1l-1.2-4.5c0-0.2-0.1-0.5-0.2-1c-0.1-0.5-0.2-0.8-0.2-1c0,0.2-0.1,0.5-0.2,1s-0.2,0.8-0.2,1
		l-1.2,4.5h-2.1l-2.2-8.6h1.8l1.1,4.7c0.2,0.9,0.3,1.6,0.4,2.2c0-0.2,0.1-0.6,0.2-1s0.2-0.8,0.2-1.1L40,7.6h1.7l1.2,4.8
		c0.1,0.2,0.1,0.5,0.2,1s0.1,0.8,0.2,1.1c0-0.3,0.1-0.7,0.2-1.1s0.2-0.8,0.2-1.1l1.1-4.7h1.8L44.5,16.2z"/>
	<path class="st0" d="M55.5,11.9c0,1.4-0.4,2.5-1.1,3.3s-1.7,1.1-3,1.1s-2.3-0.4-3-1.1s-1.1-1.9-1.1-3.3s0.4-2.5,1.1-3.3
		s1.7-1.1,3-1.1s2.3,0.4,3,1.1S55.5,10.5,55.5,11.9z M49.3,11.9c0,1,0.2,1.7,0.5,2.2s0.9,0.7,1.6,0.7c1.4,0,2.2-1,2.2-2.9
		c0-1.9-0.7-2.9-2.2-2.9c-0.7,0-1.3,0.2-1.6,0.7S49.3,10.9,49.3,11.9z"/>
	<path class="st0" d="M65.1,11.9c0,1.4-0.4,2.5-1.1,3.3s-1.7,1.1-3,1.1s-2.3-0.4-3-1.1s-1.1-1.9-1.1-3.3s0.4-2.5,1.1-3.3
		s1.7-1.1,3-1.1s2.3,0.4,3,1.1S65.1,10.5,65.1,11.9z M58.8,11.9c0,1,0.2,1.7,0.5,2.2s0.9,0.7,1.6,0.7c1.4,0,2.2-1,2.2-2.9
		C63.2,10,62.5,9,61,9c-0.7,0-1.3,0.2-1.6,0.7S58.8,10.9,58.8,11.9z"/>
	<path class="st0" d="M74,11.8c0,1.4-0.4,2.5-1.2,3.2s-2,1.1-3.5,1.1h-2.4V7.6h2.7C71,7.6,72,8,72.8,8.7S74,10.5,74,11.8z
		 M72.1,11.9c0-1.8-0.8-2.8-2.4-2.8h-1v5.6h0.8C71.2,14.7,72.1,13.7,72.1,11.9z"/>
	<path class="st0" d="M9.4,22v5.5c0,0.6-0.1,1.2-0.4,1.7s-0.7,0.8-1.2,1.1s-1.2,0.4-1.9,0.4c-1.1,0-2-0.3-2.6-0.8s-0.9-1.3-0.9-2.3
		V22h1.8v5.2c0,0.7,0.1,1.1,0.4,1.5s0.7,0.5,1.3,0.5c0.6,0,1-0.2,1.3-0.5s0.4-0.8,0.4-1.5V22H9.4z"/>
	<path class="st0" d="M19.1,30.6h-2.3L13,24.1H13c0.1,1.1,0.1,2,0.1,2.4v4h-1.6V22h2.3l3.7,6.4h0c-0.1-1.1-0.1-1.9-0.1-2.4V22h1.6
		V30.6z"/>
	<path class="st0" d="M21.2,22h2.7c1.2,0,2.1,0.2,2.6,0.5s0.8,0.9,0.8,1.6c0,0.5-0.1,0.9-0.4,1.3s-0.6,0.5-1,0.6v0.1
		c0.5,0.1,0.9,0.3,1.2,0.7s0.4,0.8,0.4,1.3c0,0.8-0.3,1.4-0.8,1.8s-1.3,0.7-2.3,0.7h-3.2V22z M23.1,25.4h1.1c0.5,0,0.8-0.1,1.1-0.2
		s0.3-0.4,0.3-0.8c0-0.3-0.1-0.6-0.4-0.7s-0.6-0.2-1.1-0.2h-1V25.4z M23.1,26.9v2.2h1.2c0.5,0,0.9-0.1,1.1-0.3s0.4-0.5,0.4-0.9
		c0-0.7-0.5-1.1-1.5-1.1H23.1z"/>
	<path class="st0" d="M31.1,27.3v3.3h-1.8V22h2.5c1.2,0,2,0.2,2.6,0.6s0.8,1.1,0.8,1.9c0,0.5-0.1,1-0.4,1.3s-0.7,0.7-1.2,0.9
		c1.3,1.9,2.1,3.2,2.5,3.7h-2l-2-3.3H31.1z M31.1,25.8h0.6c0.6,0,1-0.1,1.3-0.3s0.4-0.5,0.4-0.9c0-0.4-0.1-0.7-0.4-0.9
		s-0.7-0.3-1.3-0.3h-0.6V25.8z"/>
	<path class="st0" d="M42.5,30.6l-0.6-2h-3.1l-0.6,2h-2l3-8.6h2.2l3,8.6H42.5z M41.4,27c-0.6-1.8-0.9-2.9-1-3.1s-0.1-0.4-0.2-0.6
		c-0.1,0.5-0.5,1.7-1.1,3.7H41.4z"/>
	<path class="st0" d="M53.1,30.6h-2.3l-3.7-6.5H47c0.1,1.1,0.1,2,0.1,2.4v4h-1.6V22h2.3l3.7,6.4h0c-0.1-1.1-0.1-1.9-0.1-2.4V22h1.6
		V30.6z"/>
	<path class="st0" d="M62.4,26.2c0,1.4-0.4,2.5-1.2,3.2s-2,1.1-3.5,1.1h-2.4V22h2.7c1.4,0,2.5,0.4,3.3,1.1S62.4,24.9,62.4,26.2z
		 M60.5,26.3c0-1.8-0.8-2.8-2.4-2.8h-1v5.6h0.8C59.6,29.1,60.5,28.1,60.5,26.3z"/>
	<path class="st0" d="M69.1,30.6h-4.9V22h4.9v1.5H66v1.9h2.9v1.5H66v2.2h3.1V30.6z"/>
	<path class="st0" d="M78,26.2c0,1.4-0.4,2.5-1.2,3.2s-2,1.1-3.5,1.1h-2.4V22h2.7c1.4,0,2.5,0.4,3.3,1.1S78,24.9,78,26.2z
		 M76.1,26.3c0-1.8-0.8-2.8-2.4-2.8h-1v5.6h0.8C75.2,29.1,76.1,28.1,76.1,26.3z"/>
</g>
</svg>
