<?xml version="1.0" encoding="utf-8"?>
<!-- Generator: Adobe Illustrator 19.2.1, SVG Export Plug-In . SVG Version: 6.00 Build 0)  -->
<svg version="1.1" id="Layer_1" xmlns="http://www.w3.org/2000/svg" xmlns:xlink="http://www.w3.org/1999/xlink" x="0px" y="0px"
	 viewBox="0 0 80 40" style="enable-background:new 0 0 80 40;" xml:space="preserve">
<style type="text/css">
	.st0{fill:#FFFFFF;}
</style>
<g>
	<polygon class="st0" points="31.2,28.8 31.6,28.8 32.4,30 33.1,28.8 33.6,28.8 33.7,31.3 33.2,31.3 33.1,29.6 32.5,30.6 32.3,30.6 
		31.6,29.6 31.5,31.3 31,31.3 	"/>
	<path class="st0" d="M36.2,30.3l-0.3-1l-0.3,1H36.2z M35.6,28.8h0.5l1,2.5h-0.5l-0.2-0.6h-0.9l-0.2,0.6h-0.5L35.6,28.8z"/>
	<path class="st0" d="M39.1,29.9c0.1,0,0.2,0,0.3-0.1c0.1-0.1,0.1-0.2,0.1-0.3c0-0.1,0-0.2-0.1-0.3c-0.1-0.1-0.2-0.1-0.3-0.1h-0.5
		v0.7H39.1z M38.1,28.8h1c0.2,0,0.3,0,0.4,0.1c0.1,0,0.2,0.1,0.3,0.2c0.1,0.1,0.1,0.2,0.2,0.2c0,0.1,0,0.2,0,0.3
		c0,0.2,0,0.3-0.1,0.4c-0.1,0.1-0.2,0.2-0.3,0.3l0.6,1.1h-0.5l-0.5-1h-0.5v1h-0.5V28.8z"/>
	<path class="st0" d="M42.2,29.9c0.1,0,0.2,0,0.3-0.1c0.1-0.1,0.1-0.2,0.1-0.3c0-0.1,0-0.2-0.1-0.3c-0.1-0.1-0.2-0.1-0.3-0.1h-0.5
		v0.7H42.2z M41.2,28.8h1c0.2,0,0.3,0,0.4,0.1c0.1,0,0.2,0.1,0.3,0.2c0.1,0.1,0.1,0.2,0.2,0.2c0,0.1,0,0.2,0,0.3
		c0,0.2,0,0.3-0.1,0.4c-0.1,0.1-0.2,0.2-0.3,0.3l0.6,1.1h-0.5l-0.5-1h-0.5v1h-0.5V28.8z"/>
	<rect x="44.4" y="28.8" class="st0" width="0.5" height="2.5"/>
	<path class="st0" d="M47.4,31c0.1,0,0.2,0,0.3-0.1c0.1,0,0.2-0.1,0.3-0.2c0.1-0.1,0.1-0.2,0.2-0.3c0-0.1,0.1-0.2,0.1-0.3
		c0-0.1,0-0.2-0.1-0.3c0-0.1-0.1-0.2-0.2-0.3c-0.1-0.1-0.2-0.1-0.3-0.2c-0.1,0-0.2-0.1-0.3-0.1c-0.1,0-0.2,0-0.3,0.1
		c-0.1,0-0.2,0.1-0.3,0.2c-0.1,0.1-0.1,0.2-0.2,0.3c0,0.1-0.1,0.2-0.1,0.3c0,0.1,0,0.2,0.1,0.3c0,0.1,0.1,0.2,0.2,0.3
		c0.1,0.1,0.2,0.1,0.3,0.2C47.1,30.9,47.2,31,47.4,31 M47.4,31.4c-0.2,0-0.4,0-0.5-0.1c-0.2-0.1-0.3-0.2-0.4-0.3
		c-0.1-0.1-0.2-0.3-0.3-0.4c-0.1-0.2-0.1-0.3-0.1-0.5c0-0.2,0-0.4,0.1-0.5c0.1-0.2,0.2-0.3,0.3-0.4c0.1-0.1,0.3-0.2,0.4-0.3
		c0.2-0.1,0.3-0.1,0.5-0.1c0.2,0,0.4,0,0.5,0.1c0.2,0.1,0.3,0.2,0.4,0.3c0.1,0.1,0.2,0.3,0.3,0.4c0.1,0.2,0.1,0.3,0.1,0.5
		c0,0.2,0,0.4-0.1,0.5c-0.1,0.2-0.2,0.3-0.3,0.4c-0.1,0.1-0.3,0.2-0.4,0.3C47.7,31.4,47.5,31.4,47.4,31.4"/>
	<polygon class="st0" points="50.2,29.2 49.3,29.2 49.3,28.8 51.5,28.8 51.5,29.2 50.6,29.2 50.6,31.3 50.2,31.3 	"/>
	<polygon class="st0" points="53.2,29.2 52.3,29.2 52.3,28.8 54.5,28.8 54.5,29.2 53.7,29.2 53.7,31.3 53.2,31.3 	"/>
	<path class="st0" d="M44,26.2h4.3L41.2,10l-3.6,1.7l2.5,5.7l-1.2,2.6L34.4,9.7l-3.6,1.6l2.9,6.5c0,0,0,0,0,0
		c-1.8,4.1-4,5.3-4.2,5.3c-0.5,0.2-1.1,0.3-1.6,0.3c-0.2,0-0.4,0-0.5,0l-1.8,3.6c0.6,0.3,1.2,0.5,1.9,0.5c0.9,0,1.7-0.3,2.4-0.8l0,0
		c0,0,1.7-0.8,3.4-5.2c0,0,0.7-1.4,1-2.3l0-0.1l3.1,7h4.3l-2.2-5l1.2-2.6L44,26.2z"/>
</g>
</svg>
