<?xml version="1.0" encoding="utf-8"?>
<!-- Generator: Adobe Illustrator 19.2.1, SVG Export Plug-In . SVG Version: 6.00 Build 0)  -->
<svg version="1.1" id="Layer_1" xmlns="http://www.w3.org/2000/svg" xmlns:xlink="http://www.w3.org/1999/xlink" x="0px" y="0px"
	 viewBox="0 0 80 40" style="enable-background:new 0 0 80 40;" xml:space="preserve">
<style type="text/css">
	.st0{fill:#FFFFFF;}
</style>
<g>
	<path class="st0" d="M23.2,19.6C22.9,19.2,22.4,19,22,19c-0.9,0-1.7,0.8-1.7,1.7c0,0.9,0.8,1.7,1.7,1.7c0.5,0,0.9-0.2,1.3-0.6v0.6
		c-0.4,0.3-0.8,0.4-1.3,0.4c-1.2,0-2.2-1-2.2-2.2c0-1.2,1-2.2,2.2-2.2c0.5,0,0.9,0.1,1.3,0.4V19.6z"/>
	<path class="st0" d="M24.9,20.7c0,0.9,0.8,1.7,1.7,1.7c1,0,1.7-0.8,1.7-1.7c0-1-0.8-1.7-1.7-1.7C25.7,19,24.9,19.8,24.9,20.7
		 M28.8,20.7c0,1.2-1,2.2-2.2,2.2c-1.2,0-2.2-1-2.2-2.2c0-1.2,1-2.2,2.2-2.2C27.8,18.6,28.8,19.5,28.8,20.7"/>
	<path class="st0" d="M43,19.6c-0.3-0.3-0.8-0.6-1.3-0.6c-0.9,0-1.7,0.8-1.7,1.7c0,0.9,0.8,1.7,1.7,1.7c0.5,0,0.9-0.2,1.3-0.6v0.6
		c-0.4,0.3-0.8,0.4-1.3,0.4c-1.2,0-2.2-1-2.2-2.2c0-1.2,1-2.2,2.2-2.2c0.5,0,0.9,0.1,1.3,0.4V19.6z"/>
	<polygon class="st0" points="30.6,22.4 31.8,22.4 31.8,22.8 30.1,22.8 30.1,18.6 30.6,18.6 	"/>
	<polygon class="st0" points="33.6,22.4 34.8,22.4 34.8,22.8 33.2,22.8 33.2,18.6 33.6,18.6 	"/>
	<polygon class="st0" points="36.1,18.6 38.3,18.6 38.3,19.1 36.6,19.1 36.6,20.3 38.3,20.3 38.3,20.7 36.6,20.7 36.6,22.4 
		38.3,22.4 38.3,22.8 36.1,22.8 	"/>
	<polygon class="st0" points="45.6,22.8 45.2,22.8 45.2,19.1 44.2,19.1 44.2,18.6 46.7,18.6 46.7,19.1 45.6,19.1 	"/>
	<rect x="47.8" y="18.6" class="st0" width="0.5" height="4.2"/>
	<path class="st0" d="M50,20.7c0,0.9,0.8,1.7,1.7,1.7c1,0,1.7-0.8,1.7-1.7c0-1-0.8-1.7-1.7-1.7C50.8,19,50,19.8,50,20.7 M53.9,20.7
		c0,1.2-1,2.2-2.2,2.2c-1.2,0-2.2-1-2.2-2.2c0-1.2,1-2.2,2.2-2.2C52.9,18.6,53.9,19.5,53.9,20.7"/>
	<polygon class="st0" points="55.2,18.5 58.5,21.9 58.5,18.6 58.9,18.6 58.9,23 55.6,19.6 55.6,22.8 55.2,22.8 	"/>
	<path class="st0" d="M60.3,18.9h-0.1v0.3h0.1c0.1,0,0.1-0.1,0.1-0.1C60.5,19,60.4,18.9,60.3,18.9 M60.5,19.6l-0.2-0.3h-0.1v0.3
		h-0.1v-0.8h0.3c0.1,0,0.2,0.1,0.2,0.2c0,0.1-0.1,0.2-0.2,0.2l0.2,0.3H60.5z M60.3,18.6c-0.3,0-0.6,0.3-0.6,0.6
		c0,0.3,0.3,0.6,0.6,0.6c0.3,0,0.6-0.3,0.6-0.6C60.9,18.9,60.6,18.6,60.3,18.6 M60.3,19.9c-0.4,0-0.7-0.3-0.7-0.7
		c0-0.4,0.3-0.7,0.7-0.7c0.4,0,0.7,0.3,0.7,0.7C61,19.6,60.7,19.9,60.3,19.9"/>
	<path class="st0" d="M25.2,14.6c0,0.3,0,0.7,0.2,0.9c0.2,0.3,0.5,0.4,0.8,0.4c0.3,0,0.6-0.1,0.8-0.4c0.2-0.3,0.2-0.6,0.2-1v-2.5
		h0.5v2.6c0,0.5,0,0.8-0.4,1.2c-0.3,0.3-0.7,0.5-1.1,0.5c-0.4,0-0.8-0.1-1.1-0.4c-0.4-0.4-0.4-0.7-0.4-1.2v-2.6h0.5V14.6z"/>
	<polygon class="st0" points="30.4,16.3 30,16.3 30,12.5 29,12.5 29,12.1 31.5,12.1 31.5,12.5 30.4,12.5 	"/>
	<path class="st0" d="M32.9,14.2c0,0.9,0.8,1.7,1.7,1.7c1,0,1.7-0.8,1.7-1.7c0-1-0.8-1.7-1.7-1.7C33.6,12.4,32.9,13.2,32.9,14.2
		 M36.8,14.2c0,1.2-1,2.2-2.2,2.2c-1.2,0-2.2-1-2.2-2.2c0-1.2,1-2.2,2.2-2.2C35.8,12,36.8,13,36.8,14.2"/>
	<path class="st0" d="M52.7,14h0.3c0.5,0,1-0.2,1-0.8c0-0.7-0.6-0.7-1.1-0.7h-0.2V14z M52.7,16.3h-0.5v-4.2H53c0.4,0,0.7,0,1,0.2
		c0.3,0.2,0.5,0.6,0.5,1c0,0.3-0.1,0.7-0.4,0.9c-0.3,0.2-0.6,0.3-1,0.3h-0.3V16.3z"/>
	<polygon class="st0" points="58.5,14 58.5,12.1 58.9,12.1 58.9,16.3 58.5,16.3 58.5,14.4 56.3,14.4 56.3,16.3 55.8,16.3 55.8,12.1 
		56.3,12.1 56.3,14 	"/>
	<path class="st0" d="M45.5,16.3h0.6l-1.1-1.9c0.1,0,0.2-0.1,0.3-0.2c0.3-0.2,0.4-0.6,0.4-0.9c0-0.4-0.2-0.7-0.5-1
		c-0.3-0.2-0.7-0.2-1-0.2h-0.7v4.2h0.5v-1.8V14v-1.5h0.2c0.5,0,1.1,0,1.1,0.7c0,0.6-0.4,0.8-0.9,0.8L45.5,16.3z"/>
	<path class="st0" d="M42,14.2h-1.8c0.2,0.1,0.3,0.3,0.4,0.4h0.8c0,0.4-0.2,0.7-0.4,0.9c-0.1,0.1-0.3,0.2-0.4,0.3
		c-0.2,0.1-0.4,0.1-0.7,0.1c-0.4,0-0.9-0.2-1.2-0.5c-0.3-0.3-0.5-0.7-0.5-1.1c0,0,0-0.1,0-0.1c0-0.1,0-0.3,0-0.4
		c0.2-0.8,0.8-1.4,1.7-1.4c0.6,0,1,0.3,1.4,0.8l0.3-0.3c-0.4-0.6-1-0.9-1.7-0.9c-1.2,0-2.1,0.9-2.2,2c0,0,0,0.1,0,0.2
		c0,0.1,0,0.2,0,0.4c0.2,1,1.1,1.8,2.1,1.8c0.2,0,0.4,0,0.6-0.1c0.2-0.1,0.3-0.1,0.5-0.2c0.2-0.1,0.3-0.2,0.4-0.4
		C42,15.2,42.1,14.7,42,14.2"/>
	<path class="st0" d="M21.1,14.4l0.6-1.4l0.9,2.3C22.2,14.8,21.7,14.6,21.1,14.4 M19.8,16.3h0.5l0.6-1.5c0.7,0.2,1.3,0.6,1.8,1
		c0.1,0.1,0.3,0.3,0.4,0.4h0.5h0l-1.9-4.4l-1.1,2.4c-0.1,0-0.3,0-0.4-0.1c0.1,0.1,0.2,0.3,0.3,0.5L19.8,16.3z"/>
	<path class="st0" d="M48.5,14.4l0.6-1.4l0.9,2.3C49.6,14.8,49.1,14.6,48.5,14.4 M49.2,11.9l-1.1,2.4c-0.1,0-0.3,0-0.4-0.1
		c0.1,0.1,0.2,0.3,0.3,0.5l-0.7,1.6h0.2h0.3l0.6-1.5c0.7,0.2,1.3,0.6,1.8,1c0.1,0.1,0.3,0.3,0.4,0.4h0.5L49.2,11.9z"/>
	<path class="st0" d="M35.9,27.6c0-0.7-0.5-1.2-1.2-1.2c-0.7,0-1.2,0.6-1.2,1.2c0,0.7,0.6,1.2,1.2,1.2
		C35.3,28.8,35.9,28.3,35.9,27.6 M36.3,27.6c0,0.9-0.7,1.6-1.6,1.6c-0.9,0-1.6-0.7-1.6-1.6c0-0.9,0.7-1.6,1.6-1.6
		C35.5,26,36.3,26.7,36.3,27.6"/>
	<polygon class="st0" points="38.9,29.1 38.5,29.1 38.5,26.4 37.7,26.4 37.7,26 39.6,26 39.6,26.4 38.9,26.4 	"/>
	<polygon class="st0" points="41.3,26 42.9,26 42.9,26.4 41.7,26.4 41.7,27.3 42.9,27.3 42.9,27.6 41.7,27.6 41.7,28.8 42.9,28.8 
		42.9,29.1 41.3,29.1 	"/>
	<polygon class="st0" points="45.2,28.8 46.1,28.8 46.1,29.1 44.8,29.1 44.8,26 45.2,26 	"/>
	<path class="st0" d="M49.1,26.6c-0.1-0.2-0.3-0.3-0.5-0.3c-0.2,0-0.5,0.2-0.5,0.4c0,0.2,0.2,0.4,0.4,0.4l0.2,0.1
		c0.4,0.2,0.8,0.4,0.8,0.9c0,0.6-0.4,1-1,1c-0.5,0-0.9-0.4-1-0.9l0.4-0.1c0,0.3,0.3,0.6,0.6,0.6c0.3,0,0.6-0.3,0.6-0.6
		c0-0.3-0.3-0.5-0.5-0.6l-0.2-0.1c-0.4-0.2-0.7-0.4-0.7-0.8c0-0.5,0.4-0.8,0.9-0.8c0.3,0,0.6,0.2,0.8,0.5L49.1,26.6z"/>
	<polygon class="st0" points="30.9,26 30.9,27.4 29.5,27.4 29.5,26 29.1,26 29.1,29.1 29.5,29.1 29.5,27.8 30.9,27.8 30.9,29.1 
		31.3,29.1 31.3,26 	"/>
</g>
</svg>
