<?xml version="1.0" encoding="utf-8"?>
<!-- Generator: Adobe Illustrator 19.2.1, SVG Export Plug-In . SVG Version: 6.00 Build 0)  -->
<svg version="1.1" id="Layer_1" xmlns="http://www.w3.org/2000/svg" xmlns:xlink="http://www.w3.org/1999/xlink" x="0px" y="0px"
	 viewBox="0 0 80 40" style="enable-background:new 0 0 80 40;" xml:space="preserve">
<style type="text/css">
	.st0{fill:#FFFFFF;}
</style>
<g>
	<path class="st0" d="M58.1,30.2h1.6V30l-0.6-0.1v-2.8h0.7l0.3,0.7h0.2v-1h-2.9v1h0.2l0.3-0.7h0.8v2.8l-0.6,0.1V30.2z M54.3,30.2H56
		V30l-0.6-0.1v-2.8h0.7l0.3,0.7h0.2v-1h-2.9v1h0.2l0.3-0.7h0.8v2.8l-0.6,0.1V30.2z M52.7,28.5c0,0.8-0.4,1.5-1.2,1.5
		c-0.7,0-1.2-0.7-1.2-1.5c0-0.9,0.5-1.5,1.2-1.5C52.2,27,52.7,27.7,52.7,28.5 M53.2,28.4c0-0.9-0.6-1.6-1.7-1.6
		c-1,0-1.8,0.8-1.8,1.9c0,1,0.7,1.7,1.7,1.7C52.5,30.3,53.2,29.4,53.2,28.4 M47.5,30.2h1.6V30l-0.6-0.1v-2.8l0.6-0.1v-0.2h-1.6V27
		l0.6,0.1v2.8l-0.6,0.1V30.2z M44.9,27.1c0.5,0,0.8,0.2,0.8,0.7c0,0.4-0.4,0.6-0.9,0.6h-0.3v-1.3H44.9z M45.9,30.2h0.8v-0.2
		l-0.4-0.2l-0.8-1.3c0.4-0.1,0.7-0.4,0.7-0.8c0-0.6-0.5-0.9-1.1-0.9h-1.6V27l0.6,0.1v2.8l-0.6,0.1v0.2h1.6V30l-0.6-0.1v-1.2h0.3
		c0.1,0,0.1,0,0.2,0L45.9,30.2z M40.9,27.1c0.5,0,0.8,0.2,0.8,0.7c0,0.4-0.4,0.6-0.9,0.6h-0.3v-1.3H40.9z M42,30.2h0.8v-0.2
		l-0.4-0.2l-0.8-1.3c0.5-0.1,0.7-0.4,0.7-0.8c0-0.6-0.5-0.9-1.1-0.9h-1.6V27l0.6,0.1v2.8l-0.6,0.1v0.2h1.6V30l-0.6-0.1v-1.2h0.3
		c0.1,0,0.1,0,0.2,0L42,30.2z M37.2,27.3L37.2,27.3l0.4,1.3h-0.9L37.2,27.3z M37.6,30.2H39v-0.2L38.6,30l-1.1-3.1h-0.4L35.9,30
		l-0.4,0.1v0.2h1.3v-0.2l-0.5-0.1l0.4-1h1.1l0.3,1l-0.4,0.1V30.2z M33.3,30.2h1.5V30l-0.5-0.1l-0.3-2.8l0.5-0.1v-0.2h-1.1l-1,2.8h0
		l-0.9-2.8h-1.1V27l0.5,0.1l-0.3,2.8l-0.5,0.1v0.2h1.4V30L31,29.9l0.2-2.5h0l1,2.8h0.3l1.1-2.8h0l0.2,2.4l-0.5,0.1V30.2z M24.6,30.3
		l1-2.8h0l0.9,2.8h0.3l1.2-3.2l0.4-0.1v-0.2h-1.2V27l0.4,0.1l-0.8,2.5h0L26,26.8h-0.4l-1,2.8h0l-0.7-2.5l0.5-0.1v-0.2h-1.4V27
		l0.4,0.1l1,3.2H24.6z M20.8,30.3c0.5,0,1-0.4,1-0.9v-2.2l0.6-0.1v-0.2h-1.6V27l0.6,0.1v2.2c0,0.4-0.2,0.6-0.5,0.6
		c-0.1,0-0.4-0.1-0.4-0.1l-0.1-0.7h-0.2v0.9C20.3,30.2,20.5,30.3,20.8,30.3"/>
	<path class="st0" d="M35.3,17L35.3,17C35.3,17,35.3,17,35.3,17 M50.7,10.9c-0.1-0.1-0.2,0.4-1.6,0.7c-0.8,0.2-1.6,0.4-2.5,0.3
		c-4.1-0.4-4.9-0.7-5.9,1c-0.2,0.4-0.3,0.7-0.6,1c-0.1-0.3-0.2-0.5-0.4-0.8c0,0,0.1-0.1,0.1-0.1c-0.1-0.1-0.1-0.2-0.2-0.2
		c0.1,0,0.2,0.1,0.2,0c-0.1,0-0.3-0.3-0.3-0.3s0.1,0,0.2,0c-0.1-0.2-0.1-0.3-0.1-0.3c0,0,0.1,0,0.1,0s-0.1-0.2-0.1-0.3
		c0.1-0.1-0.2-0.6-0.2-0.7c0-0.2-0.1-0.4-0.3-0.6c-0.1-0.1-0.2,0.1-0.2,0.1C38.8,11,38.8,11,38.7,11c0,0,0,0.1-0.1,0.1c0,0,0,0,0,0
		c0,0,0,0-0.1,0c0,0.1-0.1,0.1-0.1,0.1s0,0,0-0.1c-0.2,0.2-0.1,0.1-0.2,0.2c-0.5-0.1-1.4-0.2-2,0c0,0-0.3,0.1-0.4,0.3
		c0,0-0.6,0-0.9,0.4c0,0-0.2,0.3-0.1,0.7c0,0,0,0.1,0.1,0.1c0,0,0,0,0,0c0-0.1,0-0.1,0-0.2c0,0,0.1-0.1,0.3,0c0.2,0,0.4,0,0.5,0
		c0,0,0.3-0.1,0.5,0.2c0.4,0.4,0.6,0.5,0.7,0.6c0.1,0,0.1,0.1,0.1,0.3c0,0-0.1,0-0.1,0.1c-0.1,0.2-0.4,0.6-0.6,0.8
		c0,0-0.5,0.2-0.3,0.2c0.1,0,0.1,0.1,0.1,0.1s-0.1,0-0.3,0.1c-0.3,0.2-0.4,0.4-0.3,0.3c0.2,0,0.4,0,0.3,0c-0.2,0.1-0.4,0.2-0.5,0.5
		c0.1,0,0.2,0.1,0.2,0.1c-0.2,0.3-0.2,0.4-0.3,0.5c-0.1,0.1,0.2,0.3,0.2,0.3c-0.1,0.2-0.2,0.4-0.4,0.5c0,0.1,0.3,0,0.3,0
		s-0.1,0.2-0.2,0.4c0,0.1,0,0.1,0,0.2c0,0,0.1,0,0.1,0c0,0.1-0.1,0.1,0,0.2c0,0,0.1,0,0.1,0c0,0.1,0,0.2,0,0.3c0,0,0.1-0.1,0.1-0.1
		c0,0.1-0.1,0.4,0,0.4c0.2,0,0,0.4,0.1,0.5c0,0,0.1,0,0.2-0.1c0-0.1-0.1,0.4-0.1,0.5c0,0,0.1,0,0.1,0c0,0.2,0,0.4,0,0.7
		c0,0-0.1,0.2-0.1,0.2c0,0,0.2,0,0.1,0.1c-0.1,0.1,0,0.3,0,0.3c0,0,0,0.1,0,0.1c0,0.1-0.1,0.3,0,0.2c0,0,0.1,0,0.1-0.1
		c0,0.2,0,0.3,0,0.5c0.2,0,0.2,0,0.2,0.1c0,0.1,0,0.2-0.1,0.3c0.1,0,0.1,0,0.1,0.1c0,0.1,0,0.3,0,0.3c0.1,0,0.1-0.1,0.1-0.1
		s0,0.1,0,0.3c0,0.1,0,0.2-0.1,0.2c0,0.1,0.1,0,0.2,0c0,0,0,0.1,0,0.1c-0.3,0.1-0.4,0.3-0.6,0.2c-0.2,0-0.3,0-0.3,0
		c-0.1,0-0.2,0.1-0.2,0.1s-0.1,0-0.2,0.1c-0.1,0.1-0.2,0.3-0.2,0.4c0,0.1,0,0.1,0,0.1c0,0,0.1-0.2,0.2-0.2c0.1,0,0.1,0,0.1,0
		c0,0,0.2,0.1,0.3,0.1c0.1,0,0.4-0.1,0.5-0.1c0,0.1-0.2,0.2-0.2,0.2c-0.1,0-0.3,0-0.4,0.3c-0.1,0.1-0.1,0.3-0.1,0.4
		c0,0.1,0,0.1,0,0.1c0,0,0.1-0.2,0.1-0.2c0.1,0,0.3,0,0.5-0.1c0.2-0.2,0.1-0.2,0.4-0.4c0.1-0.1,0.3-0.4,0.5-0.3
		c0.2,0.1,0.4,0.2,0.3,0.3c0,0.1,0,0.1,0,0.2c0,0.1-0.1,0.2,0,0.2c0,0,0.2-0.1,0.3-0.2c0-0.1,0.1-0.2,0.1-0.3c0-0.4-0.2-0.6-0.2-0.6
		s0.1-0.1,0.1-0.1c-0.1,0-0.1,0-0.1,0c0.1-0.1,0.1-0.3,0.1-0.3c0.1,0,0.2,0.2,0.2,0.1c-0.1-0.2-0.1-0.3-0.1-0.3l0,0c0,0,0,0,0.1,0
		c0.1,0.1,0.1,0.3,0.1,0c0-0.3-0.1-0.6-0.1-0.6s0.1,0.1,0.2,0.1c0-0.2-0.1-0.5-0.1-0.5s0.2,0.3,0.1-0.2c0-0.1,0-0.2,0-0.3
		c0,0-0.1,0.1,0-0.3c0.1,0.1,0.2,0.1,0.2,0.2c0.1,0.1,0.2,0,0.3,0c0.1,0,0.3,0.1,0.3,0.1c0.1,0,0.1,0,0.1,0c0,0,0.1,0,0.2,0
		c0,0-0.5,0.6,0.4,1.7c0.3,0.4,1,0.6,1.1,0.6c-0.3-0.1-0.9-0.1-1.1,0c-0.8-0.1-0.9,0-1.1,0.3c0,0-0.1,0.1-0.1,0.2
		c0,0.1-0.1,0.3,0,0.3c0,0,0.1-0.1,0.1-0.1c0,0.1,0.1,0.1,0.1,0.1c0,0.1,0,0.2,0.1,0.2c0,0,0-0.1,0.1-0.1c0,0,0,0,0,0
		c0.1,0,0.1,0.1,0.2,0.1c0,0,0,0.1,0.1,0.1c0,0,0,0,0.1,0c0.5,0.1,0.8,0,1.3,0c0.4,0,0.8,0,0.9,0c0.2,0.1,0.8-0.2,0.8-0.2
		c0.1,0,0.7,0.1,1.4,0c0.3-0.1,0.6-0.1,0.9-0.2c0.1,0,0.3-0.2,0.3-0.2c0.3-0.2,0.7-0.6,0.8-0.9c0.2-0.6,0.3-0.9,0.3-1.3
		c0-0.2,0-0.4-0.2-0.9c-0.3-0.9-0.2-1.2-0.1-1.4c0-0.1,0.1-0.2,0.3-0.3c0.1,0.1,0.2,0,0.3,0.1c0.1,0,0.2,0.1,0.2,0.2
		c0.2,0.1,0.3,0.1,0.5,0.1c0.1,0,0.1,0,0.2,0c0,0,0-0.1,0-0.1c0.1,0.1,0.2,0.1,0.2,0.1c0,0,0-0.1,0-0.2c0.1,0,0.2,0.1,0.2,0.1
		c0,0,0.1,0,0.1,0c0,0,0-0.1,0-0.1c0,0,0,0,0,0c0,0,0.1,0,0.1,0c0,0,0,0,0,0c0.1,0,0.1,0,0.2-0.1c-0.1-0.2-0.2-0.2-0.4-0.2
		c0.1,0,0.1-0.1,0.1-0.1c0,0-0.1,0-0.1,0c0,0-0.1,0-0.1,0c-0.1,0-0.1-0.1-0.2-0.1c0,0-0.1,0-0.1,0c0,0,0,0,0,0
		c-0.1-0.1-0.1-0.2-0.2-0.2c-0.1,0-0.2-0.1-0.3-0.1c-0.2,0-0.5-0.1-0.6,0s-0.4,0.2-0.6,0.3c-0.2,0.1-0.2,0.2-0.2,0.2
		c-0.3,0.2-0.6,0.9-0.4,1.9c0.1,0.4,0.1,0.3,0.1,0.5c0.2,1.1-0.6,1.8-1,2.1c0,0,0,0,0,0c0.1-0.2,0.2-0.4,0.3-0.6
		c0.1-0.4,0.2-1,0.1-1.4c0-0.3-0.2-0.6-0.3-0.8c0.1,0,0.1,0,0.1,0c-0.2-0.1-0.5-0.7-0.6-0.8c0,0,0.1,0,0.1,0
		C43.4,19,43,18.6,43,18.6s0.1,0,0.2,0c0,0-0.4-0.2-0.6-0.5c-0.1-0.1,0-0.2,0-0.2c0.3,0.1,0.5,0.1,0.6,0c-0.1-0.2-0.3-0.3-0.3-0.3
		c0.1,0,0.3,0.1,0.3,0.1c0.2,0,0.3,0.1,0.4,0c0-0.1-0.4-0.2-0.4-0.3c0.2,0.1,0.3,0.1,0.5,0.1c0,0,0-0.1,0-0.2c0.2,0.1,0.4,0.2,0.6,0
		c0,0-0.5-0.4-0.7-0.8c-0.1-0.2,0.4,0.5,0.9,0.5c0.1-0.1,0-0.2,0-0.3c-0.1-0.1,0.4,0.2,0.4,0.2s0-0.2-0.1-0.4c0.1,0,0.6,0.2,0.7,0.1
		c0.1-0.1-0.1-0.3-0.1-0.3s0.4,0.2,0.5,0.2c0.1,0,0.1-0.1,0.1-0.1c0-0.1,0-0.2-0.1-0.4c-0.1-0.2-0.8-1.3,0-0.4
		c0.1,0.1,0.4,0.4,0.5,0.4c0.1,0-0.1-0.4-0.1-0.4s0.3,0.2,0.5,0.2c0.1,0,0-0.3-0.1-0.4c-0.2-0.2-0.2-0.2-0.5-0.4
		c-0.2-0.1,0.7,0.2,0.8,0.3c0.2,0.1-0.1-0.3-0.1-0.3c0.2,0,0.9-0.1,0.9-0.2c0-0.1-0.2-0.2-0.2-0.2l0.1,0c0,0,0.5,0,0.6-0.1
		c0,0-1.3-0.6-1.3-0.6c1,0.1,1.4,0.3,1.9,0.2c0.3,0,0.4-0.1,0.4-0.1c-0.1-0.2-0.8-0.4-0.8-0.4l0.4,0c0.6,0,1.1-0.3,1.1-0.4
		c0-0.1-0.3-0.2-0.3-0.2c0-0.1,0.5,0,0.6-0.3c0.5-0.3,0.5-0.4,0.5-0.4c-0.1-0.1-0.3,0-0.3,0s-0.4,0.1-0.8,0.2c-0.5,0.1-0.6,0-0.6,0
		c1.5-0.2,1.8-0.5,1.8-0.7C50.9,11.2,50.7,10.9,50.7,10.9"/>
	<path class="st0" d="M60.7,29.4h-0.1v0.3h0.1c0.1,0,0.1-0.1,0.1-0.1C60.8,29.5,60.8,29.4,60.7,29.4 M60.8,30l-0.2-0.3h-0.1V30h-0.1
		v-0.7h0.2c0.1,0,0.2,0.1,0.2,0.2c0,0.1-0.1,0.2-0.2,0.2l0.2,0.3H60.8z M60.7,29.1c-0.3,0-0.6,0.3-0.6,0.6c0,0.3,0.3,0.6,0.6,0.6
		c0.3,0,0.6-0.3,0.6-0.6C61.2,29.4,61,29.1,60.7,29.1 M60.7,30.3c-0.4,0-0.7-0.3-0.7-0.7c0-0.4,0.3-0.7,0.7-0.7
		c0.4,0,0.7,0.3,0.7,0.7C61.3,30,61,30.3,60.7,30.3"/>
</g>
</svg>
