<?xml version="1.0" encoding="utf-8"?>
<!-- Generator: Adobe Illustrator 19.2.1, SVG Export Plug-In . SVG Version: 6.00 Build 0)  -->
<svg version="1.1" id="Layer_1" xmlns="http://www.w3.org/2000/svg" xmlns:xlink="http://www.w3.org/1999/xlink" x="0px" y="0px"
	 viewBox="0 0 80 40" style="enable-background:new 0 0 80 40;" xml:space="preserve">
<style type="text/css">
	.st0{fill:#FFFFFF;}
</style>
<g>
	<polygon class="st0" points="18.6,29.7 18.6,27.3 20.3,27.3 20.3,27.7 19.2,27.7 19.2,28.3 20.1,28.3 20.1,28.7 19.2,28.7 
		19.2,29.3 20.3,29.3 20.3,29.7 	"/>
	<path class="st0" d="M22.2,29.7c-0.1,0-0.2,0-0.3-0.2L21.6,29L21,29.7h-0.5l0.8-1.2l-0.7-1.2c0,0-0.1-0.1-0.1-0.1v0h0.6
		c0.1,0,0.2,0.1,0.3,0.2l0.3,0.6l0.5-0.8h0.5l-0.8,1.1l0.8,1.2c0,0,0.1,0.1,0.1,0.1v0H22.2z"/>
	<polygon class="st0" points="23.1,29.7 23.1,27.3 24.7,27.3 24.7,27.7 23.7,27.7 23.7,28.3 24.6,28.3 24.6,28.7 23.7,28.7 
		23.7,29.3 24.8,29.3 24.8,29.7 	"/>
	<path class="st0" d="M27,27.8c-0.2-0.1-0.3-0.1-0.5-0.1c-0.4,0-0.7,0.3-0.7,0.9c0,0.6,0.3,0.9,0.8,0.9c0.2,0,0.4,0,0.6-0.1v0.5
		c-0.2,0.1-0.4,0.1-0.7,0.1c-0.8,0-1.3-0.5-1.3-1.3c0-0.8,0.6-1.3,1.3-1.3c0.3,0,0.5,0.1,0.8,0.1L27,27.8z"/>
	<path class="st0" d="M29.1,29.7v-0.3c-0.1,0.2-0.3,0.4-0.7,0.4c-0.2,0-0.4-0.1-0.6-0.2c-0.2-0.2-0.3-0.4-0.3-0.8v-1.6h0.6v1.5
		c0,0.2,0,0.4,0.1,0.5c0.1,0.1,0.2,0.1,0.3,0.1c0.4,0,0.5-0.3,0.5-0.8v-1.3h0.6v2.2c0,0.1,0,0.2,0.1,0.3v0H29.1z"/>
	<path class="st0" d="M32.2,27.6c-0.1,0.1-0.1,0.2-0.3,0.2h-0.4v2h-0.6v-2h-0.7c0,0-0.1,0-0.1,0l0,0l0.2-0.3
		c0.1-0.1,0.1-0.2,0.3-0.2h1.9L32.2,27.6z"/>
	<rect x="32.6" y="27.3" class="st0" width="0.6" height="2.5"/>
	<path class="st0" d="M35.1,29.7h-0.7l-0.8-2.3c0,0-0.1-0.1-0.1-0.1v0h0.6c0.1,0,0.2,0,0.2,0.2l0.5,1.7h0l0.6-1.9H36L35.1,29.7z"/>
	<polygon class="st0" points="36.3,29.7 36.3,27.3 37.9,27.3 37.9,27.7 36.9,27.7 36.9,28.3 37.8,28.3 37.8,28.7 36.9,28.7 
		36.9,29.3 38,29.3 38,29.7 	"/>
	<path class="st0" d="M40,27.9l-0.3,0.9h0.6L40,27.9z M41,29.7c-0.2,0-0.3,0-0.4-0.2l-0.2-0.4h-0.9l-0.2,0.6h-0.5l0.9-2.4
		c0,0-0.1-0.1-0.1-0.1v0h0.8l0.9,2.4c0,0,0.1,0.1,0.1,0.1v0H41z"/>
	<path class="st0" d="M42.5,27.7h-0.2v0.7h0.2c0.3,0,0.4-0.1,0.4-0.3C42.9,27.8,42.8,27.7,42.5,27.7 M42.6,28.8h-0.3v1h-0.6v-2.2
		c0-0.1,0-0.2-0.1-0.3v0h1c0.8,0,1,0.4,1,0.7C43.5,28.4,43.3,28.8,42.6,28.8"/>
	<path class="st0" d="M44.6,27.9l-0.3,0.9h0.6L44.6,27.9z M45.6,29.7c-0.2,0-0.3,0-0.4-0.2l-0.2-0.4h-0.9l-0.2,0.6h-0.5l0.9-2.4
		c0,0-0.1-0.1-0.1-0.1v0H45l0.9,2.4c0,0,0.1,0.1,0.1,0.1v0H45.6z"/>
	<path class="st0" d="M47.1,27.7h-0.2v0.7h0.2c0.3,0,0.4-0.1,0.4-0.3C47.5,27.8,47.4,27.7,47.1,27.7 M48,29.7c-0.2,0-0.3,0-0.4-0.2
		l-0.5-0.8h-0.2v1h-0.6v-2.5h1c0.7,0,0.9,0.4,0.9,0.7c0,0.2-0.1,0.5-0.5,0.7l0.7,1c0,0,0.1,0.1,0.1,0.1v0H48z"/>
	<path class="st0" d="M50.5,27.6c-0.1,0.1-0.1,0.2-0.3,0.2h-0.4v2h-0.6v-2h-0.7c0,0-0.1,0-0.1,0l0,0l0.2-0.3
		c0.1-0.1,0.1-0.2,0.3-0.2h1.9L50.5,27.6z"/>
	<polygon class="st0" points="52.9,29.7 52.9,28 52.9,28 52.4,29.5 51.9,29.5 51.4,28 51.4,28 51.4,29.7 50.9,29.7 50.9,27.3 
		51.7,27.3 52.3,28.8 52.3,28.8 52.8,27.3 53.5,27.3 53.5,29.7 	"/>
	<polygon class="st0" points="54.1,29.7 54.1,27.3 55.8,27.3 55.8,27.7 54.7,27.7 54.7,28.3 55.6,28.3 55.6,28.7 54.7,28.7 
		54.7,29.3 55.8,29.3 55.8,29.7 	"/>
	<path class="st0" d="M58.1,29.7c-0.2,0-0.3-0.1-0.4-0.3l-0.9-1.2h0v1.5h-0.5v-2.2c0-0.1,0-0.2-0.1-0.3v0h0.7l1,1.5h0v-1.5h0.5v2.5
		H58.1z"/>
	<path class="st0" d="M60.8,27.6c-0.1,0.1-0.1,0.2-0.3,0.2h-0.4v2h-0.6v-2h-0.7c0,0-0.1,0-0.1,0l0,0l0.2-0.3
		c0.1-0.1,0.1-0.2,0.3-0.2H61L60.8,27.6z"/>
	<path class="st0" d="M61.8,29.8c-0.3,0-0.5,0-0.7-0.1l0.2-0.4c0.1,0,0.3,0.1,0.5,0.1c0.2,0,0.4-0.1,0.4-0.3c0-0.2-0.1-0.2-0.4-0.4
		c-0.4-0.2-0.6-0.4-0.6-0.8c0-0.5,0.4-0.7,0.9-0.7c0.3,0,0.5,0,0.7,0.1v0l-0.2,0.4c-0.2-0.1-0.3-0.1-0.4-0.1c-0.2,0-0.3,0.1-0.3,0.2
		c0,0.2,0.2,0.3,0.5,0.4c0.3,0.2,0.6,0.3,0.6,0.8C62.8,29.4,62.5,29.8,61.8,29.8"/>
	<path class="st0" d="M44.1,11.3h-3.2c0.4,0.3,0.7,0.7,0.9,1.2c0.3-0.5,0.7-0.8,1.2-0.8c0.8,0,1.5,0.8,1.5,1.9c0,1-0.7,1.9-1.5,1.9
		c-0.8,0-1.5-0.8-1.5-1.9c0-1.2-1-2.2-2.1-2.2h-2.1c-1.2,0-2.1,1-2.1,2.2c0,1.2,1,2.2,2.1,2.2h1.1h2.1c-0.4-0.3-0.7-0.7-0.9-1.2
		c-0.3,0.5-0.7,0.8-1.2,0.8c-0.8,0-1.5-0.8-1.5-1.9c0-1,0.7-1.9,1.5-1.9c0.8,0,1.5,0.8,1.5,1.9c0,1.2,1,2.2,2.1,2.2h1h1
		c1.2,0,2.1-1,2.1-2.2C46.2,12.3,45.3,11.3,44.1,11.3"/>
	<path class="st0" d="M22.1,23.8c-0.2,0-0.4,0-0.6-0.1l-1,1.6c0.3,0.3,0.9,0.4,1.3,0.4c1.1,0,1.8-1.1,3.2-4.2l1.6,3.5h2.2l-1-2.3
		l0.6-1.2l1.6,3.5H32l-3.6-8l-1.7,0.8l1.3,3l-0.6,1.2L25,16.9l-1.8,0.9l1.5,3.1l-0.6,1.2C23.7,22.9,22.9,23.8,22.1,23.8"/>
	<path class="st0" d="M34.2,23c-0.2,0.2-0.4,0.2-0.6,0.2c-0.3,0-0.5-0.4-0.5-0.8c0-0.3,0.1-0.6,0.2-0.9c0.2-0.4,0.5-0.7,0.9-0.7
		c0.2,0,0.3,0.1,0.3,0.3c0,0.2,0,0.3,0,0.7C34.5,22.6,34.4,22.8,34.2,23 M36,23.4v-3.2c0-0.5-0.1-0.9-0.3-1.1
		c-0.2-0.2-0.5-0.5-1.4-0.5c-0.6,0-1.1,0.1-1.6,0.3c-0.2,0.1-0.3,0.2-0.4,0.5c-0.1,0.3-0.2,0.6-0.3,1c0.6-0.5,1.1-0.8,1.5-0.9
		c0.5-0.1,0.8,0,0.8,0.3c0,0.2-0.1,0.3-0.4,0.4c-0.3,0.2-1,0.4-1.6,0.7c-0.5,0.3-0.9,0.8-0.9,1.7c0,1,0.8,1.7,1.4,1.7
		c0.7,0,1-0.3,1.5-0.7c0,0.2,0.1,0.5,0.3,0.6h1.5C36.2,23.9,36,23.7,36,23.4"/>
	<path class="st0" d="M43.6,18.5c0.4,0,0.7,0.2,0.9,0.4l-0.7,1c-0.3-0.2-0.7-0.3-1.1,0v3c0,0.5,0.1,1,0.4,1.2h-1.5
		c-0.3-0.2-0.4-0.6-0.4-1v-4c0-0.3-0.1-0.5-0.2-0.6h1.5c0.1,0.1,0.2,0.2,0.2,0.4C42.9,18.7,43.2,18.5,43.6,18.5"/>
	<path class="st0" d="M46.6,19.7v3.2c0,0.5,0.1,1,0.4,1.2h-1.5c-0.3-0.2-0.4-0.6-0.4-1v-4c0-0.3-0.1-0.5-0.2-0.6h1.5
		C46.6,18.9,46.6,19.2,46.6,19.7"/>
	<path class="st0" d="M39.7,18.5c0.4,0,0.7,0.2,0.9,0.4l-0.7,1c-0.3-0.2-0.7-0.3-1.1,0v3c0,0.5,0.1,1,0.4,1.2h-1.5
		c-0.3-0.2-0.4-0.6-0.4-1v-4c0-0.3-0.1-0.5-0.2-0.6h1.5c0.1,0.1,0.2,0.2,0.2,0.4C39,18.7,39.3,18.5,39.7,18.5"/>
	<path class="st0" d="M50.3,23.1c-0.1,0.2-0.3,0.3-0.4,0.3c-0.2,0-0.4-0.2-0.5-0.6c-0.1-0.5-0.1-1.7-0.1-2c0-0.5,0.1-0.8,0.2-1.1
		c0.1-0.1,0.3-0.4,0.5-0.3c0.3,0.1,0.5,0.5,0.6,1.6C50.6,22.3,50.5,22.8,50.3,23.1 M51.9,19.8c-0.2-0.4-0.7-0.9-1.3-1.2
		c-0.4-0.2-0.7-0.2-1.6,0.2c-0.3,0.1-0.8,0.4-1.1,0.9c-0.1,0.1-0.2,0.4-0.2,0.8c-0.1,0.6,0,1.3,0,1.8c0.1,1.2,1.3,1.8,1.8,1.9
		c0.8,0.3,1.7-0.6,1.9-0.8c0.4-0.4,0.6-0.7,0.7-1.3c0-0.3,0-0.6,0-0.9C52.1,20.7,52.1,20.1,51.9,19.8"/>
	<path class="st0" d="M54.7,19v3.9c0,0.5,0.1,1,0.4,1.2h-1.5c-0.3-0.2-0.4-0.6-0.4-1V19h-0.9l0.2-0.5h0.7v-1.2l1.6-0.6v1.8h0.8
		L55.3,19H54.7z"/>
	<path class="st0" d="M58.1,19v3.9c0,0.5,0.1,1,0.4,1.2h-1.5c-0.3-0.2-0.4-0.6-0.4-1V19h-0.9l0.2-0.5h0.7v-1.2l1.6-0.6v1.8h0.8
		L58.7,19H58.1z"/>
	<path class="st0" d="M59.6,23.2h-0.1v0.3h0.1c0.1,0,0.1-0.1,0.1-0.1C59.7,23.3,59.7,23.2,59.6,23.2 M59.7,23.9l-0.2-0.3h-0.1v0.3
		h-0.1v-0.8h0.3c0.1,0,0.2,0.1,0.2,0.2c0,0.1-0.1,0.2-0.2,0.2l0.2,0.3H59.7z M59.6,22.9c-0.3,0-0.6,0.3-0.6,0.6
		c0,0.3,0.3,0.6,0.6,0.6c0.3,0,0.6-0.3,0.6-0.6C60.1,23.2,59.9,22.9,59.6,22.9 M59.6,24.2c-0.4,0-0.7-0.3-0.7-0.7
		c0-0.4,0.3-0.7,0.7-0.7c0.4,0,0.7,0.3,0.7,0.7C60.2,23.9,59.9,24.2,59.6,24.2"/>
</g>
</svg>
