
<!-- Generator: Adobe Illustrator 19.2.1, SVG Export Plug-In . SVG Version: 6.00 Build 0)  -->
<svg version="1.1" id="Layer_1" xmlns="http://www.w3.org/2000/svg" xmlns:xlink="http://www.w3.org/1999/xlink" x="0px" y="0px"
	 viewBox="0 0 80 40" style="enable-background:new 0 0 80 40;" xml:space="preserve">
<style type="text/css">
	.st0{fill:#FFFFFF;}
</style>
<g>
	<path class="st0" d="M41.1,9.8c0.2,0,0.3-0.1,0.3-0.3c0-0.1,0-0.1-0.1-0.2c0.2,0,0.5,0,0.9,0.2l0.5,0.3c0.1,0.1,0.3,0.2,0.6,0.3
		c0.4,0.2,0.6,0.1,0.8,0c0.1-0.1,0.2-0.2,0.2-0.4c0-0.2-0.1-0.3-0.3-0.3c-0.2,0-0.3,0.1-0.3,0.3c0,0.1,0,0.1,0.1,0.2
		c-0.1,0-0.2,0-0.3-0.1c-0.2-0.1-0.4-0.2-0.5-0.3l-0.5-0.3c-0.5-0.2-1-0.3-1.3-0.1c-0.1,0-0.1,0.1-0.2,0.2c0,0.1,0,0.1,0,0.2
		C40.9,9.7,41,9.8,41.1,9.8 M43.4,22.2c-0.4-0.2-1-0.2-1.6,0c-0.4,0.2-0.7,0.5-0.9,0.9c-0.1,0.3-0.2,0.7,0,0.9
		c0,0.1,0.1,0.2,0.3,0.2c0.2,0,0.3-0.1,0.3-0.3c0-0.2-0.1-0.3-0.3-0.3c0,0,0,0-0.1,0c0-0.1,0-0.2,0.1-0.3c0.1-0.3,0.4-0.6,0.7-0.7
		c0.4-0.2,1-0.2,1.3-0.1c0.1,0,0.1,0.1,0.1,0.1c-0.1,0.1-0.2,0.2-0.2,0.3c0,0.2,0.1,0.3,0.3,0.3c0.1,0,0.2,0,0.2-0.1
		c0.1-0.1,0.1-0.2,0.1-0.2c0-0.1,0-0.1,0-0.2C43.8,22.5,43.6,22.3,43.4,22.2 M44.4,11.7c0.4,0.6,1,0.7,1.3,0.6
		c0.1,0,0.1-0.1,0.2-0.1c0,0,0.1,0,0.1-0.1c0,0,0.1-0.1,0.1-0.2c0-0.1,0-0.2-0.1-0.2c-0.1-0.1-0.1-0.1-0.2-0.1
		c-0.2,0-0.3,0.1-0.3,0.3c0,0,0,0.1,0,0.1c-0.2,0-0.5-0.2-0.8-0.5c-0.2-0.3-0.3-0.6-0.2-0.8c0,0,0.1,0.1,0.2,0.1
		c0.2,0,0.3-0.1,0.3-0.3c0-0.1-0.1-0.2-0.2-0.3c-0.1,0-0.1,0-0.2,0c-0.1,0-0.1,0.1-0.2,0.1C44.1,10.6,44,11.1,44.4,11.7 M45.4,13.3
		c-0.1,0.3-0.1,0.7-0.1,1.2c0.1,0.5,0.2,1.2,0.6,1.6c0.1,0.2,0.3,0.3,0.5,0.3c0.1,0,0.2,0,0.2,0c0.1,0,0.2,0,0.2,0
		c0.1,0,0.1-0.1,0.2-0.1c0,0,0.1-0.1,0.1-0.2c0-0.3-0.2-0.4-0.3-0.4c-0.2,0-0.3,0.1-0.3,0.3v0c-0.1,0-0.2-0.1-0.3-0.2
		c-0.3-0.4-0.5-1-0.5-1.4c-0.1-0.4,0-0.8,0-1.1c0.1-0.2,0.1-0.3,0.2-0.4c0.1,0.1,0.1,0.1,0.2,0.1c0.2,0,0.3-0.1,0.3-0.3
		c0-0.1-0.1-0.3-0.2-0.3c-0.1,0-0.1,0-0.2,0C45.8,12.5,45.5,12.8,45.4,13.3 M35.5,12.2c0,0,0.1,0.1,0.2,0.1c0.3,0.1,0.9-0.1,1.3-0.6
		c0.4-0.5,0.4-1.1,0.1-1.4c-0.1-0.1-0.1-0.1-0.2-0.1c-0.1,0-0.2,0-0.2,0c-0.1,0.1-0.2,0.2-0.2,0.3c0,0.2,0.1,0.3,0.3,0.3
		c0.1,0,0.1,0,0.2-0.1c0,0.2,0,0.5-0.2,0.8c-0.3,0.4-0.6,0.5-0.8,0.5c0,0,0-0.1,0-0.1c0-0.2-0.1-0.3-0.3-0.3c-0.1,0-0.1,0-0.2,0.1
		c0,0-0.1,0.1-0.1,0.2C35.4,12,35.4,12.1,35.5,12.2C35.4,12.2,35.5,12.2,35.5,12.2 M37.4,10.1c0.1,0.1,0.4,0.2,0.7,0
		c0.3-0.1,0.4-0.2,0.6-0.3l0.5-0.3c0.3-0.2,0.6-0.2,0.8-0.2c0,0-0.1,0.1-0.1,0.2c0,0.2,0.1,0.3,0.3,0.3c0.2,0,0.3-0.1,0.3-0.3
		c0-0.1,0-0.2,0-0.2c0-0.1-0.1-0.1-0.2-0.2C40.1,9,39.5,9,39,9.3l-0.5,0.3c-0.2,0.1-0.3,0.2-0.5,0.3c-0.1,0.1-0.2,0.1-0.3,0.1
		c0,0,0.1-0.1,0.1-0.2c0-0.2-0.1-0.3-0.3-0.3c-0.1,0-0.3,0.1-0.3,0.3C37.2,9.9,37.3,10,37.4,10.1 M39.6,22.2C39,22,38.4,22,38,22.2
		c-0.2,0.1-0.4,0.3-0.4,0.5c0,0.1,0,0.1,0,0.2c0,0,0,0.1,0.1,0.2c0.1,0.1,0.1,0.1,0.2,0.1c0.2,0,0.3-0.1,0.3-0.3
		c0-0.1-0.1-0.2-0.2-0.3c0,0,0.1-0.1,0.1-0.1c0.3-0.2,0.9-0.1,1.3,0.1c0.3,0.1,0.6,0.4,0.7,0.7c0,0.1,0.1,0.2,0.1,0.3c0,0,0,0-0.1,0
		c-0.2,0-0.3,0.1-0.3,0.3c0,0.2,0.1,0.3,0.3,0.3c0.2,0,0.3-0.1,0.3-0.2c0.1-0.2,0.1-0.6,0-0.9C40.3,22.7,40,22.4,39.6,22.2
		 M34.3,16.4c0,0.1,0.1,0.1,0.2,0.1c0.1,0,0.2,0.1,0.2,0c0.1,0,0.2,0,0.2,0c0.2-0.1,0.3-0.2,0.5-0.3c0.4-0.4,0.6-1.1,0.6-1.6
		c0.1-0.5,0-0.9-0.1-1.2c-0.1-0.5-0.4-0.8-0.7-0.8c-0.1,0-0.1,0-0.2,0c-0.1,0-0.2,0.2-0.2,0.3c0,0.2,0.1,0.3,0.3,0.3
		c0.1,0,0.2,0,0.2-0.1c0.1,0.1,0.2,0.3,0.2,0.4c0.1,0.3,0.1,0.6,0,1.1c-0.1,0.4-0.2,1.1-0.5,1.4c-0.1,0.1-0.2,0.2-0.3,0.2v0
		c0-0.2-0.1-0.3-0.3-0.3c-0.2,0-0.3,0.1-0.3,0.4C34.3,16.3,34.3,16.3,34.3,16.4 M37.2,21.7c-0.2,0-0.3,0.1-0.3,0.3
		c0,0.1,0,0.2,0.1,0.2c-0.1,0-0.2,0-0.3,0c-1,0-2-1.1-2.4-2.1c-0.1-0.4-0.3-1.2-0.2-1.7c0-0.5,0.1-0.9,0.3-1.1
		c0.1,0.1,0.1,0.1,0.3,0.1c0.2,0,0.3-0.1,0.3-0.3c0-0.2-0.1-0.3-0.3-0.3c-0.2,0-0.3,0.1-0.5,0.2c-0.3,0.3-0.4,0.9-0.5,1.4
		c0,0.6,0.1,1.4,0.3,1.8c0.4,1.1,1.5,2.3,2.7,2.4c0.3,0,0.5-0.1,0.7-0.2c0.1-0.1,0.1-0.2,0.2-0.2c0-0.1,0-0.1,0-0.2c0,0,0-0.1,0-0.2
		C37.4,21.7,37.3,21.7,37.2,21.7 M47.7,18.4c0-0.6-0.2-1.1-0.5-1.4c-0.1-0.1-0.3-0.2-0.5-0.2c-0.2,0-0.3,0.1-0.3,0.3
		c0,0.2,0.1,0.3,0.3,0.3c0.1,0,0.2-0.1,0.3-0.1c0.2,0.2,0.3,0.6,0.3,1.1c0,0.5-0.1,1.3-0.2,1.7c-0.3,1-1.3,2.1-2.4,2.1
		c-0.1,0-0.2,0-0.3,0c0.1-0.1,0.1-0.1,0.1-0.2c0-0.2-0.1-0.3-0.3-0.3c-0.1,0-0.2,0.1-0.3,0.2c0,0.1,0,0.1,0,0.2c0,0,0,0.1,0,0.2
		c0,0.1,0.1,0.2,0.2,0.2c0.1,0.1,0.4,0.2,0.6,0.2c1.2,0,2.3-1.3,2.7-2.4C47.6,19.8,47.7,19,47.7,18.4 M41.7,21.9
		c0.6-0.3,1.4-0.3,1.9-0.1c0-0.1,0-0.2,0-0.2c0.1-0.2,0.4-0.4,0.6-0.4c0.3,0,0.6,0.2,0.7,0.6c0.8-0.1,1.6-1,1.8-1.8
		c0.1-0.4,0.2-1,0.2-1.4c0-0.1,0-0.1,0-0.1c0-0.2-0.1-0.4-0.1-0.6c0,0,0,0-0.1,0c-0.4,0-0.7-0.3-0.7-0.7c0-0.1,0-0.3,0.1-0.4
		c-0.2-0.1-0.3-0.2-0.5-0.4c-0.5-0.5-0.7-1.3-0.7-1.8c0-0.2,0-0.4,0-0.6c0-0.3,0-0.6,0.1-0.8c0.1-0.2,0.1-0.4,0.2-0.5
		c-0.4-0.1-0.8-0.3-1.1-0.8v0c-0.3-0.5-0.4-0.9-0.4-1.3c-0.2,0-0.4,0-0.6-0.1c-0.3-0.1-0.5-0.2-0.6-0.3c0,0-0.4-0.3-0.4-0.3
		c-0.1,0-0.2-0.1-0.3-0.1c-0.1,0.2-0.4,0.4-0.6,0.4c-0.2,0-0.3-0.1-0.4-0.2c-0.1,0.1-0.3,0.2-0.4,0.2c-0.3,0-0.5-0.2-0.6-0.4
		c-0.1,0-0.2,0-0.3,0.1c0,0-0.5,0.3-0.5,0.3c-0.2,0.1-0.3,0.2-0.6,0.3c-0.2,0.1-0.5,0.1-0.6,0.1c0.1,0.4,0,0.8-0.4,1.3
		c-0.3,0.5-0.8,0.7-1.1,0.8c0.1,0.2,0.2,0.3,0.2,0.5c0.1,0.4,0.1,0.8,0.1,1.4c-0.1,0.6-0.3,1.3-0.7,1.8c-0.1,0.2-0.3,0.3-0.5,0.4
		c0.1,0.1,0.1,0.2,0.1,0.4c0,0.4-0.3,0.7-0.7,0.7c0,0,0,0-0.1,0c0,0.2-0.1,0.4-0.1,0.6c0,0,0,0.1,0,0.1c0,0.5,0.1,1.1,0.2,1.4
		c0.3,0.8,1,1.7,1.8,1.8c0.1-0.3,0.3-0.6,0.7-0.6c0.3,0,0.5,0.1,0.6,0.4c0,0,0,0.1,0,0.2c0.5-0.2,1.2-0.2,1.9,0.1
		c0.4,0.2,0.8,0.5,1,0.9C40.9,22.4,41.3,22,41.7,21.9 M41.1,19.5v-3c0.2,0,0.5,0.2,0.6,0.3v1.6l0.4-0.4l0.2,0.2L41.1,19.5z
		 M43.9,16.7l-0.4,0.4L43,16.7l0.5-0.4L43.9,16.7z M38.4,12.1c0.1,0.2,0.3,0.5,1.2,0.5c1,0,1.8,0,2,0c1.7,0,1.8,1.4,1.8,1.8
		c0,0.4-0.1,1.2-0.9,1.6c-0.1,0.1-0.2,0.1-0.4,0.2c0.3,0.2,0.6,0.8,0.9,1.5c0.2,0.4,0.3,0.8,0.5,1.1c0.1,0.2,0.3,0.3,0.4,0.4
		c0.1,0,0.2,0,0.2,0c0.2,0,0.3-0.1,0.3-0.2c-0.2,0.1-0.3,0-0.4-0.2c-0.1-0.1,0-0.3,0-0.4c0.1-0.1,0.2-0.2,0.4-0.2
		c0.5,0,0.5,0.6,0.5,0.6c0,0.3-0.1,0.5-0.3,0.7c-0.1,0.1-0.3,0.2-0.5,0.2c-0.5,0-1.1-0.3-1.6-1.9c-0.2-0.6-0.5-1.2-0.8-1.4
		c-0.2-0.1-0.4-0.3-0.8-0.3l-1.2,0c0,0,0,0.3,0,0.4c0,0.2-0.1,1.1-0.1,1.2c-0.1,0-0.5,0-0.5-0.1c0.1-0.3,0.1-0.7,0.1-1.4v-0.1
		c0,0,0-2,0-2c0.1,0,0.4,0,0.6,0.1l0,1.4c0,0,1.4,0,2,0c0.8,0,1.2-0.5,1.2-1.2c0-0.7-0.4-1.2-1.3-1.2h-2h-0.3
		C38.8,13.2,38.2,12.7,38.4,12.1 M42.1,14.6v0.3h-0.4v0.4h-0.6v-0.4h-0.5l1-1v0.7H42.1z M38.2,13.9c0.5-0.6,1.5-0.6,2.1-0.2
		c0,0,0.2,0.1,0.2,0.1l0.7-0.2l-0.8,0.8c-0.3-0.6-1.4-0.8-1.7-0.2c-0.2,0.3-0.1,0.7,0.3,0.9v0.6c-0.1,0-0.1-0.1-0.2-0.1
		C37.7,15.2,37.8,14.3,38.2,13.9 M38.5,19.7c-0.3-0.5-1-1-1.4-0.9c-0.2,0.1-0.2,0.2-0.2,0.3c0,0.2,0.1,0.4,0.4,0.3
		c0.1,0,0.1,0,0.2-0.1c0.1-0.1,0.1-0.2,0.2-0.3c0.1,0,0.2,0.1,0.3,0.2c-0.2,0.4-0.8,0.5-1.1,0.3c-0.2-0.1-0.4-0.4-0.3-0.7
		c0-0.3,0.2-0.4,0.4-0.5c0.2-0.1,0.5-0.2,0.8-0.1c0.4,0.1,0.7,0.3,0.8,0.5c0.1-0.1,0.1-0.2,0.2-0.3c0.1,0.1,0.3,0.1,0.5,0.2
		C39.2,19,38.8,19.5,38.5,19.7 M40.7,17.9c-0.3,0.4-0.7,0.6-1,0.6c-0.6,0.1-1.1-0.3-1.4-0.5c0,0.1,0,0.2,0,0.4
		c-0.2-0.1-0.3-0.1-0.4-0.2c0-0.4,0-0.8,0-1V17H38c0.1,0.4,0.5,0.7,0.9,0.9c0.4,0.2,0.8,0.1,1.2-0.1c0.2-0.2,0.3-0.8,0.1-1.1
		c-0.1-0.1-0.1-0.1-0.2-0.2h0.7c0.1,0.1,0.1,0.2,0.2,0.3C41,17.1,40.9,17.6,40.7,17.9"/>
	<path class="st0" d="M21.1,28c0-0.5,0.6-0.6,1.2-0.6c0.7,0,1.3,0.5,1.5,1.2h0.5l0-1.4l-0.6,0.3c-0.3-0.2-0.9-0.4-1.4-0.4
		c-0.9,0-2.1,0.3-2.1,1.4c0,1.4,3.4,1.3,3.4,2.4c0,0.5-0.7,0.7-1.3,0.7c-0.9,0-1.4-0.7-1.5-1.4h-0.6v1.6l0.6-0.3
		c0.5,0.3,0.9,0.4,1.5,0.4c1.2,0,2.2-0.4,2.2-1.4C24.4,28.7,21.1,28.9,21.1,28 M25.6,28.5l1-0.9h0.8V30l-0.6,0.5H29L28.5,30v-2.4
		h0.8l1,0.9v-1.2h-4.7V28.5z M27.2,31.7l0.7,0.6l0.7-0.6L27.9,31L27.2,31.7z M49.4,29.5l0.5,0.4v0.8c0,0.4-0.6,0.7-1,0.7
		c-1.3,0-1.5-1.2-1.5-2c0-1.1,0.4-2,1.5-2c1,0,1.3,0.5,1.7,1.3h0.5v-1.4l-0.6,0.3c-0.2-0.1-0.7-0.4-1.6-0.4c-1.7,0-2.8,0.7-2.8,2.3
		c0,1.7,1.2,2.3,2.8,2.3c0.5,0,1-0.2,1.5-0.5l0.6,0.4v-1.7l0.5-0.4H49.4z M57.8,28c0-0.5,0.6-0.6,1.2-0.6c0.7,0,1.3,0.5,1.5,1.2H61
		l0-1.4l-0.6,0.3c-0.3-0.2-0.9-0.4-1.4-0.4c-0.9,0-2.1,0.3-2.1,1.4c0,1.4,3.4,1.3,3.4,2.4c0,0.5-0.7,0.7-1.4,0.7
		c-0.9,0-1.4-0.7-1.5-1.4H57v1.6l0.6-0.3c0.5,0.3,0.9,0.4,1.5,0.4c1.2,0,2.2-0.4,2.2-1.4C61.2,28.7,57.8,28.9,57.8,28 M55.3,27.3H53
		l0.5,0.5v3.4L53,31.7h2.2l-0.6-0.5v-3.4L55.3,27.3z M41.8,31.3v-1.7H43l0.6,0.5v-1.3L43,29.3h-1.2v-1.7h1.9l1,0.9v-1.2H40l0.6,0.6
		v3.3L40,31.7h4.6v-1.2l-1,0.9H41.8z M37.4,30.1l-0.8-0.5c0.9,0,1.6-0.2,1.6-1.1c0-0.9-0.9-1.2-2.1-1.2h-3l0.6,0.5v3.3l-0.6,0.6h2.2
		l-0.6-0.5v-1.5h1.1l1.2,2h1.5L38,31.1L37.4,30.1z M35.7,29.3h-0.9v-1.7h0.9c0.9,0,1.2,0.1,1.2,0.8C36.9,29.2,36.6,29.3,35.7,29.3"
		/>
</g>
</svg>
