<?xml version="1.0" encoding="utf-8"?>
<!-- Generator: Adobe Illustrator 19.2.1, SVG Export Plug-In . SVG Version: 6.00 Build 0)  -->
<svg version="1.1" id="Layer_1" xmlns="http://www.w3.org/2000/svg" xmlns:xlink="http://www.w3.org/1999/xlink" x="0px" y="0px"
	 viewBox="0 0 80 40" style="enable-background:new 0 0 80 40;" xml:space="preserve">
<style type="text/css">
	.st0{fill:#FFFFFF;}
</style>
<g>
	<path class="st0" d="M28.5,22.9H16.7c-0.1,0-0.1,0-0.1,0.1c0,0.1,0,0.1,0.1,0.1h11.8c0.1,0,0.1,0,0.1-0.1
		C28.6,23,28.6,22.9,28.5,22.9"/>
	<path class="st0" d="M31.9,22.7c-0.1,0-0.2-0.1-0.2-0.1c-0.4-0.2-0.6-0.2-0.6-0.5c0-0.2,0.2-0.4,0.5-0.4c0.3,0,0.5,0.1,0.7,0.3l0,0
		l0.6-0.4l0,0c-0.3-0.4-0.7-0.6-1.2-0.6c-0.7,0-1.2,0.5-1.2,1.1c0,0.7,0.5,1,1.1,1.2c0.5,0.2,0.8,0.3,0.8,0.6c0,0.1,0,0.5-0.6,0.5
		c-0.4,0-0.7-0.2-0.9-0.6l0,0l-0.6,0.4l0,0c0.3,0.6,0.8,0.9,1.5,0.9c0.9,0,1.4-0.4,1.4-1.2C33,23.3,32.6,23,31.9,22.7"/>
	<path class="st0" d="M36.3,23.5c0,0.6-0.3,0.9-0.8,0.9c-0.5,0-0.8-0.3-0.8-0.9v-2.3h-0.8v2.4c0,1,0.6,1.6,1.6,1.6
		c1,0,1.6-0.6,1.6-1.6v-2.4h-0.8V23.5z"/>
	<rect x="38.2" y="21.1" class="st0" width="0.8" height="3.9"/>
	<polygon class="st0" points="39.9,21.8 41,21.8 41,25.1 41.7,25.1 41.7,21.8 42.8,21.8 42.8,21.1 39.9,21.1 	"/>
	<polygon class="st0" points="44.4,23.4 46,23.4 46,22.7 44.4,22.7 44.4,21.8 46.1,21.8 46.1,21.1 43.6,21.1 43.6,25.1 46.2,25.1 
		46.2,24.4 44.4,24.4 	"/>
	<path class="st0" d="M48.8,22.7c-0.1,0-0.2-0.1-0.2-0.1c-0.4-0.2-0.6-0.2-0.6-0.5c0-0.2,0.2-0.4,0.5-0.4c0.3,0,0.5,0.1,0.7,0.3l0,0
		l0.6-0.4l0,0c-0.3-0.4-0.7-0.6-1.2-0.6c-0.7,0-1.2,0.5-1.2,1.1c0,0.7,0.5,1,1.1,1.2c0.5,0.2,0.8,0.3,0.8,0.6c0,0.1,0,0.5-0.6,0.5
		c-0.4,0-0.7-0.2-0.9-0.6l0,0l-0.6,0.4l0,0c0.3,0.6,0.8,0.9,1.5,0.9c0.9,0,1.4-0.4,1.4-1.2C49.8,23.3,49.4,23,48.8,22.7"/>
	<polygon class="st0" points="16.6,15.1 17.8,15.1 17.8,18.9 18.7,18.9 18.7,15.1 19.9,15.1 19.9,14.3 16.6,14.3 	"/>
	<path class="st0" d="M22.9,18.2c-0.9,0-1.6-0.7-1.6-1.6c0-0.9,0.7-1.6,1.6-1.6c0.9,0,1.6,0.7,1.6,1.6
		C24.5,17.5,23.8,18.2,22.9,18.2 M22.9,14.2c-1.4,0-2.4,1.1-2.4,2.4c0,1.3,1.1,2.4,2.4,2.4c1.4,0,2.4-1.1,2.4-2.4
		C25.4,15.3,24.3,14.2,22.9,14.2"/>
	<polygon class="st0" points="30.1,17.2 29.2,14.3 29.2,14.3 28.6,14.3 27.7,17.2 26.8,14.3 26.8,14.3 25.9,14.3 27.3,18.9 
		27.3,18.9 28,18.9 28.9,16 29.8,18.9 29.8,18.9 30.5,18.9 31.9,14.3 31.9,14.3 31,14.3 	"/>
	<polygon class="st0" points="36,17.4 33.7,14.3 33.7,14.3 32.9,14.3 32.9,18.9 33.8,18.9 33.8,15.8 36.1,18.9 36.1,18.9 36.9,18.9 
		36.9,14.3 36,14.3 	"/>
	<polygon class="st0" points="39.1,16.9 41.1,16.9 41.1,16.1 39.1,16.1 39.1,15.1 41.2,15.1 41.2,14.3 38.2,14.3 38.2,18.9 
		41.2,18.9 41.2,18.1 39.1,18.1 	"/>
	<path class="st0" d="M43.3,15.1h0.8c0.3,0,0.7,0.2,0.7,0.7c0,0.5-0.4,0.7-0.7,0.7h-0.8V15.1z M44.2,14.3h-1.8v4.6h0.9v-1.6h0.9
		c0.7,0,1.5-0.6,1.5-1.5C45.7,14.9,44.9,14.3,44.2,14.3"/>
	<polygon class="st0" points="47.7,14.3 46.8,14.3 46.8,18.9 49.5,18.9 49.5,18.1 47.7,18.1 	"/>
	<path class="st0" d="M53.2,17.3h-1.4l0.7-1.7L53.2,17.3z M52.1,14.3l-1.9,4.6h1l0.4-0.9h2l0.4,0.9h1l-1.9-4.6H52.1z"/>
	<path class="st0" d="M58.7,17.6c-0.3,0.4-0.7,0.6-1.2,0.6c-0.9,0-1.6-0.7-1.6-1.6c0-0.9,0.7-1.6,1.6-1.6c0.5,0,0.9,0.2,1.2,0.5l0,0
		l0.6-0.5l0,0c-0.5-0.5-1.1-0.8-1.8-0.8c-1.4,0-2.5,1.1-2.5,2.4c0,1.4,1.1,2.4,2.5,2.4c0.7,0,1.4-0.3,1.8-0.8l0,0L58.7,17.6
		L58.7,17.6z"/>
	<polygon class="st0" points="61.2,18.1 61.2,16.9 63.2,16.9 63.2,16.1 61.2,16.1 61.2,15.1 63.3,15.1 63.3,14.3 60.3,14.3 
		60.3,18.9 63.4,18.9 63.4,18.1 	"/>
	<path class="st0" d="M50.5,21.4L50.5,21.4l-0.1,0.2h0.1c0.1,0,0.1,0,0.1-0.1C50.6,21.4,50.5,21.4,50.5,21.4 M50.7,21.9
		C50.7,21.9,50.6,21.9,50.7,21.9l-0.2-0.2h-0.1v0.2h-0.1v-0.5h0.2c0.1,0,0.1,0.1,0.1,0.1c0,0.1-0.1,0.1-0.1,0.1L50.7,21.9
		C50.7,21.9,50.7,21.9,50.7,21.9L50.7,21.9z M50.5,21.1c-0.3,0-0.5,0.2-0.5,0.5c0,0.3,0.2,0.5,0.5,0.5c0.3,0,0.5-0.2,0.5-0.5
		C51,21.3,50.8,21.1,50.5,21.1 M50.5,22.1c-0.3,0-0.5-0.2-0.5-0.5c0-0.3,0.2-0.5,0.5-0.5c0.3,0,0.5,0.2,0.5,0.5
		C51,21.9,50.8,22.1,50.5,22.1"/>
	<path class="st0" d="M63.3,22.9H51.4c-0.1,0-0.1,0-0.1,0.1c0,0.1,0,0.1,0.1,0.1h11.8c0.1,0,0.1,0,0.1-0.1
		C63.4,23,63.3,22.9,63.3,22.9"/>
</g>
</svg>
