
<!-- Generator: Adobe Illustrator 21.0.0, SVG Export Plug-In . SVG Version: 6.00 Build 0)  -->
<svg version="1.1" id="Layer_1" xmlns="http://www.w3.org/2000/svg" xmlns:xlink="http://www.w3.org/1999/xlink" x="0px" y="0px"
	 viewBox="0 0 80 40" style="enable-background:new 0 0 80 40;" xml:space="preserve">
<style type="text/css">
	.st0{fill:#FFFFFF;}
</style>
<g>
	<path class="st0" d="M18.3,23.7h-1.6v-6.1h-2v-1.3h5.6v1.3h-2V23.7z"/>
	<path class="st0" d="M23,20.9v2.8h-1.6v-7.4h2.2c1,0,1.7,0.2,2.2,0.5c0.5,0.4,0.7,0.9,0.7,1.7c0,0.4-0.1,0.8-0.4,1.2
		c-0.2,0.3-0.6,0.6-1,0.8c1.1,1.7,1.8,2.7,2.2,3.2h-1.7l-1.8-2.8H23z M23,19.6h0.5c0.5,0,0.9-0.1,1.1-0.2c0.2-0.2,0.4-0.4,0.4-0.8
		c0-0.4-0.1-0.6-0.4-0.7c-0.2-0.1-0.6-0.2-1.1-0.2H23V19.6z"/>
	<path class="st0" d="M32.5,23.7h-4.3v-7.4h4.3v1.3h-2.7v1.6h2.5v1.3h-2.5v1.9h2.7V23.7z"/>
	<path class="st0" d="M37.2,23.7l-1.8-5.8h0c0.1,1.2,0.1,2,0.1,2.4v3.4H34v-7.4h2.1l1.7,5.7h0l1.9-5.7h2.1v7.4h-1.5v-3.5
		c0-0.2,0-0.4,0-0.6c0-0.2,0-0.8,0.1-1.7h0l-1.9,5.8H37.2z"/>
	<path class="st0" d="M50.5,20c0,1.2-0.3,2.2-0.9,2.8c-0.6,0.7-1.5,1-2.6,1c-1.1,0-2-0.3-2.6-1c-0.6-0.7-0.9-1.6-0.9-2.8
		s0.3-2.2,0.9-2.8c0.6-0.6,1.5-1,2.6-1c1.1,0,2,0.3,2.6,1C50.2,17.8,50.5,18.8,50.5,20z M45.1,20c0,0.8,0.2,1.4,0.5,1.9
		c0.3,0.4,0.8,0.6,1.4,0.6c1.2,0,1.9-0.8,1.9-2.5c0-1.7-0.6-2.5-1.9-2.5c-0.6,0-1.1,0.2-1.4,0.6S45.1,19.2,45.1,20z"/>
	<path class="st0" d="M58.6,23.7h-2l-3.2-5.6h0c0.1,1,0.1,1.7,0.1,2.1v3.5H52v-7.4h2l3.2,5.5h0c-0.1-1-0.1-1.6-0.1-2v-3.5h1.4V23.7z
		"/>
	<path class="st0" d="M63.3,23.7h-1.6v-6.1h-2v-1.3h5.6v1.3h-2V23.7z"/>
</g>
</svg>
