<?xml version="1.0" encoding="utf-8"?>
<!-- Generator: Adobe Illustrator 19.2.1, SVG Export Plug-In . SVG Version: 6.00 Build 0)  -->
<svg version="1.1" id="Layer_1" xmlns="http://www.w3.org/2000/svg" xmlns:xlink="http://www.w3.org/1999/xlink" x="0px" y="0px"
	 viewBox="0 0 80 40" style="enable-background:new 0 0 80 40;" xml:space="preserve">
<style type="text/css">
	.st0{fill:#FFFFFF;}
</style>
<g>
	<path class="st0" d="M23.5,17.6h-1.8l-1-3.9c0-0.1-0.1-0.4-0.2-0.9c-0.1-0.4-0.1-0.7-0.2-0.9c0,0.2-0.1,0.5-0.2,0.9
		c-0.1,0.4-0.2,0.7-0.2,0.9l-1,3.9h-1.8l-1.9-7.4h1.5l0.9,4c0.2,0.7,0.3,1.4,0.4,1.9c0-0.2,0-0.5,0.1-0.9c0.1-0.4,0.2-0.7,0.2-0.9
		l1.1-4.1h1.4l1.1,4.1c0,0.2,0.1,0.5,0.2,0.9s0.1,0.7,0.2,1c0-0.3,0.1-0.6,0.2-1s0.1-0.7,0.2-0.9l0.9-4h1.6L23.5,17.6z M26.2,17.6
		v-7.4h1.6v7.4L26.2,17.6L26.2,17.6z M32.5,17.6H31v-6.1h-2v-1.3h5.6v1.3h-2C32.5,11.5,32.5,17.6,32.5,17.6z M41.7,17.6h-1.6v-3.2
		h-2.9v3.2h-1.5v-7.4h1.6v2.9h2.9v-2.9h1.5V17.6L41.7,17.6z M50.3,13.9c0.1,1-0.3,2-0.9,2.8c-0.7,0.7-1.6,1-2.6,1
		c-1,0.1-1.9-0.3-2.6-1c-0.6-0.8-1-1.8-0.9-2.8c-0.1-1,0.3-2,0.9-2.8c0.7-0.7,1.6-1,2.6-1c1-0.1,1.9,0.3,2.6,1
		C50,11.9,50.3,12.9,50.3,13.9z M44.9,13.9c0,0.7,0.1,1.3,0.5,1.9c0.3,0.4,0.9,0.7,1.4,0.6c1.2,0,1.9-0.8,1.9-2.5s-0.6-2.5-1.9-2.5
		c-0.5,0-1.1,0.2-1.4,0.6C45,12.6,44.8,13.2,44.9,13.9L44.9,13.9z M57.8,10.2V15c0,0.5-0.1,1-0.4,1.4c-0.3,0.4-0.6,0.7-1.1,0.9
		c-0.5,0.2-1.1,0.3-1.6,0.3c-0.8,0-1.6-0.2-2.2-0.7c-0.5-0.5-0.8-1.2-0.8-2v-4.7h1.6v4.5c0,0.4,0.1,0.9,0.3,1.2
		c0.3,0.3,0.7,0.4,1.1,0.4c0.4,0,0.8-0.1,1.1-0.4c0.3-0.4,0.4-0.8,0.3-1.3v-4.5H57.8L57.8,10.2z M62.5,17.6h-1.6v-6.1h-2v-1.3h5.6
		v1.3h-2V17.6z M12.8,22.6h2.3c0.8-0.1,1.6,0.1,2.3,0.4c0.5,0.3,0.7,0.9,0.7,1.4c0,0.4-0.1,0.8-0.3,1.1c-0.2,0.3-0.5,0.5-0.9,0.5
		v0.1c0.4,0.1,0.8,0.3,1,0.6c0.2,0.3,0.3,0.7,0.3,1.1c0,0.6-0.2,1.2-0.7,1.6c-0.6,0.4-1.3,0.6-2,0.6h-2.7V22.6z M14.4,25.5h0.9
		c0.3,0,0.6,0,0.9-0.2c0.2-0.2,0.3-0.4,0.3-0.7c0-0.2-0.1-0.5-0.3-0.6c-0.3-0.1-0.6-0.2-1-0.2h-0.9L14.4,25.5L14.4,25.5z M14.4,26.8
		v1.9h1c0.3,0,0.7-0.1,1-0.2c0.2-0.2,0.3-0.5,0.3-0.8c0-0.6-0.4-0.9-1.3-0.9L14.4,26.8L14.4,26.8z M21.3,27.2V30h-1.6v-7.4h2.2
		c0.8-0.1,1.6,0.1,2.2,0.5c0.8,0.7,1,1.9,0.4,2.8c-0.3,0.4-0.6,0.6-1,0.8c1.1,1.7,1.8,2.7,2.2,3.2h-1.7l-1.7-2.8L21.3,27.2
		L21.3,27.2z M21.3,25.9h0.5c0.4,0,0.8-0.1,1.1-0.2c0.2-0.2,0.4-0.5,0.4-0.8c0-0.3-0.1-0.6-0.4-0.7c-0.3-0.2-0.7-0.2-1.1-0.2h-0.5
		L21.3,25.9L21.3,25.9z"/>
	<path class="st0" d="M31.1,30l-0.5-1.7h-2.7L27.3,30h-1.7l2.6-7.4h1.9l2.6,7.4H31H31.1z M30.2,26.9l-0.9-2.7
		c-0.1-0.2-0.1-0.4-0.1-0.5c-0.1,0.4-0.4,1.5-1,3.2L30.2,26.9L30.2,26.9z M40.3,30h-2l-3.2-5.6h0c0.1,1,0.1,1.7,0.1,2.1V30h-1.4
		v-7.4h2l3.2,5.5c-0.1-1-0.1-1.6-0.1-2v-3.5h1.4L40.3,30L40.3,30z M48.2,26.2c0.1,1-0.3,2-1,2.8c-0.8,0.7-1.9,1-3,1h-2.1v-7.4h2.3
		c1-0.1,2,0.3,2.8,1C47.9,24.3,48.3,25.2,48.2,26.2z M46.6,26.2c0-1.6-0.7-2.4-2.1-2.4h-0.9v4.8h0.7C45.8,28.7,46.6,27.9,46.6,26.2
		L46.6,26.2z M49.8,30v-7.4h1.6V30L49.8,30L49.8,30z M59.7,30h-2l-3.2-5.6h0c0.1,1,0.1,1.7,0.1,2.1V30h-1.4v-7.4h2l3.2,5.5
		c-0.1-1-0.1-1.6-0.1-2v-3.5h1.4V30L59.7,30z M64.4,25.8h2.9v3.8c-0.4,0.1-0.9,0.3-1.3,0.3c-0.4,0.1-0.9,0.1-1.3,0.1
		c-1,0.1-1.9-0.3-2.6-1c-0.6-0.8-0.9-1.8-0.9-2.8c-0.1-1,0.3-2,1-2.8c0.8-0.7,1.8-1.1,2.8-1c0.8,0,1.5,0.2,2.2,0.5l-0.5,1.2
		c-0.5-0.3-1.1-0.4-1.7-0.4c-0.6,0-1.2,0.2-1.6,0.7c-0.4,0.5-0.6,1.2-0.6,1.8c0,0.6,0.1,1.3,0.5,1.8c0.3,0.4,0.9,0.7,1.4,0.6
		c0.3,0,0.7,0,1-0.1v-1.5h-1.3L64.4,25.8L64.4,25.8z"/>
</g>
</svg>
