<?xml version="1.0" encoding="utf-8"?>
<!-- Generator: Adobe Illustrator 19.2.1, SVG Export Plug-In . SVG Version: 6.00 Build 0)  -->
<svg version="1.1" id="Layer_1" xmlns="http://www.w3.org/2000/svg" xmlns:xlink="http://www.w3.org/1999/xlink" x="0px" y="0px"
	 viewBox="0 0 80 40" style="enable-background:new 0 0 80 40;" xml:space="preserve">
<style type="text/css">
	.st0{fill:#FFFFFF;}
</style>
<g>
	<path class="st0" d="M15.7,22.1c-0.2,0-0.4,0-0.5,0v-1.9c0.2,0,0.4,0,0.6,0c0.7,0,1.1,0.5,1.1,1C16.9,21.6,16.5,22.1,15.7,22.1
		 M15.7,19.6c-0.4,0-0.7,0-1,0.1V24h0.5v-1.5c0.1,0,0.3,0,0.5,0c1.1,0,1.7-0.6,1.7-1.5C17.4,20.3,16.8,19.6,15.7,19.6 M31.6,24h2.5
		v-0.4H32V22h1.9v-0.4H32v-1.5h2.1v-0.4h-2.5V24z M19.4,21.9c-0.2,0-0.4,0-0.5,0v-1.8c0.2,0,0.4,0,0.6,0c0.7,0,1.1,0.4,1.1,0.9
		C20.6,21.5,20.2,21.9,19.4,21.9 M21.1,20.9c0-0.7-0.6-1.3-1.7-1.3c-0.4,0-0.7,0-1,0.1V24h0.5v-1.7c0.1,0,0.3,0,0.5,0
		c0.1,0,0.2,0,0.3,0l1.2,1.7h0.6l-1.3-1.8C20.7,22,21.1,21.5,21.1,20.9 M27.1,20.1h1.4V24h0.5v-3.9h1.4v-0.4h-3.4V20.1z M38.8,15.7
		L38.8,15.7c-0.5-0.2-0.9-0.4-1.4-0.6c-0.5-0.3-1-0.8-1.6-1.5c0.1,0.9,0.5,1.3,0.9,1.7c0.6,0.4,1,0.5,1.5,0.6c0.1,0,0.1,0,0.2,0
		c0.6,0.1,0.8,0.1,0.9,0.3c0.2,0.2,0.2,0.6,0.2,0.9c0,0,0,0.2,0,0.3l0.1,0c0-0.8,0-1.2-0.2-1.3C39.4,15.9,39.1,15.8,38.8,15.7
		 M24.3,23.7c-1,0-1.7-0.8-1.7-1.8c0-1,0.7-1.8,1.7-1.8c1,0,1.6,0.8,1.6,1.8C26,22.9,25.3,23.7,24.3,23.7 M24.3,19.6
		c-1.2,0-2.2,0.9-2.2,2.2c0,1.3,1,2.2,2.1,2.2c1.2,0,2.2-0.9,2.2-2.2C26.5,20.5,25.5,19.6,24.3,19.6 M36.1,22.4l0.8-1.9l0.8,1.9
		H36.1z M36.9,19.6L35,24h0.5l0.5-1.2h1.9l0.5,1.2h0.5L36.9,19.6L36.9,19.6z M59.9,19.7h-0.5V24h2.5v-0.4h-2.1V19.7z M64.1,21.5
		c-0.5-0.2-0.7-0.5-0.7-0.8c0-0.4,0.3-0.7,0.8-0.7c0.3,0,0.6,0.1,0.8,0.3l0.2-0.4c-0.2-0.2-0.6-0.3-1-0.3c-0.8,0-1.3,0.6-1.3,1.2
		c0,0.5,0.3,0.9,1,1.2c0.7,0.3,0.9,0.5,0.9,0.9c0,0.4-0.3,0.8-0.8,0.8c-0.3,0-0.7-0.1-1-0.4l-0.2,0.4c0.4,0.2,0.8,0.4,1.3,0.4
		c0.8,0,1.3-0.5,1.3-1.2C65.2,22.3,65,22,64.1,21.5 M48.3,23.7c-1,0-1.7-0.8-1.7-1.8c0-1,0.7-1.8,1.7-1.8c1,0,1.6,0.8,1.6,1.8
		C50,22.9,49.3,23.7,48.3,23.7 M48.3,19.6c-1.2,0-2.2,0.9-2.2,2.2c0,1.3,1,2.2,2.1,2.2c1.2,0,2.2-0.9,2.2-2.2
		C50.5,20.5,49.5,19.6,48.3,19.6 M55.6,24h2.5v-0.4h-2.1V22h1.9v-0.4h-1.9v-1.5h2.1v-0.4h-2.5V24z M44.4,21.6h-2.3v-1.9h-0.5V24h0.5
		v-2h2.3v2h0.5v-4.3h-0.5V21.6z M43.8,13.6c-0.6,0.7-1.1,1.2-1.6,1.5c-0.5,0.3-0.9,0.5-1.3,0.6l-0.1,0c-0.2,0.1-0.5,0.2-0.6,0.3
		c-0.2,0.2-0.2,0.6-0.2,1.3l0.1,0c0-0.1,0-0.3,0-0.3c0-0.2,0-0.7,0.2-0.9c0.1-0.1,0.3-0.2,0.9-0.3c0.1,0,0.1,0,0.2,0
		c0.5-0.1,1-0.1,1.5-0.6C43.3,14.9,43.8,14.5,43.8,13.6 M51.2,20.1h1.4V24h0.5v-3.9h1.4v-0.4h-3.4V20.1z M41.4,11.3
		c0.3,0.4,0.4,1.1,0.5,1.6c0,0,0,0,0-0.1c0.1-0.7,0-1.2-0.2-1.8c-0.1-0.4-0.3-0.6-0.5-0.9c-0.1-0.2-0.4-0.4-0.6-0.4
		c-0.1,0-0.1,0-0.2,0.1c0,0-0.1,0.1-0.1,0.2c0,0.2,0.2,0.5,0.4,0.7C41,10.9,41.1,11,41.4,11.3 M40.7,13.1c0-0.8-0.5-2.1-0.6-2.2
		c0,0,0,0,0,0c0,0,0,0.1,0,0.2v4.3c0,0.1,0,0.1,0,0.1C40.2,15.4,40.7,14,40.7,13.1 M41.9,9.9c0.1,0.1,0.3,0.2,0.4,0.3
		c0.2,0.1,0.5,0.4,0.7,0.7c0,0,0.1,0.1,0.1,0.1c-0.2-0.5-0.5-1.1-0.8-1.4c-0.2-0.3-0.7-0.6-0.9-0.6c-0.1,0-0.1,0-0.1,0
		C41.3,9.2,41.5,9.6,41.9,9.9 M39.6,15.6c0,0,0-0.1,0-0.1v-4.3c0-0.1,0-0.1,0-0.2c0,0,0,0,0,0c-0.1,0.1-0.6,1.3-0.6,2.2
		C39,14,39.5,15.5,39.6,15.6 M43.7,11.7c0.1,0.4,0.1,0.6,0,1.1c0,0.3-0.1,0.6-0.2,0.8c0.2-0.2,0.3-0.4,0.4-0.6
		c0.1-0.2,0.2-0.7,0.1-1.1c-0.1-0.4-0.2-0.9-0.4-1c0,0-0.1-0.1-0.2-0.1c0,0,0,0-0.1,0c-0.1,0-0.1,0.1-0.1,0.3c0,0.1,0.1,0.2,0.1,0.4
		C43.6,11.4,43.7,11.5,43.7,11.7 M40.7,15.3C40.7,15.3,40.7,15.3,40.7,15.3c0,0,0.1,0,0.1-0.1c0.3-0.3,0.8-1.3,0.8-2
		c0-0.8-0.6-2-0.8-2c0,0,0,0,0,0c0,0,0,0.3,0.1,0.5c0.1,0.4,0.3,0.9,0.3,1.4c0,0.6-0.2,1.2-0.4,1.7C40.7,15.1,40.6,15.3,40.7,15.3
		 M42.6,14.4c0.3-0.3,0.5-0.6,0.5-0.7c0.2-0.5,0.3-0.9,0.3-1.4c0-0.3-0.2-0.8-0.4-1c-0.1-0.1-0.3-0.2-0.5-0.2c-0.1,0-0.1,0-0.1,0
		c0,0-0.1,0.1-0.1,0.1c0,0.2,0.1,0.4,0.2,0.6c0.3,0.4,0.4,0.7,0.4,1.1c0,0.3,0,0.7-0.1,0.9C42.7,14.1,42.7,14.3,42.6,14.4
		 M36.1,13.5C36,13.3,36,13,35.9,12.7c-0.1-0.4-0.1-0.7,0-1.1c0-0.2,0.1-0.3,0.2-0.4c0.1-0.1,0.1-0.2,0.1-0.4c0-0.1,0-0.2-0.1-0.3
		c0,0,0,0-0.1,0c-0.1,0-0.2,0.1-0.2,0.1c-0.1,0.2-0.3,0.6-0.4,1c-0.1,0.4,0.1,0.9,0.1,1.1C35.8,13.1,35.9,13.3,36.1,13.5 M42.3,14.3
		c0-0.1,0.2-0.5,0.2-1.1c0-0.2-0.1-0.4-0.2-0.4l0,0c-0.1,0-0.2,0.3-0.2,0.5l0,0l0,0c0,0.2-0.1,0.6-0.2,0.9c-0.1,0.3-0.2,0.4-0.4,0.7
		c0,0.1-0.1,0.2-0.2,0.3c0.1,0,0.3-0.1,0.4-0.2C42,14.8,42.1,14.7,42.3,14.3 M36.7,10.9c0.2-0.2,0.6-0.5,0.7-0.7
		c0.1-0.1,0.2-0.2,0.4-0.3c0.4-0.3,0.6-0.7,0.5-0.8c0,0,0,0-0.1,0c-0.2,0-0.7,0.3-0.9,0.6c-0.2,0.3-0.6,0.9-0.8,1.4
		C36.6,11,36.7,10.9,36.7,10.9 M37.8,12.8C37.8,12.9,37.9,12.9,37.8,12.8c0-0.4,0.2-1.1,0.5-1.5c0.2-0.3,0.4-0.5,0.7-0.8
		c0.2-0.1,0.4-0.4,0.4-0.7c0-0.1,0-0.1-0.1-0.2c0,0-0.1-0.1-0.2-0.1c-0.2,0-0.5,0.2-0.6,0.4c-0.2,0.3-0.4,0.5-0.5,0.9
		C37.8,11.6,37.8,12.1,37.8,12.8 M39,15.4C39,15.4,39,15.4,39,15.4c0,0,0-0.3-0.1-0.5c-0.1-0.4-0.4-1-0.4-1.7c0-0.5,0.2-1.1,0.3-1.4
		c0.1-0.3,0.2-0.5,0.1-0.5c0,0,0,0,0,0c-0.2,0-0.8,1.2-0.8,2c0,0.7,0.5,1.7,0.8,2C39,15.4,39,15.4,39,15.4 M37.7,13.4L37.7,13.4
		L37.7,13.4c0-0.3-0.1-0.6-0.2-0.6l0,0c-0.2,0-0.2,0.2-0.2,0.4c0,0.6,0.2,1,0.2,1.1c0.2,0.3,0.3,0.5,0.7,0.8
		c0.1,0.1,0.3,0.1,0.4,0.2c-0.1-0.1-0.2-0.2-0.2-0.3c-0.2-0.2-0.2-0.4-0.4-0.7C37.8,14.1,37.7,13.6,37.7,13.4 M37.1,14.4
		c-0.1-0.1-0.1-0.3-0.2-0.5c-0.1-0.2-0.1-0.7-0.1-0.9c0-0.4,0.1-0.8,0.4-1.1c0.1-0.2,0.2-0.4,0.2-0.6c0-0.1,0-0.1-0.1-0.1
		c0,0-0.1,0-0.1,0c-0.2,0-0.3,0.1-0.5,0.2c-0.2,0.2-0.4,0.7-0.4,1c0,0.4,0.1,0.9,0.3,1.4C36.6,13.8,36.8,14.1,37.1,14.4"/>
	<polygon class="st0" points="31,30 31.4,30 32,31 32.6,30 33,30 33,32 32.7,32 32.6,30.6 32.1,31.4 31.9,31.4 31.4,30.6 31.3,32 
		30.9,32 	"/>
	<path class="st0" d="M35,31.2l-0.3-0.8l-0.3,0.8H35z M34.6,30H35l0.8,2h-0.4l-0.2-0.5h-0.7L34.2,32h-0.4L34.6,30z"/>
	<path class="st0" d="M37.3,30.9c0.1,0,0.2,0,0.2-0.1c0.1-0.1,0.1-0.1,0.1-0.2c0-0.1,0-0.2-0.1-0.2c-0.1-0.1-0.1-0.1-0.2-0.1h-0.4
		v0.6H37.3z M36.5,30h0.8c0.1,0,0.2,0,0.3,0.1c0.1,0,0.2,0.1,0.2,0.1c0.1,0.1,0.1,0.1,0.1,0.2c0,0.1,0,0.1,0,0.2
		c0,0.1,0,0.2-0.1,0.3c-0.1,0.1-0.1,0.2-0.3,0.2l0.5,0.8h-0.4l-0.4-0.8h-0.4V32h-0.4V30z"/>
	<path class="st0" d="M39.7,30.9c0.1,0,0.2,0,0.2-0.1c0.1-0.1,0.1-0.1,0.1-0.2c0-0.1,0-0.2-0.1-0.2c-0.1-0.1-0.1-0.1-0.2-0.1h-0.4
		v0.6H39.7z M39,30h0.8c0.1,0,0.2,0,0.3,0.1c0.1,0,0.2,0.1,0.2,0.1c0.1,0.1,0.1,0.1,0.1,0.2c0,0.1,0,0.1,0,0.2c0,0.1,0,0.2-0.1,0.3
		c-0.1,0.1-0.1,0.2-0.3,0.2l0.5,0.8h-0.4l-0.4-0.8h-0.4V32H39V30z"/>
	<rect x="41.5" y="30" class="st0" width="0.4" height="2"/>
	<path class="st0" d="M43.9,31.7c0.1,0,0.2,0,0.3-0.1c0.1,0,0.1-0.1,0.2-0.2c0.1-0.1,0.1-0.1,0.1-0.2c0-0.1,0-0.2,0-0.3
		c0-0.1,0-0.2,0-0.3c0-0.1-0.1-0.2-0.1-0.2c-0.1-0.1-0.1-0.1-0.2-0.2c-0.1,0-0.2-0.1-0.3-0.1c-0.1,0-0.2,0-0.3,0.1
		c-0.1,0-0.1,0.1-0.2,0.2c-0.1,0.1-0.1,0.1-0.1,0.2c0,0.1,0,0.2,0,0.3c0,0.1,0,0.2,0,0.3c0,0.1,0.1,0.2,0.1,0.2
		c0.1,0.1,0.1,0.1,0.2,0.2C43.7,31.7,43.8,31.7,43.9,31.7 M43.9,32.1c-0.1,0-0.3,0-0.4-0.1c-0.1-0.1-0.2-0.1-0.3-0.2
		c-0.1-0.1-0.2-0.2-0.2-0.3c-0.1-0.1-0.1-0.3-0.1-0.4c0-0.1,0-0.3,0.1-0.4c0.1-0.1,0.1-0.2,0.2-0.3c0.1-0.1,0.2-0.2,0.3-0.2
		c0.1-0.1,0.3-0.1,0.4-0.1c0.1,0,0.3,0,0.4,0.1c0.1,0.1,0.2,0.1,0.3,0.2c0.1,0.1,0.2,0.2,0.2,0.3c0.1,0.1,0.1,0.3,0.1,0.4
		c0,0.1,0,0.3-0.1,0.4c-0.1,0.1-0.1,0.2-0.2,0.3c-0.1,0.1-0.2,0.2-0.3,0.2C44.1,32,44,32.1,43.9,32.1"/>
	<polygon class="st0" points="46.1,30.3 45.4,30.3 45.4,30 47.1,30 47.1,30.3 46.5,30.3 46.5,32 46.1,32 	"/>
	<polygon class="st0" points="48.5,30.3 47.8,30.3 47.8,30 49.5,30 49.5,30.3 48.9,30.3 48.9,32 48.5,32 	"/>
	<polygon class="st0" points="30.9,27.4 49.5,27.4 49.5,27.2 30.9,27.2 	"/>
	<path class="st0" d="M66.4,23.5C66.4,23.5,66.4,23.5,66.4,23.5c0.1,0,0.1,0,0.1-0.1c0,0,0-0.1-0.1-0.1c0,0,0,0,0,0V23.5z
		 M66.3,23.2c0,0,0.1,0,0.2,0c0.2,0,0.2,0.1,0.2,0.2c0,0.1,0,0.1-0.1,0.2l0.1,0.2h-0.1l-0.1-0.2c0,0,0,0,0,0c0,0,0,0,0,0v0.2h-0.1
		V23.2z M66.9,23.5c0-0.2-0.2-0.5-0.4-0.5c-0.2,0-0.4,0.2-0.4,0.5c0,0.2,0.2,0.4,0.4,0.4C66.7,23.9,66.9,23.7,66.9,23.5 M65.9,23.5
		c0-0.3,0.2-0.5,0.5-0.5c0.3,0,0.5,0.2,0.5,0.5c0,0.3-0.2,0.5-0.5,0.5C66.2,24,65.9,23.8,65.9,23.5"/>
</g>
</svg>
