<?xml version="1.0" encoding="utf-8"?>
<!-- Generator: Adobe Illustrator 19.2.1, SVG Export Plug-In . SVG Version: 6.00 Build 0)  -->
<svg version="1.1" id="Layer_1" xmlns="http://www.w3.org/2000/svg" xmlns:xlink="http://www.w3.org/1999/xlink" x="0px" y="0px"
	 viewBox="0 0 80 40" style="enable-background:new 0 0 80 40;" xml:space="preserve">
<style type="text/css">
	.st0{fill:#FFFFFF;}
</style>
<g>
	<path class="st0" d="M24,19.9L24,19.9l0,0.4h-1.4c-0.4,0-0.8-0.8-1.3-1.8c-0.2-0.4-0.4-0.7-0.6-1.1h-0.5v1.7c0,0.2,0,0.4,0,0.5
		c0,0.1,0.2,0.1,0.7,0.2l0.1,0v0.5h-3v-0.5l0.1,0c0.4,0,0.6-0.1,0.7-0.2c0-0.2,0-0.3,0-0.5v-4.3c0-0.2,0-0.4,0-0.5
		c0-0.1-0.2-0.1-0.7-0.2l-0.1,0v-0.5h0.1h3.2c1.2,0,2,0.7,2,1.7c0,0.8-0.5,1.5-1.3,1.9c0.2,0.3,0.9,1.3,0.9,1.3
		C23.4,19.2,23.8,19.8,24,19.9 M20.3,16.9h0.6c0.8,0,1.1-0.7,1.1-1.6c0-1-0.4-1.3-1.1-1.3h-0.6V16.9z"/>
	<path class="st0" d="M28.3,19.1l0.3,0.5l-0.1,0.1c0,0-0.9,0.7-1.7,0.7l-0.1,0c-0.4,0-0.9,0-1.6-0.7c-0.4-0.3-0.7-1.1-0.7-1.9
		c0-1.1,0.6-2.5,2.4-2.5c1.2,0,1.9,0.8,1.9,2v0.4h-2.8c0,0.5,0.2,1.8,1.4,1.8c0.5,0,0.8-0.2,1-0.3L28.3,19.1z M27,17.3
		c0.2,0,0.4-0.1,0.4-0.5c0-0.6-0.3-1-0.8-1c-0.5,0-1,0.4-1,1.5H27z"/>
	<path class="st0" d="M31.9,17.4l-0.3-0.2c-0.5-0.4-0.8-0.6-0.8-0.9c0-0.3,0.2-0.5,0.5-0.5c0.5,0,0.7,0.5,0.8,0.8l0,0.1h0.4v-1.2
		l-0.1,0c-0.4-0.1-0.8-0.2-1.3-0.2c-1,0-1.7,0.5-1.7,1.3c0,0.6,0.3,0.9,1,1.5c0.7,0.5,0.9,0.7,0.9,1.1c0,0.3-0.2,0.6-0.6,0.6
		c-0.5,0-0.9-0.4-0.9-0.9l0-0.1h-0.4v1.3l0.1,0c0.4,0.2,0.9,0.3,1.4,0.3c0.9,0,1.9-0.4,1.9-1.5C32.8,18.4,32.7,18,31.9,17.4"/>
	<path class="st0" d="M34.9,15.1c0.4,0,0.8-0.3,0.8-0.8c0-0.4-0.3-0.8-0.8-0.8c-0.4,0-0.8,0.3-0.8,0.8
		C34.1,14.7,34.5,15.1,34.9,15.1"/>
	<path class="st0" d="M35.7,19.6c0-0.2,0-0.3,0-0.5v-3.7l-0.1-0.1l-0.1,0c-0.5,0.3-1.3,0.4-1.8,0.4h-0.1v0.5h0.1
		c0.5,0,0.6,0.1,0.6,0.4v2.4c0,0.2,0,0.4,0,0.5c0,0.1-0.2,0.1-0.6,0.2l-0.1,0v0.5h2.8v-0.5l-0.1,0C35.9,19.7,35.7,19.7,35.7,19.6"/>
	<path class="st0" d="M42.3,19.5l0.1,0.5l-1.9,0.4l0-0.1c-0.1-0.2-0.1-0.4-0.2-0.6c-0.2,0.1-0.5,0.3-0.5,0.3l0,0
		c-0.3,0.2-0.5,0.3-0.8,0.3c-1.4,0-2.2-1.3-2.2-2.5c0-1.5,1-2.6,2.5-2.6c0.3,0,0.7,0,1,0.1v-0.9c0-0.4-0.1-0.5-0.3-0.5h-0.4v-0.5
		l0.1,0c0.8,0,1.4-0.1,1.9-0.3l0.1,0l0.1,0.1v5.5c0,0.4,0,0.6,0.2,0.7c0.1,0.1,0.2,0.1,0.3,0L42.3,19.5z M40.4,16.3
		c-0.2-0.4-0.5-0.6-0.9-0.6c-0.8,0-1.2,0.8-1.2,1.9c0,0.9,0.4,1.9,1.3,1.9c0.4,0,0.9-0.4,0.9-0.9V16.3z"/>
	<path class="st0" d="M46.7,19.1l0.3,0.5L47,19.6c0,0-0.9,0.7-1.7,0.7l-0.1,0c-0.4,0-0.9,0-1.6-0.7c-0.4-0.3-0.7-1.1-0.7-1.9
		c0-1.1,0.6-2.5,2.4-2.5c1.2,0,1.9,0.8,1.9,2v0.4h-2.8c0,0.5,0.2,1.8,1.4,1.8c0.5,0,0.8-0.2,1-0.3L46.7,19.1z M45.5,17.3
		c0.2,0,0.4-0.1,0.4-0.5c0-0.6-0.3-1-0.8-1c-0.5,0-1,0.4-1,1.5H45.5z"/>
	<path class="st0" d="M53,19.6c0-0.2,0-0.3,0-0.5v-2c0-0.7-0.1-1.7-1.4-1.7c-0.6,0-1.2,0.3-1.7,0.7v-0.6l-0.1-0.1l-0.1,0
		c-0.5,0.3-1.3,0.4-1.8,0.4h-0.1v0.5h0.1c0.5,0,0.6,0.1,0.6,0.4v2.4c0,0.2,0,0.4,0,0.5c0,0.1-0.2,0.1-0.6,0.2l-0.1,0v0.5h2.7v-0.5
		l-0.1,0c-0.3,0-0.5-0.1-0.5-0.2c0-0.2,0-0.3,0-0.5v-1.2c0-1.6,0.5-1.8,1-1.8c0.6,0,0.7,0.5,0.7,1.2v1.8c0,0.2,0,0.4,0,0.5
		c0,0.1-0.2,0.1-0.5,0.2l-0.1,0v0.5h2.7v-0.5l-0.1,0C53.2,19.7,53,19.7,53,19.6"/>
	<path class="st0" d="M57.9,19.1c-0.3,0.2-0.6,0.4-1.1,0.4c-1,0-1.4-1.1-1.4-2c0-1.1,0.5-1.7,1.1-1.7c0.2,0,0.5,0.1,0.6,0.4l0.5,0.6
		c0,0,0.1,0.1,0.3,0l0.3-0.2c0,0,0.1-0.1,0.1-0.3c0,0-0.3-0.7-0.3-0.7l0,0l0,0c-0.3-0.2-0.8-0.3-1.3-0.3c-1.5,0-2.6,1-2.6,2.5
		c0,0.7,0.3,1.5,0.7,1.9c0.7,0.7,1.2,0.7,1.8,0.7h0.1c0.8,0,1.6-0.8,1.7-0.8l0.1-0.1L58,19L57.9,19.1z"/>
	<path class="st0" d="M63.2,19.6L63.2,19.6c-0.1,0.1-0.9,0.8-1.8,0.8l-0.1,0c-0.4,0-0.9,0-1.6-0.7c-0.4-0.3-0.7-1.1-0.7-1.9
		c0-1.1,0.6-2.5,2.4-2.5c1.2,0,1.9,0.8,1.9,2v0.4h-2.8c0,0.5,0.2,1.8,1.4,1.8c0.5,0,0.8-0.2,1-0.3l0.2-0.1L63.2,19.6z M61.6,17.3
		c0.2,0,0.4-0.1,0.4-0.5c0-0.6-0.3-1-0.8-1c-0.5,0-1,0.4-1,1.5H61.6z"/>
	<path class="st0" d="M41.2,25.7c0-0.1,0-0.2,0-0.3v-1.2c0-0.4-0.1-1-0.8-1c-0.4,0-0.7,0.2-1,0.4v-0.4l-0.1-0.1l0,0
		c-0.3,0.2-0.8,0.2-1.1,0.2h-0.1v0.3h0.1c0.3,0,0.4,0,0.4,0.3v1.5c0,0.1,0,0.2,0,0.3c0,0-0.1,0.1-0.3,0.1l-0.1,0v0.3h1.6v-0.3
		l-0.1,0c-0.2,0-0.3-0.1-0.3-0.1c0-0.1,0-0.2,0-0.3v-0.7c0-0.9,0.3-1.1,0.6-1.1c0.3,0,0.4,0.3,0.4,0.7v1.1c0,0.1,0,0.2,0,0.3
		c0,0-0.1,0.1-0.3,0.1l-0.1,0v0.3h1.6v-0.3l-0.1,0C41.4,25.8,41.2,25.7,41.2,25.7"/>
	<path class="st0" d="M35.7,26.1v-0.3l0.1,0c0.3,0,0.4-0.1,0.4-0.1c0-0.1,0-0.2,0-0.3v-2.6c0-0.1,0-0.2,0-0.3c0-0.1-0.1-0.1-0.4-0.1
		l-0.1,0v-0.3h1.8v0.3l-0.1,0c-0.2,0-0.4,0-0.4,0.1c0,0.1,0,0.2,0,0.3v2.6c0,0.1,0,0.2,0,0.3c0,0,0.1,0.1,0.4,0.1l0.1,0v0.3H35.7z"
		/>
	<path class="st0" d="M42.2,23.7L42.2,23.7c0.4,0,0.4,0,0.4,0.3v1.5c0,0.1,0,0.2,0,0.3c0,0-0.1,0.1-0.3,0.1l-0.1,0v0.3h1.6v-0.3
		l-0.1,0c-0.2,0-0.3-0.1-0.3-0.1c0-0.1,0-0.2,0-0.3v-0.7c0-0.9,0.3-1.1,0.6-1.1c0.3,0,0.4,0.3,0.4,0.7v1.1c0,0.1,0,0.2,0,0.3
		c0,0-0.1,0.1-0.3,0.1l-0.1,0v0.3h1.6v-0.3l-0.1,0c-0.2,0-0.3-0.1-0.4-0.1c0-0.1,0-0.2,0-0.3v-1.2c0-0.4-0.1-1-0.8-1
		c-0.4,0-0.7,0.2-1,0.4v-0.4l-0.1-0.1l0,0c-0.3,0.2-0.8,0.2-1.1,0.2h-0.1V23.7z"/>
	<path class="st0" d="M47.3,24.7c-0.7,0-1.2-0.6-1.2-1.2c0-0.7,0.5-1.2,1.2-1.2c0.7,0,1.2,0.6,1.2,1.2C48.5,24.2,48,24.7,47.3,24.7
		 M47.3,22.3c-0.6,0-1.1,0.5-1.1,1.1c0,0.6,0.5,1.1,1.1,1.1c0.6,0,1.1-0.5,1.1-1.1C48.4,22.8,47.9,22.3,47.3,22.3 M47.7,24.1
		c0,0-0.1,0-0.1,0l-0.3-0.5h-0.1v0.5H47v-1.2h0.4c0.3,0,0.3,0.2,0.3,0.3c0,0.2-0.1,0.3-0.3,0.3L47.7,24.1c0.1,0,0.1,0,0.1,0H47.7z
		 M47.3,23h-0.2v0.4h0.2c0.2,0,0.3-0.1,0.3-0.2C47.5,23,47.4,23,47.3,23"/>
</g>
</svg>
