<?xml version="1.0" encoding="utf-8"?>
<!-- Generator: Adobe Illustrator 19.2.1, SVG Export Plug-In . SVG Version: 6.00 Build 0)  -->
<svg version="1.1" id="Layer_1" xmlns="http://www.w3.org/2000/svg" xmlns:xlink="http://www.w3.org/1999/xlink" x="0px" y="0px"
	 viewBox="0 0 80 40" style="enable-background:new 0 0 80 40;" xml:space="preserve">
<style type="text/css">
	.st0{fill:#FFFFFF;}
</style>
<g>
	<path class="st0" d="M58.6,18.9c0.6,0,0.7,0.2,0.9,0.6l0.5,0.9c0.2,0.4,0.5,0.6,0.9,0.6V21h-0.6c-0.3,0-0.8,0-1.1-0.3l-0.6-1
		c-0.2-0.3-0.3-0.6-1-0.6h-1.1v1.4c0,0.2,0.1,0.3,0.3,0.3H57V21h-1.7v-0.2h0.1c0.2,0,0.3-0.1,0.3-0.3v-3.7c0-0.2-0.1-0.3-0.3-0.3
		h-0.1v-0.2l2.8,0c1.6,0,2.1,0.7,2.1,1.3C60.1,18.3,59.6,18.8,58.6,18.9 M56.6,16.7v1.9l1.2,0c1,0,1.5-0.4,1.5-1c0-0.6-0.5-1-1.5-1
		H56.6z"/>
	<path class="st0" d="M65.5,16.8c0-0.2,0.1-0.3,0.3-0.3h0.1v-0.2h-1.7v0.2h0.1c0.2,0,0.3,0.1,0.3,0.3v3.7c0,0.2-0.1,0.3-0.3,0.3
		h-0.1V21h1.7v-0.2h-0.1c-0.2,0-0.3-0.1-0.3-0.3V16.8z"/>
	<path class="st0" d="M18.7,18.8c1,0,1.5,0.4,1.5,0.9c0,0.5-0.3,0.8-1.5,0.8H17v-1.7H18.7z M17,16.7h1.4c1,0,1.4,0.2,1.4,0.7
		c0,0.5-0.3,0.9-1.4,0.9H17L17,16.7z M16.1,20.5c0,0.2-0.1,0.3-0.3,0.3h-0.1V21H19c1.3,0,2.1-0.4,2.1-1.3c0-0.7-0.4-1.1-1.5-1.2
		c0.5-0.1,1-0.5,1-1c0-0.8-0.8-1.1-1.9-1.1l-3,0v0.2h0.1c0.2,0,0.3,0.1,0.3,0.3V20.5z"/>
	<path class="st0" d="M33.4,16.3v0.2h-0.1c-0.2,0-0.3,0.1-0.3,0.3v3.7h2.4c0.4,0,0.7-0.2,0.9-0.5l0.2,0.1l-0.5,1l-4.2,0v-0.2h0.1
		c0.2,0,0.3-0.1,0.3-0.3v-3.7c0-0.2-0.1-0.3-0.3-0.3h-0.1v-0.2H33.4z"/>
	<path class="st0" d="M29.1,16.3v0.2H29c-0.2,0-0.3,0.1-0.4,0.3L26.4,21h-0.7l-2.2-4.2c-0.1-0.2-0.1-0.3-0.4-0.3h-0.1v-0.2h1.7v0.2
		h-0.1c-0.2,0-0.3,0.2-0.2,0.4l1.8,3.4l1.7-3.4c0.1-0.2,0-0.4-0.2-0.4h-0.1v-0.2H29.1z"/>
	<path class="st0" d="M44.6,18.8V19h-0.2c-0.2,0-0.3,0.1-0.3,0.3l0,0.9c-0.3,0.5-1.2,1-2.7,1c-2,0-3.3-1.1-3.3-2.5
		c0-1.1,1.2-2.5,3.3-2.5c1.2,0,2,0.4,2.3,0.6c0,0,0.3,1,0.3,1s-0.2,0.1-0.2,0.1c0,0-0.5-1.3-2.2-1.3c-1.5,0-2.4,1.1-2.4,2.1
		c0,1.1,1,2.1,2.4,2.1c0.9,0,1.8-0.5,1.8-0.8l0-0.6c0-0.2-0.1-0.3-0.3-0.3h-0.2v-0.2H44.6z"/>
	<path class="st0" d="M52.7,20.8V21h-1.7v-0.2H51c0.2,0,0.3-0.2,0.2-0.4l-0.4-0.7h-2.8l-0.4,0.7c-0.1,0.2,0,0.4,0.2,0.4H48l0,0.2
		h-1.4v-0.2h0.1c0.2,0,0.3-0.1,0.3-0.2l2.3-4.3h0.6l2.2,4.2c0,0,0,0.1,0,0.1c0.1,0.2,0.2,0.2,0.3,0.2H52.7z M50.6,19.2L49.4,17l0,0
		l-1.1,2.2H50.6z"/>
	<polygon class="st0" points="21.4,24.8 21.1,24.8 21.1,24.1 20.2,24.1 20.2,24.8 20,24.8 20,23.2 20.2,23.2 20.2,23.9 21.1,23.9 
		21.1,23.2 21.4,23.2 	"/>
	<path class="st0" d="M23.1,24c0,0.4,0.3,0.8,0.9,0.8c0.5,0,0.9-0.4,0.9-0.8c0-0.5-0.3-0.8-0.9-0.8C23.4,23.2,23.1,23.6,23.1,24
		 M23.3,24c0-0.4,0.3-0.6,0.6-0.6c0.4,0,0.6,0.3,0.6,0.6c0,0.3-0.3,0.6-0.6,0.6C23.6,24.6,23.3,24.4,23.3,24"/>
	<polygon class="st0" points="27.6,23.4 27,23.4 27,24.8 26.8,24.8 26.8,23.4 26.2,23.4 26.2,23.2 27.6,23.2 	"/>
	<polygon class="st0" points="30.1,23.4 29.4,23.4 29.4,23.9 30.1,23.9 30.1,24.1 29.4,24.1 29.4,24.6 30.1,24.6 30.1,24.8 
		29.2,24.8 29.2,23.2 30.1,23.2 	"/>
	<polygon class="st0" points="32,24.6 32.7,24.6 32.7,24.8 31.8,24.8 31.8,23.2 32,23.2 	"/>
	<path class="st0" d="M35.1,23.6c-0.1-0.1-0.3-0.2-0.4-0.2c-0.1,0-0.3,0.1-0.3,0.2c0,0.3,0.7,0.3,0.7,0.8c0,0.3-0.2,0.4-0.4,0.4
		c-0.2,0-0.3,0-0.5-0.1v-0.3c0.1,0.2,0.3,0.2,0.4,0.2c0.2,0,0.3-0.1,0.3-0.2c0-0.3-0.7-0.4-0.7-0.8c0-0.3,0.2-0.4,0.5-0.4
		c0.1,0,0.2,0,0.4,0.1V23.6z"/>
	<path class="st0" d="M39.3,23.6c0-0.1,0.1-0.2,0.2-0.2c0.1,0,0.2,0.1,0.2,0.2c0,0.1,0,0.2-0.2,0.3C39.4,23.8,39.3,23.7,39.3,23.6
		 M40,24c0,0.1-0.1,0.2-0.2,0.3L39.6,24c0.2-0.1,0.3-0.3,0.3-0.4c0-0.2-0.2-0.3-0.4-0.3c-0.3,0-0.4,0.1-0.4,0.4
		c0,0.1,0.1,0.3,0.2,0.4c-0.2,0.1-0.4,0.3-0.4,0.5c0,0.2,0.2,0.4,0.4,0.4c0.1,0,0.3-0.1,0.5-0.2l0.2,0.2h0.3l-0.3-0.4
		c0.1-0.1,0.2-0.3,0.3-0.4H40z M39.6,24.4c-0.1,0.1-0.2,0.2-0.3,0.2c-0.1,0-0.2-0.1-0.2-0.2c0-0.1,0.1-0.2,0.3-0.3L39.6,24.4z"/>
	<path class="st0" d="M44,23.2v1.6h0.2v-0.7h0.1c0.1,0,0.2,0,0.4,0.4l0.2,0.3h0.3c-0.1-0.2-0.2-0.2-0.2-0.3
		c-0.1-0.2-0.2-0.3-0.4-0.4c0.2-0.1,0.3-0.2,0.3-0.4c0-0.3-0.2-0.5-0.5-0.5H44z M44.2,23.4h0.1c0.2,0,0.3,0.1,0.3,0.2
		c0,0.1-0.1,0.3-0.3,0.3h-0.1V23.4z"/>
	<polygon class="st0" points="47.7,23.4 47.1,23.4 47.1,23.9 47.7,23.9 47.7,24.1 47.1,24.1 47.1,24.6 47.8,24.6 47.8,24.8 
		46.8,24.8 46.8,23.2 47.7,23.2 	"/>
	<path class="st0" d="M50.2,23.6c-0.1-0.1-0.3-0.2-0.4-0.2c-0.2,0-0.3,0.1-0.3,0.2c0,0.3,0.7,0.3,0.7,0.8c0,0.3-0.2,0.4-0.5,0.4
		c-0.2,0-0.3,0-0.4-0.1v-0.3c0.1,0.2,0.3,0.2,0.4,0.2c0.2,0,0.3-0.1,0.3-0.2c0-0.3-0.7-0.4-0.7-0.8c0-0.3,0.2-0.4,0.5-0.4
		c0.1,0,0.2,0,0.4,0.1V23.6z"/>
	<path class="st0" d="M51.8,24c0,0.4,0.3,0.8,0.9,0.8c0.5,0,0.9-0.4,0.9-0.8c0-0.5-0.3-0.8-0.9-0.8C52.2,23.2,51.8,23.6,51.8,24
		 M52.1,24c0-0.4,0.3-0.6,0.6-0.6c0.4,0,0.6,0.3,0.6,0.6c0,0.3-0.3,0.6-0.6,0.6C52.4,24.6,52.1,24.4,52.1,24"/>
	<path class="st0" d="M55.3,23.2v1.6h0.2v-0.7h0.1c0.1,0,0.2,0,0.4,0.4l0.2,0.3h0.3c-0.1-0.2-0.2-0.2-0.2-0.3
		c-0.1-0.2-0.2-0.3-0.4-0.4c0.2-0.1,0.3-0.2,0.3-0.4c0-0.3-0.2-0.5-0.5-0.5H55.3z M55.5,23.4h0.2c0.2,0,0.3,0.1,0.3,0.2
		c0,0.1-0.1,0.3-0.3,0.3h-0.2V23.4z"/>
	<polygon class="st0" points="59.1,23.4 58.5,23.4 58.5,24.8 58.3,24.8 58.3,23.4 57.8,23.4 57.8,23.2 59.1,23.2 	"/>
	<path class="st0" d="M61.5,23.6c-0.1-0.1-0.3-0.2-0.4-0.2c-0.1,0-0.3,0.1-0.3,0.2c0,0.3,0.7,0.3,0.7,0.8c0,0.3-0.2,0.4-0.5,0.4
		c-0.2,0-0.3,0-0.5-0.1v-0.3c0.1,0.2,0.3,0.2,0.4,0.2c0.2,0,0.3-0.1,0.3-0.2c0-0.3-0.7-0.4-0.7-0.8c0-0.3,0.2-0.4,0.5-0.4
		c0.1,0,0.2,0,0.4,0.1V23.6z"/>
</g>
</svg>
