<?xml version="1.0" encoding="utf-8"?>
<!-- Generator: Adobe Illustrator 19.2.1, SVG Export Plug-In . SVG Version: 6.00 Build 0)  -->
<svg version="1.1" id="Layer_1" xmlns="http://www.w3.org/2000/svg" xmlns:xlink="http://www.w3.org/1999/xlink" x="0px" y="0px"
	 viewBox="0 0 80 40" style="enable-background:new 0 0 80 40;" xml:space="preserve">
<style type="text/css">
	.st0{fill:#FFFFFF;}
</style>
<g>
	<polygon class="st0" points="33.8,25.1 33.8,24.3 32.7,24.3 32.7,25.1 32.5,25.1 32.5,23.3 32.7,23.3 32.7,24.1 33.8,24.1 
		33.8,23.3 34,23.3 34,25.1 	"/>
	<path class="st0" d="M36.3,25.1c-0.3,0-0.5-0.1-0.7-0.3c-0.2-0.2-0.3-0.4-0.3-0.6c0-0.3,0.1-0.5,0.3-0.7c0.2-0.2,0.4-0.3,0.7-0.3
		c0.3,0,0.5,0.1,0.7,0.3c0.2,0.2,0.3,0.4,0.3,0.6c0,0.3-0.1,0.5-0.3,0.6C36.8,25,36.5,25.1,36.3,25.1 M36.3,23.5
		c-0.2,0-0.4,0.1-0.5,0.2c-0.1,0.1-0.2,0.3-0.2,0.5c0,0.2,0.1,0.4,0.2,0.5c0.1,0.1,0.3,0.2,0.5,0.2c0.2,0,0.4-0.1,0.5-0.2
		c0.1-0.1,0.2-0.3,0.2-0.5c0-0.2-0.1-0.4-0.2-0.5C36.7,23.6,36.5,23.5,36.3,23.5"/>
	<polygon class="st0" points="38.9,25.1 38.9,23.5 38.3,23.5 38.3,23.3 39.7,23.3 39.7,23.5 39.1,23.5 39.1,25.1 	"/>
	<polygon class="st0" points="41.1,25.1 41.1,23.3 42,23.3 42,23.5 41.3,23.5 41.3,24.1 42,24.1 42,24.3 41.3,24.3 41.3,24.9 
		42.1,24.9 42.1,25.1 	"/>
	<polygon class="st0" points="43.4,25.1 43.4,23.3 43.6,23.3 43.6,24.9 44.4,24.9 44.4,25.1 	"/>
	<path class="st0" d="M46.1,25.1c-0.2,0-0.3-0.1-0.5-0.2v-0.2c0.1,0.1,0.3,0.2,0.5,0.2c0.1,0,0.2,0,0.2-0.1c0.1,0,0.1-0.1,0.1-0.2
		c0-0.1-0.1-0.2-0.2-0.3l-0.2-0.1c-0.1-0.1-0.2-0.1-0.3-0.2c0-0.1-0.1-0.1-0.1-0.2c0-0.1,0-0.2,0.1-0.3c0.1-0.1,0.2-0.1,0.4-0.1
		c0.1,0,0.3,0,0.4,0.1v0.2c-0.1-0.1-0.3-0.2-0.4-0.2c-0.1,0-0.2,0-0.2,0.1c-0.1,0-0.1,0.1-0.1,0.2c0,0.1,0,0.1,0.1,0.2
		c0,0,0.1,0.1,0.2,0.2l0.2,0.1c0.2,0.1,0.3,0.3,0.3,0.5c0,0.1,0,0.2-0.1,0.3C46.3,25.1,46.2,25.1,46.1,25.1"/>
	<path class="st0" d="M57.3,13.3c0-0.5-0.3-0.6-0.7-0.6c-0.7,0-2.8,0.3-6.7,2.7c-2.5-1.7-4.4-2.1-7.1-2.1c-0.2,0-0.8,0.1-1,0.1
		c-0.2,0-0.4-0.1-0.7-0.1c-0.2,0-0.4,0.3-0.4,0.6c0,0.3,0.2,0.6,0.4,0.6c0,0,0.3,0.1,0.7,0.1c0.2,0,0.7-0.1,1-0.1c2.2,0,4,0.3,6,1.5
		c-2.2,1.2-3.5,2-5.8,2c-0.9,0-1.8-0.5-1.8-0.5c-0.1,0-0.1,0-0.2,0c-0.2,0-0.4,0.3-0.4,0.6c0,0.2,0.1,0.5,0.3,0.6
		c0,0,0.9,0.6,2.2,0.6c2.7,0,4.4-1,6.9-2.5c1.6,1.1,3.3,2.3,5.1,2.3c0.4,0,0.8,0,1.2-0.1c0.3,0,0.4-0.3,0.4-0.7
		c0-0.4-0.2-0.6-0.5-0.6c-0.4,0-0.7,0.1-1.1,0.1c-1.5,0-3-0.9-4.1-1.7c3.4-2,5.1-2.2,5.6-2.2c0.1,0,0.1,0,0.2,0
		C57.1,14,57.3,13.7,57.3,13.3"/>
	<path class="st0" d="M62.8,15.3c-0.1,0-0.2,0-0.3,0.1c0,0-0.3,0.1-1.1,0.7l0-0.3c0-0.8,0-1.9,0.1-2.4l0-0.1c0-0.4-0.3-0.6-0.6-0.6
		c-0.2,0-0.5,0.2-0.5,0.4c-0.2,0.6-0.3,2.3-1.5,2.4c-0.2,0-0.2-0.4-0.2-0.5c0-0.5,0.1-1.1,0.2-1.7c0-0.1,0-0.1,0-0.2
		c0-0.3-0.3-0.6-0.6-0.6c-0.3,0-0.5,0.2-0.5,0.5c-0.2,0.7-0.3,1.4-0.2,2.1c0.1,0.8,0.6,1.7,1.4,1.7c0.6,0,1.2-0.5,1.4-1.1
		c0,0.4,0,1.1,0,1.1c-2.5,1.8-6.4,3.8-6.2,7.6c0.1,2.4,1.9,4,4.1,3.9c2.7-0.1,4-3.2,3.9-5.8c-0.1-1.1-0.2-2.8-0.6-5.2
		c1.2-0.8,1.5-1.1,1.6-1.1c0.1-0.1,0.2-0.3,0.2-0.5C63.3,15.6,63.1,15.3,62.8,15.3 M58.2,27.2c-1.6,0.1-2.8-1-2.9-2.7
		c-0.2-3,3.3-4.9,5.3-6.3c0.3,2.5,0.4,3.8,0.5,4.6C61.1,24.7,60.2,27.1,58.2,27.2"/>
	<path class="st0" d="M39.7,14c-0.2,0-0.4,0-0.5,0.1c-0.1-0.3-0.3-0.6-0.6-0.6c-0.1,0-0.2,0-0.2,0c-1.1,0.5-2.3,1.7-2.3,3.2
		c0,1.1,0.7,1.9,1.7,1.9c1.3,0,3.1-1.8,3.1-3.3v-0.2C40.7,14.4,40.3,14,39.7,14 M37.5,17.5c-0.3,0-0.5-0.1-0.5-0.5
		c0-1,1-1.8,1.7-2.2c0.1,0.4,0.4,0.7,0.8,0.7c0.1,0,0.2,0,0.3-0.1C39.6,16.1,38.3,17.5,37.5,17.5"/>
	<path class="st0" d="M35.9,17.9c0-0.4-0.2-0.6-0.5-0.7c-1.8-0.2-1.3-4.2-3-4.2c-0.9,0-4,3.8-4.6,3.8c-0.8,0-1-4.1-2.5-4.1
		c-1,0-5.2,4.3-6.3,5.1c0,0-0.1,0.1-0.2,0.1l0.2-0.6c0.3-0.9,1.1-2.4,1.1-3.5c0-1.4-1.1-0.7-1.1,0.1c0,0.5-0.8,2.4-1,2.8
		c-0.1,0.4-0.4,1.1-0.4,1.5c0,0.7,0.5,1.1,1,1.1c0.2,0,0.5-0.1,0.9-0.4c0.9-0.7,5.1-4.9,5.8-5c0.5,0,0.9,4.1,2.5,4.1
		c1.2,0,3.8-3.6,4.6-3.8c0.5,0,0.7,4.1,3,4.2C35.7,18.6,35.9,18.3,35.9,17.9"/>
</g>
</svg>
