<?xml version="1.0" encoding="utf-8"?>
<!-- Generator: Adobe Illustrator 19.2.1, SVG Export Plug-In . SVG Version: 6.00 Build 0)  -->
<svg version="1.1" id="Layer_1" xmlns="http://www.w3.org/2000/svg" xmlns:xlink="http://www.w3.org/1999/xlink" x="0px" y="0px"
	 viewBox="0 0 80 40" style="enable-background:new 0 0 80 40;" xml:space="preserve">
<style type="text/css">
	.st0{fill:#FFFFFF;}
</style>
<g>
	<path class="st0" d="M33.2,15.9h-2.1c0.2,0.1,0.4,0.4,0.4,0.7c0,0.3-0.1,0.6-0.2,1l-1,2.9l-1.9-4.6h-1.7c0.5,0.4,0.7,1.1,0.3,1.9
		l-1.2,2.8L24,15.9H22c0.3,0.2,0.5,0.7,0.8,1.4l1.9,4.8c0.3,0.6,0.5,1,1.2,1.3l2-4.5l1.4,3.2c0.3,0.6,0.6,1,1.2,1.3L33.2,15.9z"/>
	<path class="st0" d="M37.6,22c-0.5,0.4-1,0.5-1.7,0.5c-0.4,0-0.7,0-1-0.1v-1.8h0.5c0.6,0,0.8,0,1,0.2v-1.1H35v-1.5c0,0,0.2,0,0.7,0
		c0.6,0,0.9,0.1,1.2,0.3v-1.1h-3.6c0.3,0.2,0.3,0.4,0.3,1.4v3.1c0,1,0,1.2-0.3,1.4h4L37.6,22z"/>
	<path class="st0" d="M42.3,21.5c0-1.8-2.7-1.7-2.7-2.7c0-0.3,0.3-0.6,0.8-0.6c0.5,0,1,0.2,1.5,0.7v-1.3c-0.5-0.1-0.9-0.2-1.4-0.2
		c-1.1,0-2.2,0.7-2.2,1.8c0,2,2.7,1.7,2.7,2.8c0,0.4-0.4,0.7-1,0.7c-0.7,0-1.4-0.3-2-0.9l0.4,1.4c0.6,0.2,1,0.3,1.5,0.3
		C41.2,23.4,42.3,22.6,42.3,21.5"/>
	<path class="st0" d="M47.5,17.4h-4.8l-0.3,1.1c0.4-0.2,0.7-0.3,1.3-0.3h0.6v3.7c0,1,0,1.2-0.3,1.4H46c-0.3-0.2-0.3-0.4-0.3-1.4
		v-3.7h0.5c0.5,0,0.9,0.1,1.1,0.3L47.5,17.4z"/>
	<path class="st0" d="M50.2,23.3c-0.3-0.2-0.3-0.4-0.3-1.4v-3.1c0-1,0-1.2,0.3-1.4h-2.1c0.3,0.2,0.3,0.4,0.3,1.4v3.1
		c0,1,0,1.2-0.3,1.4H50.2z"/>
	<path class="st0" d="M57.1,17.4h-1.9c0.4,0.2,0.4,0.6,0.4,1.3v2.4l-2.4-2.9c-0.2-0.3-0.4-0.5-0.6-0.7h-1.7c0.3,0.2,0.5,0.6,0.5,1.4
		V22c0,0.6,0,1.1-0.4,1.3h1.9c-0.4-0.2-0.4-0.6-0.4-1.3v-2.4l2.5,3c0.4,0.4,0.8,0.6,1.7,0.7v-4.6C56.7,18.1,56.7,17.6,57.1,17.4"/>
</g>
</svg>
