<?xml version="1.0" encoding="utf-8"?>
<!-- Generator: Adobe Illustrator 19.2.1, SVG Export Plug-In . SVG Version: 6.00 Build 0)  -->
<svg version="1.1" id="Layer_1" xmlns="http://www.w3.org/2000/svg" xmlns:xlink="http://www.w3.org/1999/xlink" x="0px" y="0px"
	 viewBox="0 0 80 40" style="enable-background:new 0 0 80 40;" xml:space="preserve">
<style type="text/css">
	.st0{fill:#FFFFFF;}
</style>
<g>
	<path class="st0" d="M45.9,23.8h-0.3l0.4-1.2l0.2-0.6l0.2,0.6l0.4,1.2H45.9z M46.5,21.4H46l-1.5,4H45l0.5-1.2h1.3h0.2l0.5,1.2H48
		L46.5,21.4z"/>
	<path class="st0" d="M54.7,25.1c-0.2,0-0.7-0.1-0.9-0.4c-0.1-0.3-0.2-0.7-0.2-1.3c0-0.6,0.1-1.1,0.2-1.3c0.2-0.3,0.4-0.4,0.9-0.4
		c0.3,0,0.7,0.2,0.9,0.3l0.2-0.3c0,0-0.5-0.4-1.2-0.4c-0.6,0-1,0.2-1.3,0.5c-0.3,0.3-0.4,0.9-0.4,1.6c0,0.7,0.1,1.2,0.3,1.6
		c0.3,0.4,0.8,0.5,1.3,0.5c0.6,0,1-0.3,1.2-0.4l-0.2-0.3C55.4,24.9,55.1,25.1,54.7,25.1 M36.5,25.4H37v-4h-0.5V25.4z M40,23.3
		c-0.4-0.2-0.7-0.2-1-0.3c-0.4-0.1-0.5-0.3-0.5-0.6c0-0.5,0.3-0.7,0.8-0.7c0,0,0.2,0,0.4,0.1c0.2,0.1,0.4,0.2,0.4,0.4l0.3-0.1
		c-0.1-0.4-0.4-0.6-0.7-0.6c-0.3-0.1-0.5-0.1-0.6-0.1c-0.7,0-1.3,0.4-1.3,1.1c0,0.4,0.2,0.7,0.5,0.9c0.4,0.2,0.7,0.2,1,0.3
		c0.4,0.1,0.5,0.4,0.5,0.7c0,0.3-0.1,0.4-0.3,0.6c-0.1,0.1-0.3,0.1-0.5,0.1c-0.5,0-0.8-0.3-0.9-0.5l-0.4,0.2
		c0.2,0.5,0.8,0.7,1.3,0.7c0.3,0,0.7-0.1,0.9-0.2c0.3-0.2,0.4-0.5,0.4-0.9C40.6,23.8,40.4,23.5,40,23.3 M43.4,23.3
		c-0.4-0.2-0.7-0.2-1-0.3c-0.4-0.1-0.5-0.3-0.5-0.6c0-0.5,0.3-0.7,0.8-0.7c0,0,0.2,0,0.4,0.1c0.2,0.1,0.4,0.2,0.4,0.4l0.3-0.1
		c-0.1-0.4-0.4-0.6-0.7-0.6c-0.3-0.1-0.5-0.1-0.6-0.1c-0.7,0-1.3,0.4-1.3,1.1c0,0.4,0.2,0.7,0.5,0.9c0.4,0.2,0.7,0.2,1,0.3
		c0.4,0.1,0.5,0.4,0.5,0.7c0,0.3-0.1,0.4-0.3,0.6C43,24.9,42.9,25,42.6,25c-0.5,0-0.8-0.3-0.9-0.5l-0.4,0.2c0.1,0.5,0.8,0.7,1.3,0.7
		c0.3,0,0.7-0.1,0.9-0.2c0.3-0.2,0.4-0.5,0.4-0.9C43.9,23.8,43.8,23.5,43.4,23.3 M51.5,24.1l0,0.6h0l-0.3-0.6l-1.8-2.7h-0.6v4h0.5
		l0-2.7l0-0.6h0l0.3,0.6l1.8,2.7H52v-4h-0.5L51.5,24.1z M57.3,25v-1.6l1.6,0.1v-0.4l-1.6,0.1v-1.4l2.1,0.1v-0.4h-2.6v4h2.6V25
		L57.3,25z M25.1,23.4l1.6,0.1v-0.4l-1.6,0.1v-1.4l2.1,0.1v-0.4h-2.6v4h2.6V25L25.1,25V23.4z M33.7,23.8h-0.3l0.4-1.2l0.2-0.6
		l0.2,0.6l0.4,1.2H33.7z M33.7,21.4l-1.5,4l0.5,0l0.5-1.2h1.3h0.2l0.5,1.2h0.5l-1.5-4H33.7z M22.1,23.2L21,23.2v-1.5l1.2,0
		c0.2,0,0.4,0.1,0.5,0.2c0.1,0.1,0.2,0.3,0.2,0.5c0,0.2-0.1,0.4-0.2,0.5C22.5,23.1,22.3,23.2,22.1,23.2 M22.9,24.2
		c-0.1-0.3-0.2-0.5-0.4-0.7c0.2-0.1,0.4-0.2,0.6-0.4c0.2-0.2,0.3-0.5,0.3-0.7c0-0.3-0.1-0.5-0.3-0.7c-0.2-0.2-0.5-0.3-0.9-0.3h-1.8
		v4H21v-1.8h0.7l0.2,0c0.2,0,0.3,0.1,0.4,0.3c0.1,0.2,0.2,0.4,0.3,0.8c0.1,0.3,0.4,0.7,0.9,0.9l0.2-0.4C23.1,24.9,23,24.5,22.9,24.2
		 M30.9,24.1l0,0.6h0l-0.3-0.6l-1.8-2.7h-0.6v4h0.5l0-2.7l0-0.6h0l0.3,0.6l1.8,2.7h0.6v-4h-0.5L30.9,24.1z"/>
	<path class="st0" d="M60.7,21.7h-0.1v0.2h0.1c0.1,0,0.1-0.1,0.1-0.1C60.8,21.8,60.7,21.7,60.7,21.7 M60.8,22.3L60.6,22h-0.1v0.3
		h-0.1v-0.7h0.2c0.1,0,0.2,0.1,0.2,0.2c0,0.1-0.1,0.2-0.1,0.2l0.2,0.3H60.8z M60.7,21.4c-0.3,0-0.5,0.2-0.5,0.5
		c0,0.3,0.2,0.5,0.5,0.5c0.3,0,0.5-0.2,0.5-0.5C61.2,21.7,60.9,21.4,60.7,21.4 M60.7,22.6c-0.3,0-0.6-0.3-0.6-0.6
		c0-0.3,0.3-0.6,0.6-0.6c0.3,0,0.6,0.3,0.6,0.6C61.3,22.3,61,22.6,60.7,22.6"/>
	<path class="st0" d="M45.9,17.7c0,0-0.1,0-0.2,0c-1,0.3-1.5,0.3-1.9,0.1c-0.9-0.4-1.2-1-1.4-1.5c-0.3-0.5-0.4-1.1-1.2-1.7
		c-0.4-0.3-0.9-0.4-1.1-0.6c0.5-0.1,0.9-0.2,1.2-0.4c0.3-0.1,0.4-0.3,0.6-0.5c0.2-0.2,0.4-0.6,0.5-0.9c0.2-0.7,0.1-1,0.1-1.3
		c-0.1-0.5-0.2-0.8-0.5-1c-0.4-0.6-1.2-0.8-1.6-0.9C39.6,9,39.5,9,38.7,9c-0.7,0-0.8,0-1.9,0c-0.3,0-0.8,0-1.1,0.1
		c-0.1,0-0.1,0.2,0,0.2c0.5,0.2,0.7-0.2,0.8,0.3c0.1,0.9,0.1,0.9,0.1,2c0,1,0,1,0,2c0,1,0,1,0,2c0,0.2,0.1,1.6-0.1,1.9
		c0,0.1-0.1,0.1-0.1,0.2v0c0,0.1-0.1,0.1-0.3,0.2c0,0,0,0,0,0l0,0c-0.2,0-0.3,0-0.3,0c-0.1,0-0.2,0.1-0.2,0.1c0,0.2,0,0.2,0.2,0.2
		c0.2,0,0.8,0,1.7,0c0.6,0,0.7,0,1,0c0.1,0,0.2,0,0.2,0c0.1,0,0.3,0,0.4,0c0.1,0,0.1-0.1,0.1-0.2c0,0,0-0.1,0-0.1
		c0,0-0.1-0.1-0.4-0.1c-0.1,0-0.1,0-0.2,0c-0.2,0-0.3-0.1-0.3-0.1c0,0-0.1-0.1-0.2-0.2C38,17.4,38.1,17,38.1,16c0-0.9-0.1-0.8,0-1.8
		c0-0.4,0.9-0.3,1.1-0.3c0.4,0,0.8,0.3,1.2,1.1c0.2,0.5,0.5,1.2,0.9,1.8c0.4,0.5,0.7,1,1.4,1.3c0.5,0.2,1.3,0.2,2.1,0
		c0.7-0.2,1-0.4,1-0.5C45.9,17.8,45.9,17.7,45.9,17.7 M39.4,13.7c-0.4,0-0.5,0-0.8,0c-0.2,0-0.4-0.1-0.4-0.3c0-0.6,0-0.7,0-1.8
		c0-1,0-1.1,0-1.9c0-0.2,0.2-0.3,0.4-0.3c0.3,0,0.3,0,0.6,0c0.3,0,0.6,0,1,0.2c0.2,0.1,0.4,0.3,0.6,0.4c0.3,0.3,0.5,0.8,0.5,1.5
		c0,0.4,0,0.5-0.1,0.8c-0.1,0.3-0.2,0.5-0.4,0.7c-0.2,0.2-0.4,0.3-0.6,0.5C39.9,13.6,39.7,13.7,39.4,13.7"/>
	<polygon class="st0" points="35.5,30.3 35.1,30.3 35.1,29 33.8,29 33.8,30.3 33.4,30.3 33.4,27.6 33.8,27.6 33.8,28.7 35.1,28.7 
		35.1,27.6 35.5,27.6 	"/>
	<path class="st0" d="M38.1,28.9c0-0.4,0-0.6-0.1-0.8c-0.1-0.2-0.3-0.4-0.6-0.4c-0.3,0-0.5,0.1-0.7,0.3c-0.1,0.2-0.1,0.4-0.1,0.8
		c0,0.4,0,0.6,0.1,0.8c0.1,0.2,0.3,0.4,0.7,0.4c0.3,0,0.5-0.1,0.6-0.4C38.1,29.6,38.1,29.3,38.1,28.9 M38.5,28.9
		c0,0.4-0.1,0.7-0.2,0.9c-0.2,0.3-0.5,0.5-0.9,0.5c-0.5,0-0.8-0.2-0.9-0.5c-0.1-0.2-0.2-0.5-0.2-0.9c0-0.4,0.1-0.7,0.2-0.9
		c0.2-0.3,0.5-0.5,0.9-0.5c0.5,0,0.8,0.2,0.9,0.5C38.4,28.2,38.5,28.5,38.5,28.9"/>
	<polygon class="st0" points="40.9,27.9 40.1,27.8 40.1,30.3 39.7,30.3 39.7,27.8 39,27.9 39,27.6 40.9,27.6 	"/>
	<polygon class="st0" points="45.9,30.3 44.2,30.3 44.2,27.6 44.6,27.6 44.6,30.1 45.9,30 	"/>
	<polygon class="st0" points="42,30.1 42,29 43.1,29 43.1,28.8 42,28.8 42,27.8 43.4,27.9 43.4,27.6 41.7,27.6 41.7,30.3 43.5,30.3 
		43.5,30 	"/>
	<path class="st0" d="M47.8,28.9c-0.2-0.1-0.5-0.1-0.7-0.2c-0.2-0.1-0.4-0.2-0.4-0.4c0-0.3,0.2-0.5,0.5-0.5c0,0,0.2,0,0.3,0
		c0.1,0,0.3,0.1,0.3,0.3l0.2-0.1c-0.1-0.3-0.3-0.4-0.5-0.4c-0.2-0.1-0.3-0.1-0.4-0.1c-0.5,0-0.9,0.3-0.9,0.7c0,0.3,0.1,0.5,0.4,0.6
		c0.2,0.1,0.4,0.1,0.7,0.2c0.2,0.1,0.4,0.2,0.4,0.5c0,0.2-0.1,0.3-0.2,0.4c-0.1,0-0.2,0.1-0.4,0.1c-0.4,0-0.6-0.2-0.6-0.3l-0.3,0.1
		c0.1,0.3,0.5,0.5,0.9,0.5c0.2,0,0.5-0.1,0.6-0.2c0.2-0.1,0.3-0.3,0.3-0.6C48.1,29.3,48,29.1,47.8,28.9"/>
</g>
</svg>
