<?xml version="1.0" encoding="utf-8"?>
<!-- Generator: Adobe Illustrator 19.2.1, SVG Export Plug-In . SVG Version: 6.00 Build 0)  -->
<svg version="1.1" id="Layer_1" xmlns="http://www.w3.org/2000/svg" xmlns:xlink="http://www.w3.org/1999/xlink" x="0px" y="0px"
	 viewBox="0 0 80 40" style="enable-background:new 0 0 80 40;" xml:space="preserve">
<style type="text/css">
	.st0{fill:#FFFFFF;}
</style>
<g>
	<path class="st0" d="M35.9,17.6c0,0.7-0.5,1.2-1.3,1.2c-0.2,0-0.5,0-0.6-0.1c0,0,0-0.1,0-0.2v-1.5c0-0.2,0-0.3,0.1-0.4
		c0.1-0.1,0.3-0.1,0.6-0.1C35.5,16.4,35.9,16.9,35.9,17.6 M38.7,22.9c0.1-0.1,0.1-0.3,0-0.3c-0.4,0-0.7-0.1-0.9-0.2
		c-0.3-0.2-0.4-0.5-0.6-0.8c-0.1-0.3-0.2-0.6-0.4-1.1c-0.2-0.5-0.5-1.1-1.1-1.4c0.8-0.1,1.4-0.8,1.4-1.5c0-1-0.8-1.5-2-1.5
		c-0.6,0-0.9,0-1.5,0c-0.5,0-0.6,0-1,0c-0.1,0-0.2,0-0.2,0.1c0,0.1,0.1,0.1,0.1,0.2c0.1,0,0.2,0.1,0.3,0.1c0.1,0.1,0.2,0.3,0.2,0.6
		v3.6c0,0.3,0,0.5-0.1,0.6c-0.1,0.1-0.2,0.2-0.3,0.2c-0.1,0-0.2,0.1-0.2,0.2c0,0.1,0.1,0.2,0.3,0.2c0.3,0,0.5,0,0.9,0
		c0.4,0,0.8,0,1,0c0.2,0,0.3-0.1,0.3-0.2c0-0.1-0.1-0.1-0.2-0.2c-0.1,0-0.1,0-0.2,0c-0.1,0-0.1,0-0.2,0c-0.2-0.1-0.3-0.2-0.3-0.6
		v-1.5c0-0.2,0-0.2,0.1-0.3c0.1,0,0.3,0,0.4,0c0.7,0,0.9,0.3,1.2,1.3c0.4,1.2,1,2.4,2.4,2.4c0.2,0,0.3,0,0.4,0
		C38.5,22.9,38.6,22.9,38.7,22.9 M26,19.4c0,0-0.1,0-0.2,0h-1.1c-0.2,0-0.2,0-0.3-0.1c0,0,0-0.1,0-0.1l0.7-1.6
		c0-0.1,0.1-0.1,0.1-0.1c0,0,0,0,0.1,0.1l0.7,1.5C26,19.3,26,19.4,26,19.4 M28.5,21.8c0-0.1,0-0.1-0.1-0.1c-0.1,0-0.1,0-0.2-0.1
		c-0.1-0.1-0.2-0.2-0.3-0.4l-2.2-4.9c-0.1-0.2-0.1-0.3-0.2-0.3c-0.1,0-0.1,0-0.1,0.1c0,0.1-0.1,0.1-0.1,0.2l-2.3,5
		c-0.1,0.2-0.2,0.3-0.4,0.4c0,0-0.1,0-0.1,0c-0.1,0-0.1,0.1-0.1,0.2c0,0.1,0,0.1,0.1,0.1c0.1,0,0.1,0,0.2,0c0.2,0,0.4,0,0.7,0
		c0.3,0,0.5,0,0.8,0c0.1,0,0.2,0,0.3,0c0.1,0,0.2,0,0.2-0.1c0-0.1-0.1-0.1-0.1-0.1c-0.1,0-0.2-0.1-0.3-0.1c-0.3-0.1-0.5-0.2-0.5-0.5
		c0-0.1,0-0.2,0.1-0.4c0.1-0.2,0.2-0.5,0.3-0.6c0.1-0.2,0.2-0.2,0.3-0.2h1.7c0.2,0,0.3,0.1,0.4,0.4c0.2,0.5,0.3,0.7,0.3,0.9
		c0,0.2-0.1,0.3-0.2,0.4c0,0-0.1,0-0.1,0c-0.1,0-0.2,0.1-0.2,0.2c0,0.1,0,0.1,0.1,0.1c0.1,0,0.1,0,0.2,0c0.2,0,0.4,0,0.8,0
		c0.6,0,0.7,0,1,0c0,0,0.1,0,0.1,0C28.5,21.9,28.5,21.9,28.5,21.8 M61.5,19.1c0,1.6-0.7,2.4-1.9,2.4c-0.5,0-0.7-0.2-0.7-0.5v-3.9
		c0-0.2,0-0.3,0-0.4c0-0.1,0-0.1,0.1-0.2c0-0.1,0.1-0.1,0.2-0.1c0.1,0,0.2,0,0.2,0C60.8,16.5,61.5,17.8,61.5,19.1 M62.6,18.8
		c0-2.5-2-2.7-3.3-2.7c-0.4,0-0.8,0-1.2,0c-0.3,0-0.6,0-0.7,0c-0.1,0-0.2,0.1-0.2,0.2c0,0.2,0.1,0.2,0.3,0.3
		c0.1,0.1,0.3,0.2,0.3,0.6v3.9c0,0.5-0.1,0.6-0.3,0.7c0,0-0.1,0-0.1,0c-0.1,0-0.2,0-0.2,0.2c0,0.1,0.1,0.1,0.2,0.1
		c0.5,0,0.6,0,0.9,0c0.3,0,0.6,0,1.5,0C60.7,22,62.6,21.2,62.6,18.8 M31.4,21.8c0-0.1-0.1-0.1-0.1-0.1c-0.1,0-0.2,0-0.3-0.1
		c-0.2-0.1-0.4-0.2-0.4-0.7V17c0-0.3,0.1-0.4,0.2-0.5c0.1-0.1,0.2-0.1,0.4-0.1c0.1,0,0.2,0,0.2-0.2c0-0.1-0.1-0.2-0.3-0.2
		c-0.3,0-0.6,0-1,0c-0.4,0-0.7,0-0.9,0c-0.2,0-0.3,0-0.3,0.1c0,0.1,0.1,0.1,0.1,0.2c0.1,0,0.2,0.1,0.3,0.1c0.1,0.1,0.2,0.2,0.2,0.5
		v4c0,0.3,0,0.5-0.1,0.6c-0.1,0.1-0.1,0.1-0.2,0.1c-0.1,0-0.1,0.1-0.1,0.2c0,0.1,0.1,0.1,0.1,0.1c0.3,0,0.4,0,0.8,0c0.7,0,0.7,0,1,0
		C31.4,21.9,31.4,21.9,31.4,21.8 M42.8,17.1c0,0,0-0.1,0-0.8c0-0.1-0.1-0.2-0.2-0.2c-0.7,0-1.3,0-1.9,0c-1.3,0-1.5,0-1.8,0
		c-0.1,0-0.2,0.1-0.2,0.2c0,0.2,0.1,0.2,0.3,0.3c0.1,0.1,0.3,0.2,0.3,0.6V21c0,0.3-0.1,0.4-0.2,0.5c-0.1,0.1-0.2,0.1-0.3,0.1
		c-0.1,0-0.1,0.1-0.1,0.2c0,0.1,0.1,0.1,0.1,0.1c0.3,0,0.6,0,0.9,0c0.7,0,1,0,1.3,0c0.2,0,0.3,0,0.3-0.2c0-0.1,0-0.1-0.1-0.1
		c-0.1,0-0.2,0-0.3,0c-0.3-0.1-0.6-0.2-0.6-0.8v-1.3c0-0.1,0-0.2,0-0.2c0-0.1,0-0.1,0-0.1c0-0.1,0.1-0.1,0.3-0.1h0.6
		c0.9,0,0.6,0.9,0.9,0.9c0.1,0,0.1,0,0.1-0.1c0,0,0-0.1,0-0.1c0,0,0-0.1,0-0.2c0-0.1,0-0.4,0-0.6c0-0.3,0-0.7,0-0.8
		c0-0.2-0.1-0.2-0.1-0.2c-0.2,0-0.2,0.8-1,0.8h-0.5c-0.2,0-0.3,0-0.3-0.1c-0.1-0.1-0.1-0.2-0.1-0.3v-1.2c0-0.1,0-0.2,0-0.3
		c0-0.1,0-0.1,0.1-0.2c0.1-0.1,0.4-0.1,1-0.1c0.5,0,0.8,0.1,1,0.3c0.1,0.1,0.1,0.2,0.1,0.3c0,0.2,0.1,0.3,0.2,0.3
		C42.8,17.5,42.8,17.4,42.8,17.1 M46.1,21.8c0-0.1-0.1-0.1-0.1-0.1c-0.1,0-0.2,0-0.3-0.1c-0.2-0.1-0.4-0.2-0.4-0.7V17
		c0-0.3,0.1-0.4,0.2-0.5c0.1-0.1,0.2-0.1,0.4-0.1c0.1,0,0.2,0,0.2-0.2c0-0.1-0.1-0.2-0.3-0.2c-0.4,0-0.6,0-1,0c-0.4,0-0.7,0-0.9,0
		c-0.2,0-0.3,0-0.3,0.1c0,0.1,0.1,0.1,0.1,0.2c0.1,0,0.2,0.1,0.3,0.1c0.1,0.1,0.2,0.2,0.2,0.5v4c0,0.3-0.1,0.4-0.2,0.5
		c-0.1,0.1-0.2,0.1-0.3,0.1c-0.1,0-0.1,0.1-0.1,0.2c0,0.1,0.1,0.1,0.1,0.1c0.3,0,0.6,0,1,0c0.7,0,0.7,0,1,0
		C46,21.9,46.1,21.9,46.1,21.8 M51.8,20.6c0-0.2-0.1-0.2-0.1-0.2c-0.1,0-0.2,0.1-0.2,0.2c-0.1,0.2-0.2,0.3-0.4,0.4
		c-0.3,0.2-0.8,0.4-1.7,0.4c-0.2,0-0.4,0-0.5-0.1c-0.1-0.1-0.1-0.2-0.1-0.3c0-0.1,0-0.2,0-0.4v-1.2c0-0.1,0-0.2,0-0.2
		c0-0.1,0-0.1,0-0.1c0-0.1,0.1-0.1,0.3-0.1h0.6c0.9,0,0.6,0.9,0.9,0.9c0.1,0,0.1,0,0.1-0.1c0,0,0-0.1,0-0.1c0,0,0-0.1,0-0.2
		c0-0.1,0-0.4,0-0.6c0-0.3,0-0.7,0-0.8c0-0.2-0.1-0.2-0.1-0.2c-0.2,0-0.2,0.8-1,0.8h-0.5c-0.2,0-0.3,0-0.3-0.1
		c-0.1-0.1-0.1-0.2-0.1-0.3v-1.2c0-0.1,0-0.2,0-0.3c0-0.1,0-0.1,0.1-0.2c0.1-0.1,0.4-0.1,1-0.1c0.5,0,0.9,0.1,1,0.3
		C51,16.9,51,17,51,17.1c0,0.2,0.1,0.3,0.2,0.3c0.1,0,0.2-0.1,0.2-0.4c0,0,0-0.1,0-0.8c0-0.1-0.1-0.2-0.2-0.2c-0.7,0-1.3,0-1.9,0
		c-1.3,0-1.5,0-1.8,0c-0.1,0-0.2,0.1-0.2,0.2c0,0.2,0.1,0.2,0.3,0.3c0.1,0.1,0.3,0.2,0.3,0.6v3.9c0,0.5-0.1,0.6-0.3,0.7
		c0,0-0.1,0-0.1,0c-0.1,0-0.2,0-0.2,0.2c0,0.1,0.1,0.1,0.2,0.1c0.5,0,0.7,0,1,0c0.4,0,0.9,0,2.2,0C51.3,21.9,51.8,21.3,51.8,20.6
		 M56.8,20.6c0-0.2-0.1-0.2-0.1-0.2c-0.1,0-0.2,0.1-0.3,0.3c-0.1,0.2-0.3,0.4-0.5,0.5c-0.3,0.2-0.6,0.2-1.1,0.2
		c-0.4,0-0.5-0.1-0.5-0.6V17c0-0.3,0.1-0.4,0.2-0.5c0.1-0.1,0.2-0.1,0.4-0.1c0.1,0,0.2,0,0.2-0.1c0-0.1-0.1-0.2-0.3-0.2
		c-0.4,0-0.6,0-1,0c-0.4,0-0.7,0-0.9,0c-0.1,0-0.3,0-0.3,0.1c0,0.1,0.1,0.1,0.1,0.2c0.1,0,0.2,0.1,0.3,0.1c0.1,0.1,0.2,0.2,0.2,0.5
		v4c0,0.3-0.1,0.4-0.2,0.5c-0.1,0.1-0.2,0.1-0.3,0.1c-0.1,0-0.1,0.1-0.1,0.2c0,0.1,0.1,0.1,0.1,0.1c0.3,0,0.6,0,1,0
		c0.6,0,1.4,0,1.9,0C56.4,21.9,56.8,21.4,56.8,20.6 M20.5,17.3c-0.3,0-0.4,0-0.5-0.1c-0.1-0.1-0.1-0.3-0.1-0.5V15
		c0-0.4,0-0.6,0.2-0.7c0.2-0.2,0.6-0.2,1.4-0.2c1.4,0,1.7,0.4,1.8,1.1c0,0.2,0.1,0.3,0.2,0.3c0.2,0,0.2-0.2,0.2-0.5l-0.1-1.2
		c0-0.1-0.1-0.2-0.2-0.2c0,0-1.5,0-1.5,0l-1.2,0c-1.2,0-1.8,0-2.2,0l-0.6,0c-0.1,0-0.2,0.1-0.2,0.2c0,0.1,0.1,0.2,0.3,0.3
		c0.3,0.1,0.7,0.2,0.7,0.9v5.6c0,0.9-0.2,1-0.5,1.1c-0.1,0-0.2,0.1-0.2,0.2c0,0.1,0.1,0.1,0.2,0.1c0.3,0,0.9,0,1.3,0
		c0.4,0,1.1,0,1.5,0c0.2,0,0.4,0,0.4-0.2c0-0.1-0.1-0.1-0.3-0.2c-0.6-0.1-1.1-0.3-1.1-1.1v-1.9c0-0.3,0-0.5,0.1-0.6
		c0.1-0.1,0.2-0.1,0.5-0.1h0.5c0.7,0,1,0.3,1,0.8c0,0.2,0.1,0.3,0.2,0.3c0.1,0,0.2-0.1,0.2-0.3c0-0.2,0-0.5,0-0.9c0-0.4,0-0.8,0-1.1
		c0-0.3-0.1-0.3-0.2-0.3c-0.1,0-0.2,0.1-0.2,0.3c-0.1,0.4-0.5,0.8-1.1,0.8L20.5,17.3z M36.4,26.8c0.1,0,0.2,0,0.3,0
		c0,0-0.1-0.1-0.1-0.1c-0.4-0.3-0.9-0.7-1.1-1.2c0,0,0,0,0,0c-0.1,0-0.2,0.1-0.2,0.3C35.3,26.3,35.7,26.8,36.4,26.8 M38.4,26.8
		c0.2,0,0.2,0.1,0.2,0.2c0,0.2-0.3,0.4-0.7,0.4c-0.3,0-0.6-0.1-0.7-0.3c-0.3,0.2-0.8,0.3-1.1,0.3c-1.1,0-1.5-0.8-1.5-1.2
		c0-0.7,0.5-1,0.7-1.1c0-0.1-0.1-0.2-0.1-0.4c0-0.5,0.4-0.8,0.9-0.8c0.2,0,0.4,0.1,0.6,0.1c0,0,0,0,0.1,0c0,0,0.2-0.1,0.2-0.1
		c0.1,0,0.2,0,0.2,0.2c0,0.2,0,0.3,0,0.5c0,0,0,0.2,0,0.2c-0.1,0-0.2,0.1-0.2,0.1c-0.2,0-0.2-0.1-0.2-0.2c-0.1-0.2-0.1-0.5-0.6-0.5
		c-0.1,0-0.2,0-0.2,0.2c-0.1,0.8,1,1.5,1.4,1.7c0-0.1,0.1-0.1,0.1-0.3c0-0.2-0.1-0.3-0.2-0.3c-0.1,0-0.2,0-0.2-0.2
		c0-0.1,0-0.2,0.2-0.2l0.1,0l0.4,0l0.3,0l0.1,0c0.2,0,0.2,0.1,0.2,0.2c0,0.1-0.1,0.2-0.1,0.2c0,0,0,0,0,0c-0.1,0.5-0.2,0.8-0.3,0.9
		c0.1,0.1,0.4,0.3,0.4,0.3C38.2,26.8,38.3,26.8,38.4,26.8L38.4,26.8z M53.6,23.9l-0.4,0l-0.9,0l-0.2,0c-0.1,0-0.2,0.1-0.2,0.2
		c0,0.2,0.2,0.2,0.3,0.2c0.2,0,0.2,0.1,0.2,0.2v2.2c0,0.2-0.1,0.2-0.1,0.3c-0.1,0-0.2,0-0.2,0.2c0,0.1,0.1,0.2,0.2,0.2l0.3,0l0.2,0
		l0.3,0l0.9,0c0.5,0,0.8-0.4,0.8-0.8c0-0.2-0.1-0.2-0.2-0.2c-0.1,0-0.2,0.1-0.2,0.2c-0.1,0.2-0.3,0.3-1,0.3c-0.1,0-0.1,0-0.1,0
		c0,0,0-0.1,0-0.2v-0.8c0,0,0-0.1,0-0.1h0h0.4c0.2,0,0.2,0,0.3,0.2c0,0.1,0.1,0.1,0.2,0.1c0,0,0.1,0,0.1,0c0.1,0,0.1-0.2,0.1-0.2
		l0,0c0,0,0-0.6,0-0.6c0-0.2-0.1-0.2-0.2-0.2c-0.1,0-0.2,0.1-0.2,0.2c-0.1,0.1-0.1,0.1-0.3,0.1H53c0,0,0,0,0,0c0,0,0-0.1,0-0.1v-0.8
		c0,0,0-0.1,0-0.1c0,0,0.3,0,0.5,0c0.4,0,0.4,0.1,0.5,0.3c0,0.1,0.1,0.2,0.2,0.2c0,0,0.1,0,0.2,0c0.1,0,0.1-0.1,0.1-0.2
		c0,0,0-0.1,0-0.1l0,0c0,0,0-0.3,0-0.3c0-0.1-0.1-0.2-0.2-0.2L53.6,23.9z M50.6,23.9l-0.8,0l-0.8,0l-0.5,0c-0.1,0-0.2,0-0.2,0.2
		c0,0-0.1,0.5-0.1,0.5c0,0,0,0,0,0c0,0.1,0,0.1,0,0.1c0,0,0.1,0.1,0.2,0.1c0.2,0,0.2-0.1,0.3-0.2c0.1-0.2,0.1-0.3,0.3-0.3h0.4
		c0,0,0.1,0,0.1,0c0,0,0,0,0,0.1v2.2c0,0.2-0.1,0.3-0.2,0.3c-0.1,0-0.3,0-0.3,0.2l0.1,0.1c0.1,0.1,0.2,0.1,0.2,0.1c0,0,0.2,0,0.2,0
		l0.3,0l0.3,0l0.2,0h0c0.1,0,0.2,0,0.3-0.1l0-0.1c0-0.2-0.1-0.2-0.2-0.2c-0.2,0-0.3-0.1-0.3-0.4v-2.2c0,0,0-0.1,0-0.1
		c0,0,0.1,0,0.1,0h0.4c0.2,0,0.3,0.1,0.3,0.2c0,0.1,0.1,0.2,0.3,0.2c0.1,0,0.1,0,0.2-0.1c0,0,0.1-0.1,0.1-0.1c0-0.1,0-0.1,0-0.1l0,0
		l0-0.3c0-0.2-0.2-0.2-0.2-0.2L50.6,23.9z M44.5,24l-0.1,0.1c0,0.2,0.2,0.2,0.3,0.2c0.2,0,0.3,0.1,0.3,0.3v0.9
		c0,0.8-0.2,1.4-0.9,1.4c-0.6,0-0.8-0.4-0.8-1.1v-1c0-0.4,0.1-0.5,0.2-0.5c0.1,0,0.2,0,0.2-0.2c0-0.1-0.1-0.2-0.2-0.2l-0.2,0l-0.4,0
		l-0.4,0l-0.1,0c-0.1,0-0.2,0-0.2,0.2c0,0.2,0.2,0.2,0.3,0.2c0.2,0,0.2,0.1,0.2,0.2V26c0,0.9,0.6,1.4,1.4,1.4c1.5,0,1.5-1,1.5-1.8
		v-1.1c0-0.2,0.1-0.2,0.1-0.3c0,0,0.2,0,0.2-0.1c0,0,0-0.2-0.2-0.2c0,0-0.2,0-0.2,0l-0.3,0l-0.4,0C44.7,23.9,44.6,23.9,44.5,24
		 M56.1,23.9c-0.6,0-1,0.4-1,1c0,0.6,0.4,0.7,0.7,0.9c0,0,0.3,0.1,0.3,0.1c0.5,0.2,0.6,0.4,0.6,0.6c0,0.3-0.3,0.4-0.5,0.4
		c-0.4,0-0.7-0.3-0.8-0.7c0-0.1-0.1-0.2-0.2-0.2c-0.1,0-0.1,0-0.2,0.1c-0.1,0.1,0,0.2,0,0.3l0.1,0.5c0,0,0,0,0,0
		c0,0.1,0.1,0.2,0.2,0.3c0,0,0.2,0.1,0.2,0.1c0.2,0.1,0.3,0.1,0.6,0.1c0.7,0,1.2-0.5,1.2-1.1c0-0.7-0.4-0.8-0.9-1l-0.2-0.1
		c-0.4-0.2-0.5-0.4-0.5-0.5c0-0.3,0.2-0.3,0.3-0.3c0.4,0,0.6,0.3,0.7,0.6c0.1,0.1,0.1,0.2,0.2,0.2c0.1,0,0.1,0,0.2-0.1
		c0.1-0.1,0.1-0.2,0.1-0.2c0,0-0.1-0.5-0.1-0.5c0,0,0-0.1,0-0.1c0-0.1,0-0.3-0.2-0.3l-0.2,0c0,0-0.1,0-0.1,0c0,0-0.1,0-0.1,0
		C56.5,24,56.4,23.9,56.1,23.9 M40.7,23.9c-0.6,0-1,0.4-1,1c0,0.6,0.4,0.7,0.7,0.9l0.3,0.1c0.5,0.2,0.6,0.4,0.6,0.6
		c0,0.3-0.3,0.4-0.5,0.4c-0.4,0-0.7-0.3-0.8-0.7c0-0.1-0.1-0.2-0.2-0.2c-0.1,0-0.1,0-0.2,0.1c-0.1,0.1,0,0.2,0,0.3l0.1,0.5
		c0,0,0,0,0,0c0,0.1,0.1,0.2,0.2,0.3c0,0,0.2,0.1,0.2,0.1c0.2,0.1,0.3,0.1,0.5,0.1c0.7,0,1.2-0.5,1.2-1.1c0-0.7-0.4-0.8-0.9-1
		l-0.2-0.1c-0.4-0.2-0.5-0.4-0.5-0.5c0-0.3,0.2-0.3,0.3-0.3c0.4,0,0.6,0.3,0.7,0.6c0.1,0.1,0.1,0.2,0.2,0.2c0.1,0,0.1,0,0.2-0.1
		c0.1-0.1,0.1-0.2,0.1-0.2c0,0,0-0.5,0-0.5c0,0,0-0.1,0-0.1c0-0.1,0-0.3-0.2-0.3l-0.2,0c0,0-0.1,0-0.1,0c0,0-0.1,0-0.1,0
		C41.1,24,40.9,23.9,40.7,23.9 M33.1,24.6c0-0.2,0-0.3,0.2-0.4c0.1,0,0.2-0.1,0.2-0.2c0-0.1-0.1-0.2-0.3-0.2c-0.1,0-0.2,0-0.4,0
		c-0.2,0-0.4,0-0.5,0c-0.1,0-0.3,0-0.3,0.2c0,0.1,0.2,0.2,0.3,0.2c0.3,0,0.3,0.2,0.3,0.6V26c0,0-1.7-1.9-1.8-2
		c-0.1-0.1-0.1-0.2-0.3-0.2c-0.1,0-0.3,0-0.4,0c-0.1,0-0.3,0-0.4,0c-0.1,0-0.2,0.1-0.2,0.2c0,0.2,0.2,0.2,0.2,0.2
		c0.1,0,0.3,0.2,0.3,0.6v1.7c0,0.2,0,0.3-0.2,0.4c-0.1,0-0.2,0.1-0.2,0.2c0,0.1,0.1,0.2,0.3,0.2c0.1,0,0.2,0,0.4,0
		c0.2,0,0.4,0,0.5,0c0.1,0,0.3,0,0.3-0.2c0-0.1-0.2-0.2-0.3-0.2c-0.3,0-0.3-0.2-0.3-0.6v-1.4c0,0,2.1,2.2,2.1,2.3
		c0.1,0.1,0.1,0.1,0.2,0.1c0.2,0,0.2-0.2,0.2-0.3V24.6z M28.8,24.6c0-0.2,0-0.3,0.2-0.4c0.1,0,0.2-0.1,0.2-0.2
		c0-0.1-0.1-0.2-0.3-0.2c-0.1,0-0.2,0-0.4,0c-0.2,0-0.4,0-0.5,0c-0.1,0-0.3,0-0.3,0.2c0,0.1,0.2,0.2,0.3,0.2c0.3,0,0.3,0.2,0.3,0.6
		V26c0,0-1.7-1.9-1.8-2c-0.1-0.1-0.1-0.2-0.3-0.2c-0.1,0-0.3,0-0.4,0c-0.1,0-0.3,0-0.4,0c-0.1,0-0.2,0.1-0.2,0.2
		c0,0.2,0.2,0.2,0.2,0.2c0.1,0,0.3,0.2,0.3,0.6v1.7c0,0.2,0,0.3-0.2,0.4c-0.1,0-0.2,0.1-0.2,0.2c0,0.1,0.1,0.2,0.3,0.2
		c0.1,0,0.2,0,0.4,0c0.2,0,0.4,0,0.5,0c0.1,0,0.3,0,0.3-0.2c0-0.1-0.2-0.2-0.3-0.2c-0.3,0-0.3-0.2-0.3-0.6v-1.4c0,0,2,2.2,2.1,2.3
		c0.1,0.1,0.1,0.1,0.2,0.1c0.2,0,0.2-0.2,0.2-0.3V24.6z M47.5,26.7v-2.2c0-0.2,0.1-0.2,0.2-0.2c0.1,0,0.2-0.1,0.2-0.2
		c0-0.1-0.1-0.2-0.3-0.2c-0.2,0-0.3,0-0.6,0c-0.2,0-0.5,0-0.6,0c-0.1,0-0.3,0-0.3,0.2c0,0.1,0.2,0.2,0.3,0.2c0.1,0,0.3,0.1,0.3,0.2
		v2.2c0,0.2-0.1,0.3-0.2,0.3c-0.1,0-0.2,0.1-0.2,0.2c0,0.1,0.1,0.2,0.3,0.2c0.2,0,0.3,0,0.6,0c0.2,0,0.5,0,0.6,0
		c0.1,0,0.3,0,0.3-0.2c0-0.1-0.2-0.2-0.3-0.2C47.6,27,47.5,27,47.5,26.7 M24.4,26.7c0,0.2,0.2,0.3,0.3,0.3c0.1,0,0.3,0,0.3,0.2
		c0,0.2-0.1,0.2-0.3,0.2c-0.1,0-0.3,0-0.6,0c-0.3,0-0.4,0-0.6,0c-0.2,0-0.3,0-0.3-0.2c0-0.1,0.1-0.2,0.2-0.2c0.1,0,0.2-0.1,0.2-0.3
		v-2.2c0-0.1-0.2-0.2-0.3-0.2c-0.1,0-0.3,0-0.3-0.2c0-0.1,0.1-0.2,0.3-0.2c0.1,0,0.3,0,0.6,0c0.3,0,0.4,0,0.6,0c0.2,0,0.3,0,0.3,0.2
		c0,0.1-0.1,0.2-0.2,0.2c-0.1,0-0.2,0-0.2,0.2V26.7z"/>
	<path class="st0" d="M58.9,24.4h-0.1v0.3h0.1c0.1,0,0.2,0,0.2-0.2C59.1,24.4,58.9,24.4,58.9,24.4 M59.2,25.2
		C59.1,25.2,59.1,25.2,59.2,25.2l-0.4-0.4h-0.1v0.4h-0.1v-0.9h0.3c0.2,0,0.3,0.2,0.3,0.2c0,0.1-0.1,0.2-0.3,0.2L59.2,25.2
		C59.2,25.2,59.3,25.2,59.2,25.2L59.2,25.2z M58.9,23.9c-0.5,0-0.9,0.4-0.9,0.9c0,0.5,0.4,0.9,0.9,0.9c0.5,0,0.9-0.4,0.9-0.9
		C59.7,24.3,59.4,23.9,58.9,23.9 M58.9,25.7c-0.5,0-1-0.4-1-1c0-0.5,0.4-1,1-1c0.5,0,1,0.4,1,1C59.8,25.3,59.4,25.7,58.9,25.7"/>
</g>
</svg>
