<?xml version="1.0" encoding="utf-8"?>
<!-- Generator: Adobe Illustrator 19.2.1, SVG Export Plug-In . SVG Version: 6.00 Build 0)  -->
<svg version="1.1" id="Layer_1" xmlns="http://www.w3.org/2000/svg" xmlns:xlink="http://www.w3.org/1999/xlink" x="0px" y="0px"
	 viewBox="0 0 80 40" style="enable-background:new 0 0 80 40;" xml:space="preserve">
<style type="text/css">
	.st0{fill:#FFFFFF;}
</style>
<g>
	<polygon class="st0" points="60.6,23.8 60.6,19.6 65,24 65,17.5 64.1,17.6 64.1,21.8 59.7,17.4 59.8,23.8 	"/>
	<rect x="44.9" y="17.5" class="st0" width="1" height="6.3"/>
	<rect x="53" y="17.5" class="st0" width="1" height="6.3"/>
	<polygon class="st0" points="38.9,17.5 35.4,17.5 35.4,23.8 39.1,23.8 39.1,23 36.4,23 36.4,21 38.8,21 38.8,20.2 36.4,20.2 
		36.4,18.3 38.9,18.3 	"/>
	<polygon class="st0" points="58.8,17.5 55.2,17.5 55.2,23.8 58.9,23.8 58.9,23 56.2,23 56.2,21 58.6,21 58.6,20.2 56.2,20.2 
		56.2,18.3 58.8,18.3 	"/>
	<polygon class="st0" points="28.5,23.8 28.9,20 31,23.8 33.2,20.1 33.6,23.8 34.5,23.8 33.7,17.4 31,22.1 28.4,17.4 27.5,23.8 	"/>
	<path class="st0" d="M42.4,21.1c0.2-0.1,0.5-0.2,0.7-0.6c0.3-0.3,0.4-0.7,0.4-1.2c0-0.6-0.2-1-0.6-1.4c-0.4-0.3-1-0.4-1.8-0.4h-1.1
		v6.3h0.9v-2.5h0.5l1.7,2.5h1.1L42.4,21.1z M41.2,20.6h-0.3v-2.3h0.3c0.9,0,1.3,0.4,1.3,1.1C42.5,20.2,42.1,20.6,41.2,20.6"/>
	<path class="st0" d="M50.9,18.4c-0.3-0.3-0.7-0.5-1.1-0.6c-0.4-0.1-0.9-0.2-1.5-0.2H47v6.3h1.3c0.6,0,1.1-0.1,1.5-0.2
		c0.4-0.1,0.8-0.3,1.1-0.6c0.7-0.6,1-1.4,1-2.4C51.9,19.7,51.5,18.9,50.9,18.4 M50.2,22.3c-0.2,0.2-0.5,0.4-0.8,0.5
		c-0.3,0.1-0.6,0.1-1.1,0.1H48v-4.5h0.4c0.8,0,1.4,0.2,1.8,0.6c0.5,0.4,0.7,1,0.7,1.7C51,21.4,50.7,21.9,50.2,22.3"/>
	<path class="st0" d="M19.1,23.2l-0.2,0.1c-0.3,0.2-0.9,0.4-1.4,0.4c-0.1,0-0.1,0-0.2,0c-0.1,0-0.6-0.1-0.6-0.3
		c0-0.3,0.3-0.4,0.5-0.5c0.1,0,0.2,0,0.3,0C18.2,22.9,18.9,23.1,19.1,23.2 M21.4,20.8c0,0,0.2-0.5,0.3-0.7c0.5-0.9,1-1.8,1.8-2.5
		c0.2-0.2,0.5-0.3,0.8-0.3c0.2,0,0.3,0.1,0.4,0.1c0.1,0.1,0.1,0.3,0.1,0.6c-0.3,1.2-1.9,2.5-3.2,2.7L21.4,20.8z M25.4,21.1
		c0.1,0,0.2,0.1,0.2,0.1c0,0.1,0.1,0.2-0.2,0.5c-0.1,0.1-0.6,0.5-1.1,0.6c-0.1,0-0.2,0.1-0.3,0.1c0.4-0.7,0.8-1.1,1.2-1.3
		C25.3,21.1,25.3,21.1,25.4,21.1 M25.9,22.7C25.9,22.7,25.9,22.7,25.9,22.7l-0.1,0l0,0c-0.2,0.3-0.9,1.1-1.6,1.1c-0.1,0-0.2,0-0.2,0
		c-0.1-0.1-0.2-0.1-0.2-0.3c-0.1-0.3,0.1-0.6,0.2-0.9c0.4,0,1.2-0.3,1.6-0.7c0.2-0.2,0.3-0.4,0.3-0.6c0-0.2-0.2-0.3-0.5-0.3
		c-0.1,0-0.3,0-0.4,0.1c-0.8,0.2-1.4,1.2-1.6,1.4c-0.2,0.4-0.5,0.6-0.9,0.7c-0.4,0.1-0.7,0.2-1.2,0.2c-0.2,0-0.4,0-0.6-0.1
		c-0.3-0.1-0.5-0.1-1-0.2c0,0-0.1,0-0.1,0c0.6-0.4,0.9-1,1.3-1.6c0.1-0.2,0.2-0.3,0.3-0.4c0.9-0.1,2.6-0.6,3.5-2.3
		c0.2-0.3,0.3-0.8,0.2-1.2c-0.1-0.2-0.3-0.3-0.5-0.4c-0.1,0-0.1,0-0.2,0c-0.4,0-0.7,0.2-1.1,0.4c-1.2,0.9-1.9,2.1-2.5,3.3
		c-0.1,0-0.2,0-0.3,0c-0.2,0-0.4,0-0.5,0c-0.1,0-0.5-0.1-1.1-0.5c-0.5-0.3-0.9-1-0.9-1.9c0-0.1,0-0.2,0.1-0.4c0,0,0,0,0,0l-0.2,0.1
		c-0.2,0.5-0.1,1.2,0.2,1.7c0.3,0.5,0.6,0.8,1.3,1c0.2,0.1,0.4,0.2,1.2,0.2l0.1,0l-0.1,0.3c-0.2,0.3-0.3,0.7-0.6,1.1l-0.1,0.1
		c-0.1,0.2-0.2,0.3-0.4,0.5c-0.6-0.2-1.1-0.2-1.6-0.2c-0.3,0-0.6,0-0.8,0.1c0,0-0.4,0.1-0.4,0.5c0,0.4,0.7,0.6,0.7,0.6
		c0.1,0,0.2,0,0.4,0c0.5,0,1.1-0.2,1.7-0.6c0.2,0.1,0.4,0.1,0.6,0.2c0.5,0.2,1,0.4,1.5,0.4c0.1,0,0.2,0,0.2,0c0.2,0,0.4-0.1,0.7-0.2
		c0.1-0.1,0.2-0.1,0.4-0.2c0.2-0.1,0.4-0.4,0.6-0.6c0-0.1,0.1-0.1,0.1-0.1c-0.1,0.3-0.1,0.5,0,0.6c0.1,0.2,0.2,0.4,0.5,0.4
		c0.1,0,0.2,0,0.3,0c0.6,0,1.2-0.5,1.5-0.9C25.7,22.9,25.8,22.8,25.9,22.7"/>
</g>
</svg>
