<?xml version="1.0" encoding="utf-8"?>
<!-- Generator: Adobe Illustrator 19.2.1, SVG Export Plug-In . SVG Version: 6.00 Build 0)  -->
<svg version="1.1" id="Layer_1" xmlns="http://www.w3.org/2000/svg" xmlns:xlink="http://www.w3.org/1999/xlink" x="0px" y="0px"
	 viewBox="0 0 80 40" style="enable-background:new 0 0 80 40;" xml:space="preserve">
<style type="text/css">
	.st0{fill:#FFFFFF;}
</style>
<g>
	<path class="st0" d="M55,20.7v-0.6c-0.6-0.1-1-0.1-1.5-0.1V19c-0.3,0-0.4-0.1-0.7-0.1v1c-0.4,0-0.2,0-0.8-0.1v0.7
		c0.5,0,0.3,0,0.8,0.1V24c0,1.3,1.5,1.5,1.6,1.5v-0.6c-0.3,0-0.9-0.2-0.9-0.9v-3.5C53.9,20.6,54.4,20.6,55,20.7"/>
	<path class="st0" d="M36.9,25.5v-10c0.3,0,0.4,0.1,0.7,0.1v9.9H36.9z"/>
	<path class="st0" d="M44.2,25.5c-1.1,0-1.7,0-2.9,0c-1.2,0-1.8-0.6-1.8-1.9v-3.3c0-1.3,0.6-1.9,1.8-1.8c1.1,0.1,1.7,0.2,2.9,0.3
		c1.2,0.1,1.8,0.8,1.8,2v3.1C45.9,25,45.3,25.6,44.2,25.5 M45.2,20.8c0-0.8-0.4-1.2-1.2-1.3c-1.1-0.1-1.6-0.1-2.6-0.2
		c-0.8-0.1-1.2,0.2-1.2,1.2v3.1c0,0.9,0.5,1.2,1.2,1.2c1.1,0,1.6,0,2.6,0c0.7,0,1.2-0.3,1.2-1.1V20.8z"/>
	<path class="st0" d="M53.4,16.6c-0.4-0.1-0.8-0.1-1.3,0c-0.7,0.1-2.1,0.4-3,0.7c-0.2,0.1-0.2,0.1-0.4,0.1c-0.8,0.3-1.5,0.5-1.5,1.6
		v6.5h0.7v-5.4c1.1,0.1,1.6,0.1,2.8,0.2v-0.7c-1.2-0.1-1.8-0.2-2.8-0.3v-0.3c0-0.7,0.2-0.8,1-1c0.2-0.1,0.2-0.1,0.4-0.1
		c0.9-0.3,2.3-0.6,2.9-0.8c0.4-0.1,0.6,0,1.1,0c0.1,0,0.2,0,0.3,0v-0.6C53.6,16.6,53.5,16.6,53.4,16.6"/>
	<path class="st0" d="M33.6,22.5c-1.3,0.1-2.6,0.2-3.9,0.4c-0.6,0.1-1,0.5-1,1.1c0,0.3,0,0,0,0.3c0,0.5,0.4,0.9,1,0.9h3
		c0.8,0,1-0.6,1-1.2C33.6,23.3,33.6,23.1,33.6,22.5"/>
	<path class="st0" d="M27.9,24.5v-0.7c0-0.9,0.6-1.6,1.6-1.7c1.4-0.2,4.1-0.5,4.1-0.5v-0.8c0-0.7-0.4-1.1-1.1-1
		c-1.3,0.2-2.4,0.4-3.7,0.6c0-0.3,0-0.4,0-0.8c1.3-0.2,2.1-0.4,3.3-0.6c1.9-0.4,2.3,0.3,2.3,1.6c0,1,0,1.5,0,2.6v0.5
		c0,0.9,0.4,1.2,0.6,1.3c0.1-0.2,0.1-0.4,0.1-0.6v-7.7c0-1.3-0.9-0.9-1.8-0.7c-0.8,0.2-5.1,1.3-6.4,1.6c-1.4,0.3-1.4,0.8-1.4,1.6
		v4.9c0,1.2,0.4,1.4,1.4,1.4h1.5C28.1,25.3,27.9,25,27.9,24.5"/>
</g>
</svg>
