<?xml version="1.0" encoding="utf-8"?>
<!-- Generator: Adobe Illustrator 19.2.1, SVG Export Plug-In . SVG Version: 6.00 Build 0)  -->
<svg version="1.1" id="Layer_1" xmlns="http://www.w3.org/2000/svg" xmlns:xlink="http://www.w3.org/1999/xlink" x="0px" y="0px"
	 viewBox="0 0 80 40" style="enable-background:new 0 0 80 40;" xml:space="preserve">
<style type="text/css">
	.st0{fill:#FFFFFF;}
</style>
<g>
	<path class="st0" d="M27.6,23.3c0,0.3-0.3,0.6-0.7,0.6h-0.6v-1.1h0.7C27.4,22.7,27.6,22.9,27.6,23.3L27.6,23.3z M27,22.4h-1V25h0.3
		v-0.9h0.6c0.5,0,1-0.3,1-0.8v0C27.9,22.7,27.6,22.4,27,22.4"/>
	<path class="st0" d="M31.7,23.7c0,0.6-0.4,1.1-1,1.1c-0.6,0-1-0.5-1-1.1v0c0-0.6,0.4-1.1,1-1.1C31.3,22.7,31.7,23.1,31.7,23.7
		L31.7,23.7z M30.7,22.4c-0.8,0-1.3,0.6-1.3,1.3v0c0,0.7,0.5,1.3,1.3,1.3c0.8,0,1.3-0.6,1.3-1.3v0C32,23,31.5,22.4,30.7,22.4"/>
	<path class="st0" d="M33.9,23.7v-1h0.8c0.4,0,0.7,0.2,0.7,0.5v0c0,0.3-0.3,0.5-0.7,0.5H33.9z M35.7,23.2L35.7,23.2
		c0-0.2-0.1-0.4-0.2-0.5c-0.2-0.2-0.4-0.3-0.7-0.3h-1.1V25h0.3v-1h0.7l0.7,1h0.4L35,24C35.4,23.9,35.7,23.6,35.7,23.2"/>
	<polygon class="st0" points="37.1,22.7 38,22.7 38,25 38.3,25 38.3,22.7 39.1,22.7 39.1,22.4 37.1,22.4 	"/>
	<polygon class="st0" points="40.7,25 41,25 41,23.9 42.4,23.9 42.4,23.6 41,23.6 41,22.7 42.6,22.7 42.6,22.4 40.7,22.4 	"/>
	<path class="st0" d="M46.3,23.7c0,0.6-0.4,1.1-1,1.1c-0.6,0-1-0.5-1-1.1v0c0-0.6,0.4-1.1,1-1.1C45.9,22.7,46.3,23.1,46.3,23.7
		L46.3,23.7z M45.3,22.4c-0.8,0-1.3,0.6-1.3,1.3v0c0,0.7,0.5,1.3,1.3,1.3c0.8,0,1.3-0.6,1.3-1.3v0C46.6,23,46.1,22.4,45.3,22.4"/>
	<polygon class="st0" points="48.5,22.4 48.3,22.4 48.3,25 50,25 50,24.7 48.5,24.7 	"/>
	<rect x="51.6" y="22.4" class="st0" width="0.3" height="2.6"/>
	<path class="st0" d="M55.9,23.7c0,0.6-0.4,1.1-1,1.1c-0.6,0-1-0.5-1-1.1v0c0-0.6,0.4-1.1,1-1.1C55.4,22.7,55.9,23.1,55.9,23.7
		L55.9,23.7z M54.9,22.4c-0.8,0-1.3,0.6-1.3,1.3v0c0,0.7,0.5,1.3,1.3,1.3c0.8,0,1.3-0.6,1.3-1.3v0C56.2,23,55.6,22.4,54.9,22.4"/>
	<path class="st0" d="M24.5,14.4C24.5,14.4,24.5,14.4,24.5,14.4l-5.1,0c0,0,0,0,0,0l-0.1,1.4c0,0,0,0,0,0.1c0,0,0.1,0,0.1,0
		c0,0,0.1,0,0.1-0.1c0.1-0.4,0.5-1,1.3-1c0,0,0,0,0,0c0.1,0,0.3,0,0.3,0.1c0.1,0,0.1,0.1,0.2,0.2c0,0.1,0.1,0.2,0.1,0.5l0,3.1
		c0,0,0,0,0,0.1c0,0,0,0,0,0.1c0,0,0,0.1,0,0.1c0,0.1,0,0.2-0.1,0.3c-0.1,0.1-0.1,0.2-0.2,0.3c-0.1,0-0.1,0.1-0.2,0.1
		c0,0-0.1,0-0.1,0c0,0-0.1,0-0.1,0c0,0-0.1,0-0.1,0.1c0,0.1,0.1,0.1,0.1,0.1h2.7c0,0,0.1,0,0.1-0.1c0-0.1-0.1-0.1-0.1-0.1
		c-0.6,0-0.8-0.5-0.8-0.7v-0.7v-1.5c0-0.4,0-0.7,0-1.1c0-0.2,0-0.5,0.1-0.6c0.1-0.1,0.3-0.2,0.5-0.2c0.9,0,1.2,0.6,1.3,1
		c0,0,0,0.1,0.1,0.1c0,0,0.1,0,0.1-0.1L24.5,14.4z"/>
	<path class="st0" d="M26.1,14.4L26.1,14.4L26.1,14.4L26.1,14.4z M31.7,19.6L31.7,19.6C31.7,19.6,31.7,19.6,31.7,19.6
		c-0.2-0.1-0.3-0.2-0.5-0.4c-0.2-0.2-0.4-0.5-0.7-1c-0.3-0.4-0.5-0.8-0.7-1c-0.1-0.1-0.2-0.2-0.4-0.3c0.3-0.1,0.5-0.2,0.7-0.3
		c0.3-0.2,0.4-0.5,0.4-0.9c0-0.2,0-0.4-0.1-0.6c-0.1-0.2-0.2-0.3-0.4-0.5c-0.2-0.1-0.4-0.2-0.6-0.3c-0.2-0.1-0.5-0.1-0.8-0.1
		c-0.2,0-0.3,0-0.5,0l-0.5,0c-0.2,0-0.5,0-0.7,0c-0.2,0-0.3,0-0.5,0l-0.2,0h0l0,0c-0.1,0-0.1,0-0.1,0.1c0,0.1,0.1,0.1,0.1,0.1l0,0
		c0,0,0,0,0,0c0.4,0.2,0.4,0.6,0.4,0.9c0,0,0,0.1,0,0.1l0,3.2c0,0.4-0.2,0.6-0.4,0.7c0,0,0,0,0,0c0,0,0,0,0,0c0,0-0.1,0-0.1,0.1
		c0,0.1,0.1,0.1,0.1,0.1l2,0c0.1,0,0.1,0,0.1-0.1s0-0.1-0.1-0.1l0,0c-0.4-0.1-0.4-0.4-0.4-0.7l0-3.4c0-0.2,0-0.4,0.1-0.5
		c0.1-0.2,0.3-0.3,0.6-0.3c0.2,0,0.4,0,0.6,0.1c0.2,0.1,0.3,0.2,0.4,0.4c0.1,0.2,0.1,0.3,0.1,0.5c0,0.2,0,0.4-0.1,0.5
		c0,0.1-0.1,0.2-0.2,0.2c0,0,0,0,0,0c0,0,0,0-0.1,0.1l0,0c-0.1,0-0.2,0.1-0.4,0.1l0,0c-0.4,0-0.4,0.3-0.4,0.4v0c0,0,0,0,0,0
		c0,0,0,0,0,0s0,0,0,0c0.1,0,0.4,0,0.5,0.2c0.2,0.2,0.6,1,0.8,1.4l0,0c0.2,0.4,0.5,1,2.2,1.1c0.1,0,0.1,0,0.1-0.1
		C31.8,19.6,31.8,19.6,31.7,19.6"/>
	<path class="st0" d="M35.6,19.5c-0.6-0.1-0.6-0.6-0.6-1.1v-1.1v-0.7v-1.1c0-0.5,0-1,0.6-1.1c0.1,0,0.1-0.1,0.1-0.1
		c0-0.1-0.1-0.1-0.1-0.1l-2.4,0c-0.1,0-0.1,0-0.1,0.1c0,0,0,0.1,0.1,0.1c0,0,0.1,0,0.1,0c0.1,0,0.1,0.1,0.2,0.1
		c0.1,0.1,0.2,0.2,0.2,0.3c0,0.1,0.1,0.2,0.1,0.4c0,0.1,0,0.2,0,0.2c0,0,0,0.5,0,1.1c0,0.1,0,0.2,0,0.3c0,0.1,0,0.2,0,0.3
		c0,0.6,0,1.1,0,1.1c0,0.1,0,0.2,0,0.2c0,0.1,0,0.2-0.1,0.4c0,0.1-0.1,0.2-0.2,0.3c-0.1,0-0.1,0.1-0.2,0.1c0,0-0.1,0-0.1,0
		c0,0-0.1,0-0.1,0.1c0,0.1,0,0.1,0.1,0.1l2.4,0C35.6,19.7,35.6,19.7,35.6,19.5C35.6,19.6,35.6,19.5,35.6,19.5"/>
	<path class="st0" d="M40.2,19.3c-0.3,0-0.5-0.1-0.7-0.2c-0.1-0.1-0.2-0.3-0.2-0.6v-1.4h0.5c0.3,0,0.6,0,0.7,0.1
		c0.1,0,0.2,0.1,0.3,0.1c0.1,0.1,0.2,0.1,0.2,0.2c0.1,0.1,0.1,0.2,0.1,0.3c0,0.1,0,0.2,0,0.4c0,0.3-0.1,0.6-0.3,0.8
		C40.9,19.2,40.6,19.3,40.2,19.3 M39.4,15.5c0-0.3,0-0.4,0.1-0.5c0.1-0.1,0.1-0.2,0.2-0.2c0.1,0,0.2-0.1,0.4-0.1
		c0.2,0,0.3,0,0.5,0.1c0.1,0.1,0.3,0.2,0.3,0.4c0.1,0.2,0.1,0.3,0.1,0.5c0,0.2,0,0.3-0.1,0.5c-0.1,0.1-0.2,0.3-0.3,0.3
		c-0.2,0.1-0.4,0.2-0.7,0.2h-0.5V15.5z M41.8,17c-0.1-0.1-0.2-0.1-0.4-0.2c0.2-0.1,0.3-0.2,0.4-0.3c0.2-0.2,0.3-0.5,0.3-0.8
		c0-0.2,0-0.4-0.1-0.6c-0.1-0.2-0.2-0.3-0.4-0.4c-0.2-0.1-0.4-0.2-0.6-0.3c-0.2-0.1-0.5-0.1-0.7-0.1c-0.1,0-0.3,0-0.4,0l-0.4,0
		c-0.1,0-0.2,0-0.4,0c-0.2,0-0.3,0-0.5,0c-0.2,0-0.3,0-0.5,0l-0.5,0c-0.1,0-0.1,0.1-0.1,0.1c0,0.1,0.1,0.1,0.2,0.1
		c0.1,0,0.2,0,0.2,0.1c0.1,0.1,0.2,0.2,0.2,0.3c0,0.1,0,0.2,0,0.4c0,0.1,0,0.1,0,0.2c0,0,0,0.1,0,0.1v2.8c0,0,0,0,0,0.1v0.4
		c0,0.2,0,0.3-0.1,0.4c-0.1,0.1-0.2,0.1-0.3,0.2c-0.1,0-0.1,0-0.2,0c0,0-0.1,0.1-0.1,0.1c0,0,0,0.1,0.1,0.1l0.4,0c0.2,0,0.3,0,0.5,0
		c0.2,0,0.4,0,0.6,0c0.1,0,0.4,0,0.8,0.1c0.3,0,0.5,0,0.6,0c0.3,0,0.5,0,0.8-0.1c0.2-0.1,0.4-0.2,0.6-0.3c0.2-0.1,0.3-0.3,0.4-0.5
		c0.1-0.2,0.1-0.4,0.1-0.6c0-0.3-0.1-0.5-0.2-0.8C42.2,17.3,42,17.1,41.8,17"/>
	<path class="st0" d="M61.7,19.7l0.2-1.6c0,0,0,0,0-0.1c0,0,0,0-0.1,0c-0.1,0-0.1,0-0.1,0.1c-0.1,0.4-0.3,0.7-0.5,0.9
		c-0.2,0.2-0.5,0.3-0.9,0.3l-0.3,0c-0.2,0-0.3,0-0.4-0.1c-0.1,0-0.1-0.1-0.2-0.2c0-0.1-0.1-0.3-0.1-0.5V17h0.4c0.2,0,0.4,0,0.6,0.1
		c0.1,0,0.2,0.1,0.3,0.2c0.1,0.1,0.1,0.3,0.2,0.5c0,0.1,0.1,0.1,0.1,0.1c0.1,0,0.1,0,0.1-0.1v-1.9c0-0.1,0-0.1-0.1-0.1
		c-0.1,0-0.1,0-0.1,0.1c-0.1,0.3-0.2,0.5-0.3,0.6c-0.1,0.1-0.4,0.2-0.7,0.2h-0.4v-1.1c0-0.3,0.1-0.4,0.2-0.5
		c0.1-0.1,0.3-0.2,0.6-0.2h0.2c0.4,0,0.7,0.1,0.9,0.3c0.2,0.2,0.4,0.5,0.5,0.9l0,0c0,0,0,0.1,0.1,0.1c0.1,0,0.1-0.1,0.1-0.1
		l-0.2-1.5c0,0,0,0,0,0h-4c-0.1,0-0.1,0.1-0.1,0.1c0,0.1,0.1,0.1,0.2,0.1c0.1,0,0.1,0,0.2,0.1c0.1,0.1,0.2,0.1,0.2,0.3
		c0,0.2,0.1,0.3,0.1,0.5c0,0.1,0,0.1,0,0.2c0,0,0,0.1,0,0.1v2.8c0,0.2,0,0.4,0,0.5c0,0.1-0.1,0.3-0.1,0.4c-0.1,0.1-0.2,0.1-0.2,0.2
		c-0.1,0-0.1,0-0.1,0.1c0,0,0,0.1,0.1,0.1c0,0,0,0,0,0L61.7,19.7C61.7,19.7,61.7,19.7,61.7,19.7C61.7,19.7,61.7,19.7,61.7,19.7
		L61.7,19.7z"/>
	<path class="st0" d="M49.2,14.4h-1.7c0,0-0.1,0-0.1,0.1c0,0.1,0.1,0.1,0.1,0.1c0.6,0,0.8,0.5,0.8,1.3v1.7c0,0.4,0,0.7-0.1,0.9
		c-0.1,0.3-0.3,0.5-0.5,0.6c-0.2,0.1-0.5,0.2-0.8,0.2c-0.2,0-0.4,0-0.6-0.1c-0.2-0.1-0.3-0.2-0.5-0.3c-0.2-0.2-0.3-0.6-0.3-1.1v-2.2
		l0,0l0,0c0,0,0-0.2,0-0.2c0-0.1,0-0.1,0-0.2c0-0.1,0-0.2,0.1-0.3c0.1-0.1,0.2-0.2,0.3-0.2c0.1,0,0.2,0,0.3,0c0.1,0,0.1-0.1,0.1-0.1
		c0,0,0-0.1-0.1-0.1h-2.4c-0.1,0-0.1,0.1-0.1,0.1c0,0.1,0,0.1,0.1,0.1c0.1,0,0.3,0,0.4,0.2c0.1,0.1,0.1,0.2,0.1,0.4
		c0,0.1,0,0.3,0,0.4c0,0,0,0.1,0,0.1v1.8c0,0.6,0.1,1,0.2,1.3c0.1,0.2,0.3,0.4,0.5,0.6c0.2,0.2,0.4,0.3,0.7,0.4
		c0.2,0.1,0.5,0.1,0.8,0.1c0.3,0,0.5,0,0.8-0.1c0.2-0.1,0.5-0.2,0.6-0.3c0.2-0.1,0.3-0.3,0.5-0.5c0.1-0.2,0.2-0.3,0.2-0.5
		c0-0.2,0.1-0.4,0.1-0.8v-1.8c0-0.6,0-1.2,0.6-1.2C49.2,14.5,49.2,14.5,49.2,14.4C49.2,14.4,49.2,14.4,49.2,14.4"/>
	<path class="st0" d="M56,14.4C56,14.4,56,14.4,56,14.4l-5.1,0c0,0,0,0,0,0l-0.1,1.4c0,0,0,0,0,0.1c0,0,0.1,0,0.1,0
		c0,0,0.1,0,0.1-0.1c0.1-0.4,0.5-1,1.3-1c0,0,0,0,0,0c0.1,0,0.3,0,0.3,0.1c0.1,0,0.1,0.1,0.2,0.2c0,0.1,0.1,0.2,0.1,0.5l0,3.1
		c0,0,0,0,0,0.1c0,0,0,0,0,0.1c0,0,0,0.1,0,0.1c0,0.1,0,0.2-0.1,0.3c-0.1,0.1-0.1,0.2-0.2,0.3c-0.1,0-0.1,0.1-0.2,0.1
		c0,0-0.1,0-0.1,0c0,0-0.1,0-0.1,0c0,0-0.1,0-0.1,0.1c0,0.1,0.1,0.1,0.1,0.1h2.7c0,0,0.1,0,0.1-0.1c0-0.1-0.1-0.1-0.1-0.1
		c-0.6,0-0.8-0.5-0.8-0.7v-0.7v-1.5c0-0.4,0-0.7,0-1.1c0-0.2,0-0.5,0.1-0.6c0.1-0.1,0.3-0.2,0.5-0.2c0.9,0,1.2,0.6,1.3,1
		c0,0,0,0.1,0.1,0.1c0,0,0.1,0,0.1-0.1L56,14.4z"/>
</g>
</svg>
