<svg id="menu_collapsed" data-name="menu collapsed" xmlns="http://www.w3.org/2000/svg" viewBox="0 0 171 33.03"><defs><style>.cls-1,.cls-2{fill:#fff;}.cls-1{fill-rule:evenodd;}</style></defs><title>logo</title><g id="header_copy" data-name="header copy"><path class="cls-1" d="M62.78,9.22a12.82,12.82,0,0,1-2.17-.28L56.91,15a8.26,8.26,0,0,0,4.68,1.51c4.07,0,6.75-4,11.77-15.39l6,12.81h8L83.62,5.3l2.14-4.47,5.9,13.1h7.69L85.93-15.7l-6.18,3.09,4.85,11L82.45,2.71,73.58-16.46l-6.49,3.34L72.46-1.59,70.38,2.68c-1.44,2.94-4.51,6.54-7.6,6.54" transform="translate(-22.65 16.51)"/><path class="cls-1" d="M106.46,6.49a3.27,3.27,0,0,1-2.16.76c-1.28,0-2-1.32-2-3a7,7,0,0,1,.77-3.16,4.39,4.39,0,0,1,3.18-2.51c0.76,0,1.06.27,1.17,1.24,0.06,0.64.08,1.2,0.08,2.56,0,2.78-.1,3.45-1.06,4.16M113.3,8V-4a6.58,6.58,0,0,0-1.2-4.18c-0.75-.93-1.94-2-5.1-2A13.42,13.42,0,0,0,101.25-9,3,3,0,0,0,99.8-7.22a16,16,0,0,0-.93,3.73,11.87,11.87,0,0,1,5.61-3.23c1.83-.27,3.07.11,3.07,1.08A1.82,1.82,0,0,1,106.2-4.1a54,54,0,0,0-5.77,2.49C98.59-.51,97,1.23,97.14,4.81,97.3,8.56,99.92,11,102.25,11s3.84-1.14,5.46-2.55a4.58,4.58,0,0,0,1.14,2.3h5.5A4.93,4.93,0,0,1,113.3,8" transform="translate(-22.65 16.51)"/><path class="cls-1" d="M138.24-9.88a4.07,4.07,0,0,1,3.3,1.47L139.1-4.67a3.2,3.2,0,0,0-4.1-.07v11c0,1.9.29,3.63,1.28,4.53h-5.49a4.49,4.49,0,0,1-1.6-3.5V-7.35a3.45,3.45,0,0,0-.72-2.38h5.71a3.07,3.07,0,0,1,.71,1.35,5.09,5.09,0,0,1,3.35-1.5" transform="translate(-22.65 16.51)"/><path class="cls-1" d="M148.63-5.58V6.22c0,1.9.33,3.63,1.3,4.53h-5.49a4.47,4.47,0,0,1-1.6-3.5V-7.36a3.44,3.44,0,0,0-.73-2.37h5.61c0.72,1,.9,2.16.9,4.15" transform="translate(-22.65 16.51)"/><path class="cls-1" d="M124.69-9.88A4.09,4.09,0,0,1,128-8.41l-2.42,3.74a3.23,3.23,0,0,0-4.12-.07v11c0,1.9.32,3.64,1.3,4.53h-5.49a4.49,4.49,0,0,1-1.6-3.5V-7.36a3.46,3.46,0,0,0-.73-2.38h5.71a3.2,3.2,0,0,1,.73,1.35,5,5,0,0,1,3.34-1.5" transform="translate(-22.65 16.51)"/><path class="cls-1" d="M174.64-8.14V6.22c0,1.9.32,3.63,1.31,4.53h-5.6a4.49,4.49,0,0,1-1.59-3.5V-8.14h-3.23l0.71-1.9h2.53v-4.28l5.88-2.19V-10h2.85l-0.71,1.9h-2.15Z" transform="translate(-22.65 16.51)"/><path class="cls-1" d="M187-8.14V6.22c0,1.9.31,3.63,1.3,4.53h-5.61a4.52,4.52,0,0,1-1.58-3.5V-8.14h-3.25l0.72-1.9h2.53v-4.28L187-16.51V-10h2.86l-0.73,1.9H187Z" transform="translate(-22.65 16.51)"/><path class="cls-2" d="M191.23,8.6V8h0.44C192,8,192,8.09,192,8.27s-0.08.32-.43,0.33h-0.39ZM191.54,9a0.47,0.47,0,0,1,.34.1,0.91,0.91,0,0,1,.13.5c0,0.14.05,0.29,0.08,0.42h0.47a3.22,3.22,0,0,1-.14-0.68,0.43,0.43,0,0,0-.4-0.46h0a0.54,0.54,0,0,0,.48-0.55,0.71,0.71,0,0,0-.88-0.65h-0.76V10h0.37V9h0.31Zm0.12,1.87a2,2,0,1,0-2-2,2,2,0,0,0,2,2m0-.35a1.64,1.64,0,1,1,1.64-1.65,1.65,1.65,0,0,1-1.64,1.65" transform="translate(-22.65 16.51)"/><path class="cls-2" d="M31.75-5.19c0.61,1.67,2,3.41,1,5.35A5.46,5.46,0,0,1,28.45,4a7.41,7.41,0,0,1-5.53-1.41,13.72,13.72,0,0,1,5.72-14.1l3.11,6.28h0Z" transform="translate(-22.65 16.51)"/><path class="cls-2" d="M39.68,12.15c-1,3.44-11.2,1.18-14.39-4.47,4.19,0.47,8.91-3.24,9-7.47l5.4,11.94h0Z" transform="translate(-22.65 16.51)"/><path class="cls-2" d="M43.85,11.7A2.62,2.62,0,0,0,45.48,10L34.54-13.7a2.53,2.53,0,0,0-2.19.51l11.5,24.9h0Z" transform="translate(-22.65 16.51)"/><path class="cls-2" d="M48.77,6.55c4.66-7,.73-18.62-9.3-20.24l9.3,20.24h0Z" transform="translate(-22.65 16.51)"/><path class="cls-1" d="M160.25,6.74a1.88,1.88,0,0,1-1.67,1.19c-0.7,0-1.48-.78-1.94-2.28-0.52-1.74-.46-6.3-0.38-7.51A9.73,9.73,0,0,1,157.1-6a1.74,1.74,0,0,1,2-1c1,0.29,1.93,1.78,2.13,6.09,0.2,4.75-.44,6.68-1,7.66m5.72-12a12.35,12.35,0,0,0-4.78-4.43c-1.56-.83-2.48-0.81-5.87.8a10.23,10.23,0,0,0-4,3.14,6.87,6.87,0,0,0-.7,2.78,45.38,45.38,0,0,0,0,6.77c0.33,4.58,4.87,6.66,6.52,7.2,2.91,0.94,6.25-2.13,7.13-3,1.64-1.62,2.34-2.71,2.56-4.63a34.22,34.22,0,0,0,.08-3.47c0-1.79-.23-4-0.89-5.17" transform="translate(-22.65 16.51)"/></g></svg>
